<?xml version="1.0" encoding="UTF-8" standalone="no"?>
<!DOCTYPE svg PUBLIC "-//W3C//DTD SVG 1.1//EN"
 "http://www.w3.org/Graphics/SVG/1.1/DTD/svg11.dtd">
<!-- Generated by graphviz version 2.47.0 (20210316.0004)
 -->
<!-- Title: dbml Pages: 1 -->
<svg width="1614pt" height="3268pt"
 viewBox="0.00 0.00 1613.78 3268.04" xmlns="http://www.w3.org/2000/svg" xmlns:xlink="http://www.w3.org/1999/xlink">
<g id="graph0" class="graph" transform="scale(1 1) rotate(0) translate(4 3264.04)">
<title>dbml</title>
<!-- users -->
<g id="users" class="node">
<title>users</title>
<ellipse fill="none" stroke="black" stroke-width="0" cx="1213.33" cy="-1897.5" rx="392.39" ry="214.92"/>
<polygon fill="#1d71b8" stroke="transparent" points="938.33,-1987.5 938.33,-2047.5 1489.33,-2047.5 1489.33,-1987.5 938.33,-1987.5"/>
<polygon fill="none" stroke="#29235c" points="938.33,-1987.5 938.33,-2047.5 1489.33,-2047.5 1489.33,-1987.5 938.33,-1987.5"/>
<text text-anchor="start" x="1112.47" y="-2008.7" font-family="Helvetica,sans-Serif" font-weight="bold" font-size="32.00" fill="#ffffff"> &#160;&#160;&#160;&#160;&#160;&#160;users &#160;&#160;&#160;&#160;&#160;&#160;</text>
<polygon fill="#e7e2dd" stroke="transparent" points="938.33,-1927.5 938.33,-1987.5 1489.33,-1987.5 1489.33,-1927.5 938.33,-1927.5"/>
<polygon fill="none" stroke="#29235c" points="938.33,-1927.5 938.33,-1987.5 1489.33,-1987.5 1489.33,-1927.5 938.33,-1927.5"/>
<text text-anchor="start" x="949.33" y="-1948.7" font-family="Helvetica,sans-Serif" font-weight="bold" font-size="32.00" fill="#29235c">id</text>
<text text-anchor="start" x="974.22" y="-1948.7" font-family="Helvetica,sans-Serif" font-size="32.00" fill="#29235c"> &#160;&#160;&#160;</text>
<text text-anchor="start" x="1426.79" y="-1948.7" font-family="Helvetica,sans-Serif" font-style="italic" font-size="32.00" fill="#29235c">INT</text>
<polygon fill="#e7e2dd" stroke="transparent" points="938.33,-1867.5 938.33,-1927.5 1489.33,-1927.5 1489.33,-1867.5 938.33,-1867.5"/>
<polygon fill="none" stroke="#29235c" points="938.33,-1867.5 938.33,-1927.5 1489.33,-1927.5 1489.33,-1867.5 938.33,-1867.5"/>
<text text-anchor="start" x="949.33" y="-1887.7" font-family="Helvetica,sans-Serif" font-size="32.00" fill="#29235c">username &#160;&#160;&#160;</text>
<text text-anchor="start" x="1208.14" y="-1888.7" font-family="Helvetica,sans-Serif" font-style="italic" font-size="32.00" fill="#29235c">VARCHAR(255)</text>
<text text-anchor="start" x="1439.24" y="-1888.7" font-family="Helvetica,sans-Serif" font-size="32.00" fill="#29235c"> </text>
<text text-anchor="start" x="1448.13" y="-1888.7" font-family="Helvetica,sans-Serif" font-weight="bold" font-size="32.00" fill="#29235c">(!)</text>
<polygon fill="#e7e2dd" stroke="transparent" points="938.33,-1807.5 938.33,-1867.5 1489.33,-1867.5 1489.33,-1807.5 938.33,-1807.5"/>
<polygon fill="none" stroke="#29235c" points="938.33,-1807.5 938.33,-1867.5 1489.33,-1867.5 1489.33,-1807.5 938.33,-1807.5"/>
<text text-anchor="start" x="949.33" y="-1827.7" font-family="Helvetica,sans-Serif" font-size="32.00" fill="#29235c">email &#160;&#160;&#160;</text>
<text text-anchor="start" x="1208.14" y="-1828.7" font-family="Helvetica,sans-Serif" font-style="italic" font-size="32.00" fill="#29235c">VARCHAR(255)</text>
<text text-anchor="start" x="1439.24" y="-1828.7" font-family="Helvetica,sans-Serif" font-size="32.00" fill="#29235c"> </text>
<text text-anchor="start" x="1448.13" y="-1828.7" font-family="Helvetica,sans-Serif" font-weight="bold" font-size="32.00" fill="#29235c">(!)</text>
<polygon fill="#e7e2dd" stroke="transparent" points="938.33,-1747.5 938.33,-1807.5 1489.33,-1807.5 1489.33,-1747.5 938.33,-1747.5"/>
<polygon fill="none" stroke="#29235c" points="938.33,-1747.5 938.33,-1807.5 1489.33,-1807.5 1489.33,-1747.5 938.33,-1747.5"/>
<text text-anchor="start" x="949.02" y="-1767.7" font-family="Helvetica,sans-Serif" font-size="32.00" fill="#29235c">password_hash &#160;&#160;&#160;</text>
<text text-anchor="start" x="1208.24" y="-1768.7" font-family="Helvetica,sans-Serif" font-style="italic" font-size="32.00" fill="#29235c">VARCHAR(255)</text>
<text text-anchor="start" x="1439.34" y="-1768.7" font-family="Helvetica,sans-Serif" font-size="32.00" fill="#29235c"> </text>
<text text-anchor="start" x="1448.23" y="-1768.7" font-family="Helvetica,sans-Serif" font-weight="bold" font-size="32.00" fill="#29235c">(!)</text>
<polygon fill="none" stroke="#29235c" stroke-width="2" points="936.83,-1746.5 936.83,-2048.5 1489.83,-2048.5 1489.83,-1746.5 936.83,-1746.5"/>
</g>
<!-- cves -->
<g id="cves" class="node">
<title>cves</title>
<ellipse fill="none" stroke="black" stroke-width="0" cx="1213.33" cy="-766.5" rx="374.53" ry="766.51"/>
<polygon fill="#1d71b8" stroke="transparent" points="950.33,-1246.5 950.33,-1306.5 1476.33,-1306.5 1476.33,-1246.5 950.33,-1246.5"/>
<polygon fill="none" stroke="#29235c" points="950.33,-1246.5 950.33,-1306.5 1476.33,-1306.5 1476.33,-1246.5 950.33,-1246.5"/>
<text text-anchor="start" x="1118.19" y="-1267.7" font-family="Helvetica,sans-Serif" font-weight="bold" font-size="32.00" fill="#ffffff"> &#160;&#160;&#160;&#160;&#160;&#160;cves &#160;&#160;&#160;&#160;&#160;&#160;</text>
<polygon fill="#e7e2dd" stroke="transparent" points="950.33,-1186.5 950.33,-1246.5 1476.33,-1246.5 1476.33,-1186.5 950.33,-1186.5"/>
<polygon fill="none" stroke="#29235c" points="950.33,-1186.5 950.33,-1246.5 1476.33,-1246.5 1476.33,-1186.5 950.33,-1186.5"/>
<text text-anchor="start" x="961.33" y="-1207.7" font-family="Helvetica,sans-Serif" font-weight="bold" font-size="32.00" fill="#29235c">id</text>
<text text-anchor="start" x="986.22" y="-1207.7" font-family="Helvetica,sans-Serif" font-size="32.00" fill="#29235c"> &#160;&#160;&#160;</text>
<text text-anchor="start" x="1413.79" y="-1207.7" font-family="Helvetica,sans-Serif" font-style="italic" font-size="32.00" fill="#29235c">INT</text>
<polygon fill="#e7e2dd" stroke="transparent" points="950.33,-1126.5 950.33,-1186.5 1476.33,-1186.5 1476.33,-1126.5 950.33,-1126.5"/>
<polygon fill="none" stroke="#29235c" points="950.33,-1126.5 950.33,-1186.5 1476.33,-1186.5 1476.33,-1126.5 950.33,-1126.5"/>
<text text-anchor="start" x="961.33" y="-1146.7" font-family="Helvetica,sans-Serif" font-size="32.00" fill="#29235c">cve_id &#160;&#160;&#160;</text>
<text text-anchor="start" x="1195.14" y="-1147.7" font-family="Helvetica,sans-Serif" font-style="italic" font-size="32.00" fill="#29235c">VARCHAR(100)</text>
<text text-anchor="start" x="1426.24" y="-1147.7" font-family="Helvetica,sans-Serif" font-size="32.00" fill="#29235c"> </text>
<text text-anchor="start" x="1435.13" y="-1147.7" font-family="Helvetica,sans-Serif" font-weight="bold" font-size="32.00" fill="#29235c">(!)</text>
<polygon fill="#e7e2dd" stroke="transparent" points="950.33,-1066.5 950.33,-1126.5 1476.33,-1126.5 1476.33,-1066.5 950.33,-1066.5"/>
<polygon fill="none" stroke="#29235c" points="950.33,-1066.5 950.33,-1126.5 1476.33,-1126.5 1476.33,-1066.5 950.33,-1066.5"/>
<text text-anchor="start" x="961.33" y="-1086.7" font-family="Helvetica,sans-Serif" font-size="32.00" fill="#29235c">description &#160;&#160;&#160;</text>
<text text-anchor="start" x="1383.55" y="-1087.7" font-family="Helvetica,sans-Serif" font-style="italic" font-size="32.00" fill="#29235c">TEXT</text>
<polygon fill="#e7e2dd" stroke="transparent" points="950.33,-1006.5 950.33,-1066.5 1476.33,-1066.5 1476.33,-1006.5 950.33,-1006.5"/>
<polygon fill="none" stroke="#29235c" points="950.33,-1006.5 950.33,-1066.5 1476.33,-1066.5 1476.33,-1006.5 950.33,-1006.5"/>
<text text-anchor="start" x="961.33" y="-1026.7" font-family="Helvetica,sans-Serif" font-size="32.00" fill="#29235c">severity &#160;&#160;&#160;</text>
<text text-anchor="start" x="1252.02" y="-1027.7" font-family="Helvetica,sans-Serif" font-style="italic" font-size="32.00" fill="#29235c">VARCHAR(50)</text>
<polygon fill="#e7e2dd" stroke="transparent" points="950.33,-946.5 950.33,-1006.5 1476.33,-1006.5 1476.33,-946.5 950.33,-946.5"/>
<polygon fill="none" stroke="#29235c" points="950.33,-946.5 950.33,-1006.5 1476.33,-1006.5 1476.33,-946.5 950.33,-946.5"/>
<text text-anchor="start" x="960.89" y="-966.7" font-family="Helvetica,sans-Serif" font-size="32.00" fill="#29235c">affected_product &#160;&#160;&#160;</text>
<text text-anchor="start" x="1234.28" y="-967.7" font-family="Helvetica,sans-Serif" font-style="italic" font-size="32.00" fill="#29235c">VARCHAR(255)</text>
<polygon fill="#e7e2dd" stroke="transparent" points="950.33,-886.5 950.33,-946.5 1476.33,-946.5 1476.33,-886.5 950.33,-886.5"/>
<polygon fill="none" stroke="#29235c" points="950.33,-886.5 950.33,-946.5 1476.33,-946.5 1476.33,-886.5 950.33,-886.5"/>
<text text-anchor="start" x="961.33" y="-906.7" font-family="Helvetica,sans-Serif" font-size="32.00" fill="#29235c">platform &#160;&#160;&#160;</text>
<text text-anchor="start" x="1234.24" y="-907.7" font-family="Helvetica,sans-Serif" font-style="italic" font-size="32.00" fill="#29235c">VARCHAR(255)</text>
<polygon fill="#e7e2dd" stroke="transparent" points="950.33,-826.5 950.33,-886.5 1476.33,-886.5 1476.33,-826.5 950.33,-826.5"/>
<polygon fill="none" stroke="#29235c" points="950.33,-826.5 950.33,-886.5 1476.33,-886.5 1476.33,-826.5 950.33,-826.5"/>
<text text-anchor="start" x="961.33" y="-846.7" font-family="Helvetica,sans-Serif" font-size="32.00" fill="#29235c">published_date &#160;&#160;&#160;</text>
<text text-anchor="start" x="1380" y="-847.7" font-family="Helvetica,sans-Serif" font-style="italic" font-size="32.00" fill="#29235c">DATE</text>
<polygon fill="#e7e2dd" stroke="transparent" points="950.33,-766.5 950.33,-826.5 1476.33,-826.5 1476.33,-766.5 950.33,-766.5"/>
<polygon fill="none" stroke="#29235c" points="950.33,-766.5 950.33,-826.5 1476.33,-826.5 1476.33,-766.5 950.33,-766.5"/>
<text text-anchor="start" x="961.33" y="-786.7" font-family="Helvetica,sans-Serif" font-size="32.00" fill="#29235c">state &#160;&#160;&#160;</text>
<text text-anchor="start" x="1252.02" y="-787.7" font-family="Helvetica,sans-Serif" font-style="italic" font-size="32.00" fill="#29235c">VARCHAR(50)</text>
<polygon fill="#e7e2dd" stroke="transparent" points="950.33,-706.5 950.33,-766.5 1476.33,-766.5 1476.33,-706.5 950.33,-706.5"/>
<polygon fill="none" stroke="#29235c" points="950.33,-706.5 950.33,-766.5 1476.33,-766.5 1476.33,-706.5 950.33,-706.5"/>
<text text-anchor="start" x="961.33" y="-726.7" font-family="Helvetica,sans-Serif" font-size="32.00" fill="#29235c">date_reserved &#160;&#160;&#160;</text>
<text text-anchor="start" x="1380" y="-727.7" font-family="Helvetica,sans-Serif" font-style="italic" font-size="32.00" fill="#29235c">DATE</text>
<polygon fill="#e7e2dd" stroke="transparent" points="950.33,-646.5 950.33,-706.5 1476.33,-706.5 1476.33,-646.5 950.33,-646.5"/>
<polygon fill="none" stroke="#29235c" points="950.33,-646.5 950.33,-706.5 1476.33,-706.5 1476.33,-646.5 950.33,-646.5"/>
<text text-anchor="start" x="961.33" y="-666.7" font-family="Helvetica,sans-Serif" font-size="32.00" fill="#29235c">date_updated &#160;&#160;&#160;</text>
<text text-anchor="start" x="1380" y="-667.7" font-family="Helvetica,sans-Serif" font-style="italic" font-size="32.00" fill="#29235c">DATE</text>
<polygon fill="#e7e2dd" stroke="transparent" points="950.33,-586.5 950.33,-646.5 1476.33,-646.5 1476.33,-586.5 950.33,-586.5"/>
<polygon fill="none" stroke="#29235c" points="950.33,-586.5 950.33,-646.5 1476.33,-646.5 1476.33,-586.5 950.33,-586.5"/>
<text text-anchor="start" x="961.33" y="-606.7" font-family="Helvetica,sans-Serif" font-size="32.00" fill="#29235c">cvss_score &#160;&#160;&#160;</text>
<text text-anchor="start" x="1252.02" y="-607.7" font-family="Helvetica,sans-Serif" font-style="italic" font-size="32.00" fill="#29235c">VARCHAR(10)</text>
<polygon fill="#e7e2dd" stroke="transparent" points="950.33,-526.5 950.33,-586.5 1476.33,-586.5 1476.33,-526.5 950.33,-526.5"/>
<polygon fill="none" stroke="#29235c" points="950.33,-526.5 950.33,-586.5 1476.33,-586.5 1476.33,-526.5 950.33,-526.5"/>
<text text-anchor="start" x="961.33" y="-546.7" font-family="Helvetica,sans-Serif" font-size="32.00" fill="#29235c">cvss_vector &#160;&#160;&#160;</text>
<text text-anchor="start" x="1234.24" y="-547.7" font-family="Helvetica,sans-Serif" font-style="italic" font-size="32.00" fill="#29235c">VARCHAR(255)</text>
<polygon fill="#e7e2dd" stroke="transparent" points="950.33,-466.5 950.33,-526.5 1476.33,-526.5 1476.33,-466.5 950.33,-466.5"/>
<polygon fill="none" stroke="#29235c" points="950.33,-466.5 950.33,-526.5 1476.33,-526.5 1476.33,-466.5 950.33,-466.5"/>
<text text-anchor="start" x="961.33" y="-486.7" font-family="Helvetica,sans-Serif" font-size="32.00" fill="#29235c">capec_description &#160;&#160;&#160;</text>
<text text-anchor="start" x="1383.55" y="-487.7" font-family="Helvetica,sans-Serif" font-style="italic" font-size="32.00" fill="#29235c">TEXT</text>
<polygon fill="#e7e2dd" stroke="transparent" points="950.33,-406.5 950.33,-466.5 1476.33,-466.5 1476.33,-406.5 950.33,-406.5"/>
<polygon fill="none" stroke="#29235c" points="950.33,-406.5 950.33,-466.5 1476.33,-466.5 1476.33,-406.5 950.33,-406.5"/>
<text text-anchor="start" x="961.33" y="-426.7" font-family="Helvetica,sans-Serif" font-size="32.00" fill="#29235c">cwe_description &#160;&#160;&#160;</text>
<text text-anchor="start" x="1383.55" y="-427.7" font-family="Helvetica,sans-Serif" font-style="italic" font-size="32.00" fill="#29235c">TEXT</text>
<polygon fill="#e7e2dd" stroke="transparent" points="950.33,-346.5 950.33,-406.5 1476.33,-406.5 1476.33,-346.5 950.33,-346.5"/>
<polygon fill="none" stroke="#29235c" points="950.33,-346.5 950.33,-406.5 1476.33,-406.5 1476.33,-346.5 950.33,-346.5"/>
<text text-anchor="start" x="961.33" y="-366.7" font-family="Helvetica,sans-Serif" font-size="32.00" fill="#29235c">cve_references &#160;&#160;&#160;</text>
<text text-anchor="start" x="1383.55" y="-367.7" font-family="Helvetica,sans-Serif" font-style="italic" font-size="32.00" fill="#29235c">TEXT</text>
<polygon fill="#e7e2dd" stroke="transparent" points="950.33,-286.5 950.33,-346.5 1476.33,-346.5 1476.33,-286.5 950.33,-286.5"/>
<polygon fill="none" stroke="#29235c" points="950.33,-286.5 950.33,-346.5 1476.33,-346.5 1476.33,-286.5 950.33,-286.5"/>
<text text-anchor="start" x="961.33" y="-306.7" font-family="Helvetica,sans-Serif" font-size="32.00" fill="#29235c">affected_versions &#160;&#160;&#160;</text>
<text text-anchor="start" x="1383.55" y="-307.7" font-family="Helvetica,sans-Serif" font-style="italic" font-size="32.00" fill="#29235c">TEXT</text>
<polygon fill="#e7e2dd" stroke="transparent" points="950.33,-226.5 950.33,-286.5 1476.33,-286.5 1476.33,-226.5 950.33,-226.5"/>
<polygon fill="none" stroke="#29235c" points="950.33,-226.5 950.33,-286.5 1476.33,-286.5 1476.33,-226.5 950.33,-226.5"/>
<text text-anchor="start" x="961.33" y="-246.7" font-family="Helvetica,sans-Serif" font-size="32.00" fill="#29235c">credits &#160;&#160;&#160;</text>
<text text-anchor="start" x="1383.55" y="-247.7" font-family="Helvetica,sans-Serif" font-style="italic" font-size="32.00" fill="#29235c">TEXT</text>
<polygon fill="none" stroke="#29235c" stroke-width="2" points="949.33,-225.5 949.33,-1307.5 1477.33,-1307.5 1477.33,-225.5 949.33,-225.5"/>
</g>
<!-- user_filters -->
<g id="user_filters" class="node">
<title>user_filters</title>
<ellipse fill="none" stroke="black" stroke-width="0" cx="392.44" cy="-2597.5" rx="349.12" ry="299.63"/>
<polygon fill="#1d71b8" stroke="transparent" points="147.44,-2747.5 147.44,-2807.5 637.44,-2807.5 637.44,-2747.5 147.44,-2747.5"/>
<polygon fill="none" stroke="#29235c" points="147.44,-2747.5 147.44,-2807.5 637.44,-2807.5 637.44,-2747.5 147.44,-2747.5"/>
<text text-anchor="start" x="251.97" y="-2768.7" font-family="Helvetica,sans-Serif" font-weight="bold" font-size="32.00" fill="#ffffff"> &#160;&#160;&#160;&#160;&#160;&#160;user_filters &#160;&#160;&#160;&#160;&#160;&#160;</text>
<polygon fill="#e7e2dd" stroke="transparent" points="147.44,-2687.5 147.44,-2747.5 637.44,-2747.5 637.44,-2687.5 147.44,-2687.5"/>
<polygon fill="none" stroke="#29235c" points="147.44,-2687.5 147.44,-2747.5 637.44,-2747.5 637.44,-2687.5 147.44,-2687.5"/>
<text text-anchor="start" x="158.44" y="-2708.7" font-family="Helvetica,sans-Serif" font-weight="bold" font-size="32.00" fill="#29235c">id</text>
<text text-anchor="start" x="183.33" y="-2708.7" font-family="Helvetica,sans-Serif" font-size="32.00" fill="#29235c"> &#160;&#160;&#160;</text>
<text text-anchor="start" x="574.9" y="-2708.7" font-family="Helvetica,sans-Serif" font-style="italic" font-size="32.00" fill="#29235c">INT</text>
<polygon fill="#e7e2dd" stroke="transparent" points="147.44,-2627.5 147.44,-2687.5 637.44,-2687.5 637.44,-2627.5 147.44,-2627.5"/>
<polygon fill="none" stroke="#29235c" points="147.44,-2627.5 147.44,-2687.5 637.44,-2687.5 637.44,-2627.5 147.44,-2627.5"/>
<text text-anchor="start" x="158.44" y="-2647.7" font-family="Helvetica,sans-Serif" font-size="32.00" fill="#29235c">user_id &#160;&#160;&#160;</text>
<text text-anchor="start" x="574.9" y="-2648.7" font-family="Helvetica,sans-Serif" font-style="italic" font-size="32.00" fill="#29235c">INT</text>
<polygon fill="#e7e2dd" stroke="transparent" points="147.44,-2567.5 147.44,-2627.5 637.44,-2627.5 637.44,-2567.5 147.44,-2567.5"/>
<polygon fill="none" stroke="#29235c" points="147.44,-2567.5 147.44,-2627.5 637.44,-2627.5 637.44,-2567.5 147.44,-2567.5"/>
<text text-anchor="start" x="158.44" y="-2587.7" font-family="Helvetica,sans-Serif" font-size="32.00" fill="#29235c">os_filter &#160;&#160;&#160;</text>
<text text-anchor="start" x="395.35" y="-2588.7" font-family="Helvetica,sans-Serif" font-style="italic" font-size="32.00" fill="#29235c">VARCHAR(255)</text>
<polygon fill="#e7e2dd" stroke="transparent" points="147.44,-2507.5 147.44,-2567.5 637.44,-2567.5 637.44,-2507.5 147.44,-2507.5"/>
<polygon fill="none" stroke="#29235c" points="147.44,-2507.5 147.44,-2567.5 637.44,-2567.5 637.44,-2507.5 147.44,-2507.5"/>
<text text-anchor="start" x="158.44" y="-2527.7" font-family="Helvetica,sans-Serif" font-size="32.00" fill="#29235c">severity_filter &#160;&#160;&#160;</text>
<text text-anchor="start" x="413.14" y="-2528.7" font-family="Helvetica,sans-Serif" font-style="italic" font-size="32.00" fill="#29235c">VARCHAR(50)</text>
<polygon fill="#e7e2dd" stroke="transparent" points="147.44,-2447.5 147.44,-2507.5 637.44,-2507.5 637.44,-2447.5 147.44,-2447.5"/>
<polygon fill="none" stroke="#29235c" points="147.44,-2447.5 147.44,-2507.5 637.44,-2507.5 637.44,-2447.5 147.44,-2447.5"/>
<text text-anchor="start" x="158.44" y="-2467.7" font-family="Helvetica,sans-Serif" font-size="32.00" fill="#29235c">product_filters &#160;&#160;&#160;</text>
<text text-anchor="start" x="544.67" y="-2468.7" font-family="Helvetica,sans-Serif" font-style="italic" font-size="32.00" fill="#29235c">TEXT</text>
<polygon fill="#e7e2dd" stroke="transparent" points="147.44,-2387.5 147.44,-2447.5 637.44,-2447.5 637.44,-2387.5 147.44,-2387.5"/>
<polygon fill="none" stroke="#29235c" points="147.44,-2387.5 147.44,-2447.5 637.44,-2447.5 637.44,-2387.5 147.44,-2387.5"/>
<text text-anchor="start" x="158.13" y="-2407.7" font-family="Helvetica,sans-Serif" font-size="32.00" fill="#29235c">include_resolved &#160;&#160;&#160;</text>
<text text-anchor="start" x="433.05" y="-2408.7" font-family="Helvetica,sans-Serif" font-style="italic" font-size="32.00" fill="#29235c">BOOLEAN</text>
<text text-anchor="start" x="587.75" y="-2408.7" font-family="Helvetica,sans-Serif" font-size="32.00" fill="#29235c"> </text>
<text text-anchor="start" x="596.64" y="-2408.7" font-family="Helvetica,sans-Serif" font-weight="bold" font-size="32.00" fill="#29235c">(!)</text>
<polygon fill="none" stroke="#29235c" stroke-width="2" points="146.44,-2386.5 146.44,-2808.5 638.44,-2808.5 638.44,-2386.5 146.44,-2386.5"/>
</g>
<!-- user_filters&#45;&gt;users -->
<!-- user_filters&#45;&gt;users -->
<g id="edge2" class="edge">
<title>user_filters:e&#45;&gt;users:w</title>
<path fill="none" stroke="#29235c" stroke-width="3" d="M638.44,-2657.5C804.12,-2657.5 769.72,-1985.92 927.19,-1958.37"/>
<polygon fill="#29235c" stroke="#29235c" stroke-width="3" points="927.67,-1961.85 937.33,-1957.5 927.07,-1954.87 927.67,-1961.85"/>
<text text-anchor="middle" x="928.44" y="-1967.1" font-family="Helvetica,sans-Serif" font-size="32.00" fill="#29235c">1</text>
<text text-anchor="middle" x="632.22" y="-2667.1" font-family="Helvetica,sans-Serif" font-size="32.00" fill="#29235c">*</text>
</g>
<!-- user_alerts -->
<g id="user_alerts" class="node">
<title>user_alerts</title>
<ellipse fill="none" stroke="black" stroke-width="0" cx="392.44" cy="-2149.5" rx="217.58" ry="130.22"/>
<polygon fill="#1d71b8" stroke="transparent" points="240.44,-2179.5 240.44,-2239.5 544.44,-2239.5 544.44,-2179.5 240.44,-2179.5"/>
<polygon fill="none" stroke="#29235c" points="240.44,-2179.5 240.44,-2239.5 544.44,-2239.5 544.44,-2179.5 240.44,-2179.5"/>
<text text-anchor="start" x="251.07" y="-2200.7" font-family="Helvetica,sans-Serif" font-weight="bold" font-size="32.00" fill="#ffffff"> &#160;&#160;&#160;&#160;&#160;&#160;user_alerts &#160;&#160;&#160;&#160;&#160;&#160;</text>
<polygon fill="#e7e2dd" stroke="transparent" points="240.44,-2119.5 240.44,-2179.5 544.44,-2179.5 544.44,-2119.5 240.44,-2119.5"/>
<polygon fill="none" stroke="#29235c" points="240.44,-2119.5 240.44,-2179.5 544.44,-2179.5 544.44,-2119.5 240.44,-2119.5"/>
<text text-anchor="start" x="251.44" y="-2140.7" font-family="Helvetica,sans-Serif" font-weight="bold" font-size="32.00" fill="#29235c">id</text>
<text text-anchor="start" x="276.33" y="-2140.7" font-family="Helvetica,sans-Serif" font-size="32.00" fill="#29235c"> &#160;&#160;&#160;</text>
<text text-anchor="start" x="481.9" y="-2140.7" font-family="Helvetica,sans-Serif" font-style="italic" font-size="32.00" fill="#29235c">INT</text>
<polygon fill="#e7e2dd" stroke="transparent" points="240.44,-2059.5 240.44,-2119.5 544.44,-2119.5 544.44,-2059.5 240.44,-2059.5"/>
<polygon fill="none" stroke="#29235c" points="240.44,-2059.5 240.44,-2119.5 544.44,-2119.5 544.44,-2059.5 240.44,-2059.5"/>
<text text-anchor="start" x="251.44" y="-2079.7" font-family="Helvetica,sans-Serif" font-size="32.00" fill="#29235c">user_id &#160;&#160;&#160;</text>
<text text-anchor="start" x="481.9" y="-2080.7" font-family="Helvetica,sans-Serif" font-style="italic" font-size="32.00" fill="#29235c">INT</text>
<polygon fill="none" stroke="#29235c" stroke-width="2" points="239.44,-2058.5 239.44,-2240.5 545.44,-2240.5 545.44,-2058.5 239.44,-2058.5"/>
</g>
<!-- user_alerts&#45;&gt;users -->
<!-- user_alerts&#45;&gt;users -->
<g id="edge4" class="edge">
<title>user_alerts:e&#45;&gt;users:w</title>
<path fill="none" stroke="#29235c" stroke-width="3" d="M545.44,-2089.5C657.51,-2089.5 678.75,-2046.46 784.89,-2010.5 849.51,-1988.61 864.22,-1960.42 927.23,-1957.71"/>
<polygon fill="#29235c" stroke="#29235c" stroke-width="3" points="927.41,-1961.21 937.33,-1957.5 927.26,-1954.21 927.41,-1961.21"/>
<text text-anchor="middle" x="946.23" y="-1967.1" font-family="Helvetica,sans-Serif" font-size="32.00" fill="#29235c">1</text>
<text text-anchor="middle" x="539.22" y="-2099.1" font-family="Helvetica,sans-Serif" font-size="32.00" fill="#29235c">*</text>
</g>
<!-- user_settings -->
<g id="user_settings" class="node">
<title>user_settings</title>
<ellipse fill="none" stroke="black" stroke-width="0" cx="392.44" cy="-1701.5" rx="392.39" ry="299.63"/>
<polygon fill="#1d71b8" stroke="transparent" points="117.44,-1851.5 117.44,-1911.5 668.44,-1911.5 668.44,-1851.5 117.44,-1851.5"/>
<polygon fill="none" stroke="#29235c" points="117.44,-1851.5 117.44,-1911.5 668.44,-1911.5 668.44,-1851.5 117.44,-1851.5"/>
<text text-anchor="start" x="235.56" y="-1872.7" font-family="Helvetica,sans-Serif" font-weight="bold" font-size="32.00" fill="#ffffff"> &#160;&#160;&#160;&#160;&#160;&#160;user_settings &#160;&#160;&#160;&#160;&#160;&#160;</text>
<polygon fill="#e7e2dd" stroke="transparent" points="117.44,-1791.5 117.44,-1851.5 668.44,-1851.5 668.44,-1791.5 117.44,-1791.5"/>
<polygon fill="none" stroke="#29235c" points="117.44,-1791.5 117.44,-1851.5 668.44,-1851.5 668.44,-1791.5 117.44,-1791.5"/>
<text text-anchor="start" x="128.44" y="-1812.7" font-family="Helvetica,sans-Serif" font-weight="bold" font-size="32.00" fill="#29235c">id</text>
<text text-anchor="start" x="153.33" y="-1812.7" font-family="Helvetica,sans-Serif" font-size="32.00" fill="#29235c"> &#160;&#160;&#160;</text>
<text text-anchor="start" x="605.9" y="-1812.7" font-family="Helvetica,sans-Serif" font-style="italic" font-size="32.00" fill="#29235c">INT</text>
<polygon fill="#e7e2dd" stroke="transparent" points="117.44,-1731.5 117.44,-1791.5 668.44,-1791.5 668.44,-1731.5 117.44,-1731.5"/>
<polygon fill="none" stroke="#29235c" points="117.44,-1731.5 117.44,-1791.5 668.44,-1791.5 668.44,-1731.5 117.44,-1731.5"/>
<text text-anchor="start" x="128.44" y="-1751.7" font-family="Helvetica,sans-Serif" font-size="32.00" fill="#29235c">user_id &#160;&#160;&#160;</text>
<text text-anchor="start" x="605.9" y="-1752.7" font-family="Helvetica,sans-Serif" font-style="italic" font-size="32.00" fill="#29235c">INT</text>
<polygon fill="#e7e2dd" stroke="transparent" points="117.44,-1671.5 117.44,-1731.5 668.44,-1731.5 668.44,-1671.5 117.44,-1671.5"/>
<polygon fill="none" stroke="#29235c" points="117.44,-1671.5 117.44,-1731.5 668.44,-1731.5 668.44,-1671.5 117.44,-1671.5"/>
<text text-anchor="start" x="128.39" y="-1691.7" font-family="Helvetica,sans-Serif" font-size="32.00" fill="#29235c">notifications_enabled &#160;&#160;&#160;</text>
<text text-anchor="start" x="464.05" y="-1692.7" font-family="Helvetica,sans-Serif" font-style="italic" font-size="32.00" fill="#29235c">BOOLEAN</text>
<text text-anchor="start" x="618.75" y="-1692.7" font-family="Helvetica,sans-Serif" font-size="32.00" fill="#29235c"> </text>
<text text-anchor="start" x="627.64" y="-1692.7" font-family="Helvetica,sans-Serif" font-weight="bold" font-size="32.00" fill="#29235c">(!)</text>
<polygon fill="#e7e2dd" stroke="transparent" points="117.44,-1611.5 117.44,-1671.5 668.44,-1671.5 668.44,-1611.5 117.44,-1611.5"/>
<polygon fill="none" stroke="#29235c" points="117.44,-1611.5 117.44,-1671.5 668.44,-1671.5 668.44,-1611.5 117.44,-1611.5"/>
<text text-anchor="start" x="128.44" y="-1631.7" font-family="Helvetica,sans-Serif" font-size="32.00" fill="#29235c">last_login &#160;&#160;&#160;</text>
<text text-anchor="start" x="470.79" y="-1632.7" font-family="Helvetica,sans-Serif" font-style="italic" font-size="32.00" fill="#29235c">TIMESTAMP</text>
<polygon fill="#e7e2dd" stroke="transparent" points="117.44,-1551.5 117.44,-1611.5 668.44,-1611.5 668.44,-1551.5 117.44,-1551.5"/>
<polygon fill="none" stroke="#29235c" points="117.44,-1551.5 117.44,-1611.5 668.44,-1611.5 668.44,-1551.5 117.44,-1551.5"/>
<text text-anchor="start" x="128.44" y="-1571.7" font-family="Helvetica,sans-Serif" font-size="32.00" fill="#29235c">dark_mode_enabled &#160;&#160;&#160;</text>
<text text-anchor="start" x="463.66" y="-1572.7" font-family="Helvetica,sans-Serif" font-style="italic" font-size="32.00" fill="#29235c">BOOLEAN</text>
<text text-anchor="start" x="618.35" y="-1572.7" font-family="Helvetica,sans-Serif" font-size="32.00" fill="#29235c"> </text>
<text text-anchor="start" x="627.25" y="-1572.7" font-family="Helvetica,sans-Serif" font-weight="bold" font-size="32.00" fill="#29235c">(!)</text>
<polygon fill="#e7e2dd" stroke="transparent" points="117.44,-1491.5 117.44,-1551.5 668.44,-1551.5 668.44,-1491.5 117.44,-1491.5"/>
<polygon fill="none" stroke="#29235c" points="117.44,-1491.5 117.44,-1551.5 668.44,-1551.5 668.44,-1491.5 117.44,-1491.5"/>
<text text-anchor="start" x="128.44" y="-1511.7" font-family="Helvetica,sans-Serif" font-size="32.00" fill="#29235c">startup_enabled &#160;&#160;&#160;</text>
<text text-anchor="start" x="463.66" y="-1512.7" font-family="Helvetica,sans-Serif" font-style="italic" font-size="32.00" fill="#29235c">BOOLEAN</text>
<text text-anchor="start" x="618.35" y="-1512.7" font-family="Helvetica,sans-Serif" font-size="32.00" fill="#29235c"> </text>
<text text-anchor="start" x="627.25" y="-1512.7" font-family="Helvetica,sans-Serif" font-weight="bold" font-size="32.00" fill="#29235c">(!)</text>
<polygon fill="none" stroke="#29235c" stroke-width="2" points="115.94,-1490.5 115.94,-1912.5 668.94,-1912.5 668.94,-1490.5 115.94,-1490.5"/>
</g>
<!-- user_settings&#45;&gt;users -->
<!-- user_settings&#45;&gt;users -->
<g id="edge6" class="edge">
<title>user_settings:e&#45;&gt;users:w</title>
<path fill="none" stroke="#29235c" stroke-width="3" d="M669.44,-1761.5C813.51,-1761.5 790.98,-1948.42 927.24,-1957.19"/>
<polygon fill="#29235c" stroke="#29235c" stroke-width="3" points="927.23,-1960.69 937.33,-1957.5 927.45,-1953.69 927.23,-1960.69"/>
<text text-anchor="middle" x="928.44" y="-1928.7" font-family="Helvetica,sans-Serif" font-size="32.00" fill="#29235c">1</text>
<text text-anchor="middle" x="663.22" y="-1771.1" font-family="Helvetica,sans-Serif" font-size="32.00" fill="#29235c">*</text>
</g>
<!-- notifications -->
<g id="notifications" class="node">
<title>notifications</title>
<ellipse fill="none" stroke="black" stroke-width="0" cx="392.44" cy="-1126.5" rx="272.47" ry="257.27"/>
<polygon fill="#1d71b8" stroke="transparent" points="202.44,-1246.5 202.44,-1306.5 583.44,-1306.5 583.44,-1246.5 202.44,-1246.5"/>
<polygon fill="none" stroke="#29235c" points="202.44,-1246.5 202.44,-1306.5 583.44,-1306.5 583.44,-1246.5 202.44,-1246.5"/>
<text text-anchor="start" x="246.23" y="-1267.7" font-family="Helvetica,sans-Serif" font-weight="bold" font-size="32.00" fill="#ffffff"> &#160;&#160;&#160;&#160;&#160;&#160;notifications &#160;&#160;&#160;&#160;&#160;&#160;</text>
<polygon fill="#e7e2dd" stroke="transparent" points="202.44,-1186.5 202.44,-1246.5 583.44,-1246.5 583.44,-1186.5 202.44,-1186.5"/>
<polygon fill="none" stroke="#29235c" points="202.44,-1186.5 202.44,-1246.5 583.44,-1246.5 583.44,-1186.5 202.44,-1186.5"/>
<text text-anchor="start" x="213.44" y="-1207.7" font-family="Helvetica,sans-Serif" font-weight="bold" font-size="32.00" fill="#29235c">id</text>
<text text-anchor="start" x="238.33" y="-1207.7" font-family="Helvetica,sans-Serif" font-size="32.00" fill="#29235c"> &#160;&#160;&#160;</text>
<text text-anchor="start" x="520.9" y="-1207.7" font-family="Helvetica,sans-Serif" font-style="italic" font-size="32.00" fill="#29235c">INT</text>
<polygon fill="#e7e2dd" stroke="transparent" points="202.44,-1126.5 202.44,-1186.5 583.44,-1186.5 583.44,-1126.5 202.44,-1126.5"/>
<polygon fill="none" stroke="#29235c" points="202.44,-1126.5 202.44,-1186.5 583.44,-1186.5 583.44,-1126.5 202.44,-1126.5"/>
<text text-anchor="start" x="213.44" y="-1146.7" font-family="Helvetica,sans-Serif" font-size="32.00" fill="#29235c">user_id &#160;&#160;&#160;</text>
<text text-anchor="start" x="520.9" y="-1147.7" font-family="Helvetica,sans-Serif" font-style="italic" font-size="32.00" fill="#29235c">INT</text>
<polygon fill="#e7e2dd" stroke="transparent" points="202.44,-1066.5 202.44,-1126.5 583.44,-1126.5 583.44,-1066.5 202.44,-1066.5"/>
<polygon fill="none" stroke="#29235c" points="202.44,-1066.5 202.44,-1126.5 583.44,-1126.5 583.44,-1066.5 202.44,-1066.5"/>
<text text-anchor="start" x="213.43" y="-1086.7" font-family="Helvetica,sans-Serif" font-size="32.00" fill="#29235c">cve_id &#160;&#160;&#160;</text>
<text text-anchor="start" x="341.4" y="-1087.7" font-family="Helvetica,sans-Serif" font-style="italic" font-size="32.00" fill="#29235c">VARCHAR(100)</text>
<polygon fill="#e7e2dd" stroke="transparent" points="202.44,-1006.5 202.44,-1066.5 583.44,-1066.5 583.44,-1006.5 202.44,-1006.5"/>
<polygon fill="none" stroke="#29235c" points="202.44,-1006.5 202.44,-1066.5 583.44,-1066.5 583.44,-1006.5 202.44,-1006.5"/>
<text text-anchor="start" x="213.44" y="-1026.7" font-family="Helvetica,sans-Serif" font-size="32.00" fill="#29235c">message &#160;&#160;&#160;</text>
<text text-anchor="start" x="490.67" y="-1027.7" font-family="Helvetica,sans-Serif" font-style="italic" font-size="32.00" fill="#29235c">TEXT</text>
<polygon fill="#e7e2dd" stroke="transparent" points="202.44,-946.5 202.44,-1006.5 583.44,-1006.5 583.44,-946.5 202.44,-946.5"/>
<polygon fill="none" stroke="#29235c" points="202.44,-946.5 202.44,-1006.5 583.44,-1006.5 583.44,-946.5 202.44,-946.5"/>
<text text-anchor="start" x="213.44" y="-966.7" font-family="Helvetica,sans-Serif" font-size="32.00" fill="#29235c">sent_at &#160;&#160;&#160;</text>
<text text-anchor="start" x="385.79" y="-967.7" font-family="Helvetica,sans-Serif" font-style="italic" font-size="32.00" fill="#29235c">TIMESTAMP</text>
<polygon fill="none" stroke="#29235c" stroke-width="2" points="200.94,-945.5 200.94,-1307.5 583.94,-1307.5 583.94,-945.5 200.94,-945.5"/>
</g>
<!-- notifications&#45;&gt;users -->
<!-- notifications&#45;&gt;users -->
<g id="edge8" class="edge">
<title>notifications:e&#45;&gt;users:w</title>
<path fill="none" stroke="#29235c" stroke-width="3" d="M584.44,-1156.5C722.06,-1156.5 722.59,-1269.8 784.89,-1392.5 842.15,-1505.29 809.21,-1933.2 927.03,-1956.51"/>
<polygon fill="#29235c" stroke="#29235c" stroke-width="3" points="927.04,-1960.03 937.33,-1957.5 927.71,-1953.06 927.04,-1960.03"/>
<text text-anchor="middle" x="946.23" y="-1928.7" font-family="Helvetica,sans-Serif" font-size="32.00" fill="#29235c">1</text>
<text text-anchor="middle" x="578.22" y="-1166.1" font-family="Helvetica,sans-Serif" font-size="32.00" fill="#29235c">*</text>
</g>
<!-- notifications&#45;&gt;cves -->
<!-- notifications&#45;&gt;cves -->
<g id="edge10" class="edge">
<title>notifications:e&#45;&gt;cves:w</title>
<path fill="none" stroke="#29235c" stroke-width="3" d="M584.44,-1096.5C745.26,-1096.5 783.37,-1153.95 938.91,-1156.42"/>
<polygon fill="#29235c" stroke="#29235c" stroke-width="3" points="939.31,-1159.92 949.33,-1156.5 939.36,-1152.93 939.31,-1159.92"/>
<text text-anchor="middle" x="940.44" y="-1166.1" font-family="Helvetica,sans-Serif" font-size="32.00" fill="#29235c">1</text>
<text text-anchor="middle" x="578.22" y="-1067.7" font-family="Helvetica,sans-Serif" font-size="32.00" fill="#29235c">*</text>
</g>
<!-- metadata -->
<g id="metadata" class="node">
<title>metadata</title>
<ellipse fill="none" stroke="black" stroke-width="0" cx="392.44" cy="-3087.5" rx="338.91" ry="172.57"/>
<polygon fill="#1d71b8" stroke="transparent" points="155.44,-3147.5 155.44,-3207.5 630.44,-3207.5 630.44,-3147.5 155.44,-3147.5"/>
<polygon fill="none" stroke="#29235c" points="155.44,-3147.5 155.44,-3207.5 630.44,-3207.5 630.44,-3147.5 155.44,-3147.5"/>
<text text-anchor="start" x="264" y="-3168.7" font-family="Helvetica,sans-Serif" font-weight="bold" font-size="32.00" fill="#ffffff"> &#160;&#160;&#160;&#160;&#160;&#160;metadata &#160;&#160;&#160;&#160;&#160;&#160;</text>
<polygon fill="#e7e2dd" stroke="transparent" points="155.44,-3087.5 155.44,-3147.5 630.44,-3147.5 630.44,-3087.5 155.44,-3087.5"/>
<polygon fill="none" stroke="#29235c" points="155.44,-3087.5 155.44,-3147.5 630.44,-3147.5 630.44,-3087.5 155.44,-3087.5"/>
<text text-anchor="start" x="166.44" y="-3108.7" font-family="Helvetica,sans-Serif" font-weight="bold" font-size="32.00" fill="#29235c">id</text>
<text text-anchor="start" x="191.33" y="-3108.7" font-family="Helvetica,sans-Serif" font-size="32.00" fill="#29235c"> &#160;&#160;&#160;</text>
<text text-anchor="start" x="567.9" y="-3108.7" font-family="Helvetica,sans-Serif" font-style="italic" font-size="32.00" fill="#29235c">INT</text>
<polygon fill="#e7e2dd" stroke="transparent" points="155.44,-3027.5 155.44,-3087.5 630.44,-3087.5 630.44,-3027.5 155.44,-3027.5"/>
<polygon fill="none" stroke="#29235c" points="155.44,-3027.5 155.44,-3087.5 630.44,-3087.5 630.44,-3027.5 155.44,-3027.5"/>
<text text-anchor="start" x="166.36" y="-3047.7" font-family="Helvetica,sans-Serif" font-size="32.00" fill="#29235c">key_name &#160;&#160;&#160;</text>
<text text-anchor="start" x="349.35" y="-3048.7" font-family="Helvetica,sans-Serif" font-style="italic" font-size="32.00" fill="#29235c">VARCHAR(191)</text>
<text text-anchor="start" x="580.45" y="-3048.7" font-family="Helvetica,sans-Serif" font-size="32.00" fill="#29235c"> </text>
<text text-anchor="start" x="589.34" y="-3048.7" font-family="Helvetica,sans-Serif" font-weight="bold" font-size="32.00" fill="#29235c">(!)</text>
<polygon fill="#e7e2dd" stroke="transparent" points="155.44,-2967.5 155.44,-3027.5 630.44,-3027.5 630.44,-2967.5 155.44,-2967.5"/>
<polygon fill="none" stroke="#29235c" points="155.44,-2967.5 155.44,-3027.5 630.44,-3027.5 630.44,-2967.5 155.44,-2967.5"/>
<text text-anchor="start" x="166.44" y="-2987.7" font-family="Helvetica,sans-Serif" font-size="32.00" fill="#29235c">dvalue &#160;&#160;&#160;</text>
<text text-anchor="start" x="349.26" y="-2988.7" font-family="Helvetica,sans-Serif" font-style="italic" font-size="32.00" fill="#29235c">VARCHAR(255)</text>
<text text-anchor="start" x="580.35" y="-2988.7" font-family="Helvetica,sans-Serif" font-size="32.00" fill="#29235c"> </text>
<text text-anchor="start" x="589.25" y="-2988.7" font-family="Helvetica,sans-Serif" font-weight="bold" font-size="32.00" fill="#29235c">(!)</text>
<polygon fill="none" stroke="#29235c" stroke-width="2" points="153.94,-2966.5 153.94,-3208.5 630.94,-3208.5 630.94,-2966.5 153.94,-2966.5"/>
</g>
</g>
</svg>

