<?xml version="1.0" encoding="UTF-8" standalone="no"?>
<!DOCTYPE svg PUBLIC "-//W3C//DTD SVG 1.1//EN"
 "http://www.w3.org/Graphics/SVG/1.1/DTD/svg11.dtd">
<!-- Generated by graphviz version 2.47.0 (20210316.0004)
 -->
<!-- Title: dbml Pages: 1 -->
<svg width="1614pt" height="3646pt"
 viewBox="0.00 0.00 1613.78 3646.04" xmlns="http://www.w3.org/2000/svg" xmlns:xlink="http://www.w3.org/1999/xlink">
<g id="graph0" class="graph" transform="scale(1 1) rotate(0) translate(4 3642.04)">
<title>dbml</title>
<!-- users -->
<g id="users" class="node">
<title>users</title>
<ellipse fill="none" stroke="black" stroke-width="0" cx="1213.33" cy="-1765.5" rx="392.39" ry="214.92"/>
<polygon fill="#1d71b8" stroke="transparent" points="938.33,-1855.5 938.33,-1915.5 1489.33,-1915.5 1489.33,-1855.5 938.33,-1855.5"/>
<polygon fill="none" stroke="#29235c" points="938.33,-1855.5 938.33,-1915.5 1489.33,-1915.5 1489.33,-1855.5 938.33,-1855.5"/>
<text text-anchor="start" x="1112.47" y="-1876.7" font-family="Helvetica,sans-Serif" font-weight="bold" font-size="32.00" fill="#ffffff"> &#160;&#160;&#160;&#160;&#160;&#160;users &#160;&#160;&#160;&#160;&#160;&#160;</text>
<polygon fill="#e7e2dd" stroke="transparent" points="938.33,-1795.5 938.33,-1855.5 1489.33,-1855.5 1489.33,-1795.5 938.33,-1795.5"/>
<polygon fill="none" stroke="#29235c" points="938.33,-1795.5 938.33,-1855.5 1489.33,-1855.5 1489.33,-1795.5 938.33,-1795.5"/>
<text text-anchor="start" x="949.33" y="-1816.7" font-family="Helvetica,sans-Serif" font-weight="bold" font-size="32.00" fill="#29235c">id</text>
<text text-anchor="start" x="974.22" y="-1816.7" font-family="Helvetica,sans-Serif" font-size="32.00" fill="#29235c"> &#160;&#160;&#160;</text>
<text text-anchor="start" x="1426.79" y="-1816.7" font-family="Helvetica,sans-Serif" font-style="italic" font-size="32.00" fill="#29235c">INT</text>
<polygon fill="#e7e2dd" stroke="transparent" points="938.33,-1735.5 938.33,-1795.5 1489.33,-1795.5 1489.33,-1735.5 938.33,-1735.5"/>
<polygon fill="none" stroke="#29235c" points="938.33,-1735.5 938.33,-1795.5 1489.33,-1795.5 1489.33,-1735.5 938.33,-1735.5"/>
<text text-anchor="start" x="949.33" y="-1755.7" font-family="Helvetica,sans-Serif" font-size="32.00" fill="#29235c">username &#160;&#160;&#160;</text>
<text text-anchor="start" x="1208.14" y="-1756.7" font-family="Helvetica,sans-Serif" font-style="italic" font-size="32.00" fill="#29235c">VARCHAR(255)</text>
<text text-anchor="start" x="1439.24" y="-1756.7" font-family="Helvetica,sans-Serif" font-size="32.00" fill="#29235c"> </text>
<text text-anchor="start" x="1448.13" y="-1756.7" font-family="Helvetica,sans-Serif" font-weight="bold" font-size="32.00" fill="#29235c">(!)</text>
<polygon fill="#e7e2dd" stroke="transparent" points="938.33,-1675.5 938.33,-1735.5 1489.33,-1735.5 1489.33,-1675.5 938.33,-1675.5"/>
<polygon fill="none" stroke="#29235c" points="938.33,-1675.5 938.33,-1735.5 1489.33,-1735.5 1489.33,-1675.5 938.33,-1675.5"/>
<text text-anchor="start" x="949.33" y="-1695.7" font-family="Helvetica,sans-Serif" font-size="32.00" fill="#29235c">email &#160;&#160;&#160;</text>
<text text-anchor="start" x="1208.14" y="-1696.7" font-family="Helvetica,sans-Serif" font-style="italic" font-size="32.00" fill="#29235c">VARCHAR(255)</text>
<text text-anchor="start" x="1439.24" y="-1696.7" font-family="Helvetica,sans-Serif" font-size="32.00" fill="#29235c"> </text>
<text text-anchor="start" x="1448.13" y="-1696.7" font-family="Helvetica,sans-Serif" font-weight="bold" font-size="32.00" fill="#29235c">(!)</text>
<polygon fill="#e7e2dd" stroke="transparent" points="938.33,-1615.5 938.33,-1675.5 1489.33,-1675.5 1489.33,-1615.5 938.33,-1615.5"/>
<polygon fill="none" stroke="#29235c" points="938.33,-1615.5 938.33,-1675.5 1489.33,-1675.5 1489.33,-1615.5 938.33,-1615.5"/>
<text text-anchor="start" x="949.02" y="-1635.7" font-family="Helvetica,sans-Serif" font-size="32.00" fill="#29235c">password_hash &#160;&#160;&#160;</text>
<text text-anchor="start" x="1208.24" y="-1636.7" font-family="Helvetica,sans-Serif" font-style="italic" font-size="32.00" fill="#29235c">VARCHAR(255)</text>
<text text-anchor="start" x="1439.34" y="-1636.7" font-family="Helvetica,sans-Serif" font-size="32.00" fill="#29235c"> </text>
<text text-anchor="start" x="1448.23" y="-1636.7" font-family="Helvetica,sans-Serif" font-weight="bold" font-size="32.00" fill="#29235c">(!)</text>
<polygon fill="none" stroke="#29235c" stroke-width="2" points="936.83,-1614.5 936.83,-1916.5 1489.83,-1916.5 1489.83,-1614.5 936.83,-1614.5"/>
</g>
<!-- cves -->
<g id="cves" class="node">
<title>cves</title>
<ellipse fill="none" stroke="black" stroke-width="0" cx="1213.33" cy="-766.5" rx="374.53" ry="766.51"/>
<polygon fill="#1d71b8" stroke="transparent" points="950.33,-1246.5 950.33,-1306.5 1476.33,-1306.5 1476.33,-1246.5 950.33,-1246.5"/>
<polygon fill="none" stroke="#29235c" points="950.33,-1246.5 950.33,-1306.5 1476.33,-1306.5 1476.33,-1246.5 950.33,-1246.5"/>
<text text-anchor="start" x="1118.19" y="-1267.7" font-family="Helvetica,sans-Serif" font-weight="bold" font-size="32.00" fill="#ffffff"> &#160;&#160;&#160;&#160;&#160;&#160;cves &#160;&#160;&#160;&#160;&#160;&#160;</text>
<polygon fill="#e7e2dd" stroke="transparent" points="950.33,-1186.5 950.33,-1246.5 1476.33,-1246.5 1476.33,-1186.5 950.33,-1186.5"/>
<polygon fill="none" stroke="#29235c" points="950.33,-1186.5 950.33,-1246.5 1476.33,-1246.5 1476.33,-1186.5 950.33,-1186.5"/>
<text text-anchor="start" x="961.33" y="-1207.7" font-family="Helvetica,sans-Serif" font-weight="bold" font-size="32.00" fill="#29235c">id</text>
<text text-anchor="start" x="986.22" y="-1207.7" font-family="Helvetica,sans-Serif" font-size="32.00" fill="#29235c"> &#160;&#160;&#160;</text>
<text text-anchor="start" x="1413.79" y="-1207.7" font-family="Helvetica,sans-Serif" font-style="italic" font-size="32.00" fill="#29235c">INT</text>
<polygon fill="#e7e2dd" stroke="transparent" points="950.33,-1126.5 950.33,-1186.5 1476.33,-1186.5 1476.33,-1126.5 950.33,-1126.5"/>
<polygon fill="none" stroke="#29235c" points="950.33,-1126.5 950.33,-1186.5 1476.33,-1186.5 1476.33,-1126.5 950.33,-1126.5"/>
<text text-anchor="start" x="961.33" y="-1146.7" font-family="Helvetica,sans-Serif" font-size="32.00" fill="#29235c">cve_id &#160;&#160;&#160;</text>
<text text-anchor="start" x="1195.14" y="-1147.7" font-family="Helvetica,sans-Serif" font-style="italic" font-size="32.00" fill="#29235c">VARCHAR(100)</text>
<text text-anchor="start" x="1426.24" y="-1147.7" font-family="Helvetica,sans-Serif" font-size="32.00" fill="#29235c"> </text>
<text text-anchor="start" x="1435.13" y="-1147.7" font-family="Helvetica,sans-Serif" font-weight="bold" font-size="32.00" fill="#29235c">(!)</text>
<polygon fill="#e7e2dd" stroke="transparent" points="950.33,-1066.5 950.33,-1126.5 1476.33,-1126.5 1476.33,-1066.5 950.33,-1066.5"/>
<polygon fill="none" stroke="#29235c" points="950.33,-1066.5 950.33,-1126.5 1476.33,-1126.5 1476.33,-1066.5 950.33,-1066.5"/>
<text text-anchor="start" x="961.33" y="-1086.7" font-family="Helvetica,sans-Serif" font-size="32.00" fill="#29235c">description &#160;&#160;&#160;</text>
<text text-anchor="start" x="1383.55" y="-1087.7" font-family="Helvetica,sans-Serif" font-style="italic" font-size="32.00" fill="#29235c">TEXT</text>
<polygon fill="#e7e2dd" stroke="transparent" points="950.33,-1006.5 950.33,-1066.5 1476.33,-1066.5 1476.33,-1006.5 950.33,-1006.5"/>
<polygon fill="none" stroke="#29235c" points="950.33,-1006.5 950.33,-1066.5 1476.33,-1066.5 1476.33,-1006.5 950.33,-1006.5"/>
<text text-anchor="start" x="961.33" y="-1026.7" font-family="Helvetica,sans-Serif" font-size="32.00" fill="#29235c">severity &#160;&#160;&#160;</text>
<text text-anchor="start" x="1252.02" y="-1027.7" font-family="Helvetica,sans-Serif" font-style="italic" font-size="32.00" fill="#29235c">VARCHAR(50)</text>
<polygon fill="#e7e2dd" stroke="transparent" points="950.33,-946.5 950.33,-1006.5 1476.33,-1006.5 1476.33,-946.5 950.33,-946.5"/>
<polygon fill="none" stroke="#29235c" points="950.33,-946.5 950.33,-1006.5 1476.33,-1006.5 1476.33,-946.5 950.33,-946.5"/>
<text text-anchor="start" x="960.89" y="-966.7" font-family="Helvetica,sans-Serif" font-size="32.00" fill="#29235c">affected_product &#160;&#160;&#160;</text>
<text text-anchor="start" x="1234.28" y="-967.7" font-family="Helvetica,sans-Serif" font-style="italic" font-size="32.00" fill="#29235c">VARCHAR(255)</text>
<polygon fill="#e7e2dd" stroke="transparent" points="950.33,-886.5 950.33,-946.5 1476.33,-946.5 1476.33,-886.5 950.33,-886.5"/>
<polygon fill="none" stroke="#29235c" points="950.33,-886.5 950.33,-946.5 1476.33,-946.5 1476.33,-886.5 950.33,-886.5"/>
<text text-anchor="start" x="961.33" y="-906.7" font-family="Helvetica,sans-Serif" font-size="32.00" fill="#29235c">platform &#160;&#160;&#160;</text>
<text text-anchor="start" x="1234.24" y="-907.7" font-family="Helvetica,sans-Serif" font-style="italic" font-size="32.00" fill="#29235c">VARCHAR(255)</text>
<polygon fill="#e7e2dd" stroke="transparent" points="950.33,-826.5 950.33,-886.5 1476.33,-886.5 1476.33,-826.5 950.33,-826.5"/>
<polygon fill="none" stroke="#29235c" points="950.33,-826.5 950.33,-886.5 1476.33,-886.5 1476.33,-826.5 950.33,-826.5"/>
<text text-anchor="start" x="961.33" y="-846.7" font-family="Helvetica,sans-Serif" font-size="32.00" fill="#29235c">published_date &#160;&#160;&#160;</text>
<text text-anchor="start" x="1380" y="-847.7" font-family="Helvetica,sans-Serif" font-style="italic" font-size="32.00" fill="#29235c">DATE</text>
<polygon fill="#e7e2dd" stroke="transparent" points="950.33,-766.5 950.33,-826.5 1476.33,-826.5 1476.33,-766.5 950.33,-766.5"/>
<polygon fill="none" stroke="#29235c" points="950.33,-766.5 950.33,-826.5 1476.33,-826.5 1476.33,-766.5 950.33,-766.5"/>
<text text-anchor="start" x="961.33" y="-786.7" font-family="Helvetica,sans-Serif" font-size="32.00" fill="#29235c">state &#160;&#160;&#160;</text>
<text text-anchor="start" x="1252.02" y="-787.7" font-family="Helvetica,sans-Serif" font-style="italic" font-size="32.00" fill="#29235c">VARCHAR(50)</text>
<polygon fill="#e7e2dd" stroke="transparent" points="950.33,-706.5 950.33,-766.5 1476.33,-766.5 1476.33,-706.5 950.33,-706.5"/>
<polygon fill="none" stroke="#29235c" points="950.33,-706.5 950.33,-766.5 1476.33,-766.5 1476.33,-706.5 950.33,-706.5"/>
<text text-anchor="start" x="961.33" y="-726.7" font-family="Helvetica,sans-Serif" font-size="32.00" fill="#29235c">date_reserved &#160;&#160;&#160;</text>
<text text-anchor="start" x="1380" y="-727.7" font-family="Helvetica,sans-Serif" font-style="italic" font-size="32.00" fill="#29235c">DATE</text>
<polygon fill="#e7e2dd" stroke="transparent" points="950.33,-646.5 950.33,-706.5 1476.33,-706.5 1476.33,-646.5 950.33,-646.5"/>
<polygon fill="none" stroke="#29235c" points="950.33,-646.5 950.33,-706.5 1476.33,-706.5 1476.33,-646.5 950.33,-646.5"/>
<text text-anchor="start" x="961.33" y="-666.7" font-family="Helvetica,sans-Serif" font-size="32.00" fill="#29235c">date_updated &#160;&#160;&#160;</text>
<text text-anchor="start" x="1380" y="-667.7" font-family="Helvetica,sans-Serif" font-style="italic" font-size="32.00" fill="#29235c">DATE</text>
<polygon fill="#e7e2dd" stroke="transparent" points="950.33,-586.5 950.33,-646.5 1476.33,-646.5 1476.33,-586.5 950.33,-586.5"/>
<polygon fill="none" stroke="#29235c" points="950.33,-586.5 950.33,-646.5 1476.33,-646.5 1476.33,-586.5 950.33,-586.5"/>
<text text-anchor="start" x="961.33" y="-606.7" font-family="Helvetica,sans-Serif" font-size="32.00" fill="#29235c">cvss_score &#160;&#160;&#160;</text>
<text text-anchor="start" x="1252.02" y="-607.7" font-family="Helvetica,sans-Serif" font-style="italic" font-size="32.00" fill="#29235c">VARCHAR(10)</text>
<polygon fill="#e7e2dd" stroke="transparent" points="950.33,-526.5 950.33,-586.5 1476.33,-586.5 1476.33,-526.5 950.33,-526.5"/>
<polygon fill="none" stroke="#29235c" points="950.33,-526.5 950.33,-586.5 1476.33,-586.5 1476.33,-526.5 950.33,-526.5"/>
<text text-anchor="start" x="961.33" y="-546.7" font-family="Helvetica,sans-Serif" font-size="32.00" fill="#29235c">cvss_vector &#160;&#160;&#160;</text>
<text text-anchor="start" x="1234.24" y="-547.7" font-family="Helvetica,sans-Serif" font-style="italic" font-size="32.00" fill="#29235c">VARCHAR(255)</text>
<polygon fill="#e7e2dd" stroke="transparent" points="950.33,-466.5 950.33,-526.5 1476.33,-526.5 1476.33,-466.5 950.33,-466.5"/>
<polygon fill="none" stroke="#29235c" points="950.33,-466.5 950.33,-526.5 1476.33,-526.5 1476.33,-466.5 950.33,-466.5"/>
<text text-anchor="start" x="961.33" y="-486.7" font-family="Helvetica,sans-Serif" font-size="32.00" fill="#29235c">capec_description &#160;&#160;&#160;</text>
<text text-anchor="start" x="1383.55" y="-487.7" font-family="Helvetica,sans-Serif" font-style="italic" font-size="32.00" fill="#29235c">TEXT</text>
<polygon fill="#e7e2dd" stroke="transparent" points="950.33,-406.5 950.33,-466.5 1476.33,-466.5 1476.33,-406.5 950.33,-406.5"/>
<polygon fill="none" stroke="#29235c" points="950.33,-406.5 950.33,-466.5 1476.33,-466.5 1476.33,-406.5 950.33,-406.5"/>
<text text-anchor="start" x="961.33" y="-426.7" font-family="Helvetica,sans-Serif" font-size="32.00" fill="#29235c">cwe_description &#160;&#160;&#160;</text>
<text text-anchor="start" x="1383.55" y="-427.7" font-family="Helvetica,sans-Serif" font-style="italic" font-size="32.00" fill="#29235c">TEXT</text>
<polygon fill="#e7e2dd" stroke="transparent" points="950.33,-346.5 950.33,-406.5 1476.33,-406.5 1476.33,-346.5 950.33,-346.5"/>
<polygon fill="none" stroke="#29235c" points="950.33,-346.5 950.33,-406.5 1476.33,-406.5 1476.33,-346.5 950.33,-346.5"/>
<text text-anchor="start" x="961.33" y="-366.7" font-family="Helvetica,sans-Serif" font-size="32.00" fill="#29235c">cve_references &#160;&#160;&#160;</text>
<text text-anchor="start" x="1383.55" y="-367.7" font-family="Helvetica,sans-Serif" font-style="italic" font-size="32.00" fill="#29235c">TEXT</text>
<polygon fill="#e7e2dd" stroke="transparent" points="950.33,-286.5 950.33,-346.5 1476.33,-346.5 1476.33,-286.5 950.33,-286.5"/>
<polygon fill="none" stroke="#29235c" points="950.33,-286.5 950.33,-346.5 1476.33,-346.5 1476.33,-286.5 950.33,-286.5"/>
<text text-anchor="start" x="961.33" y="-306.7" font-family="Helvetica,sans-Serif" font-size="32.00" fill="#29235c">affected_versions &#160;&#160;&#160;</text>
<text text-anchor="start" x="1383.55" y="-307.7" font-family="Helvetica,sans-Serif" font-style="italic" font-size="32.00" fill="#29235c">TEXT</text>
<polygon fill="#e7e2dd" stroke="transparent" points="950.33,-226.5 950.33,-286.5 1476.33,-286.5 1476.33,-226.5 950.33,-226.5"/>
<polygon fill="none" stroke="#29235c" points="950.33,-226.5 950.33,-286.5 1476.33,-286.5 1476.33,-226.5 950.33,-226.5"/>
<text text-anchor="start" x="961.33" y="-246.7" font-family="Helvetica,sans-Serif" font-size="32.00" fill="#29235c">credits &#160;&#160;&#160;</text>
<text text-anchor="start" x="1383.55" y="-247.7" font-family="Helvetica,sans-Serif" font-style="italic" font-size="32.00" fill="#29235c">TEXT</text>
<polygon fill="none" stroke="#29235c" stroke-width="2" points="949.33,-225.5 949.33,-1307.5 1477.33,-1307.5 1477.33,-225.5 949.33,-225.5"/>
</g>
<!-- user_filters -->
<g id="user_filters" class="node">
<title>user_filters</title>
<ellipse fill="none" stroke="black" stroke-width="0" cx="392.44" cy="-2315.5" rx="349.12" ry="342.48"/>
<polygon fill="#1d71b8" stroke="transparent" points="147.44,-2495.5 147.44,-2555.5 637.44,-2555.5 637.44,-2495.5 147.44,-2495.5"/>
<polygon fill="none" stroke="#29235c" points="147.44,-2495.5 147.44,-2555.5 637.44,-2555.5 637.44,-2495.5 147.44,-2495.5"/>
<text text-anchor="start" x="251.97" y="-2516.7" font-family="Helvetica,sans-Serif" font-weight="bold" font-size="32.00" fill="#ffffff"> &#160;&#160;&#160;&#160;&#160;&#160;user_filters &#160;&#160;&#160;&#160;&#160;&#160;</text>
<polygon fill="#e7e2dd" stroke="transparent" points="147.44,-2435.5 147.44,-2495.5 637.44,-2495.5 637.44,-2435.5 147.44,-2435.5"/>
<polygon fill="none" stroke="#29235c" points="147.44,-2435.5 147.44,-2495.5 637.44,-2495.5 637.44,-2435.5 147.44,-2435.5"/>
<text text-anchor="start" x="158.44" y="-2456.7" font-family="Helvetica,sans-Serif" font-weight="bold" font-size="32.00" fill="#29235c">id</text>
<text text-anchor="start" x="183.33" y="-2456.7" font-family="Helvetica,sans-Serif" font-size="32.00" fill="#29235c"> &#160;&#160;&#160;</text>
<text text-anchor="start" x="574.9" y="-2456.7" font-family="Helvetica,sans-Serif" font-style="italic" font-size="32.00" fill="#29235c">INT</text>
<polygon fill="#e7e2dd" stroke="transparent" points="147.44,-2375.5 147.44,-2435.5 637.44,-2435.5 637.44,-2375.5 147.44,-2375.5"/>
<polygon fill="none" stroke="#29235c" points="147.44,-2375.5 147.44,-2435.5 637.44,-2435.5 637.44,-2375.5 147.44,-2375.5"/>
<text text-anchor="start" x="158.44" y="-2395.7" font-family="Helvetica,sans-Serif" font-size="32.00" fill="#29235c">user_id &#160;&#160;&#160;</text>
<text text-anchor="start" x="574.9" y="-2396.7" font-family="Helvetica,sans-Serif" font-style="italic" font-size="32.00" fill="#29235c">INT</text>
<polygon fill="#e7e2dd" stroke="transparent" points="147.44,-2315.5 147.44,-2375.5 637.44,-2375.5 637.44,-2315.5 147.44,-2315.5"/>
<polygon fill="none" stroke="#29235c" points="147.44,-2315.5 147.44,-2375.5 637.44,-2375.5 637.44,-2315.5 147.44,-2315.5"/>
<text text-anchor="start" x="158.44" y="-2335.7" font-family="Helvetica,sans-Serif" font-size="32.00" fill="#29235c">os_filter &#160;&#160;&#160;</text>
<text text-anchor="start" x="395.35" y="-2336.7" font-family="Helvetica,sans-Serif" font-style="italic" font-size="32.00" fill="#29235c">VARCHAR(255)</text>
<polygon fill="#e7e2dd" stroke="transparent" points="147.44,-2255.5 147.44,-2315.5 637.44,-2315.5 637.44,-2255.5 147.44,-2255.5"/>
<polygon fill="none" stroke="#29235c" points="147.44,-2255.5 147.44,-2315.5 637.44,-2315.5 637.44,-2255.5 147.44,-2255.5"/>
<text text-anchor="start" x="158.44" y="-2275.7" font-family="Helvetica,sans-Serif" font-size="32.00" fill="#29235c">severity_filter &#160;&#160;&#160;</text>
<text text-anchor="start" x="413.14" y="-2276.7" font-family="Helvetica,sans-Serif" font-style="italic" font-size="32.00" fill="#29235c">VARCHAR(50)</text>
<polygon fill="#e7e2dd" stroke="transparent" points="147.44,-2195.5 147.44,-2255.5 637.44,-2255.5 637.44,-2195.5 147.44,-2195.5"/>
<polygon fill="none" stroke="#29235c" points="147.44,-2195.5 147.44,-2255.5 637.44,-2255.5 637.44,-2195.5 147.44,-2195.5"/>
<text text-anchor="start" x="158.44" y="-2215.7" font-family="Helvetica,sans-Serif" font-size="32.00" fill="#29235c">product_filters &#160;&#160;&#160;</text>
<text text-anchor="start" x="544.67" y="-2216.7" font-family="Helvetica,sans-Serif" font-style="italic" font-size="32.00" fill="#29235c">TEXT</text>
<polygon fill="#e7e2dd" stroke="transparent" points="147.44,-2135.5 147.44,-2195.5 637.44,-2195.5 637.44,-2135.5 147.44,-2135.5"/>
<polygon fill="none" stroke="#29235c" points="147.44,-2135.5 147.44,-2195.5 637.44,-2195.5 637.44,-2135.5 147.44,-2135.5"/>
<text text-anchor="start" x="158.13" y="-2155.7" font-family="Helvetica,sans-Serif" font-size="32.00" fill="#29235c">include_resolved &#160;&#160;&#160;</text>
<text text-anchor="start" x="433.05" y="-2156.7" font-family="Helvetica,sans-Serif" font-style="italic" font-size="32.00" fill="#29235c">BOOLEAN</text>
<text text-anchor="start" x="587.75" y="-2156.7" font-family="Helvetica,sans-Serif" font-size="32.00" fill="#29235c"> </text>
<text text-anchor="start" x="596.64" y="-2156.7" font-family="Helvetica,sans-Serif" font-weight="bold" font-size="32.00" fill="#29235c">(!)</text>
<polygon fill="#e7e2dd" stroke="transparent" points="147.44,-2075.5 147.44,-2135.5 637.44,-2135.5 637.44,-2075.5 147.44,-2075.5"/>
<polygon fill="none" stroke="#29235c" points="147.44,-2075.5 147.44,-2135.5 637.44,-2135.5 637.44,-2075.5 147.44,-2075.5"/>
<text text-anchor="start" x="158.44" y="-2095.7" font-family="Helvetica,sans-Serif" font-size="32.00" fill="#29235c">include_rejected &#160;&#160;&#160;</text>
<text text-anchor="start" x="432.66" y="-2096.7" font-family="Helvetica,sans-Serif" font-style="italic" font-size="32.00" fill="#29235c">BOOLEAN</text>
<text text-anchor="start" x="587.35" y="-2096.7" font-family="Helvetica,sans-Serif" font-size="32.00" fill="#29235c"> </text>
<text text-anchor="start" x="596.25" y="-2096.7" font-family="Helvetica,sans-Serif" font-weight="bold" font-size="32.00" fill="#29235c">(!)</text>
<polygon fill="none" stroke="#29235c" stroke-width="2" points="146.44,-2074.5 146.44,-2556.5 638.44,-2556.5 638.44,-2074.5 146.44,-2074.5"/>
</g>
<!-- user_filters&#45;&gt;users -->
<!-- user_filters&#45;&gt;users -->
<g id="edge2" class="edge">
<title>user_filters:e&#45;&gt;users:w</title>
<path fill="none" stroke="#29235c" stroke-width="3" d="M638.44,-2405.5C924.9,-2405.5 654.12,-1839.58 926.97,-1825.76"/>
<polygon fill="#29235c" stroke="#29235c" stroke-width="3" points="927.42,-1829.25 937.33,-1825.5 927.25,-1822.25 927.42,-1829.25"/>
<text text-anchor="middle" x="928.44" y="-1835.1" font-family="Helvetica,sans-Serif" font-size="32.00" fill="#29235c">1</text>
<text text-anchor="middle" x="632.22" y="-2415.1" font-family="Helvetica,sans-Serif" font-size="32.00" fill="#29235c">*</text>
</g>
<!-- user_alerts -->
<g id="user_alerts" class="node">
<title>user_alerts</title>
<ellipse fill="none" stroke="black" stroke-width="0" cx="392.44" cy="-1825.5" rx="217.58" ry="130.22"/>
<polygon fill="#1d71b8" stroke="transparent" points="240.44,-1855.5 240.44,-1915.5 544.44,-1915.5 544.44,-1855.5 240.44,-1855.5"/>
<polygon fill="none" stroke="#29235c" points="240.44,-1855.5 240.44,-1915.5 544.44,-1915.5 544.44,-1855.5 240.44,-1855.5"/>
<text text-anchor="start" x="251.07" y="-1876.7" font-family="Helvetica,sans-Serif" font-weight="bold" font-size="32.00" fill="#ffffff"> &#160;&#160;&#160;&#160;&#160;&#160;user_alerts &#160;&#160;&#160;&#160;&#160;&#160;</text>
<polygon fill="#e7e2dd" stroke="transparent" points="240.44,-1795.5 240.44,-1855.5 544.44,-1855.5 544.44,-1795.5 240.44,-1795.5"/>
<polygon fill="none" stroke="#29235c" points="240.44,-1795.5 240.44,-1855.5 544.44,-1855.5 544.44,-1795.5 240.44,-1795.5"/>
<text text-anchor="start" x="251.44" y="-1816.7" font-family="Helvetica,sans-Serif" font-weight="bold" font-size="32.00" fill="#29235c">id</text>
<text text-anchor="start" x="276.33" y="-1816.7" font-family="Helvetica,sans-Serif" font-size="32.00" fill="#29235c"> &#160;&#160;&#160;</text>
<text text-anchor="start" x="481.9" y="-1816.7" font-family="Helvetica,sans-Serif" font-style="italic" font-size="32.00" fill="#29235c">INT</text>
<polygon fill="#e7e2dd" stroke="transparent" points="240.44,-1735.5 240.44,-1795.5 544.44,-1795.5 544.44,-1735.5 240.44,-1735.5"/>
<polygon fill="none" stroke="#29235c" points="240.44,-1735.5 240.44,-1795.5 544.44,-1795.5 544.44,-1735.5 240.44,-1735.5"/>
<text text-anchor="start" x="251.44" y="-1755.7" font-family="Helvetica,sans-Serif" font-size="32.00" fill="#29235c">user_id &#160;&#160;&#160;</text>
<text text-anchor="start" x="481.9" y="-1756.7" font-family="Helvetica,sans-Serif" font-style="italic" font-size="32.00" fill="#29235c">INT</text>
<polygon fill="none" stroke="#29235c" stroke-width="2" points="239.44,-1734.5 239.44,-1916.5 545.44,-1916.5 545.44,-1734.5 239.44,-1734.5"/>
</g>
<!-- user_alerts&#45;&gt;users -->
<!-- user_alerts&#45;&gt;users -->
<g id="edge4" class="edge">
<title>user_alerts:e&#45;&gt;users:w</title>
<path fill="none" stroke="#29235c" stroke-width="3" d="M545.44,-1765.5C718.21,-1765.5 759.54,-1823.18 927.16,-1825.44"/>
<polygon fill="#29235c" stroke="#29235c" stroke-width="3" points="927.31,-1828.94 937.33,-1825.5 927.36,-1821.94 927.31,-1828.94"/>
<text text-anchor="middle" x="946.23" y="-1835.1" font-family="Helvetica,sans-Serif" font-size="32.00" fill="#29235c">1</text>
<text text-anchor="middle" x="539.22" y="-1775.1" font-family="Helvetica,sans-Serif" font-size="32.00" fill="#29235c">*</text>
</g>
<!-- user_archives -->
<g id="user_archives" class="node">
<title>user_archives</title>
<ellipse fill="none" stroke="black" stroke-width="0" cx="392.44" cy="-1547.5" rx="246.56" ry="130.22"/>
<polygon fill="#1d71b8" stroke="transparent" points="220.44,-1577.5 220.44,-1637.5 565.44,-1637.5 565.44,-1577.5 220.44,-1577.5"/>
<polygon fill="none" stroke="#29235c" points="220.44,-1577.5 220.44,-1637.5 565.44,-1637.5 565.44,-1577.5 220.44,-1577.5"/>
<text text-anchor="start" x="231.13" y="-1598.7" font-family="Helvetica,sans-Serif" font-weight="bold" font-size="32.00" fill="#ffffff"> &#160;&#160;&#160;&#160;&#160;&#160;user_archives &#160;&#160;&#160;&#160;&#160;&#160;</text>
<polygon fill="#e7e2dd" stroke="transparent" points="220.44,-1517.5 220.44,-1577.5 565.44,-1577.5 565.44,-1517.5 220.44,-1517.5"/>
<polygon fill="none" stroke="#29235c" points="220.44,-1517.5 220.44,-1577.5 565.44,-1577.5 565.44,-1517.5 220.44,-1517.5"/>
<text text-anchor="start" x="231.44" y="-1538.7" font-family="Helvetica,sans-Serif" font-weight="bold" font-size="32.00" fill="#29235c">id</text>
<text text-anchor="start" x="256.33" y="-1538.7" font-family="Helvetica,sans-Serif" font-size="32.00" fill="#29235c"> &#160;&#160;&#160;</text>
<text text-anchor="start" x="502.9" y="-1538.7" font-family="Helvetica,sans-Serif" font-style="italic" font-size="32.00" fill="#29235c">INT</text>
<polygon fill="#e7e2dd" stroke="transparent" points="220.44,-1457.5 220.44,-1517.5 565.44,-1517.5 565.44,-1457.5 220.44,-1457.5"/>
<polygon fill="none" stroke="#29235c" points="220.44,-1457.5 220.44,-1517.5 565.44,-1517.5 565.44,-1457.5 220.44,-1457.5"/>
<text text-anchor="start" x="231.44" y="-1477.7" font-family="Helvetica,sans-Serif" font-size="32.00" fill="#29235c">user_id &#160;&#160;&#160;</text>
<text text-anchor="start" x="502.9" y="-1478.7" font-family="Helvetica,sans-Serif" font-style="italic" font-size="32.00" fill="#29235c">INT</text>
<polygon fill="none" stroke="#29235c" stroke-width="2" points="218.94,-1456.5 218.94,-1638.5 565.94,-1638.5 565.94,-1456.5 218.94,-1456.5"/>
</g>
<!-- user_archives&#45;&gt;users -->
<!-- user_archives&#45;&gt;users -->
<g id="edge6" class="edge">
<title>user_archives:e&#45;&gt;users:w</title>
<path fill="none" stroke="#29235c" stroke-width="3" d="M566.44,-1487.5C697.78,-1487.5 687.82,-1598.04 784.89,-1686.5 850.01,-1745.85 846.08,-1819.49 927.03,-1825.16"/>
<polygon fill="#29235c" stroke="#29235c" stroke-width="3" points="927.22,-1828.66 937.33,-1825.5 927.46,-1821.67 927.22,-1828.66"/>
<text text-anchor="middle" x="928.44" y="-1796.7" font-family="Helvetica,sans-Serif" font-size="32.00" fill="#29235c">1</text>
<text text-anchor="middle" x="560.22" y="-1497.1" font-family="Helvetica,sans-Serif" font-size="32.00" fill="#29235c">*</text>
</g>
<!-- user_settings -->
<g id="user_settings" class="node">
<title>user_settings</title>
<ellipse fill="none" stroke="black" stroke-width="0" cx="392.44" cy="-2975.5" rx="392.39" ry="299.63"/>
<polygon fill="#1d71b8" stroke="transparent" points="117.44,-3125.5 117.44,-3185.5 668.44,-3185.5 668.44,-3125.5 117.44,-3125.5"/>
<polygon fill="none" stroke="#29235c" points="117.44,-3125.5 117.44,-3185.5 668.44,-3185.5 668.44,-3125.5 117.44,-3125.5"/>
<text text-anchor="start" x="235.56" y="-3146.7" font-family="Helvetica,sans-Serif" font-weight="bold" font-size="32.00" fill="#ffffff"> &#160;&#160;&#160;&#160;&#160;&#160;user_settings &#160;&#160;&#160;&#160;&#160;&#160;</text>
<polygon fill="#e7e2dd" stroke="transparent" points="117.44,-3065.5 117.44,-3125.5 668.44,-3125.5 668.44,-3065.5 117.44,-3065.5"/>
<polygon fill="none" stroke="#29235c" points="117.44,-3065.5 117.44,-3125.5 668.44,-3125.5 668.44,-3065.5 117.44,-3065.5"/>
<text text-anchor="start" x="128.44" y="-3086.7" font-family="Helvetica,sans-Serif" font-weight="bold" font-size="32.00" fill="#29235c">id</text>
<text text-anchor="start" x="153.33" y="-3086.7" font-family="Helvetica,sans-Serif" font-size="32.00" fill="#29235c"> &#160;&#160;&#160;</text>
<text text-anchor="start" x="605.9" y="-3086.7" font-family="Helvetica,sans-Serif" font-style="italic" font-size="32.00" fill="#29235c">INT</text>
<polygon fill="#e7e2dd" stroke="transparent" points="117.44,-3005.5 117.44,-3065.5 668.44,-3065.5 668.44,-3005.5 117.44,-3005.5"/>
<polygon fill="none" stroke="#29235c" points="117.44,-3005.5 117.44,-3065.5 668.44,-3065.5 668.44,-3005.5 117.44,-3005.5"/>
<text text-anchor="start" x="128.44" y="-3025.7" font-family="Helvetica,sans-Serif" font-size="32.00" fill="#29235c">user_id &#160;&#160;&#160;</text>
<text text-anchor="start" x="605.9" y="-3026.7" font-family="Helvetica,sans-Serif" font-style="italic" font-size="32.00" fill="#29235c">INT</text>
<polygon fill="#e7e2dd" stroke="transparent" points="117.44,-2945.5 117.44,-3005.5 668.44,-3005.5 668.44,-2945.5 117.44,-2945.5"/>
<polygon fill="none" stroke="#29235c" points="117.44,-2945.5 117.44,-3005.5 668.44,-3005.5 668.44,-2945.5 117.44,-2945.5"/>
<text text-anchor="start" x="128.39" y="-2965.7" font-family="Helvetica,sans-Serif" font-size="32.00" fill="#29235c">notifications_enabled &#160;&#160;&#160;</text>
<text text-anchor="start" x="464.05" y="-2966.7" font-family="Helvetica,sans-Serif" font-style="italic" font-size="32.00" fill="#29235c">BOOLEAN</text>
<text text-anchor="start" x="618.75" y="-2966.7" font-family="Helvetica,sans-Serif" font-size="32.00" fill="#29235c"> </text>
<text text-anchor="start" x="627.64" y="-2966.7" font-family="Helvetica,sans-Serif" font-weight="bold" font-size="32.00" fill="#29235c">(!)</text>
<polygon fill="#e7e2dd" stroke="transparent" points="117.44,-2885.5 117.44,-2945.5 668.44,-2945.5 668.44,-2885.5 117.44,-2885.5"/>
<polygon fill="none" stroke="#29235c" points="117.44,-2885.5 117.44,-2945.5 668.44,-2945.5 668.44,-2885.5 117.44,-2885.5"/>
<text text-anchor="start" x="128.44" y="-2905.7" font-family="Helvetica,sans-Serif" font-size="32.00" fill="#29235c">last_login &#160;&#160;&#160;</text>
<text text-anchor="start" x="470.79" y="-2906.7" font-family="Helvetica,sans-Serif" font-style="italic" font-size="32.00" fill="#29235c">TIMESTAMP</text>
<polygon fill="#e7e2dd" stroke="transparent" points="117.44,-2825.5 117.44,-2885.5 668.44,-2885.5 668.44,-2825.5 117.44,-2825.5"/>
<polygon fill="none" stroke="#29235c" points="117.44,-2825.5 117.44,-2885.5 668.44,-2885.5 668.44,-2825.5 117.44,-2825.5"/>
<text text-anchor="start" x="128.44" y="-2845.7" font-family="Helvetica,sans-Serif" font-size="32.00" fill="#29235c">dark_mode_enabled &#160;&#160;&#160;</text>
<text text-anchor="start" x="463.66" y="-2846.7" font-family="Helvetica,sans-Serif" font-style="italic" font-size="32.00" fill="#29235c">BOOLEAN</text>
<text text-anchor="start" x="618.35" y="-2846.7" font-family="Helvetica,sans-Serif" font-size="32.00" fill="#29235c"> </text>
<text text-anchor="start" x="627.25" y="-2846.7" font-family="Helvetica,sans-Serif" font-weight="bold" font-size="32.00" fill="#29235c">(!)</text>
<polygon fill="#e7e2dd" stroke="transparent" points="117.44,-2765.5 117.44,-2825.5 668.44,-2825.5 668.44,-2765.5 117.44,-2765.5"/>
<polygon fill="none" stroke="#29235c" points="117.44,-2765.5 117.44,-2825.5 668.44,-2825.5 668.44,-2765.5 117.44,-2765.5"/>
<text text-anchor="start" x="128.44" y="-2785.7" font-family="Helvetica,sans-Serif" font-size="32.00" fill="#29235c">startup_enabled &#160;&#160;&#160;</text>
<text text-anchor="start" x="463.66" y="-2786.7" font-family="Helvetica,sans-Serif" font-style="italic" font-size="32.00" fill="#29235c">BOOLEAN</text>
<text text-anchor="start" x="618.35" y="-2786.7" font-family="Helvetica,sans-Serif" font-size="32.00" fill="#29235c"> </text>
<text text-anchor="start" x="627.25" y="-2786.7" font-family="Helvetica,sans-Serif" font-weight="bold" font-size="32.00" fill="#29235c">(!)</text>
<polygon fill="none" stroke="#29235c" stroke-width="2" points="115.94,-2764.5 115.94,-3186.5 668.94,-3186.5 668.94,-2764.5 115.94,-2764.5"/>
</g>
<!-- user_settings&#45;&gt;users -->
<!-- user_settings&#45;&gt;users -->
<g id="edge8" class="edge">
<title>user_settings:e&#45;&gt;users:w</title>
<path fill="none" stroke="#29235c" stroke-width="3" d="M669.44,-3035.5C941.35,-3035.5 669.03,-1856.03 927.11,-1826.08"/>
<polygon fill="#29235c" stroke="#29235c" stroke-width="3" points="927.55,-1829.56 937.33,-1825.5 927.15,-1822.58 927.55,-1829.56"/>
<text text-anchor="middle" x="946.23" y="-1796.7" font-family="Helvetica,sans-Serif" font-size="32.00" fill="#29235c">1</text>
<text text-anchor="middle" x="663.22" y="-3045.1" font-family="Helvetica,sans-Serif" font-size="32.00" fill="#29235c">*</text>
</g>
<!-- notifications -->
<g id="notifications" class="node">
<title>notifications</title>
<ellipse fill="none" stroke="black" stroke-width="0" cx="392.44" cy="-1142.5" rx="272.47" ry="257.27"/>
<polygon fill="#1d71b8" stroke="transparent" points="202.44,-1262.5 202.44,-1322.5 583.44,-1322.5 583.44,-1262.5 202.44,-1262.5"/>
<polygon fill="none" stroke="#29235c" points="202.44,-1262.5 202.44,-1322.5 583.44,-1322.5 583.44,-1262.5 202.44,-1262.5"/>
<text text-anchor="start" x="246.23" y="-1283.7" font-family="Helvetica,sans-Serif" font-weight="bold" font-size="32.00" fill="#ffffff"> &#160;&#160;&#160;&#160;&#160;&#160;notifications &#160;&#160;&#160;&#160;&#160;&#160;</text>
<polygon fill="#e7e2dd" stroke="transparent" points="202.44,-1202.5 202.44,-1262.5 583.44,-1262.5 583.44,-1202.5 202.44,-1202.5"/>
<polygon fill="none" stroke="#29235c" points="202.44,-1202.5 202.44,-1262.5 583.44,-1262.5 583.44,-1202.5 202.44,-1202.5"/>
<text text-anchor="start" x="213.44" y="-1223.7" font-family="Helvetica,sans-Serif" font-weight="bold" font-size="32.00" fill="#29235c">id</text>
<text text-anchor="start" x="238.33" y="-1223.7" font-family="Helvetica,sans-Serif" font-size="32.00" fill="#29235c"> &#160;&#160;&#160;</text>
<text text-anchor="start" x="520.9" y="-1223.7" font-family="Helvetica,sans-Serif" font-style="italic" font-size="32.00" fill="#29235c">INT</text>
<polygon fill="#e7e2dd" stroke="transparent" points="202.44,-1142.5 202.44,-1202.5 583.44,-1202.5 583.44,-1142.5 202.44,-1142.5"/>
<polygon fill="none" stroke="#29235c" points="202.44,-1142.5 202.44,-1202.5 583.44,-1202.5 583.44,-1142.5 202.44,-1142.5"/>
<text text-anchor="start" x="213.44" y="-1162.7" font-family="Helvetica,sans-Serif" font-size="32.00" fill="#29235c">user_id &#160;&#160;&#160;</text>
<text text-anchor="start" x="520.9" y="-1163.7" font-family="Helvetica,sans-Serif" font-style="italic" font-size="32.00" fill="#29235c">INT</text>
<polygon fill="#e7e2dd" stroke="transparent" points="202.44,-1082.5 202.44,-1142.5 583.44,-1142.5 583.44,-1082.5 202.44,-1082.5"/>
<polygon fill="none" stroke="#29235c" points="202.44,-1082.5 202.44,-1142.5 583.44,-1142.5 583.44,-1082.5 202.44,-1082.5"/>
<text text-anchor="start" x="213.43" y="-1102.7" font-family="Helvetica,sans-Serif" font-size="32.00" fill="#29235c">cve_id &#160;&#160;&#160;</text>
<text text-anchor="start" x="341.4" y="-1103.7" font-family="Helvetica,sans-Serif" font-style="italic" font-size="32.00" fill="#29235c">VARCHAR(100)</text>
<polygon fill="#e7e2dd" stroke="transparent" points="202.44,-1022.5 202.44,-1082.5 583.44,-1082.5 583.44,-1022.5 202.44,-1022.5"/>
<polygon fill="none" stroke="#29235c" points="202.44,-1022.5 202.44,-1082.5 583.44,-1082.5 583.44,-1022.5 202.44,-1022.5"/>
<text text-anchor="start" x="213.44" y="-1042.7" font-family="Helvetica,sans-Serif" font-size="32.00" fill="#29235c">message &#160;&#160;&#160;</text>
<text text-anchor="start" x="490.67" y="-1043.7" font-family="Helvetica,sans-Serif" font-style="italic" font-size="32.00" fill="#29235c">TEXT</text>
<polygon fill="#e7e2dd" stroke="transparent" points="202.44,-962.5 202.44,-1022.5 583.44,-1022.5 583.44,-962.5 202.44,-962.5"/>
<polygon fill="none" stroke="#29235c" points="202.44,-962.5 202.44,-1022.5 583.44,-1022.5 583.44,-962.5 202.44,-962.5"/>
<text text-anchor="start" x="213.44" y="-982.7" font-family="Helvetica,sans-Serif" font-size="32.00" fill="#29235c">sent_at &#160;&#160;&#160;</text>
<text text-anchor="start" x="385.79" y="-983.7" font-family="Helvetica,sans-Serif" font-style="italic" font-size="32.00" fill="#29235c">TIMESTAMP</text>
<polygon fill="none" stroke="#29235c" stroke-width="2" points="200.94,-961.5 200.94,-1323.5 583.94,-1323.5 583.94,-961.5 200.94,-961.5"/>
</g>
<!-- notifications&#45;&gt;users -->
<!-- notifications&#45;&gt;users -->
<g id="edge10" class="edge">
<title>notifications:e&#45;&gt;users:w</title>
<path fill="none" stroke="#29235c" stroke-width="3" d="M584.44,-1172.5C722.06,-1172.5 720.94,-1286.65 784.89,-1408.5 874.97,-1580.16 744.73,-1817.01 927.23,-1825.28"/>
<polygon fill="#29235c" stroke="#29235c" stroke-width="3" points="927.26,-1828.78 937.33,-1825.5 927.41,-1821.78 927.26,-1828.78"/>
<text text-anchor="middle" x="928.44" y="-1835.1" font-family="Helvetica,sans-Serif" font-size="32.00" fill="#29235c">1</text>
<text text-anchor="middle" x="578.22" y="-1143.7" font-family="Helvetica,sans-Serif" font-size="32.00" fill="#29235c">*</text>
</g>
<!-- notifications&#45;&gt;cves -->
<!-- notifications&#45;&gt;cves -->
<g id="edge12" class="edge">
<title>notifications:e&#45;&gt;cves:w</title>
<path fill="none" stroke="#29235c" stroke-width="3" d="M584.44,-1112.5C744.28,-1112.5 784.29,-1154.63 938.98,-1156.44"/>
<polygon fill="#29235c" stroke="#29235c" stroke-width="3" points="939.31,-1159.95 949.33,-1156.5 939.35,-1152.95 939.31,-1159.95"/>
<text text-anchor="middle" x="940.44" y="-1127.7" font-family="Helvetica,sans-Serif" font-size="32.00" fill="#29235c">1</text>
<text text-anchor="middle" x="578.22" y="-1083.7" font-family="Helvetica,sans-Serif" font-size="32.00" fill="#29235c">*</text>
</g>
<!-- metadata -->
<g id="metadata" class="node">
<title>metadata</title>
<ellipse fill="none" stroke="black" stroke-width="0" cx="392.44" cy="-3465.5" rx="338.91" ry="172.57"/>
<polygon fill="#1d71b8" stroke="transparent" points="155.44,-3525.5 155.44,-3585.5 630.44,-3585.5 630.44,-3525.5 155.44,-3525.5"/>
<polygon fill="none" stroke="#29235c" points="155.44,-3525.5 155.44,-3585.5 630.44,-3585.5 630.44,-3525.5 155.44,-3525.5"/>
<text text-anchor="start" x="264" y="-3546.7" font-family="Helvetica,sans-Serif" font-weight="bold" font-size="32.00" fill="#ffffff"> &#160;&#160;&#160;&#160;&#160;&#160;metadata &#160;&#160;&#160;&#160;&#160;&#160;</text>
<polygon fill="#e7e2dd" stroke="transparent" points="155.44,-3465.5 155.44,-3525.5 630.44,-3525.5 630.44,-3465.5 155.44,-3465.5"/>
<polygon fill="none" stroke="#29235c" points="155.44,-3465.5 155.44,-3525.5 630.44,-3525.5 630.44,-3465.5 155.44,-3465.5"/>
<text text-anchor="start" x="166.44" y="-3486.7" font-family="Helvetica,sans-Serif" font-weight="bold" font-size="32.00" fill="#29235c">id</text>
<text text-anchor="start" x="191.33" y="-3486.7" font-family="Helvetica,sans-Serif" font-size="32.00" fill="#29235c"> &#160;&#160;&#160;</text>
<text text-anchor="start" x="567.9" y="-3486.7" font-family="Helvetica,sans-Serif" font-style="italic" font-size="32.00" fill="#29235c">INT</text>
<polygon fill="#e7e2dd" stroke="transparent" points="155.44,-3405.5 155.44,-3465.5 630.44,-3465.5 630.44,-3405.5 155.44,-3405.5"/>
<polygon fill="none" stroke="#29235c" points="155.44,-3405.5 155.44,-3465.5 630.44,-3465.5 630.44,-3405.5 155.44,-3405.5"/>
<text text-anchor="start" x="166.36" y="-3425.7" font-family="Helvetica,sans-Serif" font-size="32.00" fill="#29235c">key_name &#160;&#160;&#160;</text>
<text text-anchor="start" x="349.35" y="-3426.7" font-family="Helvetica,sans-Serif" font-style="italic" font-size="32.00" fill="#29235c">VARCHAR(191)</text>
<text text-anchor="start" x="580.45" y="-3426.7" font-family="Helvetica,sans-Serif" font-size="32.00" fill="#29235c"> </text>
<text text-anchor="start" x="589.34" y="-3426.7" font-family="Helvetica,sans-Serif" font-weight="bold" font-size="32.00" fill="#29235c">(!)</text>
<polygon fill="#e7e2dd" stroke="transparent" points="155.44,-3345.5 155.44,-3405.5 630.44,-3405.5 630.44,-3345.5 155.44,-3345.5"/>
<polygon fill="none" stroke="#29235c" points="155.44,-3345.5 155.44,-3405.5 630.44,-3405.5 630.44,-3345.5 155.44,-3345.5"/>
<text text-anchor="start" x="166.44" y="-3365.7" font-family="Helvetica,sans-Serif" font-size="32.00" fill="#29235c">dvalue &#160;&#160;&#160;</text>
<text text-anchor="start" x="349.26" y="-3366.7" font-family="Helvetica,sans-Serif" font-style="italic" font-size="32.00" fill="#29235c">VARCHAR(255)</text>
<text text-anchor="start" x="580.35" y="-3366.7" font-family="Helvetica,sans-Serif" font-size="32.00" fill="#29235c"> </text>
<text text-anchor="start" x="589.25" y="-3366.7" font-family="Helvetica,sans-Serif" font-weight="bold" font-size="32.00" fill="#29235c">(!)</text>
<polygon fill="none" stroke="#29235c" stroke-width="2" points="153.94,-3344.5 153.94,-3586.5 630.94,-3586.5 630.94,-3344.5 153.94,-3344.5"/>
</g>
</g>
</svg>

