<?xml version="1.0" encoding="us-ascii" standalone="no"?><svg xmlns="http://www.w3.org/2000/svg" xmlns:xlink="http://www.w3.org/1999/xlink" contentStyleType="text/css" height="809.375px" preserveAspectRatio="none" style="width:2507px;height:809px;background:#FFFFFF;" version="1.1" viewBox="0 0 2507 809" width="2507.8125px" zoomAndPan="magnify"><defs/><g><!--cluster app--><g id="cluster_app"><path d="M13.2813,9.375 L307.0313,9.375 A5.8594,5.8594 0 0 1 310.9375,13.2813 L321.875,44.2139 L1102.3438,44.2139 A3.9063,3.9063 0 0 1 1106.25,48.1201 L1106.25,795.625 A3.9063,3.9063 0 0 1 1102.3438,799.5313 L13.2813,799.5313 A3.9063,3.9063 0 0 1 9.375,795.625 L9.375,13.2813 A3.9063,3.9063 0 0 1 13.2813,9.375 " fill="none" style="stroke:#000000;stroke-width:2.34375;"/><line style="stroke:#000000;stroke-width:2.34375;" x1="9.375" x2="321.875" y1="44.2139" y2="44.2139"/><text fill="#000000" font-family="sans-serif" font-size="21.875" font-weight="bold" lengthAdjust="spacing" textLength="292.1875" x="15.625" y="32.8049">VulnMonitor Application</text></g><!--cluster external--><g id="cluster_external"><path d="M1369.5313,418.6406 L1583.5938,418.6406 A5.8594,5.8594 0 0 1 1587.5,422.5469 L1598.4375,453.4795 L2374.2188,453.4795 A3.9063,3.9063 0 0 1 2378.125,457.3857 L2378.125,577.1875 A3.9063,3.9063 0 0 1 2374.2188,581.0938 L1369.5313,581.0938 A3.9063,3.9063 0 0 1 1365.625,577.1875 L1365.625,422.5469 A3.9063,3.9063 0 0 1 1369.5313,418.6406 " fill="none" style="stroke:#000000;stroke-width:2.34375;"/><line style="stroke:#000000;stroke-width:2.34375;" x1="1365.625" x2="1598.4375" y1="453.4795" y2="453.4795"/><text fill="#000000" font-family="sans-serif" font-size="21.875" font-weight="bold" lengthAdjust="spacing" textLength="212.5" x="1371.875" y="442.0705">External Systems</text></g><!--entity gui--><g id="elem_gui"><rect fill="#FFFFFF" height="53.0762" rx="3.9063" ry="3.9063" style="stroke:#000000;stroke-width:0.78125;" width="225" x="812.5" y="93.75"/><text fill="#000000" font-family="sans-serif" font-size="18.75" lengthAdjust="spacing" textLength="193.75" x="828.125" y="126.7792">User Interface (GUI)</text></g><!--entity logic--><g id="elem_logic"><rect fill="#FFFFFF" height="53.0762" rx="3.9063" ry="3.9063" style="stroke:#000000;stroke-width:0.78125;" width="195.3125" x="569.5313" y="267.1406"/><text fill="#000000" font-family="sans-serif" font-size="18.75" lengthAdjust="spacing" textLength="164.0625" x="585.1563" y="300.1698">Application Logic</text></g><!--entity filters--><g id="elem_filters"><rect fill="#FFFFFF" height="53.0762" rx="3.9063" ry="3.9063" style="stroke:#000000;stroke-width:0.78125;" width="182.8125" x="161.7188" y="93.75"/><text fill="#000000" font-family="sans-serif" font-size="18.75" lengthAdjust="spacing" textLength="151.5625" x="177.3438" y="126.7792">Filters Manager</text></g><!--entity alerts--><g id="elem_alerts"><rect fill="#FFFFFF" height="53.0762" rx="3.9063" ry="3.9063" style="stroke:#000000;stroke-width:0.78125;" width="179.6875" x="394.5313" y="503.0156"/><text fill="#000000" font-family="sans-serif" font-size="18.75" lengthAdjust="spacing" textLength="148.4375" x="410.1563" y="536.0448">Alerts Manager</text></g><!--entity sessionManager--><g id="elem_sessionManager"><rect fill="#FFFFFF" height="53.0762" rx="3.9063" ry="3.9063" style="stroke:#000000;stroke-width:0.78125;" width="200" x="629.6875" y="503.0156"/><text fill="#000000" font-family="sans-serif" font-size="18.75" lengthAdjust="spacing" textLength="168.75" x="645.3125" y="536.0448">Session Manager</text></g><!--entity checkService--><g id="elem_checkService"><rect fill="#FFFFFF" height="53.0762" rx="3.9063" ry="3.9063" style="stroke:#000000;stroke-width:0.78125;" width="167.1875" x="885.1563" y="503.0156"/><text fill="#000000" font-family="sans-serif" font-size="18.75" lengthAdjust="spacing" textLength="135.9375" x="900.7813" y="536.0448">Check Service</text></g><!--entity database--><g id="elem_database"><path d="M189.8438,719.375 C189.8438,703.75 287.5,703.75 287.5,703.75 C287.5,703.75 385.1563,703.75 385.1563,719.375 L385.1563,758.9014 C385.1563,774.5264 287.5,774.5264 287.5,774.5264 C287.5,774.5264 189.8438,774.5264 189.8438,758.9014 L189.8438,719.375 " fill="#F1F1F1" style="stroke:#181818;stroke-width:0.78125;"/><path d="M189.8438,719.375 C189.8438,735 287.5,735 287.5,735 C287.5,735 385.1563,735 385.1563,719.375 " fill="none" style="stroke:#181818;stroke-width:0.78125;"/><text fill="#000000" font-family="sans-serif" font-size="21.875" lengthAdjust="spacing" textLength="164.0625" x="205.4688" y="761.5549">Local Database</text></g><!--entity cveDB--><g id="elem_cveDB"><rect fill="#FFFFFF" height="53.0762" rx="3.9063" ry="3.9063" style="stroke:#000000;stroke-width:0.78125;" width="181.25" x="1870.3125" y="503.0156"/><text fill="#000000" font-family="sans-serif" font-size="18.75" lengthAdjust="spacing" textLength="150" x="1885.9375" y="536.0448">CVE Databases</text></g><!--entity emailService--><g id="elem_emailService"><rect fill="#FFFFFF" height="53.0762" rx="3.9063" ry="3.9063" style="stroke:#000000;stroke-width:0.78125;" width="245.3125" x="2107.0313" y="503.0156"/><text fill="#000000" font-family="sans-serif" font-size="18.75" lengthAdjust="spacing" textLength="214.0625" x="2122.6563" y="536.0448">Email Service Provider</text></g><!--entity webBrowser--><g id="elem_webBrowser"><rect fill="#FFFFFF" height="53.0762" rx="3.9063" ry="3.9063" style="stroke:#000000;stroke-width:0.78125;" width="157.8125" x="1657.0313" y="503.0156"/><text fill="#000000" font-family="sans-serif" font-size="18.75" lengthAdjust="spacing" textLength="126.5625" x="1672.6563" y="536.0448">Web Browser</text></g><!--entity systemResources--><g id="elem_systemResources"><rect fill="#FFFFFF" height="53.0762" rx="3.9063" ry="3.9063" style="stroke:#000000;stroke-width:0.78125;" width="210.9375" x="1391.4063" y="503.0156"/><text fill="#000000" font-family="sans-serif" font-size="18.75" lengthAdjust="spacing" textLength="179.6875" x="1407.0313" y="536.0448">System Resources</text></g><!--entity user--><g id="elem_user"><ellipse cx="2181.25" cy="692.8125" fill="#F1F1F1" rx="12.5" ry="12.5" style="stroke:#181818;stroke-width:0.78125;"/><path d="M2181.25,705.3125 L2181.25,747.5 M2160.9375,717.8125 L2201.5625,717.8125 M2181.25,747.5 L2160.9375,770.9375 M2181.25,747.5 L2201.5625,770.9375 " fill="none" style="stroke:#181818;stroke-width:0.78125;"/><text fill="#000000" font-family="sans-serif" font-size="21.875" lengthAdjust="spacing" textLength="50" x="2156.25" y="793.5861">User</text></g><!--link user to gui--><g id="link_user_gui"><path d="M2206.7813,734.2031 C2254.8594,726.3281 2357.9063,701.7969 2401.5625,632.6563 C2455.5938,547.0781 2446.9063,480.4063 2378.125,406.1406 C2196.125,209.6563 1357.0165,145.1975 1047.6259,127.8225 " fill="none" id="user-to-gui" style="stroke:#181818;stroke-width:1.5625;"/><polygon fill="#181818" points="1038.2656,127.2969,1051.9556,134.3255,1046.0658,127.7349,1052.6564,121.8452,1038.2656,127.2969" style="stroke:#181818;stroke-width:1.5625;"/><text fill="#000000" font-family="sans-serif" font-size="20.3125" lengthAdjust="spacing" textLength="132.8125" x="2362.5" y="387.4951">Interacts with</text></g><!--link gui to logic--><g id="link_gui_logic"><path d="M886.4062,147.3438 C837.7969,179.4375 762.6052,229.1007 713.8708,261.2726 " fill="none" id="gui-to-logic" style="stroke:#181818;stroke-width:1.5625;"/><polygon fill="#181818" points="706.0469,266.4375,721.2261,263.906,712.5668,262.1334,714.3395,253.4741,706.0469,266.4375" style="stroke:#181818;stroke-width:1.5625;"/><text fill="#000000" font-family="sans-serif" font-size="20.3125" lengthAdjust="spacing" textLength="207.8125" x="812.5" y="214.1201">Sends commands to</text></g><!--link logic to database--><g id="link_logic_database"><path d="M569.2813,316.375 C508.2344,329.9375 428.1719,348.4688 357.8125,367.0781 C355.9688,367.5781 227.7031,404.625 226.5625,406.1406 C159.2344,496.4375 222.8792,630.2587 260.9417,695.1025 " fill="none" id="logic-to-database" style="stroke:#181818;stroke-width:1.5625;"/><polygon fill="#181818" points="265.6875,703.1875,263.9588,687.8961,261.7327,696.45,253.1787,694.2238,265.6875,703.1875" style="stroke:#181818;stroke-width:1.5625;"/><text fill="#000000" font-family="sans-serif" font-size="20.3125" lengthAdjust="spacing" textLength="137.5" x="228.125" y="536.6983">R/W user data</text></g><!--link logic to sessionManager--><g id="link_logic_sessionManager"><path d="M642.5469,320.9219 C626.9375,340.4375 611.25,368.1563 620.3125,393.6406 C635.9375,437.5781 665.8657,471.1819 692.4751,495.9006 " fill="none" id="logic-to-sessionManager" style="stroke:#181818;stroke-width:1.5625;"/><polygon fill="#181818" points="699.3438,502.2813,693.2945,488.1312,693.6199,496.9641,684.787,497.2894,699.3438,502.2813" style="stroke:#181818;stroke-width:1.5625;"/><text fill="#000000" font-family="sans-serif" font-size="20.3125" lengthAdjust="spacing" textLength="221.875" x="621.875" y="387.4951">Manages user session</text></g><!--link filters to database--><g id="link_filters_database"><path d="M218.3438,147.25 C161.1875,192.3906 56.1094,291.4531 81.25,393.6406 C112.2656,519.7344 201.4955,637.4959 250.9486,696.0115 " fill="none" id="filters-to-database" style="stroke:#181818;stroke-width:1.5625;"/><polygon fill="#181818" points="257,703.1719,252.6964,688.397,251.9571,697.2049,243.1493,696.4656,257,703.1719" style="stroke:#181818;stroke-width:1.5625;"/><text fill="#000000" font-family="sans-serif" font-size="20.3125" lengthAdjust="spacing" textLength="171.875" x="82.8125" y="387.4951">Reads user filters</text></g><!--link filters to logic--><g id="link_filters_logic"><path d="M315.5625,147.5156 C393.7344,179.6563 518.1574,230.8255 596.2512,262.9349 " fill="none" id="filters-to-logic" style="stroke:#181818;stroke-width:1.5625;"/><polygon fill="#181818" points="604.9219,266.5,594.2926,255.3719,597.6963,263.5291,589.5391,266.9328,604.9219,266.5" style="stroke:#181818;stroke-width:1.5625;"/><text fill="#000000" font-family="sans-serif" font-size="20.3125" lengthAdjust="spacing" textLength="209.375" x="485.9375" y="214.1201">Returns filtered CVEs</text></g><!--link logic to alerts--><g id="link_logic_alerts"><path d="M569.3594,306.7813 C495.5469,317.75 403.125,337.0781 379.6875,367.0781 C344.2031,412.5313 397.0175,464.3623 439.8456,496.8779 " fill="none" id="logic-to-alerts" style="stroke:#181818;stroke-width:1.5625;"/><polygon fill="#181818" points="447.3125,502.5469,439.8915,489.0656,441.0901,497.8228,432.3329,499.0214,447.3125,502.5469" style="stroke:#181818;stroke-width:1.5625;"/><text fill="#000000" font-family="sans-serif" font-size="20.3125" lengthAdjust="spacing" textLength="221.875" x="381.25" y="387.4951">Sends filtered CVEs to</text></g><!--link alerts to database--><g id="link_alerts_database"><path d="M459.8438,556.8594 C424.5938,593.8281 366.0016,655.2627 326.6891,696.4815 " fill="none" id="alerts-to-database" style="stroke:#181818;stroke-width:1.5625;"/><polygon fill="#181818" points="320.2188,703.2656,334.4471,697.403,325.6107,697.6122,325.4016,688.7758,320.2188,703.2656" style="stroke:#181818;stroke-width:1.5625;"/><text fill="#000000" font-family="sans-serif" font-size="20.3125" lengthAdjust="spacing" textLength="220.3125" x="410.9375" y="626.5108">Reads alert conditions</text></g><!--link alerts to user--><g id="link_alerts_user"><path d="M522.8125,556.6563 C544.9063,570.0156 573.7344,585.2813 601.5625,593.5938 C910.6094,685.9375 1967.3818,729.4879 2146.3036,736.2847 " fill="none" id="alerts-to-user" style="stroke:#181818;stroke-width:1.5625;"/><polygon fill="#181818" points="2155.6719,736.6406,2141.8568,729.8613,2147.865,736.3441,2141.3823,742.3523,2155.6719,736.6406" style="stroke:#181818;stroke-width:1.5625;"/><text fill="#000000" font-family="sans-serif" font-size="20.3125" lengthAdjust="spacing" textLength="151.5625" x="792.1875" y="626.5108">Sends alerts to</text></g><!--link logic to checkService--><g id="link_logic_checkService"><path d="M763.0781,320.9375 C793.3125,331.9844 825.5781,347.0625 851.5625,367.0781 C900.2969,404.625 933.5411,459.4689 951.9473,494.4532 " fill="none" id="logic-to-checkService" style="stroke:#181818;stroke-width:1.5625;"/><polygon fill="#181818" points="956.3125,502.75,955.2959,487.3948,952.6749,495.836,944.2336,493.215,956.3125,502.75" style="stroke:#181818;stroke-width:1.5625;"/><text fill="#000000" font-family="sans-serif" font-size="20.3125" lengthAdjust="spacing" textLength="165.625" x="879.6875" y="387.4951">Performs checks</text></g><!--link checkService to systemResources--><g id="link_checkService_systemResources"><path d="M1053.0156,529.5625 C1144.75,529.5625 1282.2344,529.5625 1381.6719,529.5625 " fill="none" id="checkService-to-systemResources" style="stroke:#181818;stroke-width:1.5625;"/><polygon fill="#181818" points="1391.0469,529.5625,1376.9844,523.3125,1383.2344,529.5625,1376.9844,535.8125,1391.0469,529.5625" style="stroke:#181818;stroke-width:1.5625;"/><text fill="#000000" font-family="sans-serif" font-size="20.3125" lengthAdjust="spacing" textLength="282.8125" x="1080.4688" y="518.7295">Checks internet, date, etc . .</text></g><!--link logic to cveDB--><g id="link_logic_cveDB"><path d="M765.5313,294.5781 C952.1094,294.9531 1369.625,303.6094 1714.0625,367.0781 C1772.6094,377.875 1791.3438,375.1719 1842.1875,406.1406 C1883.8125,431.5 1915.3826,467.3743 1936.6482,494.9368 " fill="none" id="logic-to-cveDB" style="stroke:#181818;stroke-width:1.5625;"/><polygon fill="#181818" points="1942.375,502.3594,1938.7332,487.4077,1937.6027,496.1739,1928.8364,495.0434,1942.375,502.3594" style="stroke:#181818;stroke-width:1.5625;"/><text fill="#000000" font-family="sans-serif" font-size="20.3125" lengthAdjust="spacing" textLength="229.6875" x="1818.75" y="387.4951">Fetches CVE data from</text></g><!--link cveDB to database--><g id="link_cveDB_database"><path d="M1921.9375,556.6406 C1899.5313,569.9844 1870.3281,585.25 1842.1875,593.5938 C1566.875,675.25 691.7096,719.9607 394.9752,733.0857 " fill="none" id="cveDB-to-database" style="stroke:#181818;stroke-width:1.5625;"/><polygon fill="#181818" points="385.6094,733.5,399.9343,739.1225,393.4142,733.1548,399.382,726.6347,385.6094,733.5" style="stroke:#181818;stroke-width:1.5625;"/><text fill="#000000" font-family="sans-serif" font-size="20.3125" lengthAdjust="spacing" textLength="179.6875" x="1773.4375" y="626.5108">Store CVE data to</text></g><!--link alerts to emailService--><g id="link_alerts_emailService"><path d="M500.6094,502.3125 C520.2188,472.3281 556.2969,425.7969 601.5625,406.1406 C741.2031,345.5156 2039.6094,392.3281 2078.125,406.1406 C2131.7813,425.4063 2174.0221,465.5517 2201.0377,495.6767 " fill="none" id="alerts-to-emailService" style="stroke:#181818;stroke-width:1.5625;"/><polygon fill="#181818" points="2207.2969,502.6563,2202.5612,488.0142,2202.0809,496.84,2193.2552,496.3597,2207.2969,502.6563" style="stroke:#181818;stroke-width:1.5625;"/><text fill="#000000" font-family="sans-serif" font-size="20.3125" lengthAdjust="spacing" textLength="168.75" x="1137.5" y="387.4951">Sends emails via</text></g><!--link emailService to user--><g id="link_emailService_user"><path d="M2205.5625,556.6719 C2194.4063,570.25 2182.375,587.8594 2176.5625,606.0938 C2169.2188,629.1719 2167.9646,646.3312 2169.949,669.4718 " fill="none" id="emailService-to-user" style="stroke:#181818;stroke-width:1.5625;"/><polygon fill="#181818" points="2170.75,678.8125,2175.7757,664.2674,2170.0825,671.0286,2163.3214,665.3354,2170.75,678.8125" style="stroke:#181818;stroke-width:1.5625;"/><text fill="#000000" font-family="sans-serif" font-size="20.3125" lengthAdjust="spacing" textLength="215.625" x="2178.125" y="626.5108">Sends notifications to</text></g><!--link logic to webBrowser--><g id="link_logic_webBrowser"><path d="M765.2344,304.9844 C893.1094,317.9375 1123.6875,342.1094 1320.3125,367.0781 C1402.4375,377.5156 1422.5,383.625 1504.6875,393.6406 C1532.4063,397.0313 1604.8906,393.3438 1629.6875,406.1406 C1671.5781,427.7813 1699.3909,465.4825 1716.8909,494.3575 " fill="none" id="logic-to-webBrowser" style="stroke:#181818;stroke-width:1.5625;"/><polygon fill="#181818" points="1721.75,502.375,1719.8064,487.1094,1717.7008,495.6938,1709.1164,493.5882,1721.75,502.375" style="stroke:#181818;stroke-width:1.5625;"/><text fill="#000000" font-family="sans-serif" font-size="20.3125" lengthAdjust="spacing" textLength="200" x="1506.25" y="387.4951">Opens sign-up page</text></g><!--SRC=[RPJDRjim48JlUeg5Bcs1E6qAzD93WJY9Ym096iJvEJFKIYPCaG99EMcBldjtALgcvFXWoxEVLiFbK7whJ2USQA7g59nz-rBuKUc4t8e67rJGUAvLOreq0JJM8OCgh4MlmmE-XGCZwGjTHZcKGPX68_mjW3vBQjqusvlgmchhu7cZ0WuLwofqWxhKX4LrPKrOgpy8Pr-BVqKXPA3oeqS7maDFlqMHt4Bvr6jpQurYvBphj98YA6jAHaNN9GS7HsNiSysEQo4HFlvylFuKwQPNSpPh23UsKJA2cg_cw4ffQkdXLXZovI9O3zfHLuqkJ4aHfJcuHk_vqJdf1or9ypikDYYti4QtKn8ZBrb9GgGh4SIBy0JVM2aqNAR_aTuNUUpZYA_UQ1M6qFLl7x3raSIzU3JWYwUhiUd0oXrUBkVOLIkKtbk5EsTtgafhH2xbdhFRdl45biw- -iI-ualwUpIzw1RkqTlUoMJ5Ht7KU9qV2D5nZ_r6TTHHXOqoa0MhuCp1Ol63CmBVeOpneLWES5cmpEMO30RMQ2fQjsrRmHV1biLGOshS0GBlFp_7H4SnXwRxpEXmEHo0VRaiKiQE6wEe4fkGAJjQlSVGExCFArP0- -Tp9qCs3wkQW75fYNZVGYpIA4obuemdUFGtTaw5wRJo03DwHmVNkZObczfDW3YwwHxpJV5SU52yRmR32Vl44y0WuHHEo_T30FFWvwuuqjnvHJqsz11EFIyUQcTRCXNh-KHubPGbF92pqUMfFymagXvsYj8n8Ox7PsnGTNfTpQTuE2RC_-gG24yly4NVqPk_mRBu3m00]--></g></svg>