<?xml version="1.0" encoding="us-ascii" standalone="no"?><svg xmlns="http://www.w3.org/2000/svg" xmlns:xlink="http://www.w3.org/1999/xlink" contentStyleType="text/css" height="1704.4271px" preserveAspectRatio="none" style="width:3891px;height:1704px;background:#FFFFFF;" version="1.1" viewBox="0 0 3891 1704" width="3891.9271px" zoomAndPan="magnify"><defs/><g><!--cluster com--><g id="cluster_com"><path d="M34.1667,7.8125 L78.4375,7.8125 A4.8828,4.8828 0 0 1 81.6927,11.0677 L90.8073,36.8449 L3798.4896,36.8449 A3.2552,3.2552 0 0 1 3801.7448,40.1001 L3801.7448,1692.1354 A3.2552,3.2552 0 0 1 3798.4896,1695.3906 L34.1667,1695.3906 A3.2552,3.2552 0 0 1 30.9115,1692.1354 L30.9115,11.0677 A3.2552,3.2552 0 0 1 34.1667,7.8125 " fill="none" style="stroke:#000000;stroke-width:1.953125;"/><line style="stroke:#000000;stroke-width:1.953125;" x1="30.9115" x2="90.8073" y1="36.8449" y2="36.8449"/><text fill="#000000" font-family="sans-serif" font-size="18.2292" font-weight="bold" lengthAdjust="spacing" textLength="42.9688" x="36.1198" y="27.3374">com</text></g><!--cluster vulnmonitor--><g id="cluster_vulnmonitor"><path d="M65.4167,63.8021 L189.1146,63.8021 A4.8828,4.8828 0 0 1 192.3698,67.0573 L201.4844,92.8345 L3767.2396,92.8345 A3.2552,3.2552 0 0 1 3770.4948,96.0897 L3770.4948,1660.8854 A3.2552,3.2552 0 0 1 3767.2396,1664.1406 L65.4167,1664.1406 A3.2552,3.2552 0 0 1 62.1615,1660.8854 L62.1615,67.0573 A3.2552,3.2552 0 0 1 65.4167,63.8021 " fill="none" style="stroke:#000000;stroke-width:1.953125;"/><line style="stroke:#000000;stroke-width:1.953125;" x1="62.1615" x2="201.4844" y1="92.8345" y2="92.8345"/><text fill="#000000" font-family="sans-serif" font-size="18.2292" font-weight="bold" lengthAdjust="spacing" textLength="122.3958" x="67.3698" y="83.327">vulnmonitor</text></g><!--cluster gui--><g id="cluster_gui"><path d="M209.9479,119.7917 L242.5,119.7917 A4.8828,4.8828 0 0 1 245.7552,123.0469 L254.8698,148.8241 L2715.1562,148.8241 A3.2552,3.2552 0 0 1 2718.4115,152.0793 L2718.4115,735.0781 A3.2552,3.2552 0 0 1 2715.1562,738.3333 L209.9479,738.3333 A3.2552,3.2552 0 0 1 206.6927,735.0781 L206.6927,123.0469 A3.2552,3.2552 0 0 1 209.9479,119.7917 " fill="none" style="stroke:#000000;stroke-width:1.953125;"/><line style="stroke:#000000;stroke-width:1.953125;" x1="206.6927" x2="254.8698" y1="148.8241" y2="148.8241"/><text fill="#000000" font-family="sans-serif" font-size="18.2292" font-weight="bold" lengthAdjust="spacing" textLength="31.25" x="211.901" y="139.3166">gui</text></g><!--cluster model--><g id="cluster_model"><path d="M237.2917,1139.5833 L301.0938,1139.5833 A4.8828,4.8828 0 0 1 304.349,1142.8385 L313.4635,1168.6157 L1484.6875,1168.6157 A3.2552,3.2552 0 0 1 1487.9427,1171.8709 L1487.9427,1629.6354 A3.2552,3.2552 0 0 1 1484.6875,1632.8906 L237.2917,1632.8906 A3.2552,3.2552 0 0 1 234.0365,1629.6354 L234.0365,1142.8385 A3.2552,3.2552 0 0 1 237.2917,1139.5833 " fill="none" style="stroke:#000000;stroke-width:1.953125;"/><line style="stroke:#000000;stroke-width:1.953125;" x1="234.0365" x2="313.4635" y1="1168.6157" y2="1168.6157"/><text fill="#000000" font-family="sans-serif" font-size="18.2292" font-weight="bold" lengthAdjust="spacing" textLength="62.5" x="239.2448" y="1159.1082">model</text></g><!--cluster services--><g id="cluster_services"><path d="M2870.1042,513.9453 L2958.6458,513.9453 A4.8828,4.8828 0 0 1 2961.901,517.2005 L2971.0156,542.9777 L3670.8854,542.9777 A3.2552,3.2552 0 0 1 3674.1406,546.2329 L3674.1406,1381.9401 A3.2552,3.2552 0 0 1 3670.8854,1385.1953 L2870.1042,1385.1953 A3.2552,3.2552 0 0 1 2866.849,1381.9401 L2866.849,517.2005 A3.2552,3.2552 0 0 1 2870.1042,513.9453 " fill="none" style="stroke:#000000;stroke-width:1.953125;"/><line style="stroke:#000000;stroke-width:1.953125;" x1="2866.849" x2="2971.0156" y1="542.9777" y2="542.9777"/><text fill="#000000" font-family="sans-serif" font-size="18.2292" font-weight="bold" lengthAdjust="spacing" textLength="87.2396" x="2872.0573" y="533.4702">services</text></g><!--cluster utils--><g id="cluster_utils"><path d="M1062.8125,819.7005 L1107.0833,819.7005 A4.8828,4.8828 0 0 1 1110.3385,822.9557 L1119.4531,848.7329 L2832.3437,848.7329 A3.2552,3.2552 0 0 1 2835.599,851.9881 L2835.599,1030.2344 A3.2552,3.2552 0 0 1 2832.3437,1033.4896 L1062.8125,1033.4896 A3.2552,3.2552 0 0 1 1059.5573,1030.2344 L1059.5573,822.9557 A3.2552,3.2552 0 0 1 1062.8125,819.7005 " fill="none" style="stroke:#000000;stroke-width:1.953125;"/><line style="stroke:#000000;stroke-width:1.953125;" x1="1059.5573" x2="1119.4531" y1="848.7329" y2="848.7329"/><text fill="#000000" font-family="sans-serif" font-size="18.2292" font-weight="bold" lengthAdjust="spacing" textLength="42.9688" x="1064.7656" y="839.2254">utils</text></g><!--class Main--><g id="elem_Main"><rect codeLine="7" fill="#F1F1F1" height="380.7983" id="Main" rx="3.2552" ry="3.2552" style="stroke:#181818;stroke-width:0.6510416666666666;" width="515.625" x="2739.2448" y="112.3177"/><ellipse cx="2970.6901" cy="133.151" fill="#ADD1B2" rx="14.3229" ry="14.3229" style="stroke:#181818;stroke-width:1.3020833333333333;"/><path d="M2974.5557,140.4956 Q2973.8029,140.8822 2972.9687,141.0653 Q2972.1346,141.2687 2971.2191,141.2687 Q2967.9639,141.2687 2966.2345,139.1325 Q2964.5256,136.9759 2964.5256,132.9069 Q2964.5256,128.8379 2966.2345,126.6813 Q2967.9639,124.5247 2971.2191,124.5247 Q2972.1346,124.5247 2972.9687,124.7282 Q2973.8232,124.9316 2974.5557,125.3182 L2974.5557,128.8582 Q2973.7419,128.1055 2972.9687,127.7596 Q2972.1956,127.3934 2971.3818,127.3934 Q2969.6322,127.3934 2968.737,128.7972 Q2967.8418,130.1807 2967.8418,132.9069 Q2967.8418,135.6331 2968.737,137.0369 Q2969.6322,138.4204 2971.3818,138.4204 Q2972.1956,138.4204 2972.9687,138.0745 Q2973.7419,137.7083 2974.5557,136.9556 L2974.5557,140.4956 Z " fill="#000000"/><text fill="#000000" font-family="sans-serif" font-size="18.2292" lengthAdjust="spacing" textLength="41.6667" x="2997.3828" y="139.4618">Main</text><line style="stroke:#181818;stroke-width:0.6510416666666666;" x1="2740.5469" x2="3253.5677" y1="153.9844" y2="153.9844"/><line style="stroke:#181818;stroke-width:0.6510416666666666;" x1="2740.5469" x2="3253.5677" y1="164.401" y2="164.401"/><ellipse cx="2753.5677" cy="182.1724" fill="#84BE84" rx="3.9063" ry="3.9063" style="stroke:#038048;stroke-width:1.3020833333333333;"/><text fill="#000000" font-family="sans-serif" font-size="18.2292" lengthAdjust="spacing" textLength="171.875" x="2765.2865" y="186.5301">main(args: String[])</text><ellipse cx="2753.5677" cy="203.3923" fill="#84BE84" rx="3.9063" ry="3.9063" style="stroke:#038048;stroke-width:1.3020833333333333;"/><text fill="#000000" font-family="sans-serif" font-size="18.2292" lengthAdjust="spacing" textLength="88.5417" x="2765.2865" y="207.75">startApp()</text><ellipse cx="2753.5677" cy="224.6122" fill="#84BE84" rx="3.9063" ry="3.9063" style="stroke:#038048;stroke-width:1.3020833333333333;"/><text fill="#000000" font-family="sans-serif" font-size="18.2292" lengthAdjust="spacing" textLength="393.2292" x="2765.2865" y="228.9699">startCVEFetching(isManualReload: boolean)</text><ellipse cx="2753.5677" cy="245.8321" fill="#84BE84" rx="3.9063" ry="3.9063" style="stroke:#038048;stroke-width:1.3020833333333333;"/><text fill="#000000" font-family="sans-serif" font-size="18.2292" lengthAdjust="spacing" textLength="147.1354" x="2765.2865" y="250.1898">reloadCVEData()</text><ellipse cx="2753.5677" cy="267.052" fill="#84BE84" rx="3.9063" ry="3.9063" style="stroke:#038048;stroke-width:1.3020833333333333;"/><text fill="#000000" font-family="sans-serif" font-size="18.2292" lengthAdjust="spacing" textLength="260.4167" x="2765.2865" y="271.4097">performSearch(query: String)</text><ellipse cx="2753.5677" cy="288.2719" fill="#84BE84" rx="3.9063" ry="3.9063" style="stroke:#038048;stroke-width:1.3020833333333333;"/><text fill="#000000" font-family="sans-serif" font-size="18.2292" lengthAdjust="spacing" textLength="240.8854" x="2765.2865" y="292.6295">showCVEInfo(cveId: String)</text><ellipse cx="2753.5677" cy="309.4918" fill="#84BE84" rx="3.9063" ry="3.9063" style="stroke:#038048;stroke-width:1.3020833333333333;"/><text fill="#000000" font-family="sans-serif" font-size="18.2292" lengthAdjust="spacing" textLength="481.7708" x="2765.2865" y="313.8494">loginUser(usernameOrEmail: String, password: String)</text><ellipse cx="2753.5677" cy="330.7117" fill="#84BE84" rx="3.9063" ry="3.9063" style="stroke:#038048;stroke-width:1.3020833333333333;"/><text fill="#000000" font-family="sans-serif" font-size="18.2292" lengthAdjust="spacing" textLength="70.3125" x="2765.2865" y="335.0693">logout()</text><ellipse cx="2753.5677" cy="351.9316" fill="#84BE84" rx="3.9063" ry="3.9063" style="stroke:#038048;stroke-width:1.3020833333333333;"/><text fill="#000000" font-family="sans-serif" font-size="18.2292" lengthAdjust="spacing" textLength="136.7188" x="2765.2865" y="356.2892">handleSignup()</text><ellipse cx="2753.5677" cy="373.1514" fill="#84BE84" rx="3.9063" ry="3.9063" style="stroke:#038048;stroke-width:1.3020833333333333;"/><text fill="#000000" font-family="sans-serif" font-size="18.2292" lengthAdjust="spacing" textLength="167.9688" x="2765.2865" y="377.5091">stopCVEFetching()</text><ellipse cx="2753.5677" cy="394.3713" fill="#84BE84" rx="3.9063" ry="3.9063" style="stroke:#038048;stroke-width:1.3020833333333333;"/><text fill="#000000" font-family="sans-serif" font-size="18.2292" lengthAdjust="spacing" textLength="165.3646" x="2765.2865" y="398.729">showLoginFrame()</text><ellipse cx="2753.5677" cy="415.5912" fill="#84BE84" rx="3.9063" ry="3.9063" style="stroke:#038048;stroke-width:1.3020833333333333;"/><text fill="#000000" font-family="sans-serif" font-size="18.2292" lengthAdjust="spacing" textLength="160.1563" x="2765.2865" y="419.9489">showFilterFrame()</text><ellipse cx="2753.5677" cy="436.8111" fill="#84BE84" rx="3.9063" ry="3.9063" style="stroke:#038048;stroke-width:1.3020833333333333;"/><text fill="#000000" font-family="sans-serif" font-size="18.2292" lengthAdjust="spacing" textLength="167.9688" x="2765.2865" y="441.1688">showAlertsFrame()</text><ellipse cx="2753.5677" cy="458.031" fill="#84BE84" rx="3.9063" ry="3.9063" style="stroke:#038048;stroke-width:1.3020833333333333;"/><text fill="#000000" font-family="sans-serif" font-size="18.2292" lengthAdjust="spacing" textLength="182.2917" x="2765.2865" y="462.3887">showArchiveFrame()</text><ellipse cx="2753.5677" cy="479.2509" fill="#84BE84" rx="3.9063" ry="3.9063" style="stroke:#038048;stroke-width:1.3020833333333333;"/><text fill="#000000" font-family="sans-serif" font-size="18.2292" lengthAdjust="spacing" textLength="191.4063" x="2765.2865" y="483.6086">showSettingsFrame()</text></g><!--class MainFrame--><g id="elem_MainFrame"><rect codeLine="26" fill="#F1F1F1" height="274.6989" id="MainFrame" rx="3.2552" ry="3.2552" style="stroke:#181818;stroke-width:0.6510416666666666;" width="602.8646" x="1224.2708" y="165.3646"/><ellipse cx="1471.3411" cy="186.1979" fill="#ADD1B2" rx="14.3229" ry="14.3229" style="stroke:#181818;stroke-width:1.3020833333333333;"/><path d="M1475.2067,193.5425 Q1474.4539,193.929 1473.6198,194.1121 Q1472.7856,194.3156 1471.8701,194.3156 Q1468.6149,194.3156 1466.8856,192.1794 Q1465.1766,190.0228 1465.1766,185.9538 Q1465.1766,181.8848 1466.8856,179.7282 Q1468.6149,177.5716 1471.8701,177.5716 Q1472.7856,177.5716 1473.6198,177.7751 Q1474.4743,177.9785 1475.2067,178.3651 L1475.2067,181.9051 Q1474.3929,181.1523 1473.6198,180.8065 Q1472.8467,180.4403 1472.0329,180.4403 Q1470.2832,180.4403 1469.388,181.8441 Q1468.4928,183.2275 1468.4928,185.9538 Q1468.4928,188.68 1469.388,190.0838 Q1470.2832,191.4673 1472.0329,191.4673 Q1472.8467,191.4673 1473.6198,191.1214 Q1474.3929,190.7552 1475.2067,190.0024 L1475.2067,193.5425 Z " fill="#000000"/><text fill="#000000" font-family="sans-serif" font-size="18.2292" lengthAdjust="spacing" textLength="97.6563" x="1498.0339" y="192.5087">MainFrame</text><line style="stroke:#181818;stroke-width:0.6510416666666666;" x1="1225.5729" x2="1825.8333" y1="207.0313" y2="207.0313"/><line style="stroke:#181818;stroke-width:0.6510416666666666;" x1="1225.5729" x2="1825.8333" y1="217.4479" y2="217.4479"/><ellipse cx="1238.5938" cy="235.2193" fill="#84BE84" rx="3.9063" ry="3.9063" style="stroke:#038048;stroke-width:1.3020833333333333;"/><text fill="#000000" font-family="sans-serif" font-size="18.2292" lengthAdjust="spacing" textLength="352.8646" x="1250.3125" y="239.577">MainFrame(controller: Main, user: User)</text><ellipse cx="1238.5938" cy="256.4392" fill="#84BE84" rx="3.9063" ry="3.9063" style="stroke:#038048;stroke-width:1.3020833333333333;"/><text fill="#000000" font-family="sans-serif" font-size="18.2292" lengthAdjust="spacing" textLength="156.25" x="1250.3125" y="260.7969">initComponents()</text><ellipse cx="1238.5938" cy="277.6591" fill="#84BE84" rx="3.9063" ry="3.9063" style="stroke:#038048;stroke-width:1.3020833333333333;"/><text fill="#000000" font-family="sans-serif" font-size="18.2292" lengthAdjust="spacing" textLength="268.2292" x="1250.3125" y="282.0168">updateProgressBar(value: int)</text><ellipse cx="1238.5938" cy="298.879" fill="#84BE84" rx="3.9063" ry="3.9063" style="stroke:#038048;stroke-width:1.3020833333333333;"/><text fill="#000000" font-family="sans-serif" font-size="18.2292" lengthAdjust="spacing" textLength="162.7604" x="1250.3125" y="303.2366">hideProgressBar()</text><ellipse cx="1238.5938" cy="320.0989" fill="#84BE84" rx="3.9063" ry="3.9063" style="stroke:#038048;stroke-width:1.3020833333333333;"/><text fill="#000000" font-family="sans-serif" font-size="18.2292" lengthAdjust="spacing" textLength="269.5313" x="1250.3125" y="324.4565">showProgressBar(text: String)</text><ellipse cx="1238.5938" cy="341.3188" fill="#84BE84" rx="3.9063" ry="3.9063" style="stroke:#038048;stroke-width:1.3020833333333333;"/><text fill="#000000" font-family="sans-serif" font-size="18.2292" lengthAdjust="spacing" textLength="333.3333" x="1250.3125" y="345.6764">updateCVETable(cveList: List&lt;CVE&gt;)</text><ellipse cx="1238.5938" cy="362.5387" fill="#84BE84" rx="3.9063" ry="3.9063" style="stroke:#038048;stroke-width:1.3020833333333333;"/><text fill="#000000" font-family="sans-serif" font-size="18.2292" lengthAdjust="spacing" textLength="209.6354" x="1250.3125" y="366.8963">showCVEInfo(cve: CVE)</text><ellipse cx="1238.5938" cy="383.7585" fill="#84BE84" rx="3.9063" ry="3.9063" style="stroke:#038048;stroke-width:1.3020833333333333;"/><text fill="#000000" font-family="sans-serif" font-size="18.2292" lengthAdjust="spacing" textLength="569.0104" x="1250.3125" y="388.1162">showMessage(message: String, title: String, messageType: int)</text><ellipse cx="1238.5938" cy="404.9784" fill="#84BE84" rx="3.9063" ry="3.9063" style="stroke:#038048;stroke-width:1.3020833333333333;"/><text fill="#000000" font-family="sans-serif" font-size="18.2292" lengthAdjust="spacing" textLength="395.8333" x="1250.3125" y="409.3361">setReloadButtonEnabled(enabled: boolean)</text><ellipse cx="1238.5938" cy="426.1983" fill="#84BE84" rx="3.9063" ry="3.9063" style="stroke:#038048;stroke-width:1.3020833333333333;"/><text fill="#000000" font-family="sans-serif" font-size="18.2292" lengthAdjust="spacing" textLength="328.125" x="1250.3125" y="430.556">setButtonsStatus(enabled: boolean)</text></g><!--class CVEInfoFrame--><g id="elem_CVEInfoFrame"><rect codeLine="38" fill="#F1F1F1" height="83.7199" id="CVEInfoFrame" rx="3.2552" ry="3.2552" style="stroke:#181818;stroke-width:0.6510416666666666;" width="251.3021" x="1588.8542" y="601.9531"/><ellipse cx="1646.4714" cy="622.7865" fill="#ADD1B2" rx="14.3229" ry="14.3229" style="stroke:#181818;stroke-width:1.3020833333333333;"/><path d="M1650.3369,630.131 Q1649.5841,630.5176 1648.75,630.7007 Q1647.9159,630.9041 1647.0003,630.9041 Q1643.7451,630.9041 1642.0158,628.7679 Q1640.3068,626.6113 1640.3068,622.5423 Q1640.3068,618.4733 1642.0158,616.3167 Q1643.7451,614.1602 1647.0003,614.1602 Q1647.9159,614.1602 1648.75,614.3636 Q1649.6045,614.5671 1650.3369,614.9536 L1650.3369,618.4937 Q1649.5231,617.7409 1648.75,617.395 Q1647.9769,617.0288 1647.1631,617.0288 Q1645.4134,617.0288 1644.5182,618.4326 Q1643.623,619.8161 1643.623,622.5423 Q1643.623,625.2686 1644.5182,626.6724 Q1645.4134,628.0558 1647.1631,628.0558 Q1647.9769,628.0558 1648.75,627.71 Q1649.5231,627.3437 1650.3369,626.591 L1650.3369,630.131 Z " fill="#000000"/><text fill="#000000" font-family="sans-serif" font-size="18.2292" lengthAdjust="spacing" textLength="125" x="1673.1641" y="629.0972">CVEInfoFrame</text><line style="stroke:#181818;stroke-width:0.6510416666666666;" x1="1590.1563" x2="1838.8542" y1="643.6198" y2="643.6198"/><line style="stroke:#181818;stroke-width:0.6510416666666666;" x1="1590.1563" x2="1838.8542" y1="654.0365" y2="654.0365"/><ellipse cx="1603.1771" cy="671.8079" fill="#84BE84" rx="3.9063" ry="3.9063" style="stroke:#038048;stroke-width:1.3020833333333333;"/><text fill="#000000" font-family="sans-serif" font-size="18.2292" lengthAdjust="spacing" textLength="217.4479" x="1614.8958" y="676.1655">CVEInfoFrame(cve: CVE)</text></g><!--class LoginFrame--><g id="elem_LoginFrame"><rect codeLine="41" fill="#F1F1F1" height="147.3796" id="LoginFrame" rx="3.2552" ry="3.2552" style="stroke:#181818;stroke-width:0.6510416666666666;" width="365.8854" x="2331.0417" y="570.1302"/><ellipse cx="2456.3672" cy="590.9635" fill="#ADD1B2" rx="14.3229" ry="14.3229" style="stroke:#181818;stroke-width:1.3020833333333333;"/><path d="M2460.2327,598.3081 Q2459.48,598.6947 2458.6458,598.8778 Q2457.8117,599.0812 2456.8962,599.0812 Q2453.641,599.0812 2451.9116,596.945 Q2450.2026,594.7884 2450.2026,590.7194 Q2450.2026,586.6504 2451.9116,584.4938 Q2453.641,582.3372 2456.8962,582.3372 Q2457.8117,582.3372 2458.6458,582.5407 Q2459.5003,582.7441 2460.2327,583.1307 L2460.2327,586.6707 Q2459.4189,585.918 2458.6458,585.5721 Q2457.8727,585.2059 2457.0589,585.2059 Q2455.3092,585.2059 2454.4141,586.6097 Q2453.5189,587.9932 2453.5189,590.7194 Q2453.5189,593.4456 2454.4141,594.8494 Q2455.3092,596.2329 2457.0589,596.2329 Q2457.8727,596.2329 2458.6458,595.887 Q2459.4189,595.5208 2460.2327,594.7681 L2460.2327,598.3081 Z " fill="#000000"/><text fill="#000000" font-family="sans-serif" font-size="18.2292" lengthAdjust="spacing" textLength="104.1667" x="2483.0599" y="597.2743">LoginFrame</text><line style="stroke:#181818;stroke-width:0.6510416666666666;" x1="2332.3438" x2="2695.625" y1="611.7969" y2="611.7969"/><line style="stroke:#181818;stroke-width:0.6510416666666666;" x1="2332.3438" x2="2695.625" y1="622.2135" y2="622.2135"/><ellipse cx="2345.3646" cy="639.9849" fill="#84BE84" rx="3.9063" ry="3.9063" style="stroke:#038048;stroke-width:1.3020833333333333;"/><text fill="#000000" font-family="sans-serif" font-size="18.2292" lengthAdjust="spacing" textLength="255.2083" x="2357.0833" y="644.3426">LoginFrame(controller: Main)</text><ellipse cx="2345.3646" cy="661.2048" fill="#84BE84" rx="3.9063" ry="3.9063" style="stroke:#038048;stroke-width:1.3020833333333333;"/><text fill="#000000" font-family="sans-serif" font-size="18.2292" lengthAdjust="spacing" textLength="122.3958" x="2357.0833" y="665.5625">handleLogin()</text><ellipse cx="2345.3646" cy="682.4247" fill="#84BE84" rx="3.9063" ry="3.9063" style="stroke:#038048;stroke-width:1.3020833333333333;"/><text fill="#000000" font-family="sans-serif" font-size="18.2292" lengthAdjust="spacing" textLength="283.8542" x="2357.0833" y="686.7824">createTextField(maxLength: int)</text><ellipse cx="2345.3646" cy="703.6446" fill="#84BE84" rx="3.9063" ry="3.9063" style="stroke:#038048;stroke-width:1.3020833333333333;"/><text fill="#000000" font-family="sans-serif" font-size="18.2292" lengthAdjust="spacing" textLength="332.0313" x="2357.0833" y="708.0023">createPasswordField(maxLength: int)</text></g><!--class FiltersFrame--><g id="elem_FiltersFrame"><rect codeLine="47" fill="#F1F1F1" height="104.9398" id="FiltersFrame" rx="3.2552" ry="3.2552" style="stroke:#181818;stroke-width:0.6510416666666666;" width="398.4375" x="1886.3802" y="591.3411"/><ellipse cx="2025.3776" cy="612.1745" fill="#ADD1B2" rx="14.3229" ry="14.3229" style="stroke:#181818;stroke-width:1.3020833333333333;"/><path d="M2029.2432,619.519 Q2028.4904,619.9056 2027.6563,620.0887 Q2026.8221,620.2922 2025.9066,620.2922 Q2022.6514,620.2922 2020.922,618.1559 Q2019.2131,615.9993 2019.2131,611.9303 Q2019.2131,607.8613 2020.922,605.7048 Q2022.6514,603.5482 2025.9066,603.5482 Q2026.8221,603.5482 2027.6563,603.7516 Q2028.5107,603.9551 2029.2432,604.3416 L2029.2432,607.8817 Q2028.4294,607.1289 2027.6563,606.783 Q2026.8831,606.4168 2026.0693,606.4168 Q2024.3197,606.4168 2023.4245,607.8206 Q2022.5293,609.2041 2022.5293,611.9303 Q2022.5293,614.6566 2023.4245,616.0604 Q2024.3197,617.4438 2026.0693,617.4438 Q2026.8831,617.4438 2027.6563,617.098 Q2028.4294,616.7318 2029.2432,615.979 L2029.2432,619.519 Z " fill="#000000"/><text fill="#000000" font-family="sans-serif" font-size="18.2292" lengthAdjust="spacing" textLength="109.375" x="2052.0703" y="618.4853">FiltersFrame</text><line style="stroke:#181818;stroke-width:0.6510416666666666;" x1="1887.6823" x2="2283.5156" y1="633.0078" y2="633.0078"/><line style="stroke:#181818;stroke-width:0.6510416666666666;" x1="1887.6823" x2="2283.5156" y1="643.4245" y2="643.4245"/><ellipse cx="1900.7031" cy="661.1959" fill="#84BE84" rx="3.9063" ry="3.9063" style="stroke:#038048;stroke-width:1.3020833333333333;"/><text fill="#000000" font-family="sans-serif" font-size="18.2292" lengthAdjust="spacing" textLength="364.5833" x="1912.4219" y="665.5535">FiltersFrame(controller: Main, user: User)</text><ellipse cx="1900.7031" cy="682.4158" fill="#84BE84" rx="3.9063" ry="3.9063" style="stroke:#038048;stroke-width:1.3020833333333333;"/><text fill="#000000" font-family="sans-serif" font-size="18.2292" lengthAdjust="spacing" textLength="113.2813" x="1912.4219" y="686.7734">applyFilters()</text></g><!--class AlertsFrame--><g id="elem_AlertsFrame"><rect codeLine="51" fill="#F1F1F1" height="104.9398" id="AlertsFrame" rx="3.2552" ry="3.2552" style="stroke:#181818;stroke-width:0.6510416666666666;" width="395.8333" x="692.3698" y="591.3411"/><ellipse cx="831.3672" cy="612.1745" fill="#ADD1B2" rx="14.3229" ry="14.3229" style="stroke:#181818;stroke-width:1.3020833333333333;"/><path d="M835.2327,619.519 Q834.48,619.9056 833.6458,620.0887 Q832.8117,620.2922 831.8962,620.2922 Q828.641,620.2922 826.9116,618.1559 Q825.2026,615.9993 825.2026,611.9303 Q825.2026,607.8613 826.9116,605.7048 Q828.641,603.5482 831.8962,603.5482 Q832.8117,603.5482 833.6458,603.7516 Q834.5003,603.9551 835.2327,604.3416 L835.2327,607.8817 Q834.4189,607.1289 833.6458,606.783 Q832.8727,606.4168 832.0589,606.4168 Q830.3092,606.4168 829.4141,607.8206 Q828.5189,609.2041 828.5189,611.9303 Q828.5189,614.6566 829.4141,616.0604 Q830.3092,617.4438 832.0589,617.4438 Q832.8727,617.4438 833.6458,617.098 Q834.4189,616.7318 835.2327,615.979 L835.2327,619.519 Z " fill="#000000"/><text fill="#000000" font-family="sans-serif" font-size="18.2292" lengthAdjust="spacing" textLength="106.7708" x="858.0599" y="618.4853">AlertsFrame</text><line style="stroke:#181818;stroke-width:0.6510416666666666;" x1="693.6719" x2="1086.901" y1="633.0078" y2="633.0078"/><line style="stroke:#181818;stroke-width:0.6510416666666666;" x1="693.6719" x2="1086.901" y1="643.4245" y2="643.4245"/><ellipse cx="706.6927" cy="661.1959" fill="#84BE84" rx="3.9063" ry="3.9063" style="stroke:#038048;stroke-width:1.3020833333333333;"/><text fill="#000000" font-family="sans-serif" font-size="18.2292" lengthAdjust="spacing" textLength="361.9792" x="718.4115" y="665.5535">AlertsFrame(controller: Main, user: User)</text><ellipse cx="706.6927" cy="682.4158" fill="#84BE84" rx="3.9063" ry="3.9063" style="stroke:#038048;stroke-width:1.3020833333333333;"/><text fill="#000000" font-family="sans-serif" font-size="18.2292" lengthAdjust="spacing" textLength="110.6771" x="718.4115" y="686.7734">applyAlerts()</text></g><!--class AlertNotificationDialog--><g id="elem_AlertNotificationDialog"><rect codeLine="55" fill="#F1F1F1" height="104.9398" id="AlertNotificationDialog" rx="3.2552" ry="3.2552" style="stroke:#181818;stroke-width:0.6510416666666666;" width="242.1875" x="227.526" y="250.2344"/><ellipse cx="249.401" cy="271.0677" fill="#ADD1B2" rx="14.3229" ry="14.3229" style="stroke:#181818;stroke-width:1.3020833333333333;"/><path d="M253.2666,278.4123 Q252.5138,278.7988 251.6797,278.9819 Q250.8455,279.1854 249.93,279.1854 Q246.6748,279.1854 244.9455,277.0492 Q243.2365,274.8926 243.2365,270.8236 Q243.2365,266.7546 244.9455,264.598 Q246.6748,262.4414 249.93,262.4414 Q250.8455,262.4414 251.6797,262.6449 Q252.5342,262.8483 253.2666,263.2349 L253.2666,266.7749 Q252.4528,266.0221 251.6797,265.6763 Q250.9066,265.3101 250.0928,265.3101 Q248.3431,265.3101 247.4479,266.7139 Q246.5527,268.0973 246.5527,270.8236 Q246.5527,273.5498 247.4479,274.9536 Q248.3431,276.3371 250.0928,276.3371 Q250.9066,276.3371 251.6797,275.9912 Q252.4528,275.625 253.2666,274.8722 L253.2666,278.4123 Z " fill="#000000"/><text fill="#000000" font-family="sans-serif" font-size="18.2292" lengthAdjust="spacing" textLength="195.3125" x="268.151" y="277.3785">AlertNotificationDialog</text><line style="stroke:#181818;stroke-width:0.6510416666666666;" x1="228.8281" x2="468.4115" y1="291.901" y2="291.901"/><line style="stroke:#181818;stroke-width:0.6510416666666666;" x1="228.8281" x2="468.4115" y1="302.3177" y2="302.3177"/><ellipse cx="241.849" cy="320.0891" fill="#84BE84" rx="3.9063" ry="3.9063" style="stroke:#038048;stroke-width:1.3020833333333333;"/><text fill="#000000" font-family="sans-serif" font-size="18.2292" lengthAdjust="spacing" textLength="208.3333" x="253.5677" y="324.4468">AlertNotificationDialog()</text><ellipse cx="241.849" cy="341.309" fill="#84BE84" rx="3.9063" ry="3.9063" style="stroke:#038048;stroke-width:1.3020833333333333;"/><text fill="#000000" font-family="sans-serif" font-size="18.2292" lengthAdjust="spacing" textLength="128.9063" x="253.5677" y="345.6667">saveSettings()</text></g><!--class ArchivesFrame--><g id="elem_ArchivesFrame"><rect codeLine="59" fill="#F1F1F1" height="104.9398" id="ArchivesFrame" rx="3.2552" ry="3.2552" style="stroke:#181818;stroke-width:0.6510416666666666;" width="410.1563" x="1133.125" y="591.3411"/><ellipse cx="1266.9141" cy="612.1745" fill="#ADD1B2" rx="14.3229" ry="14.3229" style="stroke:#181818;stroke-width:1.3020833333333333;"/><path d="M1270.7796,619.519 Q1270.0269,619.9056 1269.1927,620.0887 Q1268.3586,620.2922 1267.443,620.2922 Q1264.1878,620.2922 1262.4585,618.1559 Q1260.7495,615.9993 1260.7495,611.9303 Q1260.7495,607.8613 1262.4585,605.7048 Q1264.1878,603.5482 1267.443,603.5482 Q1268.3586,603.5482 1269.1927,603.7516 Q1270.0472,603.9551 1270.7796,604.3416 L1270.7796,607.8817 Q1269.9658,607.1289 1269.1927,606.783 Q1268.4196,606.4168 1267.6058,606.4168 Q1265.8561,606.4168 1264.9609,607.8206 Q1264.0658,609.2041 1264.0658,611.9303 Q1264.0658,614.6566 1264.9609,616.0604 Q1265.8561,617.4438 1267.6058,617.4438 Q1268.4196,617.4438 1269.1927,617.098 Q1269.9658,616.7318 1270.7796,615.979 L1270.7796,619.519 Z " fill="#000000"/><text fill="#000000" font-family="sans-serif" font-size="18.2292" lengthAdjust="spacing" textLength="131.5104" x="1293.6068" y="618.4853">ArchivesFrame</text><line style="stroke:#181818;stroke-width:0.6510416666666666;" x1="1134.4271" x2="1541.9792" y1="633.0078" y2="633.0078"/><line style="stroke:#181818;stroke-width:0.6510416666666666;" x1="1134.4271" x2="1541.9792" y1="643.4245" y2="643.4245"/><ellipse cx="1147.4479" cy="661.1959" fill="#84BE84" rx="3.9063" ry="3.9063" style="stroke:#038048;stroke-width:1.3020833333333333;"/><text fill="#000000" font-family="sans-serif" font-size="18.2292" lengthAdjust="spacing" textLength="376.3021" x="1159.1667" y="665.5535">ArchiveFrame(controller: Main, user: User)</text><ellipse cx="1147.4479" cy="682.4158" fill="#84BE84" rx="3.9063" ry="3.9063" style="stroke:#038048;stroke-width:1.3020833333333333;"/><text fill="#000000" font-family="sans-serif" font-size="18.2292" lengthAdjust="spacing" textLength="130.2083" x="1159.1667" y="686.7734">saveArchives()</text></g><!--class SettingsFrame--><g id="elem_SettingsFrame"><rect codeLine="63" fill="#F1F1F1" height="104.9398" id="SettingsFrame" rx="3.2552" ry="3.2552" style="stroke:#181818;stroke-width:0.6510416666666666;" width="419.2708" x="227.526" y="591.3411"/><ellipse cx="366.5234" cy="612.1745" fill="#ADD1B2" rx="14.3229" ry="14.3229" style="stroke:#181818;stroke-width:1.3020833333333333;"/><path d="M370.389,619.519 Q369.6362,619.9056 368.8021,620.0887 Q367.9679,620.2922 367.0524,620.2922 Q363.7972,620.2922 362.0679,618.1559 Q360.3589,615.9993 360.3589,611.9303 Q360.3589,607.8613 362.0679,605.7048 Q363.7972,603.5482 367.0524,603.5482 Q367.9679,603.5482 368.8021,603.7516 Q369.6566,603.9551 370.389,604.3416 L370.389,607.8817 Q369.5752,607.1289 368.8021,606.783 Q368.029,606.4168 367.2152,606.4168 Q365.4655,606.4168 364.5703,607.8206 Q363.6751,609.2041 363.6751,611.9303 Q363.6751,614.6566 364.5703,616.0604 Q365.4655,617.4438 367.2152,617.4438 Q368.029,617.4438 368.8021,617.098 Q369.5752,616.7318 370.389,615.979 L370.389,619.519 Z " fill="#000000"/><text fill="#000000" font-family="sans-serif" font-size="18.2292" lengthAdjust="spacing" textLength="130.2083" x="393.2161" y="618.4853">SettingsFrame</text><line style="stroke:#181818;stroke-width:0.6510416666666666;" x1="228.8281" x2="645.4948" y1="633.0078" y2="633.0078"/><line style="stroke:#181818;stroke-width:0.6510416666666666;" x1="228.8281" x2="645.4948" y1="643.4245" y2="643.4245"/><ellipse cx="241.849" cy="661.1959" fill="#84BE84" rx="3.9063" ry="3.9063" style="stroke:#038048;stroke-width:1.3020833333333333;"/><text fill="#000000" font-family="sans-serif" font-size="18.2292" lengthAdjust="spacing" textLength="385.4167" x="253.5677" y="665.5535">SettingsFrame(controller: Main, user: User)</text><ellipse cx="241.849" cy="682.4158" fill="#84BE84" rx="3.9063" ry="3.9063" style="stroke:#038048;stroke-width:1.3020833333333333;"/><text fill="#000000" font-family="sans-serif" font-size="18.2292" lengthAdjust="spacing" textLength="128.9063" x="253.5677" y="686.7734">saveSettings()</text></g><!--class CVE--><g id="elem_CVE"><rect codeLine="70" fill="#F1F1F1" height="211.0392" id="CVE" rx="3.2552" ry="3.2552" style="stroke:#181818;stroke-width:0.6510416666666666;" width="246.0938" x="1220.3646" y="1195.7682"/><ellipse cx="1319.6484" cy="1216.6016" fill="#ADD1B2" rx="14.3229" ry="14.3229" style="stroke:#181818;stroke-width:1.3020833333333333;"/><path d="M1323.514,1223.9461 Q1322.7612,1224.3327 1321.9271,1224.5158 Q1321.0929,1224.7192 1320.1774,1224.7192 Q1316.9222,1224.7192 1315.1929,1222.583 Q1313.4839,1220.4264 1313.4839,1216.3574 Q1313.4839,1212.2884 1315.1929,1210.1318 Q1316.9222,1207.9753 1320.1774,1207.9753 Q1321.0929,1207.9753 1321.9271,1208.1787 Q1322.7816,1208.3822 1323.514,1208.7687 L1323.514,1212.3088 Q1322.7002,1211.556 1321.9271,1211.2101 Q1321.154,1210.8439 1320.3402,1210.8439 Q1318.5905,1210.8439 1317.6953,1212.2477 Q1316.8001,1213.6312 1316.8001,1216.3574 Q1316.8001,1219.0837 1317.6953,1220.4875 Q1318.5905,1221.8709 1320.3402,1221.8709 Q1321.154,1221.8709 1321.9271,1221.5251 Q1322.7002,1221.1589 1323.514,1220.4061 L1323.514,1223.9461 Z " fill="#000000"/><text fill="#000000" font-family="sans-serif" font-size="18.2292" lengthAdjust="spacing" textLength="36.4583" x="1346.3411" y="1222.9123">CVE</text><line style="stroke:#181818;stroke-width:0.6510416666666666;" x1="1221.6667" x2="1465.1563" y1="1237.4349" y2="1237.4349"/><rect fill="none" height="7.8125" style="stroke:#C82930;stroke-width:1.3020833333333333;" width="7.8125" x="1230.7813" y="1251.3"/><text fill="#000000" font-family="sans-serif" font-size="18.2292" lengthAdjust="spacing" textLength="96.3542" x="1246.4063" y="1259.564">id : Integer</text><rect fill="none" height="7.8125" style="stroke:#C82930;stroke-width:1.3020833333333333;" width="7.8125" x="1230.7813" y="1272.5199"/><text fill="#000000" font-family="sans-serif" font-size="18.2292" lengthAdjust="spacing" textLength="125" x="1246.4063" y="1280.7838">cve_id : String</text><rect fill="none" height="7.8125" style="stroke:#C82930;stroke-width:1.3020833333333333;" width="7.8125" x="1230.7813" y="1293.7398"/><text fill="#000000" font-family="sans-serif" font-size="18.2292" lengthAdjust="spacing" textLength="169.2708" x="1246.4063" y="1302.0037">description : String</text><rect fill="none" height="7.8125" style="stroke:#C82930;stroke-width:1.3020833333333333;" width="7.8125" x="1230.7813" y="1314.9597"/><text fill="#000000" font-family="sans-serif" font-size="18.2292" lengthAdjust="spacing" textLength="138.0208" x="1246.4063" y="1323.2236">severity : String</text><rect fill="none" height="7.8125" style="stroke:#C82930;stroke-width:1.3020833333333333;" width="7.8125" x="1230.7813" y="1336.1796"/><text fill="#000000" font-family="sans-serif" font-size="18.2292" lengthAdjust="spacing" textLength="212.2396" x="1246.4063" y="1344.4435">affectedProduct : String</text><rect fill="none" height="7.8125" style="stroke:#C82930;stroke-width:1.3020833333333333;" width="7.8125" x="1230.7813" y="1357.3995"/><text fill="#000000" font-family="sans-serif" font-size="18.2292" lengthAdjust="spacing" textLength="191.4063" x="1246.4063" y="1365.6634">publishedDate : Date</text><line style="stroke:#181818;stroke-width:0.6510416666666666;" x1="1221.6667" x2="1465.1563" y1="1375.1709" y2="1375.1709"/><ellipse cx="1234.6875" cy="1392.9423" fill="#84BE84" rx="3.9063" ry="3.9063" style="stroke:#038048;stroke-width:1.3020833333333333;"/><text fill="#000000" font-family="sans-serif" font-size="18.2292" lengthAdjust="spacing" textLength="173.1771" x="1246.4063" y="1397.3">getDetails() : String</text></g><!--class User--><g id="elem_User"><rect codeLine="79" fill="#F1F1F1" height="232.2591" id="User" rx="3.2552" ry="3.2552" style="stroke:#181818;stroke-width:0.6510416666666666;" width="281.25" x="892.8906" y="1185.1562"/><ellipse cx="1007.1484" cy="1205.9896" fill="#ADD1B2" rx="14.3229" ry="14.3229" style="stroke:#181818;stroke-width:1.3020833333333333;"/><path d="M1011.014,1213.3341 Q1010.2612,1213.7207 1009.4271,1213.9038 Q1008.5929,1214.1073 1007.6774,1214.1073 Q1004.4222,1214.1073 1002.6929,1211.971 Q1000.9839,1209.8145 1000.9839,1205.7454 Q1000.9839,1201.6764 1002.6929,1199.5199 Q1004.4222,1197.3633 1007.6774,1197.3633 Q1008.5929,1197.3633 1009.4271,1197.5667 Q1010.2816,1197.7702 1011.014,1198.1567 L1011.014,1201.6968 Q1010.2002,1200.944 1009.4271,1200.5981 Q1008.654,1200.2319 1007.8402,1200.2319 Q1006.0905,1200.2319 1005.1953,1201.6357 Q1004.3001,1203.0192 1004.3001,1205.7454 Q1004.3001,1208.4717 1005.1953,1209.8755 Q1006.0905,1211.259 1007.8402,1211.259 Q1008.654,1211.259 1009.4271,1210.9131 Q1010.2002,1210.5469 1011.014,1209.7941 L1011.014,1213.3341 Z " fill="#000000"/><text fill="#000000" font-family="sans-serif" font-size="18.2292" lengthAdjust="spacing" textLength="41.6667" x="1033.8411" y="1212.3004">User</text><line style="stroke:#181818;stroke-width:0.6510416666666666;" x1="894.1927" x2="1172.8385" y1="1226.8229" y2="1226.8229"/><rect fill="none" height="7.8125" style="stroke:#C82930;stroke-width:1.3020833333333333;" width="7.8125" x="903.3073" y="1240.6881"/><text fill="#000000" font-family="sans-serif" font-size="18.2292" lengthAdjust="spacing" textLength="136.7188" x="918.9323" y="1248.952">userId : Integer</text><rect fill="none" height="7.8125" style="stroke:#C82930;stroke-width:1.3020833333333333;" width="7.8125" x="903.3073" y="1261.908"/><text fill="#000000" font-family="sans-serif" font-size="18.2292" lengthAdjust="spacing" textLength="160.1563" x="918.9323" y="1270.1719">username : String</text><rect fill="none" height="7.8125" style="stroke:#C82930;stroke-width:1.3020833333333333;" width="7.8125" x="903.3073" y="1283.1278"/><text fill="#000000" font-family="sans-serif" font-size="18.2292" lengthAdjust="spacing" textLength="115.8854" x="918.9323" y="1291.3918">email : String</text><rect fill="none" height="7.8125" style="stroke:#C82930;stroke-width:1.3020833333333333;" width="7.8125" x="903.3073" y="1304.3477"/><text fill="#000000" font-family="sans-serif" font-size="18.2292" lengthAdjust="spacing" textLength="156.25" x="918.9323" y="1312.6116">password : String</text><rect fill="none" height="7.8125" style="stroke:#C82930;stroke-width:1.3020833333333333;" width="7.8125" x="903.3073" y="1325.5676"/><text fill="#000000" font-family="sans-serif" font-size="18.2292" lengthAdjust="spacing" textLength="205.7292" x="918.9323" y="1333.8315">userFilters : UserFilters</text><rect fill="none" height="7.8125" style="stroke:#C82930;stroke-width:1.3020833333333333;" width="7.8125" x="903.3073" y="1346.7875"/><text fill="#000000" font-family="sans-serif" font-size="18.2292" lengthAdjust="spacing" textLength="200.5208" x="918.9323" y="1355.0514">userAlerts : UserAlerts</text><rect fill="none" height="7.8125" style="stroke:#C82930;stroke-width:1.3020833333333333;" width="7.8125" x="903.3073" y="1368.0074"/><text fill="#000000" font-family="sans-serif" font-size="18.2292" lengthAdjust="spacing" textLength="247.3958" x="918.9323" y="1376.2713">userSettings : UserSettings</text><line style="stroke:#181818;stroke-width:0.6510416666666666;" x1="894.1927" x2="1172.8385" y1="1385.7788" y2="1385.7788"/><ellipse cx="907.2135" cy="1403.5502" fill="#84BE84" rx="3.9063" ry="3.9063" style="stroke:#038048;stroke-width:1.3020833333333333;"/><text fill="#000000" font-family="sans-serif" font-size="18.2292" lengthAdjust="spacing" textLength="186.1979" x="918.9323" y="1407.9079">getUserInfo() : String</text></g><!--class UserFilters--><g id="elem_UserFilters"><rect codeLine="89" fill="#F1F1F1" height="168.5994" id="UserFilters" rx="3.2552" ry="3.2552" style="stroke:#181818;stroke-width:0.6510416666666666;" width="287.7604" x="1180" y="1443.4635"/><ellipse cx="1270.8203" cy="1464.2969" fill="#ADD1B2" rx="14.3229" ry="14.3229" style="stroke:#181818;stroke-width:1.3020833333333333;"/><path d="M1274.6859,1471.6414 Q1273.9331,1472.028 1273.099,1472.2111 Q1272.2648,1472.4146 1271.3493,1472.4146 Q1268.0941,1472.4146 1266.3647,1470.2783 Q1264.6558,1468.1217 1264.6558,1464.0527 Q1264.6558,1459.9837 1266.3647,1457.8271 Q1268.0941,1455.6706 1271.3493,1455.6706 Q1272.2648,1455.6706 1273.099,1455.874 Q1273.9535,1456.0775 1274.6859,1456.464 L1274.6859,1460.0041 Q1273.8721,1459.2513 1273.099,1458.9054 Q1272.3258,1458.5392 1271.512,1458.5392 Q1269.7624,1458.5392 1268.8672,1459.943 Q1267.972,1461.3265 1267.972,1464.0527 Q1267.972,1466.779 1268.8672,1468.1828 Q1269.7624,1469.5662 1271.512,1469.5662 Q1272.3258,1469.5662 1273.099,1469.2204 Q1273.8721,1468.8542 1274.6859,1468.1014 L1274.6859,1471.6414 Z " fill="#000000"/><text fill="#000000" font-family="sans-serif" font-size="18.2292" lengthAdjust="spacing" textLength="95.0521" x="1297.513" y="1470.6077">UserFilters</text><line style="stroke:#181818;stroke-width:0.6510416666666666;" x1="1181.3021" x2="1466.4583" y1="1485.1302" y2="1485.1302"/><rect fill="none" height="7.8125" style="stroke:#C82930;stroke-width:1.3020833333333333;" width="7.8125" x="1190.4167" y="1498.9954"/><text fill="#000000" font-family="sans-serif" font-size="18.2292" lengthAdjust="spacing" textLength="134.1146" x="1206.0417" y="1507.2593">osFilter : String</text><rect fill="none" height="7.8125" style="stroke:#C82930;stroke-width:1.3020833333333333;" width="7.8125" x="1190.4167" y="1520.2153"/><text fill="#000000" font-family="sans-serif" font-size="18.2292" lengthAdjust="spacing" textLength="180.9896" x="1206.0417" y="1528.4792">severityFilter : String</text><rect fill="none" height="7.8125" style="stroke:#C82930;stroke-width:1.3020833333333333;" width="7.8125" x="1190.4167" y="1541.4351"/><text fill="#000000" font-family="sans-serif" font-size="18.2292" lengthAdjust="spacing" textLength="253.9062" x="1206.0417" y="1549.699">productFilters : List&lt;String&gt;</text><rect fill="none" height="7.8125" style="stroke:#C82930;stroke-width:1.3020833333333333;" width="7.8125" x="1190.4167" y="1562.655"/><text fill="#000000" font-family="sans-serif" font-size="18.2292" lengthAdjust="spacing" textLength="239.5833" x="1206.0417" y="1570.9189">includeResolved : Boolean</text><line style="stroke:#181818;stroke-width:0.6510416666666666;" x1="1181.3021" x2="1466.4583" y1="1580.4264" y2="1580.4264"/><ellipse cx="1194.3229" cy="1598.1978" fill="#84BE84" rx="3.9063" ry="3.9063" style="stroke:#038048;stroke-width:1.3020833333333333;"/><text fill="#000000" font-family="sans-serif" font-size="18.2292" lengthAdjust="spacing" textLength="197.9167" x="1206.0417" y="1602.5555">getFiltersInfo() : String</text></g><!--class UserAlerts--><g id="elem_UserAlerts"><rect codeLine="96" fill="#F1F1F1" height="83.7199" id="UserAlerts" rx="3.2552" ry="3.2552" style="stroke:#181818;stroke-width:0.6510416666666666;" width="229.1667" x="606.4323" y="1485.8984"/><ellipse cx="669.2578" cy="1506.7318" fill="#ADD1B2" rx="14.3229" ry="14.3229" style="stroke:#181818;stroke-width:1.3020833333333333;"/><path d="M673.1234,1514.0763 Q672.3706,1514.4629 671.5365,1514.646 Q670.7023,1514.8494 669.7868,1514.8494 Q666.5316,1514.8494 664.8022,1512.7132 Q663.0933,1510.5566 663.0933,1506.4876 Q663.0933,1502.4186 664.8022,1500.262 Q666.5316,1498.1055 669.7868,1498.1055 Q670.7023,1498.1055 671.5365,1498.3089 Q672.391,1498.5124 673.1234,1498.8989 L673.1234,1502.439 Q672.3096,1501.6862 671.5365,1501.3403 Q670.7633,1500.9741 669.9495,1500.9741 Q668.1999,1500.9741 667.3047,1502.3779 Q666.4095,1503.7614 666.4095,1506.4876 Q666.4095,1509.2139 667.3047,1510.6177 Q668.1999,1512.0011 669.9495,1512.0011 Q670.7633,1512.0011 671.5365,1511.6553 Q672.3096,1511.2891 673.1234,1510.5363 L673.1234,1514.0763 Z " fill="#000000"/><text fill="#000000" font-family="sans-serif" font-size="18.2292" lengthAdjust="spacing" textLength="92.4479" x="695.9505" y="1513.0426">UserAlerts</text><line style="stroke:#181818;stroke-width:0.6510416666666666;" x1="607.7344" x2="834.2969" y1="1527.5651" y2="1527.5651"/><line style="stroke:#181818;stroke-width:0.6510416666666666;" x1="607.7344" x2="834.2969" y1="1537.9818" y2="1537.9818"/><ellipse cx="620.7552" cy="1555.7532" fill="#84BE84" rx="3.9063" ry="3.9063" style="stroke:#038048;stroke-width:1.3020833333333333;"/><text fill="#000000" font-family="sans-serif" font-size="18.2292" lengthAdjust="spacing" textLength="195.3125" x="632.474" y="1560.1108">getAlertsInfo() : String</text></g><!--class UserArchives--><g id="elem_UserArchives"><rect codeLine="99" fill="#F1F1F1" height="83.7199" id="UserArchives" rx="3.2552" ry="3.2552" style="stroke:#181818;stroke-width:0.6510416666666666;" width="253.9062" x="880.5208" y="1485.8984"/><ellipse cx="943.3464" cy="1506.7318" fill="#ADD1B2" rx="14.3229" ry="14.3229" style="stroke:#181818;stroke-width:1.3020833333333333;"/><path d="M947.2119,1514.0763 Q946.4591,1514.4629 945.625,1514.646 Q944.7909,1514.8494 943.8753,1514.8494 Q940.6201,1514.8494 938.8908,1512.7132 Q937.1818,1510.5566 937.1818,1506.4876 Q937.1818,1502.4186 938.8908,1500.262 Q940.6201,1498.1055 943.8753,1498.1055 Q944.7909,1498.1055 945.625,1498.3089 Q946.4795,1498.5124 947.2119,1498.8989 L947.2119,1502.439 Q946.3981,1501.6862 945.625,1501.3403 Q944.8519,1500.9741 944.0381,1500.9741 Q942.2884,1500.9741 941.3932,1502.3779 Q940.498,1503.7614 940.498,1506.4876 Q940.498,1509.2139 941.3932,1510.6177 Q942.2884,1512.0011 944.0381,1512.0011 Q944.8519,1512.0011 945.625,1511.6553 Q946.3981,1511.2891 947.2119,1510.5363 L947.2119,1514.0763 Z " fill="#000000"/><text fill="#000000" font-family="sans-serif" font-size="18.2292" lengthAdjust="spacing" textLength="117.1875" x="970.0391" y="1513.0426">UserArchives</text><line style="stroke:#181818;stroke-width:0.6510416666666666;" x1="881.8229" x2="1133.125" y1="1527.5651" y2="1527.5651"/><line style="stroke:#181818;stroke-width:0.6510416666666666;" x1="881.8229" x2="1133.125" y1="1537.9818" y2="1537.9818"/><ellipse cx="894.8438" cy="1555.7532" fill="#84BE84" rx="3.9063" ry="3.9063" style="stroke:#038048;stroke-width:1.3020833333333333;"/><text fill="#000000" font-family="sans-serif" font-size="18.2292" lengthAdjust="spacing" textLength="220.0521" x="906.5625" y="1560.1108">getArchivesInfo() : String</text></g><!--class UserSettings--><g id="elem_UserSettings"><rect codeLine="102" fill="#F1F1F1" height="168.5994" id="UserSettings" rx="3.2552" ry="3.2552" style="stroke:#181818;stroke-width:0.6510416666666666;" width="305.9896" x="255.5208" y="1443.4635"/><ellipse cx="345.0391" cy="1464.2969" fill="#ADD1B2" rx="14.3229" ry="14.3229" style="stroke:#181818;stroke-width:1.3020833333333333;"/><path d="M348.9046,1471.6414 Q348.1519,1472.028 347.3177,1472.2111 Q346.4836,1472.4146 345.568,1472.4146 Q342.3128,1472.4146 340.5835,1470.2783 Q338.8745,1468.1217 338.8745,1464.0527 Q338.8745,1459.9837 340.5835,1457.8271 Q342.3128,1455.6706 345.568,1455.6706 Q346.4836,1455.6706 347.3177,1455.874 Q348.1722,1456.0775 348.9046,1456.464 L348.9046,1460.0041 Q348.0908,1459.2513 347.3177,1458.9054 Q346.5446,1458.5392 345.7308,1458.5392 Q343.9811,1458.5392 343.0859,1459.943 Q342.1908,1461.3265 342.1908,1464.0527 Q342.1908,1466.779 343.0859,1468.1828 Q343.9811,1469.5662 345.7308,1469.5662 Q346.5446,1469.5662 347.3177,1469.2204 Q348.0908,1468.8542 348.9046,1468.1014 L348.9046,1471.6414 Z " fill="#000000"/><text fill="#000000" font-family="sans-serif" font-size="18.2292" lengthAdjust="spacing" textLength="115.8854" x="371.7318" y="1470.6077">UserSettings</text><line style="stroke:#181818;stroke-width:0.6510416666666666;" x1="256.8229" x2="560.2083" y1="1485.1302" y2="1485.1302"/><rect fill="none" height="7.8125" style="stroke:#C82930;stroke-width:1.3020833333333333;" width="7.8125" x="265.9375" y="1498.9954"/><text fill="#000000" font-family="sans-serif" font-size="18.2292" lengthAdjust="spacing" textLength="272.1354" x="281.5625" y="1507.2593">notificationsEnabled : Boolean</text><rect fill="none" height="7.8125" style="stroke:#C82930;stroke-width:1.3020833333333333;" width="7.8125" x="265.9375" y="1520.2153"/><text fill="#000000" font-family="sans-serif" font-size="18.2292" lengthAdjust="spacing" textLength="139.3229" x="281.5625" y="1528.4792">lastLogin : Date</text><rect fill="none" height="7.8125" style="stroke:#C82930;stroke-width:1.3020833333333333;" width="7.8125" x="265.9375" y="1541.4351"/><text fill="#000000" font-family="sans-serif" font-size="18.2292" lengthAdjust="spacing" textLength="253.9062" x="281.5625" y="1549.699">darkModeEnabled : Boolean</text><rect fill="none" height="7.8125" style="stroke:#C82930;stroke-width:1.3020833333333333;" width="7.8125" x="265.9375" y="1562.655"/><text fill="#000000" font-family="sans-serif" font-size="18.2292" lengthAdjust="spacing" textLength="227.8646" x="281.5625" y="1570.9189">startupEnabled : Boolean</text><line style="stroke:#181818;stroke-width:0.6510416666666666;" x1="256.8229" x2="560.2083" y1="1580.4264" y2="1580.4264"/><ellipse cx="269.8438" cy="1598.1978" fill="#84BE84" rx="3.9063" ry="3.9063" style="stroke:#038048;stroke-width:1.3020833333333333;"/><text fill="#000000" font-family="sans-serif" font-size="18.2292" lengthAdjust="spacing" textLength="227.8646" x="281.5625" y="1602.5555">getUserSettings() : String</text></g><!--class CVEFetcher--><g id="elem_CVEFetcher"><rect codeLine="112" fill="#F1F1F1" height="126.1597" id="CVEFetcher" rx="3.2552" ry="3.2552" style="stroke:#181818;stroke-width:0.6510416666666666;" width="750" x="2887.6823" y="1238.2031"/><ellipse cx="3204.4141" cy="1259.0365" fill="#ADD1B2" rx="14.3229" ry="14.3229" style="stroke:#181818;stroke-width:1.3020833333333333;"/><path d="M3208.2796,1266.381 Q3207.5269,1266.7676 3206.6927,1266.9507 Q3205.8586,1267.1541 3204.943,1267.1541 Q3201.6878,1267.1541 3199.9585,1265.0179 Q3198.2495,1262.8613 3198.2495,1258.7923 Q3198.2495,1254.7233 3199.9585,1252.5667 Q3201.6878,1250.4102 3204.943,1250.4102 Q3205.8586,1250.4102 3206.6927,1250.6136 Q3207.5472,1250.8171 3208.2796,1251.2036 L3208.2796,1254.7437 Q3207.4658,1253.9909 3206.6927,1253.645 Q3205.9196,1253.2788 3205.1058,1253.2788 Q3203.3561,1253.2788 3202.4609,1254.6826 Q3201.5658,1256.0661 3201.5658,1258.7923 Q3201.5658,1261.5186 3202.4609,1262.9224 Q3203.3561,1264.3058 3205.1058,1264.3058 Q3205.9196,1264.3058 3206.6927,1263.96 Q3207.4658,1263.5937 3208.2796,1262.841 L3208.2796,1266.381 Z " fill="#000000"/><text fill="#000000" font-family="sans-serif" font-size="18.2292" lengthAdjust="spacing" textLength="105.4688" x="3231.1068" y="1265.3472">CVEFetcher</text><line style="stroke:#181818;stroke-width:0.6510416666666666;" x1="2888.9844" x2="3636.3802" y1="1279.8698" y2="1279.8698"/><line style="stroke:#181818;stroke-width:0.6510416666666666;" x1="2888.9844" x2="3636.3802" y1="1290.2865" y2="1290.2865"/><ellipse cx="2902.0052" cy="1308.0579" fill="#84BE84" rx="3.9063" ry="3.9063" style="stroke:#038048;stroke-width:1.3020833333333333;"/><text fill="#000000" font-family="sans-serif" font-size="18.2292" lengthAdjust="spacing" textLength="716.1458" x="2913.724" y="1312.4155">fetchLatestCVEs(lastModStartDate: String, lastModEndDate: String) : List&lt;CVE&gt;</text><ellipse cx="2902.0052" cy="1329.2778" fill="#84BE84" rx="3.9063" ry="3.9063" style="stroke:#038048;stroke-width:1.3020833333333333;"/><text fill="#000000" font-family="sans-serif" font-size="18.2292" lengthAdjust="spacing" textLength="361.9792" x="2913.724" y="1333.6354">fetchCVEById(cveId: String) : JSONObject</text><ellipse cx="2902.0052" cy="1350.4976" fill="#84BE84" rx="3.9063" ry="3.9063" style="stroke:#038048;stroke-width:1.3020833333333333;"/><text fill="#000000" font-family="sans-serif" font-size="18.2292" lengthAdjust="spacing" textLength="377.6042" x="2913.724" y="1354.8553">SfetchCVEData(query: String) : List&lt;CVE&gt;</text></g><!--class NotificationService--><g id="elem_NotificationService"><rect codeLine="117" fill="#F1F1F1" height="83.7199" id="NotificationService" rx="3.2552" ry="3.2552" style="stroke:#181818;stroke-width:0.6510416666666666;" width="384.1146" x="2887.0312" y="601.9531"/><ellipse cx="2991.5234" cy="622.7865" fill="#ADD1B2" rx="14.3229" ry="14.3229" style="stroke:#181818;stroke-width:1.3020833333333333;"/><path d="M2995.389,630.131 Q2994.6362,630.5176 2993.8021,630.7007 Q2992.9679,630.9041 2992.0524,630.9041 Q2988.7972,630.9041 2987.0679,628.7679 Q2985.3589,626.6113 2985.3589,622.5423 Q2985.3589,618.4733 2987.0679,616.3167 Q2988.7972,614.1602 2992.0524,614.1602 Q2992.9679,614.1602 2993.8021,614.3636 Q2994.6566,614.5671 2995.389,614.9536 L2995.389,618.4937 Q2994.5752,617.7409 2993.8021,617.395 Q2993.029,617.0288 2992.2152,617.0288 Q2990.4655,617.0288 2989.5703,618.4326 Q2988.6751,619.8161 2988.6751,622.5423 Q2988.6751,625.2686 2989.5703,626.6724 Q2990.4655,628.0558 2992.2152,628.0558 Q2993.029,628.0558 2993.8021,627.71 Q2994.5752,627.3437 2995.389,626.591 L2995.389,630.131 Z " fill="#000000"/><text fill="#000000" font-family="sans-serif" font-size="18.2292" lengthAdjust="spacing" textLength="164.0625" x="3018.2161" y="629.0972">NotificationService</text><line style="stroke:#181818;stroke-width:0.6510416666666666;" x1="2888.3333" x2="3269.8437" y1="643.6198" y2="643.6198"/><line style="stroke:#181818;stroke-width:0.6510416666666666;" x1="2888.3333" x2="3269.8437" y1="654.0365" y2="654.0365"/><ellipse cx="2901.3542" cy="671.8079" fill="#84BE84" rx="3.9063" ry="3.9063" style="stroke:#038048;stroke-width:1.3020833333333333;"/><text fill="#000000" font-family="sans-serif" font-size="18.2292" lengthAdjust="spacing" textLength="350.2604" x="2913.0729" y="676.1655">sendAlert(user: User, message: String)</text></g><!--class DatabaseService--><g id="elem_DatabaseService"><rect codeLine="120" fill="#F1F1F1" height="359.5785" id="DatabaseService" rx="3.2552" ry="3.2552" style="stroke:#181818;stroke-width:0.6510416666666666;" width="634.1146" x="2909.1667" y="759.1667"/><ellipse cx="3145.1693" cy="780" fill="#ADD1B2" rx="14.3229" ry="14.3229" style="stroke:#181818;stroke-width:1.3020833333333333;"/><path d="M3149.0348,787.3446 Q3148.2821,787.7311 3147.4479,787.9142 Q3146.6138,788.1177 3145.6982,788.1177 Q3142.443,788.1177 3140.7137,785.9814 Q3139.0047,783.8249 3139.0047,779.7559 Q3139.0047,775.6868 3140.7137,773.5303 Q3142.443,771.3737 3145.6982,771.3737 Q3146.6138,771.3737 3147.4479,771.5771 Q3148.3024,771.7806 3149.0348,772.1672 L3149.0348,775.7072 Q3148.221,774.9544 3147.4479,774.6086 Q3146.6748,774.2424 3145.861,774.2424 Q3144.1113,774.2424 3143.2161,775.6462 Q3142.321,777.0296 3142.321,779.7559 Q3142.321,782.4821 3143.2161,783.8859 Q3144.1113,785.2694 3145.861,785.2694 Q3146.6748,785.2694 3147.4479,784.9235 Q3148.221,784.5573 3149.0348,783.8045 L3149.0348,787.3446 Z " fill="#000000"/><text fill="#000000" font-family="sans-serif" font-size="18.2292" lengthAdjust="spacing" textLength="151.0417" x="3171.862" y="786.3108">DatabaseService</text><line style="stroke:#181818;stroke-width:0.6510416666666666;" x1="2910.4687" x2="3541.9792" y1="800.8333" y2="800.8333"/><line style="stroke:#181818;stroke-width:0.6510416666666666;" x1="2910.4687" x2="3541.9792" y1="811.25" y2="811.25"/><ellipse cx="2923.4896" cy="829.0214" fill="#84BE84" rx="3.9063" ry="3.9063" style="stroke:#038048;stroke-width:1.3020833333333333;"/><text fill="#000000" font-family="sans-serif" font-size="18.2292" lengthAdjust="spacing" textLength="87.2396" x="2935.2083" y="833.3791">connect()</text><ellipse cx="2923.4896" cy="850.2413" fill="#84BE84" rx="3.9063" ry="3.9063" style="stroke:#038048;stroke-width:1.3020833333333333;"/><text fill="#000000" font-family="sans-serif" font-size="18.2292" lengthAdjust="spacing" textLength="283.8542" x="2935.2083" y="854.5989">saveCVEData(cves: List&lt;CVE&gt;)</text><ellipse cx="2923.4896" cy="871.4612" fill="#84BE84" rx="3.9063" ry="3.9063" style="stroke:#038048;stroke-width:1.3020833333333333;"/><text fill="#000000" font-family="sans-serif" font-size="18.2292" lengthAdjust="spacing" textLength="235.6771" x="2935.2083" y="875.8188">getCVEData() : List&lt;CVE&gt;</text><ellipse cx="2923.4896" cy="892.6811" fill="#84BE84" rx="3.9063" ry="3.9063" style="stroke:#038048;stroke-width:1.3020833333333333;"/><text fill="#000000" font-family="sans-serif" font-size="18.2292" lengthAdjust="spacing" textLength="281.25" x="2935.2083" y="897.0387">getCVEById(cveId: String) : CVE</text><ellipse cx="2923.4896" cy="913.901" fill="#84BE84" rx="3.9063" ry="3.9063" style="stroke:#038048;stroke-width:1.3020833333333333;"/><text fill="#000000" font-family="sans-serif" font-size="18.2292" lengthAdjust="spacing" textLength="381.5104" x="2935.2083" y="918.2586">searchCVEData(query: String) : List&lt;CVE&gt;</text><ellipse cx="2923.4896" cy="935.1208" fill="#84BE84" rx="3.9063" ry="3.9063" style="stroke:#038048;stroke-width:1.3020833333333333;"/><text fill="#000000" font-family="sans-serif" font-size="18.2292" lengthAdjust="spacing" textLength="106.7708" x="2935.2083" y="939.4785">resetCVEs()</text><ellipse cx="2923.4896" cy="956.3407" fill="#84BE84" rx="3.9063" ry="3.9063" style="stroke:#038048;stroke-width:1.3020833333333333;"/><text fill="#000000" font-family="sans-serif" font-size="18.2292" lengthAdjust="spacing" textLength="600.2604" x="2935.2083" y="960.6984">authenticate(usernameOrEmail: String, password: String) : boolean</text><ellipse cx="2923.4896" cy="977.5606" fill="#84BE84" rx="3.9063" ry="3.9063" style="stroke:#038048;stroke-width:1.3020833333333333;"/><text fill="#000000" font-family="sans-serif" font-size="18.2292" lengthAdjust="spacing" textLength="434.8958" x="2935.2083" y="981.9183">getEmailForUsername(username: String) : String</text><ellipse cx="2923.4896" cy="998.7805" fill="#84BE84" rx="3.9063" ry="3.9063" style="stroke:#038048;stroke-width:1.3020833333333333;"/><text fill="#000000" font-family="sans-serif" font-size="18.2292" lengthAdjust="spacing" textLength="390.625" x="2935.2083" y="1003.1382">getUsernameForEmail(email: String) : String</text><ellipse cx="2923.4896" cy="1020.0004" fill="#84BE84" rx="3.9063" ry="3.9063" style="stroke:#038048;stroke-width:1.3020833333333333;"/><text fill="#000000" font-family="sans-serif" font-size="18.2292" lengthAdjust="spacing" textLength="361.9792" x="2935.2083" y="1024.3581">getUserId(usernameOrEmail: String) : int</text><ellipse cx="2923.4896" cy="1041.2203" fill="#84BE84" rx="3.9063" ry="3.9063" style="stroke:#038048;stroke-width:1.3020833333333333;"/><text fill="#000000" font-family="sans-serif" font-size="18.2292" lengthAdjust="spacing" textLength="339.8438" x="2935.2083" y="1045.578">getUserFilters(userId: int) : UserFilters</text><ellipse cx="2923.4896" cy="1062.4402" fill="#84BE84" rx="3.9063" ry="3.9063" style="stroke:#038048;stroke-width:1.3020833333333333;"/><text fill="#000000" font-family="sans-serif" font-size="18.2292" lengthAdjust="spacing" textLength="334.6354" x="2935.2083" y="1066.7978">getUserAlerts(userId: int) : UserAlerts</text><ellipse cx="2923.4896" cy="1083.6601" fill="#84BE84" rx="3.9063" ry="3.9063" style="stroke:#038048;stroke-width:1.3020833333333333;"/><text fill="#000000" font-family="sans-serif" font-size="18.2292" lengthAdjust="spacing" textLength="381.5104" x="2935.2083" y="1088.0177">getUserSettings(userId: int) : UserSettings</text><ellipse cx="2923.4896" cy="1104.88" fill="#84BE84" rx="3.9063" ry="3.9063" style="stroke:#038048;stroke-width:1.3020833333333333;"/><text fill="#000000" font-family="sans-serif" font-size="18.2292" lengthAdjust="spacing" textLength="217.4479" x="2935.2083" y="1109.2376">isConnected() : boolean</text></g><!--class CheckService--><g id="elem_CheckService"><rect codeLine="137" fill="#F1F1F1" height="168.5994" id="CheckService" rx="3.2552" ry="3.2552" style="stroke:#181818;stroke-width:0.6510416666666666;" width="337.2396" x="3316.7187" y="559.5182"/><ellipse cx="3418.6068" cy="580.3516" fill="#ADD1B2" rx="14.3229" ry="14.3229" style="stroke:#181818;stroke-width:1.3020833333333333;"/><path d="M3422.4723,587.6961 Q3421.7196,588.0827 3420.8854,588.2658 Q3420.0513,588.4692 3419.1357,588.4692 Q3415.8805,588.4692 3414.1512,586.333 Q3412.4422,584.1764 3412.4422,580.1074 Q3412.4422,576.0384 3414.1512,573.8818 Q3415.8805,571.7253 3419.1357,571.7253 Q3420.0513,571.7253 3420.8854,571.9287 Q3421.7399,572.1322 3422.4723,572.5187 L3422.4723,576.0588 Q3421.6585,575.306 3420.8854,574.9601 Q3420.1123,574.5939 3419.2985,574.5939 Q3417.5488,574.5939 3416.6536,575.9977 Q3415.7585,577.3812 3415.7585,580.1074 Q3415.7585,582.8337 3416.6536,584.2375 Q3417.5488,585.6209 3419.2985,585.6209 Q3420.1123,585.6209 3420.8854,585.2751 Q3421.6585,584.9089 3422.4723,584.1561 L3422.4723,587.6961 Z " fill="#000000"/><text fill="#000000" font-family="sans-serif" font-size="18.2292" lengthAdjust="spacing" textLength="122.3958" x="3445.2995" y="586.6623">CheckService</text><line style="stroke:#181818;stroke-width:0.6510416666666666;" x1="3318.0208" x2="3652.6562" y1="601.1849" y2="601.1849"/><line style="stroke:#181818;stroke-width:0.6510416666666666;" x1="3318.0208" x2="3652.6562" y1="611.6016" y2="611.6016"/><ellipse cx="3331.0417" cy="629.373" fill="#84BE84" rx="3.9063" ry="3.9063" style="stroke:#038048;stroke-width:1.3020833333333333;"/><text fill="#000000" font-family="sans-serif" font-size="18.2292" lengthAdjust="spacing" textLength="264.3229" x="3342.7604" y="633.7306">isInternetAvailable() : boolean</text><ellipse cx="3331.0417" cy="650.5929" fill="#84BE84" rx="3.9063" ry="3.9063" style="stroke:#038048;stroke-width:1.3020833333333333;"/><text fill="#000000" font-family="sans-serif" font-size="18.2292" lengthAdjust="spacing" textLength="292.9688" x="3342.7604" y="654.9505">isSystemDateCorrect() : boolean</text><ellipse cx="3331.0417" cy="671.8127" fill="#84BE84" rx="3.9063" ry="3.9063" style="stroke:#038048;stroke-width:1.3020833333333333;"/><text fill="#000000" font-family="sans-serif" font-size="18.2292" lengthAdjust="spacing" textLength="303.3854" x="3342.7604" y="676.1704">isDatabaseConnected() : boolean</text><ellipse cx="3331.0417" cy="693.0326" fill="#84BE84" rx="3.9063" ry="3.9063" style="stroke:#038048;stroke-width:1.3020833333333333;"/><text fill="#000000" font-family="sans-serif" font-size="18.2292" lengthAdjust="spacing" textLength="255.2083" x="3342.7604" y="697.3903">isFetcherApiValid() : boolean</text><ellipse cx="3331.0417" cy="714.2525" fill="#84BE84" rx="3.9063" ry="3.9063" style="stroke:#038048;stroke-width:1.3020833333333333;"/><text fill="#000000" font-family="sans-serif" font-size="18.2292" lengthAdjust="spacing" textLength="102.8646" x="3342.7604" y="718.6102">shutdown()</text></g><!--class APIUtils--><g id="elem_APIUtils"><rect codeLine="147" fill="#F1F1F1" height="83.7199" id="APIUtils" rx="3.2552" ry="3.2552" style="stroke:#181818;stroke-width:0.6510416666666666;" width="309.8958" x="2504.8698" y="897.0964"/><ellipse cx="2621.7318" cy="917.9297" fill="#ADD1B2" rx="14.3229" ry="14.3229" style="stroke:#181818;stroke-width:1.3020833333333333;"/><path d="M2625.5973,925.2743 Q2624.8446,925.6608 2624.0104,925.8439 Q2623.1763,926.0474 2622.2607,926.0474 Q2619.0055,926.0474 2617.2762,923.9111 Q2615.5672,921.7546 2615.5672,917.6855 Q2615.5672,913.6165 2617.2762,911.46 Q2619.0055,909.3034 2622.2607,909.3034 Q2623.1763,909.3034 2624.0104,909.5068 Q2624.8649,909.7103 2625.5973,910.0968 L2625.5973,913.6369 Q2624.7835,912.8841 2624.0104,912.5382 Q2623.2373,912.172 2622.4235,912.172 Q2620.6738,912.172 2619.7786,913.5758 Q2618.8835,914.9593 2618.8835,917.6855 Q2618.8835,920.4118 2619.7786,921.8156 Q2620.6738,923.1991 2622.4235,923.1991 Q2623.2373,923.1991 2624.0104,922.8532 Q2624.7835,922.487 2625.5973,921.7342 L2625.5973,925.2743 Z " fill="#000000"/><text fill="#000000" font-family="sans-serif" font-size="18.2292" lengthAdjust="spacing" textLength="65.1042" x="2648.4245" y="924.2405">APIUtils</text><line style="stroke:#181818;stroke-width:0.6510416666666666;" x1="2506.1719" x2="2813.4635" y1="938.763" y2="938.763"/><line style="stroke:#181818;stroke-width:0.6510416666666666;" x1="2506.1719" x2="2813.4635" y1="949.1797" y2="949.1797"/><ellipse cx="2519.1927" cy="966.9511" fill="#84BE84" rx="3.9063" ry="3.9063" style="stroke:#038048;stroke-width:1.3020833333333333;"/><text fill="#000000" font-family="sans-serif" font-size="18.2292" lengthAdjust="spacing" textLength="276.0417" x="2530.9115" y="971.3087">makeAPICall(url: String) : String</text></g><!--class Filters--><g id="elem_Filters"><rect codeLine="150" fill="#F1F1F1" height="126.1597" id="Filters" rx="3.2552" ry="3.2552" style="stroke:#181818;stroke-width:0.6510416666666666;" width="1036.4583" x="1422.8385" y="875.8854"/><ellipse cx="1908.8411" cy="896.7187" fill="#ADD1B2" rx="14.3229" ry="14.3229" style="stroke:#181818;stroke-width:1.3020833333333333;"/><path d="M1912.7067,904.0633 Q1911.9539,904.4499 1911.1198,904.633 Q1910.2856,904.8364 1909.3701,904.8364 Q1906.1149,904.8364 1904.3856,902.7002 Q1902.6766,900.5436 1902.6766,896.4746 Q1902.6766,892.4056 1904.3856,890.249 Q1906.1149,888.0924 1909.3701,888.0924 Q1910.2856,888.0924 1911.1198,888.2959 Q1911.9743,888.4993 1912.7067,888.8859 L1912.7067,892.4259 Q1911.8929,891.6732 1911.1198,891.3273 Q1910.3467,890.9611 1909.5329,890.9611 Q1907.7832,890.9611 1906.888,892.3649 Q1905.9928,893.7484 1905.9928,896.4746 Q1905.9928,899.2008 1906.888,900.6047 Q1907.7832,901.9881 1909.5329,901.9881 Q1910.3467,901.9881 1911.1198,901.6423 Q1911.8929,901.276 1912.7067,900.5233 L1912.7067,904.0633 Z " fill="#000000"/><text fill="#000000" font-family="sans-serif" font-size="18.2292" lengthAdjust="spacing" textLength="53.3854" x="1935.5339" y="903.0295">Filters</text><line style="stroke:#181818;stroke-width:0.6510416666666666;" x1="1424.1406" x2="2457.9948" y1="917.5521" y2="917.5521"/><line style="stroke:#181818;stroke-width:0.6510416666666666;" x1="1424.1406" x2="2457.9948" y1="927.9687" y2="927.9687"/><ellipse cx="1437.1615" cy="945.7402" fill="#84BE84" rx="3.9063" ry="3.9063" style="stroke:#038048;stroke-width:1.3020833333333333;"/><text fill="#000000" font-family="sans-serif" font-size="18.2292" lengthAdjust="spacing" textLength="542.9688" x="1448.8802" y="950.0978">filterByOS(cves: List&lt;CVE&gt;, selectedOS: String) : List&lt;CVE&gt;</text><ellipse cx="1437.1615" cy="966.96" fill="#84BE84" rx="3.9063" ry="3.9063" style="stroke:#038048;stroke-width:1.3020833333333333;"/><text fill="#000000" font-family="sans-serif" font-size="18.2292" lengthAdjust="spacing" textLength="631.5104" x="1448.8802" y="971.3177">filterBySeverity(cves: List&lt;CVE&gt;, selectedSeverity: String) : List&lt;CVE&gt;</text><ellipse cx="1437.1615" cy="988.1799" fill="#84BE84" rx="3.9063" ry="3.9063" style="stroke:#038048;stroke-width:1.3020833333333333;"/><text fill="#000000" font-family="sans-serif" font-size="18.2292" lengthAdjust="spacing" textLength="1002.6042" x="1448.8802" y="992.5376">applyFilters(cves: List&lt;CVE&gt;, selectedOS: String, selectedProduct: String, selectedSeverity: String) : List&lt;CVE&gt;</text></g><!--class SessionManager--><g id="elem_SessionManager"><rect codeLine="155" fill="#F1F1F1" height="147.3796" id="SessionManager" rx="3.2552" ry="3.2552" style="stroke:#181818;stroke-width:0.6510416666666666;" width="295.5729" x="1081.0417" y="865.2734"/><ellipse cx="1148.4245" cy="886.1068" fill="#ADD1B2" rx="14.3229" ry="14.3229" style="stroke:#181818;stroke-width:1.3020833333333333;"/><path d="M1152.29,893.4513 Q1151.5373,893.8379 1150.7031,894.021 Q1149.869,894.2244 1148.9535,894.2244 Q1145.6982,894.2244 1143.9689,892.0882 Q1142.2599,889.9316 1142.2599,885.8626 Q1142.2599,881.7936 1143.9689,879.637 Q1145.6982,877.4805 1148.9535,877.4805 Q1149.869,877.4805 1150.7031,877.6839 Q1151.5576,877.8874 1152.29,878.2739 L1152.29,881.814 Q1151.4762,881.0612 1150.7031,880.7153 Q1149.93,880.3491 1149.1162,880.3491 Q1147.3665,880.3491 1146.4714,881.7529 Q1145.5762,883.1364 1145.5762,885.8626 Q1145.5762,888.5889 1146.4714,889.9927 Q1147.3665,891.3761 1149.1162,891.3761 Q1149.93,891.3761 1150.7031,891.0303 Q1151.4762,890.6641 1152.29,889.9113 L1152.29,893.4513 Z " fill="#000000"/><text fill="#000000" font-family="sans-serif" font-size="18.2292" lengthAdjust="spacing" textLength="149.7396" x="1175.1172" y="892.4176">SessionManager</text><line style="stroke:#181818;stroke-width:0.6510416666666666;" x1="1082.3438" x2="1375.3125" y1="906.9401" y2="906.9401"/><line style="stroke:#181818;stroke-width:0.6510416666666666;" x1="1082.3438" x2="1375.3125" y1="917.3568" y2="917.3568"/><ellipse cx="1095.3646" cy="935.1282" fill="#84BE84" rx="3.9063" ry="3.9063" style="stroke:#038048;stroke-width:1.3020833333333333;"/><text fill="#000000" font-family="sans-serif" font-size="18.2292" lengthAdjust="spacing" textLength="230.4688" x="1107.0833" y="939.4858">isSessionValid() : boolean</text><ellipse cx="1095.3646" cy="956.3481" fill="#84BE84" rx="3.9063" ry="3.9063" style="stroke:#038048;stroke-width:1.3020833333333333;"/><text fill="#000000" font-family="sans-serif" font-size="18.2292" lengthAdjust="spacing" textLength="222.6563" x="1107.0833" y="960.7057">loadUserSession() : User</text><ellipse cx="1095.3646" cy="977.568" fill="#84BE84" rx="3.9063" ry="3.9063" style="stroke:#038048;stroke-width:1.3020833333333333;"/><text fill="#000000" font-family="sans-serif" font-size="18.2292" lengthAdjust="spacing" textLength="261.7188" x="1107.0833" y="981.9256">saveUserSession(user: User)</text><ellipse cx="1095.3646" cy="998.7878" fill="#84BE84" rx="3.9063" ry="3.9063" style="stroke:#038048;stroke-width:1.3020833333333333;"/><text fill="#000000" font-family="sans-serif" font-size="18.2292" lengthAdjust="spacing" textLength="127.6042" x="1107.0833" y="1003.1455">clearSession()</text></g><!--link Main to MainFrame--><g id="link_Main_MainFrame"><path codeLine="164" d="M2738.9193,302.7083 C2435.0911,302.7083 2139.0885,302.7083 1835.2604,302.7083 " fill="none" id="Main-to-MainFrame" style="stroke:#181818;stroke-width:1.3020833333333333;"/><polygon fill="#181818" points="1827.4479,302.7083,1839.1667,307.9167,1833.9583,302.7083,1839.1667,297.5,1827.4479,302.7083" style="stroke:#181818;stroke-width:1.3020833333333333;"/></g><!--link MainFrame to Main--><g id="link_MainFrame_Main"><path codeLine="178" d="M1827.4479,302.7083 C2131.276,302.7083 2427.2786,302.7083 2731.1068,302.7083 " fill="none" id="MainFrame-to-Main" style="stroke:#181818;stroke-width:1.3020833333333333;"/><polygon fill="#181818" points="2738.9193,302.7083,2727.2005,297.5,2732.4089,302.7083,2727.2005,307.9167,2738.9193,302.7083" style="stroke:#181818;stroke-width:1.3020833333333333;"/></g><!--link Main to LoginFrame--><g id="link_Main_LoginFrame"><path codeLine="165" d="M2741.2109,493.5417 C2734.8047,497.8385 2732.8516,498.8802 2726.224,503.5286 C2696.224,524.5443 2670.3467,543.4348 2640.1253,564.9713 " fill="none" id="Main-to-LoginFrame" style="stroke:#181818;stroke-width:1.3020833333333333;"/><polygon fill="#181818" points="2633.763,569.5052,2646.3291,566.9459,2639.0649,565.7269,2640.2838,558.4628,2633.763,569.5052" style="stroke:#181818;stroke-width:1.3020833333333333;"/></g><!--link LoginFrame to Main--><g id="link_LoginFrame_Main"><path codeLine="186" d="M2590.1693,569.5052 C2618.4115,547.9687 2650.651,524.5443 2680.651,503.5286 C2687.487,498.737 2689.349,497.7734 2696.276,493.112 C2710.1042,483.8151 2717.8146,478.5925 2732.1766,468.931 " fill="none" id="LoginFrame-to-Main" style="stroke:#181818;stroke-width:1.3020833333333333;"/><polygon fill="#181818" points="2738.6589,464.5703,2726.0284,466.7898,2733.257,468.2042,2731.8426,475.4328,2738.6589,464.5703" style="stroke:#181818;stroke-width:1.3020833333333333;"/></g><!--link Main to FiltersFrame--><g id="link_Main_FiltersFrame"><path codeLine="166" d="M2738.8151,485.8984 C2732.0312,488.5026 2725.2344,490.9245 2718.4115,493.112 C2631.6016,520.9896 2395.5729,477.3047 2308.2552,503.5286 C2249.1146,521.2891 2196.4599,554.4943 2154.1032,586.2391 " fill="none" id="Main-to-FiltersFrame" style="stroke:#181818;stroke-width:1.3020833333333333;"/><polygon fill="#181818" points="2147.8516,590.9245,2160.3525,588.0642,2153.0612,587.02,2154.1054,579.7287,2147.8516,590.9245" style="stroke:#181818;stroke-width:1.3020833333333333;"/></g><!--link Main to AlertsFrame--><g id="link_Main_AlertsFrame"><path codeLine="167" d="M2738.8672,486.0677 C2732.0703,488.6328 2725.2474,490.9896 2718.4115,493.112 C2633.099,519.6224 1196.0807,478.4115 1110.3385,503.5286 C1051.3672,520.7943 999.1491,554.2002 957.3392,586.1663 " fill="none" id="Main-to-AlertsFrame" style="stroke:#181818;stroke-width:1.3020833333333333;"/><polygon fill="#181818" points="951.1328,590.9115,963.6058,587.9313,956.3048,586.9572,957.2789,579.6562,951.1328,590.9115" style="stroke:#181818;stroke-width:1.3020833333333333;"/></g><!--link Main to ArchivesFrame--><g id="link_Main_ArchivesFrame"><path codeLine="168" d="M2738.8542,486.0417 C2732.0703,488.6068 2725.2474,490.9766 2718.4115,493.112 C2657.3047,512.1875 1627.6302,485.9375 1566.0677,503.5286 C1505.4688,520.8464 1451.2404,554.3541 1407.816,586.3073 " fill="none" id="Main-to-ArchivesFrame" style="stroke:#181818;stroke-width:1.3020833333333333;"/><polygon fill="#181818" points="1401.5234,590.9375,1414.0491,588.1872,1406.7672,587.079,1407.8754,579.7971,1401.5234,590.9375" style="stroke:#181818;stroke-width:1.3020833333333333;"/></g><!--link Main to SettingsFrame--><g id="link_Main_SettingsFrame"><path codeLine="169" d="M2738.8672,486.0807 C2732.0703,488.6328 2725.2474,490.9896 2718.4115,493.112 C2664.0755,509.9609 725.0521,488.2682 670.2344,503.5286 C608.5026,520.7031 552.9315,554.2932 508.4393,586.2854 " fill="none" id="Main-to-SettingsFrame" style="stroke:#181818;stroke-width:1.3020833333333333;"/><polygon fill="#181818" points="502.0964,590.8464,514.6514,588.2336,507.3822,587.0456,508.5702,579.7763,502.0964,590.8464" style="stroke:#181818;stroke-width:1.3020833333333333;"/></g><!--link Main to DatabaseService--><g id="link_Main_DatabaseService"><path codeLine="170" d="M3255.2083,346.875 C3424.9349,380.9245 3624.9219,434.3099 3676.7448,503.5286 C3742.0703,590.7812 3750.612,668.6198 3676.7448,748.75 C3657.4609,769.6745 3576.3802,750.9505 3549.1406,759.1667 C3547.3047,759.7266 3552.9135,757.9722 3551.0776,758.5451 " fill="none" id="Main-to-DatabaseService" style="stroke:#181818;stroke-width:1.3020833333333333;"/><polygon fill="#181818" points="3543.6198,760.8724,3556.358,762.3534,3549.8346,758.933,3553.255,752.4096,3543.6198,760.8724" style="stroke:#181818;stroke-width:1.3020833333333333;"/></g><!--link Main to CheckService--><g id="link_Main_CheckService"><path codeLine="171" d="M3255.2995,476.7448 C3268.3984,485.7552 3281.3281,494.7266 3293.9323,503.5286 C3319.349,521.2891 3340.0904,536.0836 3365.6373,554.5731 " fill="none" id="Main-to-CheckService" style="stroke:#181818;stroke-width:1.3020833333333333;"/><polygon fill="#181818" points="3371.9661,559.1536,3365.5266,548.0637,3366.6921,555.3366,3359.4192,556.5021,3371.9661,559.1536" style="stroke:#181818;stroke-width:1.3020833333333333;"/></g><!--link Main to CVEFetcher--><g id="link_Main_CVEFetcher"><path codeLine="172" d="M3255.1172,342.3437 C3437.0703,375.2734 3658.0469,429.2187 3714.5052,503.5286 C3883.3203,725.6901 3768.2161,904.4792 3589.5052,1118.75 C3546.9141,1169.8177 3493.0242,1205.5714 3435.3289,1234.2563 " fill="none" id="Main-to-CVEFetcher" style="stroke:#181818;stroke-width:1.3020833333333333;"/><polygon fill="#181818" points="3428.3333,1237.7344,3441.1454,1237.181,3434.163,1234.836,3436.508,1227.8536,3428.3333,1237.7344" style="stroke:#181818;stroke-width:1.3020833333333333;"/></g><!--link Main to User--><g id="link_Main_User"><path codeLine="173" d="M2756.849,493.5547 C2754.8047,496.849 2752.8516,500.1693 2750.9635,503.5286 C2724.0885,551.4844 2759.6484,712.3958 2718.4115,748.75 C2701.1328,763.9974 1076.1849,743.2292 1059.5573,759.1667 C947.4479,866.6927 967.4098,1053.142 996.9411,1177.2175 " fill="none" id="Main-to-User" style="stroke:#181818;stroke-width:1.3020833333333333;"/><polygon fill="#181818" points="998.75,1184.8177,1001.1034,1172.2115,997.2426,1178.4842,990.9698,1174.6234,998.75,1184.8177" style="stroke:#181818;stroke-width:1.3020833333333333;"/></g><!--link Main to Filters--><g id="link_Main_Filters"><path codeLine="174" d="M2871.4974,493.2812 C2869.8958,496.7057 2868.3464,500.1172 2866.849,503.5286 C2821.6146,606.5104 2892.0312,678.3203 2804.349,748.75 C2790.3516,760 2499.1016,756.0417 2481.4323,759.1667 C2345.7292,783.2552 2204.7482,831.2722 2097.9122,872.5613 " fill="none" id="Main-to-Filters" style="stroke:#181818;stroke-width:1.3020833333333333;"/><polygon fill="#181818" points="2090.625,875.3776,2103.4334,876.0113,2096.6977,873.0307,2099.6783,866.295,2090.625,875.3776" style="stroke:#181818;stroke-width:1.3020833333333333;"/></g><!--link Main to SessionManager--><g id="link_Main_SessionManager"><path codeLine="175" d="M2804.7526,493.1901 C2802.8125,496.6146 2800.9375,500.0651 2799.1406,503.5286 C2748.2943,601.8099 2840.625,677.2656 2756.1719,748.75 C2727.4089,773.112 1433.9974,744.2187 1399.401,759.1667 C1349.0365,780.9375 1311.148,819.3609 1281.0959,858.5406 " fill="none" id="Main-to-SessionManager" style="stroke:#181818;stroke-width:1.3020833333333333;"/><polygon fill="#181818" points="1276.3411,864.7396,1287.606,858.611,1280.3035,859.5738,1279.3407,852.2713,1276.3411,864.7396" style="stroke:#181818;stroke-width:1.3020833333333333;"/></g><!--link MainFrame to User--><g id="link_MainFrame_User"><path codeLine="177" d="M1223.737,371.1589 C1018.4635,413.8542 740.1302,466.0286 491.849,493.112 C476.0156,494.8307 216.4453,492.0573 205.3906,503.5286 C129.7396,581.9792 153.9323,652.6823 205.3906,748.75 C351.1589,1020.8984 689.7818,1179.0353 885.2896,1251.327 " fill="none" id="MainFrame-to-User" style="stroke:#181818;stroke-width:1.3020833333333333;"/><polygon fill="#181818" points="892.6172,1254.0365,883.4321,1245.0872,886.5108,1251.7786,879.8195,1254.8573,892.6172,1254.0365" style="stroke:#181818;stroke-width:1.3020833333333333;"/></g><!--link MainFrame to CVEInfoFrame--><g id="link_MainFrame_CVEInfoFrame"><path codeLine="179" d="M1601.6797,440.2344 C1633.9583,498.099 1665.4121,554.5058 1687.7819,594.5969 " fill="none" id="MainFrame-to-CVEInfoFrame" style="stroke:#181818;stroke-width:1.3020833333333333;"/><polygon fill="#181818" points="1691.5885,601.4193,1690.4267,588.648,1688.4163,595.734,1681.3303,593.7236,1691.5885,601.4193" style="stroke:#181818;stroke-width:1.3020833333333333;"/></g><!--link MainFrame to LoginFrame--><g id="link_MainFrame_LoginFrame"><path codeLine="180" d="M1713.3724,440.6771 C1751.3021,462.0703 1792.1354,481.0547 1832.9948,493.112 C1883.6589,508.0469 2257.9167,487.513 2308.2552,503.5286 C2351.7969,517.3828 2388.2587,538.9541 2423.4149,564.9046 " fill="none" id="MainFrame-to-LoginFrame" style="stroke:#181818;stroke-width:1.3020833333333333;"/><polygon fill="#181818" points="2429.7005,569.5443,2423.3653,558.3944,2424.4625,565.6779,2417.179,566.7751,2429.7005,569.5443" style="stroke:#181818;stroke-width:1.3020833333333333;"/></g><!--link MainFrame to FiltersFrame--><g id="link_MainFrame_FiltersFrame"><path codeLine="181" d="M1734.3359,440.6771 C1766.7448,459.4661 1800.3125,477.5911 1832.9948,493.112 C1845.7292,499.1536 1850.2344,497.4479 1862.9427,503.5286 C1914.9349,528.4115 1963.4115,558.305 2005.7292,586.5602 " fill="none" id="MainFrame-to-FiltersFrame" style="stroke:#181818;stroke-width:1.3020833333333333;"/><polygon fill="#181818" points="2012.2266,590.8984,2005.3727,580.0596,2006.8121,587.2833,1999.5885,588.7227,2012.2266,590.8984" style="stroke:#181818;stroke-width:1.3020833333333333;"/></g><!--link MainFrame to AlertsFrame--><g id="link_MainFrame_AlertsFrame"><path codeLine="182" d="M1230.8073,440.4427 C1189.9609,460.8594 1148.8281,482.2135 1110.3385,503.5286 C1061.7188,530.4427 1015.5533,559.3116 973.9257,586.473 " fill="none" id="MainFrame-to-AlertsFrame" style="stroke:#181818;stroke-width:1.3020833333333333;"/><polygon fill="#181818" points="967.3828,590.7422,980.0433,588.7004,972.8352,587.1846,974.3511,579.9765,967.3828,590.7422" style="stroke:#181818;stroke-width:1.3020833333333333;"/></g><!--link MainFrame to ArchivesFrame--><g id="link_MainFrame_ArchivesFrame"><path codeLine="183" d="M1450.2474,440.2344 C1420.8464,493.3203 1392.7168,544.0898 1370.5032,584.207 " fill="none" id="MainFrame-to-ArchivesFrame" style="stroke:#181818;stroke-width:1.3020833333333333;"/><polygon fill="#181818" points="1366.7188,591.0417,1376.9519,583.3126,1369.8725,585.3461,1367.839,578.2667,1366.7188,591.0417" style="stroke:#181818;stroke-width:1.3020833333333333;"/></g><!--link MainFrame to SettingsFrame--><g id="link_MainFrame_SettingsFrame"><path codeLine="184" d="M1223.8151,350.8724 C1056.7969,382.5781 847.7344,431.9271 670.2344,503.5286 C613.6589,526.3542 561.1974,557.3541 516.7313,586.6639 " fill="none" id="MainFrame-to-SettingsFrame" style="stroke:#181818;stroke-width:1.3020833333333333;"/><polygon fill="#181818" points="510.2083,590.9635,522.8591,588.8628,515.6441,587.3805,517.1263,580.1655,510.2083,590.9635" style="stroke:#181818;stroke-width:1.3020833333333333;"/></g><!--link LoginFrame to User--><g id="link_LoginFrame_User"><path codeLine="187" d="M2391.849,718.0208 C2365.1563,730.6771 2336.4323,741.9401 2308.2552,748.75 C2290.4818,753.0599 1004.7266,746.1979 991.849,759.1667 C882.5781,869.3099 928.3454,1054.3987 976.9001,1177.5497 " fill="none" id="LoginFrame-to-User" style="stroke:#181818;stroke-width:1.3020833333333333;"/><polygon fill="#181818" points="979.7656,1184.8177,980.3126,1172.0053,977.3777,1178.761,970.622,1175.8261,979.7656,1184.8177" style="stroke:#181818;stroke-width:1.3020833333333333;"/></g><!--link LoginFrame to SessionManager--><g id="link_LoginFrame_SessionManager"><path codeLine="188" d="M2391.8359,717.9427 C2365.1432,730.599 2336.4193,741.888 2308.2552,748.75 C2259.1927,760.7161 1445.7161,739.0495 1399.401,759.1667 C1349.0755,781.0286 1311.1904,819.4546 1281.1253,858.6083 " fill="none" id="LoginFrame-to-SessionManager" style="stroke:#181818;stroke-width:1.3020833333333333;"/><polygon fill="#181818" points="1276.3672,864.8047,1287.6353,858.6821,1280.3323,859.641,1279.3734,852.338,1276.3672,864.8047" style="stroke:#181818;stroke-width:1.3020833333333333;"/></g><!--link FiltersFrame to UserFilters--><g id="link_FiltersFrame_UserFilters"><path codeLine="190" d="M1997.1745,696.8359 C1957.513,717.2135 1909.3099,738.2292 1862.9427,748.75 C1837.3047,754.5833 935.9635,741.6797 916.3281,759.1667 C861.5885,807.9557 820,1363.2813 869.4531,1417.4219 C912.7604,1464.8177 1095.4427,1425.9505 1157.2135,1443.4635 C1164.6745,1445.5729 1164.8455,1445.3868 1172.3715,1448.0821 " fill="none" id="FiltersFrame-to-UserFilters" style="stroke:#181818;stroke-width:1.3020833333333333;stroke-dasharray:7.0,7.0;"/><polygon fill="#181818" points="1179.7266,1450.7161,1170.45,1441.8617,1173.5974,1448.5211,1166.9379,1451.6684,1179.7266,1450.7161" style="stroke:#181818;stroke-width:1.3020833333333333;"/></g><!--link AlertsFrame to UserAlerts--><g id="link_AlertsFrame_UserAlerts"><path codeLine="191" d="M830.0781,696.5885 C812.9557,714.5703 796.224,736.0807 786.1198,759.1667 C673.737,1016.0807 700.9057,1359.3233 714.7078,1477.7739 " fill="none" id="AlertsFrame-to-UserAlerts" style="stroke:#181818;stroke-width:1.3020833333333333;stroke-dasharray:7.0,7.0;"/><polygon fill="#181818" points="715.612,1485.5339,719.429,1473.2911,714.8585,1479.0672,709.0823,1474.4967,715.612,1485.5339" style="stroke:#181818;stroke-width:1.3020833333333333;"/></g><!--link ArchivesFrame to UserArchives--><g id="link_ArchivesFrame_UserArchives"><path codeLine="192" d="M1246.3411,696.7839 C1205.9115,716.875 1157.0703,737.6953 1110.3385,748.75 C1095.4036,752.2917 844.9479,748.112 834.2969,759.1667 C732.8385,864.5312 763.5938,1289.362 834.2969,1417.4219 C845.026,1436.862 879.7406,1459.5233 919.4411,1481.5025 " fill="none" id="ArchivesFrame-to-UserArchives" style="stroke:#181818;stroke-width:1.3020833333333333;stroke-dasharray:7.0,7.0;"/><polygon fill="#181818" points="926.276,1485.2865,918.5463,1475.0538,920.5802,1482.1331,913.501,1484.1671,926.276,1485.2865" style="stroke:#181818;stroke-width:1.3020833333333333;"/></g><!--link AlertNotificationDialog to UserAlerts--><g id="link_AlertNotificationDialog_UserAlerts"><path codeLine="193" d="M272.1094,355.7552 C226.7188,391.3281 173.2682,442.9818 148.099,503.5286 C106.263,604.1667 114.0755,645.2083 148.099,748.75 C255.5469,1075.7552 553.243,1373.022 669.3237,1480.1444 " fill="none" id="AlertNotificationDialog-to-UserAlerts" style="stroke:#181818;stroke-width:1.3020833333333333;stroke-dasharray:7.0,7.0;"/><polygon fill="#181818" points="675.0651,1485.4427,669.9852,1473.6677,670.2806,1481.0275,662.9209,1481.3229,675.0651,1485.4427" style="stroke:#181818;stroke-width:1.3020833333333333;"/></g><!--link AlertNotificationDialog to UserSettings--><g id="link_AlertNotificationDialog_UserSettings"><path codeLine="194" d="M258.4635,355.7943 C207.7604,390.4167 149.1016,441.0417 120.7552,503.5286 C7.8125,752.5391 104.1536,845.8203 120.7552,1118.75 C128.8672,1252.2266 77.2005,1310.2734 157.2135,1417.4219 C181.5495,1450 210.4874,1469.8765 247.7921,1486.0354 " fill="none" id="AlertNotificationDialog-to-UserSettings" style="stroke:#181818;stroke-width:1.3020833333333333;stroke-dasharray:7.0,7.0;"/><polygon fill="#181818" points="254.9609,1489.1406,246.2778,1479.7035,248.9869,1486.5529,242.1375,1489.262,254.9609,1489.1406" style="stroke:#181818;stroke-width:1.3020833333333333;"/></g><!--link SettingsFrame to UserSettings--><g id="link_SettingsFrame_UserSettings"><path codeLine="195" d="M324.362,696.9271 C300.6901,713.3203 278.8281,733.9323 265.2865,759.1667 C126.9661,1016.9661 135.3906,1155.2865 265.2865,1417.4219 C269.7917,1426.5234 270.5486,1428.9966 277.0199,1436.9783 " fill="none" id="SettingsFrame-to-UserSettings" style="stroke:#181818;stroke-width:1.3020833333333333;stroke-dasharray:7.0,7.0;"/><polygon fill="#181818" points="281.9401,1443.0469,278.6055,1430.664,277.84,1437.9898,270.5142,1437.2242,281.9401,1443.0469" style="stroke:#181818;stroke-width:1.3020833333333333;"/></g><!--reverse link User to UserFilters--><g id="link_User_UserFilters"><path codeLine="197" d="M1186.8136,1420.7783 C1200.6938,1431.4814 1202.2396,1432.6693 1215.7031,1443.0599 " fill="none" id="User-backto-UserFilters" style="stroke:#181818;stroke-width:1.3020833333333333;"/><polygon fill="#181818" points="1174.4401,1411.237,1177.4464,1420.1321,1186.8136,1420.7783,1183.8073,1411.8831,1174.4401,1411.237" style="stroke:#181818;stroke-width:1.3020833333333333;"/></g><!--reverse link User to UserAlerts--><g id="link_User_UserAlerts"><path codeLine="198" d="M879.6538,1412.8091 C839.3674,1441.6633 810.4557,1462.3828 778.3203,1485.4036 " fill="none" id="User-backto-UserAlerts" style="stroke:#181818;stroke-width:1.3020833333333333;"/><polygon fill="#181818" points="892.3568,1403.7109,882.9726,1404.0257,879.6538,1412.8091,889.038,1412.4943,892.3568,1403.7109" style="stroke:#181818;stroke-width:1.3020833333333333;"/></g><!--reverse link User to UserArchives--><g id="link_User_UserArchives"><path codeLine="199" d="M1018.3066,1433.3192 C1015.481,1457.538 1014.5052,1466.0156 1012.2656,1485.2865 " fill="none" id="User-backto-UserArchives" style="stroke:#181818;stroke-width:1.3020833333333333;"/><polygon fill="#181818" points="1020.1172,1417.7995,1014.0386,1424.9558,1018.3066,1433.3192,1024.3851,1426.1629,1020.1172,1417.7995" style="stroke:#181818;stroke-width:1.3020833333333333;"/></g><!--reverse link User to UserSettings--><g id="link_User_UserSettings"><path codeLine="200" d="M877.6755,1345.7058 C788.2745,1371.6303 685.7422,1403.8151 584.2969,1443.4635 C576.9141,1446.3411 569.401,1449.401 561.849,1452.5651 " fill="none" id="User-backto-UserSettings" style="stroke:#181818;stroke-width:1.3020833333333333;"/><polygon fill="#181818" points="892.6823,1341.3542,883.7283,1338.5277,877.6755,1345.7058,886.6295,1348.5323,892.6823,1341.3542" style="stroke:#181818;stroke-width:1.3020833333333333;"/></g><!--link CVEInfoFrame to CVE--><g id="link_CVEInfoFrame_CVE"><path codeLine="202" d="M1670.8984,685.9896 C1643.1641,709.1536 1605.2083,736.0026 1566.0677,748.75 C1539.3099,757.474 1079.2578,739.0625 1059.5573,759.1667 C947.7214,873.3333 950.9245,1001.5365 1059.5573,1118.75 C1080.2734,1141.0937 1169.0755,1115.4297 1196.276,1129.1667 C1226.849,1144.6094 1248.637,1163.5015 1270.7593,1189.5171 " fill="none" id="CVEInfoFrame-to-CVE" style="stroke:#181818;stroke-width:1.3020833333333333;"/><polygon fill="#181818" points="1275.8203,1195.4687,1272.1966,1183.1673,1271.6028,1190.5091,1264.2611,1189.9153,1275.8203,1195.4687" style="stroke:#181818;stroke-width:1.3020833333333333;"/></g><!--link DatabaseService to CVE--><g id="link_DatabaseService_CVE"><path codeLine="204" d="M2908.5286,1107.1484 C2896.7708,1111.3411 2885.026,1115.2344 2873.3594,1118.75 C2367.3047,1271.4714 1738.6191,1296.3049 1474.6608,1299.7294 " fill="none" id="DatabaseService-to-CVE" style="stroke:#181818;stroke-width:1.3020833333333333;stroke-dasharray:7.0,7.0;"/><polygon fill="#181818" points="1466.849,1299.8307,1478.6343,1304.8866,1473.3588,1299.7463,1478.4992,1294.4708,1466.849,1299.8307" style="stroke:#181818;stroke-width:1.3020833333333333;"/></g><!--link DatabaseService to CVEFetcher--><g id="link_DatabaseService_CVEFetcher"><path codeLine="205" d="M3244.349,1119.0755 C3248.6719,1161.7448 3252.2217,1196.7193 3255.5811,1229.9355 " fill="none" id="DatabaseService-to-CVEFetcher" style="stroke:#181818;stroke-width:1.3020833333333333;"/><polygon fill="#181818" points="3256.3672,1237.7083,3260.3699,1225.525,3255.7121,1231.231,3250.0061,1226.5731,3256.3672,1237.7083" style="stroke:#181818;stroke-width:1.3020833333333333;"/></g><!--link CVEFetcher to CVE--><g id="link_CVEFetcher_CVE"><path codeLine="206" d="M2887.3437,1301.2891 C2413.776,1301.2891 1948.0208,1301.2891 1474.4531,1301.2891 " fill="none" id="CVEFetcher-to-CVE" style="stroke:#181818;stroke-width:1.3020833333333333;stroke-dasharray:7.0,7.0;"/><polygon fill="#181818" points="1466.6406,1301.2891,1478.3594,1306.4974,1473.151,1301.2891,1478.3594,1296.0807,1466.6406,1301.2891" style="stroke:#181818;stroke-width:1.3020833333333333;"/></g><!--link APIUtils to CVEFetcher--><g id="link_APIUtils_CVEFetcher"><path codeLine="208" d="M2700.2474,981.276 C2740.0781,1020.1302 2803.9453,1078.3854 2866.849,1118.75 C2939.5312,1165.3776 3018.9787,1203.4358 3092.6506,1234.6597 " fill="none" id="APIUtils-to-CVEFetcher" style="stroke:#181818;stroke-width:1.3020833333333333;stroke-dasharray:7.0,7.0;"/><polygon fill="#181818" points="3099.8437,1237.7083,3091.0865,1228.34,3093.8495,1235.1678,3087.0216,1237.9308,3099.8437,1237.7083" style="stroke:#181818;stroke-width:1.3020833333333333;"/></g><!--link NotificationService to User--><g id="link_NotificationService_User"><path codeLine="209" d="M2972.6302,686.1589 C2940.0391,703.8281 2907.3047,727.7995 2886.3802,759.1667 C2796.8099,893.4375 2957.1094,1012.513 2835.599,1118.75 C2818.4766,1133.724 1218.4766,1120.1823 1197.5781,1129.1667 C1168.4896,1141.6667 1147.6165,1156.6202 1124.8691,1179.0812 " fill="none" id="NotificationService-to-User" style="stroke:#181818;stroke-width:1.3020833333333333;stroke-dasharray:7.0,7.0;"/><polygon fill="#181818" points="1119.3099,1184.5703,1131.3081,1180.0427,1123.9425,1179.996,1123.9892,1172.6305,1119.3099,1184.5703" style="stroke:#181818;stroke-width:1.3020833333333333;"/></g><!--link NotificationService to DatabaseService--><g id="link_NotificationService_DatabaseService"><path codeLine="210" d="M3099.5443,685.7943 C3109.6484,705.8854 3119.1218,724.6993 3132.8848,752.0821 " fill="none" id="NotificationService-to-DatabaseService" style="stroke:#181818;stroke-width:1.3020833333333333;"/><polygon fill="#181818" points="3136.3932,759.0625,3135.7841,746.2529,3133.4695,753.2455,3126.477,750.9309,3136.3932,759.0625" style="stroke:#181818;stroke-width:1.3020833333333333;"/></g><!--link SessionManager to User--><g id="link_SessionManager_User"><path codeLine="212" d="M1189.3099,1013.0599 C1162.5521,1062.3307 1130.3816,1121.5848 1099.7826,1177.939 " fill="none" id="SessionManager-to-User" style="stroke:#181818;stroke-width:1.3020833333333333;stroke-dasharray:7.0,7.0;"/><polygon fill="#181818" points="1096.0547,1184.8047,1106.2237,1176.9914,1099.1613,1179.0833,1097.0694,1172.0209,1096.0547,1184.8047" style="stroke:#181818;stroke-width:1.3020833333333333;"/></g><!--link Filters to CVE--><g id="link_Filters_CVE"><path codeLine="213" d="M1837.6432,1002.513 C1734.5833,1064.5443 1582.9695,1155.7887 1473.4252,1221.7262 " fill="none" id="Filters-to-CVE" style="stroke:#181818;stroke-width:1.3020833333333333;stroke-dasharray:7.0,7.0;"/><polygon fill="#181818" points="1466.7318,1225.7552,1479.458,1224.1741,1472.3097,1222.3977,1474.086,1215.2494,1466.7318,1225.7552" style="stroke:#181818;stroke-width:1.3020833333333333;"/></g><!--link CheckService to DatabaseService--><g id="link_CheckService_DatabaseService"><path codeLine="215" d="M3411.4323,728.5547 C3402.9036,738.1771 3399.1623,742.4051 3390.0347,752.7176 " fill="none" id="CheckService-to-DatabaseService" style="stroke:#181818;stroke-width:1.3020833333333333;"/><polygon fill="#181818" points="3384.8568,758.5677,3396.5238,753.2445,3389.1717,753.6926,3388.7236,746.3406,3384.8568,758.5677" style="stroke:#181818;stroke-width:1.3020833333333333;"/></g><!--link CheckService to CVEFetcher--><g id="link_CheckService_CVEFetcher"><path codeLine="216" d="M3552.7214,728.6328 C3558.112,738.5026 3562.7604,748.763 3566.0677,759.1667 C3590.2865,835.3255 3605.5078,1049.2578 3566.0677,1118.75 C3536.4714,1170.9115 3492.1146,1205.9604 3440.0964,1233.9422 " fill="none" id="CheckService-to-CVEFetcher" style="stroke:#181818;stroke-width:1.3020833333333333;"/><polygon fill="#181818" points="3433.2161,1237.6432,3446.0038,1236.6785,3438.9497,1234.559,3441.0691,1227.5049,3433.2161,1237.6432" style="stroke:#181818;stroke-width:1.3020833333333333;"/></g><!--link CheckService to APIUtils--><g id="link_CheckService_APIUtils"><path codeLine="217" d="M3348.9844,728.75 C3330.9896,736.8359 3312.3698,743.8411 3293.9323,748.75 C3248.0599,760.9766 2911.1458,742.0964 2866.849,759.1667 C2793.7891,787.3437 2733.9696,847.3968 2697.0686,890.7562 " fill="none" id="CheckService-to-APIUtils" style="stroke:#181818;stroke-width:1.3020833333333333;"/><polygon fill="#181818" points="2692.0052,896.7057,2703.5667,891.157,2696.2247,891.7478,2695.6339,884.4058,2692.0052,896.7057" style="stroke:#181818;stroke-width:1.3020833333333333;"/></g><!--SRC=[bHXTRzisy5s_GkYJkjR1Lc0lnX0Wdq26f2dgj2_3C33IsUP2aHf9kJMA_lSTFoHH56N7UOYX- -BTyJwfNYXlY2Hrtf3oXMpWYMe65unkU0rSvmpMEbCzKTNG_BSFlmSGIVYBWYR_y6kMUH7vcrBKPxkMyLfmgeLya__8iXp_IaQKoXy8vGZ9_T-x6hyB8ZTgcQ-qf7pprzzl1wpIHEgBfYbYsDNNcrlGvHOP2geU26y9-mnCa6gPFml1WF20HLeCybmJJK9P3SYraFKAY2otnNyjo7sdHtZYLdn3vZk-5aMvWxigGSF4Xl8l2cJHuZzEQdYKDsWSwsZVevEL-YRa3BTeTQZPbl2AmGgleesi5qreVAJclL7Z5ky6OimjPHfa4dN1G6gLHg5Vw0wIk1LeZIgC67-wk-w3OTFIDy5r3p5WcGACbTeZYb9mBGL3nPQM_7rktBhCZOVVZfaeXjcLg1l1CMPL4M7RfY8QFacnaQ3K9P75Zh0MbZdbEYBTqcf46A6DoI5QmtSzlShWKBoc9_BCmCJCFLL8RFx_WU3pXEWWm9OvVYH87l1az6fHkzyXihJ9s-7Juv_sJT9E1TgbocMhjU0tt2XP5U1-4_dJSJbwjT94j-e0_S_elhrfoIiFSGdROr53VCU2WiYFWoU-PvjQbZw-ur82NjmJtkmj1LOLDVb-3toZjoa_Ek9FFgiFCyHsk6nKIKj2t2c9G9g6xJrpCNzqaEtnoM4XEFLWntlit8z2qpKjYQQ2NrE2TI-fmvHiaera1rq1EdIegrypveR5xGHxpTcTu0DdZ-fZVFQuU9vu-ApXSVcjHGLiMe0nnI9z5hJAb_aTrx01ESPWKlvZiQwyZ94Lg5BInjpJ38M27KYgzpDeibv3gQ72obgrfPwXQjfdHjKMAcpWW3JcP-oM3UXhqDXlqIbJ8V7L6B_67Z0UlvlrGjVLPnG4q-hdbFSLOWPj9FkipTsD-wyfcSinJ-K-faHTS7YoxdFYBeEq7UUL_kfqZDmcb4CSkVw3H8sx_C4Bjb4wolCeJdd9sWe-Wn9i1yQdbwxzJEppqaunqVltnqIMGvmaojU7b32FEaLSVwcHztbGA9Nlv3C-MQ0mRRjUAe4M5P4l3rWkZWYnqtVR7ARgmckeKtDMnWKBcNQq19MiMNRedIJkkxK1twD1ogm5gZ1seYKhewcnSnYCFEQ6Lo7yRHvCPWdH2BxStrNHw8zCVwuUFpu-_ulrAwhj7PjTDyPRHVAi-CR3zhTo7ecDLi0h6vN5q2dwoMywbiOd6CsUYO8PwTYFE9gLQhgTMUWDDJ_HOW3qwzQyUnrLshc8Y2qsIze9NlMhdm8N5l7GqkejBWp6ot32pfRty-x45CjwA-GNBwoN6Z8dob-NBOOKsQsO0a8zZZ2Y-sOCC8muXoQvkadHzJqthnveG1sRd_CIN8c6D2a42RPqWwBgoiKWRYOff_l24TI7BPGlC-5CbUdfacFjtQ5tx58sUvDKhVPAGsrAn9MGqkR1F76NIOVLzSI-Wbqqz2jXz02fshQw4j_uqGclrJZoJAlbnQUxBmOJUw8cBu2uAy9OqSf30JQpiKoAhmLVxXzNSKLudojWrYEFgzUKMYzevGU6UN4TnIk4ZbQYL-WtmFmyEaMyxlJfBg0K5lC7ml7Mv3G-FVv8L9YbtQMCfIww59fMwP1gTfKeyOH1rYJGCDJiQzrYSJuysGoWOU4UOE7gEa23jJ80XflP01xjHGCuwbS38apx0DeF2mFCEYhMD3mul25dkjlSHim3o7n5eF0n8q95tXeG4vSDgDXl0MRYl04tzc0Ml9ZqMaSmQrm4YzqnUh0uEpiVzOdmIQ73-MumNi1xf8TcSuy2iPGZP7qF6U_S4tHc5xzV5ekH-YEWFt4CwzGTGGUfemSk7mXP5izOHXk3YE5Hm0Q3RiUHzUNSGphQrA3O6Pr4fd8fYufJBw0h-RqQenwR4ZKX2EsASPrHsVy0]--></g></svg>