<?xml version="1.0" encoding="us-ascii" standalone="no"?><svg xmlns="http://www.w3.org/2000/svg" xmlns:xlink="http://www.w3.org/1999/xlink" contentStyleType="text/css" height="700px" preserveAspectRatio="none" style="width:2434px;height:700px;background:#FFFFFF;" version="1.1" viewBox="0 0 2434 700" width="2434.375px" zoomAndPan="magnify"><defs/><g><!--cluster com--><g id="cluster_com"><path d="M8.8542,6.25 L44.2708,6.25 A3.9063,3.9063 0 0 1 46.875,8.8542 L54.1667,29.4759 L2424.4792,29.4759 A2.6042,2.6042 0 0 1 2427.0833,32.0801 L2427.0833,690.1042 A2.6042,2.6042 0 0 1 2424.4792,692.7083 L8.8542,692.7083 A2.6042,2.6042 0 0 1 6.25,690.1042 L6.25,8.8542 A2.6042,2.6042 0 0 1 8.8542,6.25 " fill="none" style="stroke:#000000;stroke-width:1.5625;"/><line style="stroke:#000000;stroke-width:1.5625;" x1="6.25" x2="54.1667" y1="29.4759" y2="29.4759"/><text fill="#000000" font-family="sans-serif" font-size="14.5833" font-weight="bold" lengthAdjust="spacing" textLength="34.375" x="10.4167" y="21.8699">com</text></g><!--cluster vulnmonitor--><g id="cluster_vulnmonitor"><path d="M33.8542,51.0417 L132.8125,51.0417 A3.9063,3.9063 0 0 1 135.4167,53.6458 L142.7083,74.2676 L2399.4792,74.2676 A2.6042,2.6042 0 0 1 2402.0833,76.8717 L2402.0833,665.1042 A2.6042,2.6042 0 0 1 2399.4792,667.7083 L33.8542,667.7083 A2.6042,2.6042 0 0 1 31.25,665.1042 L31.25,53.6458 A2.6042,2.6042 0 0 1 33.8542,51.0417 " fill="none" style="stroke:#000000;stroke-width:1.5625;"/><line style="stroke:#000000;stroke-width:1.5625;" x1="31.25" x2="142.7083" y1="74.2676" y2="74.2676"/><text fill="#000000" font-family="sans-serif" font-size="14.5833" font-weight="bold" lengthAdjust="spacing" textLength="97.9167" x="35.4167" y="66.6616">vulnmonitor</text></g><!--cluster gui--><g id="cluster_gui"><path d="M149.4792,154.1667 L175.5208,154.1667 A3.9063,3.9063 0 0 1 178.125,156.7708 L185.4167,177.3926 L1125.5208,177.3926 A2.6042,2.6042 0 0 1 1128.125,179.9967 L1128.125,441.1458 A2.6042,2.6042 0 0 1 1125.5208,443.75 L149.4792,443.75 A2.6042,2.6042 0 0 1 146.875,441.1458 L146.875,156.7708 A2.6042,2.6042 0 0 1 149.4792,154.1667 " fill="none" style="stroke:#000000;stroke-width:1.5625;"/><line style="stroke:#000000;stroke-width:1.5625;" x1="146.875" x2="185.4167" y1="177.3926" y2="177.3926"/><text fill="#000000" font-family="sans-serif" font-size="14.5833" font-weight="bold" lengthAdjust="spacing" textLength="25" x="151.0417" y="169.7866">gui</text></g><!--cluster model--><g id="cluster_model"><path d="M526.5625,468.75 L577.6042,468.75 A3.9063,3.9063 0 0 1 580.2083,471.3542 L587.5,491.9759 L1133.8542,491.9759 A2.6042,2.6042 0 0 1 1136.4583,494.5801 L1136.4583,640.1042 A2.6042,2.6042 0 0 1 1133.8542,642.7083 L526.5625,642.7083 A2.6042,2.6042 0 0 1 523.9583,640.1042 L523.9583,471.3542 A2.6042,2.6042 0 0 1 526.5625,468.75 " fill="none" style="stroke:#000000;stroke-width:1.5625;"/><line style="stroke:#000000;stroke-width:1.5625;" x1="523.9583" x2="587.5" y1="491.9759" y2="491.9759"/><text fill="#000000" font-family="sans-serif" font-size="14.5833" font-weight="bold" lengthAdjust="spacing" textLength="50" x="528.125" y="484.3699">model</text></g><!--cluster services--><g id="cluster_services"><path d="M1942.1875,154.1667 L2013.0208,154.1667 A3.9063,3.9063 0 0 1 2015.625,156.7708 L2022.9167,177.3926 L2322.3958,177.3926 A2.6042,2.6042 0 0 1 2325,179.9967 L2325,441.1458 A2.6042,2.6042 0 0 1 2322.3958,443.75 L1942.1875,443.75 A2.6042,2.6042 0 0 1 1939.5833,441.1458 L1939.5833,156.7708 A2.6042,2.6042 0 0 1 1942.1875,154.1667 " fill="none" style="stroke:#000000;stroke-width:1.5625;"/><line style="stroke:#000000;stroke-width:1.5625;" x1="1939.5833" x2="2022.9167" y1="177.3926" y2="177.3926"/><text fill="#000000" font-family="sans-serif" font-size="14.5833" font-weight="bold" lengthAdjust="spacing" textLength="69.7917" x="1943.75" y="169.7866">services</text></g><!--cluster utils--><g id="cluster_utils"><path d="M1155.7292,257.2917 L1191.1458,257.2917 A3.9063,3.9063 0 0 1 1193.75,259.8958 L1201.0417,280.5176 L1895.3125,280.5176 A2.6042,2.6042 0 0 1 1897.9167,283.1217 L1897.9167,357.8125 A2.6042,2.6042 0 0 1 1895.3125,360.4167 L1155.7292,360.4167 A2.6042,2.6042 0 0 1 1153.125,357.8125 L1153.125,259.8958 A2.6042,2.6042 0 0 1 1155.7292,257.2917 " fill="none" style="stroke:#000000;stroke-width:1.5625;"/><line style="stroke:#000000;stroke-width:1.5625;" x1="1153.125" x2="1201.0417" y1="280.5176" y2="280.5176"/><text fill="#000000" font-family="sans-serif" font-size="14.5833" font-weight="bold" lengthAdjust="spacing" textLength="34.375" x="1157.2917" y="272.9116">utils</text></g><!--class Main--><g id="elem_Main"><rect codeLine="7" fill="#F1F1F1" height="50" id="Main" rx="2.6042" ry="2.6042" style="stroke:#181818;stroke-width:0.5208333333333334;" width="66.6667" x="1110.4167" y="87.5"/><ellipse cx="1126.0417" cy="104.1667" fill="#ADD1B2" rx="11.4583" ry="11.4583" style="stroke:#181818;stroke-width:1.0416666666666667;"/><path d="M1129.1341,110.0423 Q1128.5319,110.3516 1127.8646,110.498 Q1127.1973,110.6608 1126.4648,110.6608 Q1123.8607,110.6608 1122.4772,108.9518 Q1121.11,107.2266 1121.11,103.9714 Q1121.11,100.7161 1122.4772,98.9909 Q1123.8607,97.2656 1126.4648,97.2656 Q1127.1973,97.2656 1127.8646,97.4284 Q1128.5482,97.5911 1129.1341,97.9004 L1129.1341,100.7324 Q1128.4831,100.1302 1127.8646,99.8535 Q1127.2461,99.5605 1126.5951,99.5605 Q1125.1953,99.5605 1124.4792,100.6836 Q1123.763,101.7904 1123.763,103.9714 Q1123.763,106.1523 1124.4792,107.2754 Q1125.1953,108.3822 1126.5951,108.3822 Q1127.2461,108.3822 1127.8646,108.1055 Q1128.4831,107.8125 1129.1341,107.2103 L1129.1341,110.0423 Z " fill="#000000"/><text fill="#000000" font-family="sans-serif" font-size="14.5833" lengthAdjust="spacing" textLength="33.3333" x="1140.625" y="109.2153">Main</text><line style="stroke:#181818;stroke-width:0.5208333333333334;" x1="1111.4583" x2="1176.0417" y1="120.8333" y2="120.8333"/><line style="stroke:#181818;stroke-width:0.5208333333333334;" x1="1111.4583" x2="1176.0417" y1="129.1667" y2="129.1667"/></g><!--class MainFrame--><g id="elem_MainFrame"><rect codeLine="11" fill="#F1F1F1" height="50" id="MainFrame" rx="2.6042" ry="2.6042" style="stroke:#181818;stroke-width:0.5208333333333334;" width="111.4583" x="542.1875" y="190.625"/><ellipse cx="557.8125" cy="207.2917" fill="#ADD1B2" rx="11.4583" ry="11.4583" style="stroke:#181818;stroke-width:1.0416666666666667;"/><path d="M560.9049,213.1673 Q560.3027,213.4766 559.6354,213.623 Q558.9681,213.7858 558.2357,213.7858 Q555.6315,213.7858 554.248,212.0768 Q552.8809,210.3516 552.8809,207.0964 Q552.8809,203.8411 554.248,202.1159 Q555.6315,200.3906 558.2357,200.3906 Q558.9681,200.3906 559.6354,200.5534 Q560.319,200.7161 560.9049,201.0254 L560.9049,203.8574 Q560.2539,203.2552 559.6354,202.9785 Q559.0169,202.6855 558.3659,202.6855 Q556.9661,202.6855 556.25,203.8086 Q555.5339,204.9154 555.5339,207.0964 Q555.5339,209.2773 556.25,210.4004 Q556.9661,211.5072 558.3659,211.5072 Q559.0169,211.5072 559.6354,211.2305 Q560.2539,210.9375 560.9049,210.3353 L560.9049,213.1673 Z " fill="#000000"/><text fill="#000000" font-family="sans-serif" font-size="14.5833" lengthAdjust="spacing" textLength="78.125" x="572.3958" y="212.3403">MainFrame</text><line style="stroke:#181818;stroke-width:0.5208333333333334;" x1="543.2292" x2="652.6042" y1="223.9583" y2="223.9583"/><line style="stroke:#181818;stroke-width:0.5208333333333334;" x1="543.2292" x2="652.6042" y1="232.2917" y2="232.2917"/></g><!--class CVEInfoFrame--><g id="elem_CVEInfoFrame"><rect codeLine="12" fill="#F1F1F1" height="50" id="CVEInfoFrame" rx="2.6042" ry="2.6042" style="stroke:#181818;stroke-width:0.5208333333333334;" width="133.3333" x="494.7917" y="293.75"/><ellipse cx="510.4167" cy="310.4167" fill="#ADD1B2" rx="11.4583" ry="11.4583" style="stroke:#181818;stroke-width:1.0416666666666667;"/><path d="M513.5091,316.2923 Q512.9069,316.6016 512.2396,316.748 Q511.5723,316.9108 510.8398,316.9108 Q508.2357,316.9108 506.8522,315.2018 Q505.485,313.4766 505.485,310.2214 Q505.485,306.9661 506.8522,305.2409 Q508.2357,303.5156 510.8398,303.5156 Q511.5723,303.5156 512.2396,303.6784 Q512.9232,303.8411 513.5091,304.1504 L513.5091,306.9824 Q512.8581,306.3802 512.2396,306.1035 Q511.6211,305.8105 510.9701,305.8105 Q509.5703,305.8105 508.8542,306.9336 Q508.138,308.0404 508.138,310.2214 Q508.138,312.4023 508.8542,313.5254 Q509.5703,314.6322 510.9701,314.6322 Q511.6211,314.6322 512.2396,314.3555 Q512.8581,314.0625 513.5091,313.4603 L513.5091,316.2923 Z " fill="#000000"/><text fill="#000000" font-family="sans-serif" font-size="14.5833" lengthAdjust="spacing" textLength="100" x="525" y="315.4653">CVEInfoFrame</text><line style="stroke:#181818;stroke-width:0.5208333333333334;" x1="495.8333" x2="627.0833" y1="327.0833" y2="327.0833"/><line style="stroke:#181818;stroke-width:0.5208333333333334;" x1="495.8333" x2="627.0833" y1="335.4167" y2="335.4167"/></g><!--class LoginFrame--><g id="elem_LoginFrame"><rect codeLine="13" fill="#F1F1F1" height="50" id="LoginFrame" rx="2.6042" ry="2.6042" style="stroke:#181818;stroke-width:0.5208333333333334;" width="116.6667" x="994.7917" y="293.75"/><ellipse cx="1010.4167" cy="310.4167" fill="#ADD1B2" rx="11.4583" ry="11.4583" style="stroke:#181818;stroke-width:1.0416666666666667;"/><path d="M1013.5091,316.2923 Q1012.9069,316.6016 1012.2396,316.748 Q1011.5723,316.9108 1010.8398,316.9108 Q1008.2357,316.9108 1006.8522,315.2018 Q1005.485,313.4766 1005.485,310.2214 Q1005.485,306.9661 1006.8522,305.2409 Q1008.2357,303.5156 1010.8398,303.5156 Q1011.5723,303.5156 1012.2396,303.6784 Q1012.9232,303.8411 1013.5091,304.1504 L1013.5091,306.9824 Q1012.8581,306.3802 1012.2396,306.1035 Q1011.6211,305.8105 1010.9701,305.8105 Q1009.5703,305.8105 1008.8542,306.9336 Q1008.138,308.0404 1008.138,310.2214 Q1008.138,312.4023 1008.8542,313.5254 Q1009.5703,314.6322 1010.9701,314.6322 Q1011.6211,314.6322 1012.2396,314.3555 Q1012.8581,314.0625 1013.5091,313.4603 L1013.5091,316.2923 Z " fill="#000000"/><text fill="#000000" font-family="sans-serif" font-size="14.5833" lengthAdjust="spacing" textLength="83.3333" x="1025" y="315.4653">LoginFrame</text><line style="stroke:#181818;stroke-width:0.5208333333333334;" x1="995.8333" x2="1110.4167" y1="327.0833" y2="327.0833"/><line style="stroke:#181818;stroke-width:0.5208333333333334;" x1="995.8333" x2="1110.4167" y1="335.4167" y2="335.4167"/></g><!--class FiltersFrame--><g id="elem_FiltersFrame"><rect codeLine="14" fill="#F1F1F1" height="50" id="FiltersFrame" rx="2.6042" ry="2.6042" style="stroke:#181818;stroke-width:0.5208333333333334;" width="120.8333" x="337.5" y="293.75"/><ellipse cx="353.125" cy="310.4167" fill="#ADD1B2" rx="11.4583" ry="11.4583" style="stroke:#181818;stroke-width:1.0416666666666667;"/><path d="M356.2174,316.2923 Q355.6152,316.6016 354.9479,316.748 Q354.2806,316.9108 353.5482,316.9108 Q350.944,316.9108 349.5605,315.2018 Q348.1934,313.4766 348.1934,310.2214 Q348.1934,306.9661 349.5605,305.2409 Q350.944,303.5156 353.5482,303.5156 Q354.2806,303.5156 354.9479,303.6784 Q355.6315,303.8411 356.2174,304.1504 L356.2174,306.9824 Q355.5664,306.3802 354.9479,306.1035 Q354.3294,305.8105 353.6784,305.8105 Q352.2786,305.8105 351.5625,306.9336 Q350.8464,308.0404 350.8464,310.2214 Q350.8464,312.4023 351.5625,313.5254 Q352.2786,314.6322 353.6784,314.6322 Q354.3294,314.6322 354.9479,314.3555 Q355.5664,314.0625 356.2174,313.4603 L356.2174,316.2923 Z " fill="#000000"/><text fill="#000000" font-family="sans-serif" font-size="14.5833" lengthAdjust="spacing" textLength="87.5" x="367.7083" y="315.4653">FiltersFrame</text><line style="stroke:#181818;stroke-width:0.5208333333333334;" x1="338.5417" x2="457.2917" y1="327.0833" y2="327.0833"/><line style="stroke:#181818;stroke-width:0.5208333333333334;" x1="338.5417" x2="457.2917" y1="335.4167" y2="335.4167"/></g><!--class AlertsFrame--><g id="elem_AlertsFrame"><rect codeLine="15" fill="#F1F1F1" height="50" id="AlertsFrame" rx="2.6042" ry="2.6042" style="stroke:#181818;stroke-width:0.5208333333333334;" width="118.75" x="839.5833" y="293.75"/><ellipse cx="855.2083" cy="310.4167" fill="#ADD1B2" rx="11.4583" ry="11.4583" style="stroke:#181818;stroke-width:1.0416666666666667;"/><path d="M858.3008,316.2923 Q857.6986,316.6016 857.0313,316.748 Q856.3639,316.9108 855.6315,316.9108 Q853.0273,316.9108 851.6439,315.2018 Q850.2767,313.4766 850.2767,310.2214 Q850.2767,306.9661 851.6439,305.2409 Q853.0273,303.5156 855.6315,303.5156 Q856.3639,303.5156 857.0313,303.6784 Q857.7148,303.8411 858.3008,304.1504 L858.3008,306.9824 Q857.6497,306.3802 857.0313,306.1035 Q856.4128,305.8105 855.7617,305.8105 Q854.362,305.8105 853.6458,306.9336 Q852.9297,308.0404 852.9297,310.2214 Q852.9297,312.4023 853.6458,313.5254 Q854.362,314.6322 855.7617,314.6322 Q856.4128,314.6322 857.0313,314.3555 Q857.6497,314.0625 858.3008,313.4603 L858.3008,316.2923 Z " fill="#000000"/><text fill="#000000" font-family="sans-serif" font-size="14.5833" lengthAdjust="spacing" textLength="85.4167" x="869.7917" y="315.4653">AlertsFrame</text><line style="stroke:#181818;stroke-width:0.5208333333333334;" x1="840.625" x2="957.2917" y1="327.0833" y2="327.0833"/><line style="stroke:#181818;stroke-width:0.5208333333333334;" x1="840.625" x2="957.2917" y1="335.4167" y2="335.4167"/></g><!--class AlertNotificationDialog--><g id="elem_AlertNotificationDialog"><rect codeLine="16" fill="#F1F1F1" height="50" id="AlertNotificationDialog" rx="2.6042" ry="2.6042" style="stroke:#181818;stroke-width:0.5208333333333334;" width="189.5833" x="163.5417" y="190.625"/><ellipse cx="179.1667" cy="207.2917" fill="#ADD1B2" rx="11.4583" ry="11.4583" style="stroke:#181818;stroke-width:1.0416666666666667;"/><path d="M182.2591,213.1673 Q181.6569,213.4766 180.9896,213.623 Q180.3223,213.7858 179.5898,213.7858 Q176.9857,213.7858 175.6022,212.0768 Q174.235,210.3516 174.235,207.0964 Q174.235,203.8411 175.6022,202.1159 Q176.9857,200.3906 179.5898,200.3906 Q180.3223,200.3906 180.9896,200.5534 Q181.6732,200.7161 182.2591,201.0254 L182.2591,203.8574 Q181.6081,203.2552 180.9896,202.9785 Q180.3711,202.6855 179.7201,202.6855 Q178.3203,202.6855 177.6042,203.8086 Q176.888,204.9154 176.888,207.0964 Q176.888,209.2773 177.6042,210.4004 Q178.3203,211.5072 179.7201,211.5072 Q180.3711,211.5072 180.9896,211.2305 Q181.6081,210.9375 182.2591,210.3353 L182.2591,213.1673 Z " fill="#000000"/><text fill="#000000" font-family="sans-serif" font-size="14.5833" lengthAdjust="spacing" textLength="156.25" x="193.75" y="212.3403">AlertNotificationDialog</text><line style="stroke:#181818;stroke-width:0.5208333333333334;" x1="164.5833" x2="352.0833" y1="223.9583" y2="223.9583"/><line style="stroke:#181818;stroke-width:0.5208333333333334;" x1="164.5833" x2="352.0833" y1="232.2917" y2="232.2917"/></g><!--class AlertEditorDialog--><g id="elem_AlertEditorDialog"><rect codeLine="17" fill="#F1F1F1" height="50" id="AlertEditorDialog" rx="2.6042" ry="2.6042" style="stroke:#181818;stroke-width:0.5208333333333334;" width="152.0833" x="911.4583" y="377.0833"/><ellipse cx="927.0833" cy="393.75" fill="#ADD1B2" rx="11.4583" ry="11.4583" style="stroke:#181818;stroke-width:1.0416666666666667;"/><path d="M930.1758,399.6257 Q929.5736,399.9349 928.9063,400.0814 Q928.2389,400.2441 927.5065,400.2441 Q924.9023,400.2441 923.5189,398.5352 Q922.1517,396.8099 922.1517,393.5547 Q922.1517,390.2995 923.5189,388.5742 Q924.9023,386.849 927.5065,386.849 Q928.2389,386.849 928.9063,387.0117 Q929.5898,387.1745 930.1758,387.4837 L930.1758,390.3158 Q929.5247,389.7135 928.9063,389.4368 Q928.2878,389.1439 927.6367,389.1439 Q926.237,389.1439 925.5208,390.2669 Q924.8047,391.3737 924.8047,393.5547 Q924.8047,395.7357 925.5208,396.8587 Q926.237,397.9655 927.6367,397.9655 Q928.2878,397.9655 928.9063,397.6888 Q929.5247,397.3958 930.1758,396.7936 L930.1758,399.6257 Z " fill="#000000"/><text fill="#000000" font-family="sans-serif" font-size="14.5833" lengthAdjust="spacing" textLength="118.75" x="941.6667" y="398.7986">AlertEditorDialog</text><line style="stroke:#181818;stroke-width:0.5208333333333334;" x1="912.5" x2="1062.5" y1="410.4167" y2="410.4167"/><line style="stroke:#181818;stroke-width:0.5208333333333334;" x1="912.5" x2="1062.5" y1="418.75" y2="418.75"/></g><!--class ArchivesFrame--><g id="elem_ArchivesFrame"><rect codeLine="18" fill="#F1F1F1" height="50" id="ArchivesFrame" rx="2.6042" ry="2.6042" style="stroke:#181818;stroke-width:0.5208333333333334;" width="138.5417" x="665.1042" y="293.75"/><ellipse cx="680.7292" cy="310.4167" fill="#ADD1B2" rx="11.4583" ry="11.4583" style="stroke:#181818;stroke-width:1.0416666666666667;"/><path d="M683.8216,316.2923 Q683.2194,316.6016 682.5521,316.748 Q681.8848,316.9108 681.1523,316.9108 Q678.5482,316.9108 677.1647,315.2018 Q675.7975,313.4766 675.7975,310.2214 Q675.7975,306.9661 677.1647,305.2409 Q678.5482,303.5156 681.1523,303.5156 Q681.8848,303.5156 682.5521,303.6784 Q683.2357,303.8411 683.8216,304.1504 L683.8216,306.9824 Q683.1706,306.3802 682.5521,306.1035 Q681.9336,305.8105 681.2826,305.8105 Q679.8828,305.8105 679.1667,306.9336 Q678.4505,308.0404 678.4505,310.2214 Q678.4505,312.4023 679.1667,313.5254 Q679.8828,314.6322 681.2826,314.6322 Q681.9336,314.6322 682.5521,314.3555 Q683.1706,314.0625 683.8216,313.4603 L683.8216,316.2923 Z " fill="#000000"/><text fill="#000000" font-family="sans-serif" font-size="14.5833" lengthAdjust="spacing" textLength="105.2083" x="695.3125" y="315.4653">ArchivesFrame</text><line style="stroke:#181818;stroke-width:0.5208333333333334;" x1="666.1458" x2="802.6042" y1="327.0833" y2="327.0833"/><line style="stroke:#181818;stroke-width:0.5208333333333334;" x1="666.1458" x2="802.6042" y1="335.4167" y2="335.4167"/></g><!--class SettingsFrame--><g id="elem_SettingsFrame"><rect codeLine="19" fill="#F1F1F1" height="50" id="SettingsFrame" rx="2.6042" ry="2.6042" style="stroke:#181818;stroke-width:0.5208333333333334;" width="137.5" x="163.5417" y="293.75"/><ellipse cx="179.1667" cy="310.4167" fill="#ADD1B2" rx="11.4583" ry="11.4583" style="stroke:#181818;stroke-width:1.0416666666666667;"/><path d="M182.2591,316.2923 Q181.6569,316.6016 180.9896,316.748 Q180.3223,316.9108 179.5898,316.9108 Q176.9857,316.9108 175.6022,315.2018 Q174.235,313.4766 174.235,310.2214 Q174.235,306.9661 175.6022,305.2409 Q176.9857,303.5156 179.5898,303.5156 Q180.3223,303.5156 180.9896,303.6784 Q181.6732,303.8411 182.2591,304.1504 L182.2591,306.9824 Q181.6081,306.3802 180.9896,306.1035 Q180.3711,305.8105 179.7201,305.8105 Q178.3203,305.8105 177.6042,306.9336 Q176.888,308.0404 176.888,310.2214 Q176.888,312.4023 177.6042,313.5254 Q178.3203,314.6322 179.7201,314.6322 Q180.3711,314.6322 180.9896,314.3555 Q181.6081,314.0625 182.2591,313.4603 L182.2591,316.2923 Z " fill="#000000"/><text fill="#000000" font-family="sans-serif" font-size="14.5833" lengthAdjust="spacing" textLength="104.1667" x="193.75" y="315.4653">SettingsFrame</text><line style="stroke:#181818;stroke-width:0.5208333333333334;" x1="164.5833" x2="300" y1="327.0833" y2="327.0833"/><line style="stroke:#181818;stroke-width:0.5208333333333334;" x1="164.5833" x2="300" y1="335.4167" y2="335.4167"/></g><!--class LoadingDialog--><g id="elem_LoadingDialog"><rect codeLine="20" fill="#F1F1F1" height="50" id="LoadingDialog" rx="2.6042" ry="2.6042" style="stroke:#181818;stroke-width:0.5208333333333334;" width="134.375" x="798.4375" y="190.625"/><ellipse cx="814.0625" cy="207.2917" fill="#ADD1B2" rx="11.4583" ry="11.4583" style="stroke:#181818;stroke-width:1.0416666666666667;"/><path d="M817.1549,213.1673 Q816.5527,213.4766 815.8854,213.623 Q815.2181,213.7858 814.4857,213.7858 Q811.8815,213.7858 810.498,212.0768 Q809.1309,210.3516 809.1309,207.0964 Q809.1309,203.8411 810.498,202.1159 Q811.8815,200.3906 814.4857,200.3906 Q815.2181,200.3906 815.8854,200.5534 Q816.569,200.7161 817.1549,201.0254 L817.1549,203.8574 Q816.5039,203.2552 815.8854,202.9785 Q815.2669,202.6855 814.6159,202.6855 Q813.2161,202.6855 812.5,203.8086 Q811.7839,204.9154 811.7839,207.0964 Q811.7839,209.2773 812.5,210.4004 Q813.2161,211.5072 814.6159,211.5072 Q815.2669,211.5072 815.8854,211.2305 Q816.5039,210.9375 817.1549,210.3353 L817.1549,213.1673 Z " fill="#000000"/><text fill="#000000" font-family="sans-serif" font-size="14.5833" lengthAdjust="spacing" textLength="101.0417" x="828.6458" y="212.3403">LoadingDialog</text><line style="stroke:#181818;stroke-width:0.5208333333333334;" x1="799.4792" x2="931.7708" y1="223.9583" y2="223.9583"/><line style="stroke:#181818;stroke-width:0.5208333333333334;" x1="799.4792" x2="931.7708" y1="232.2917" y2="232.2917"/></g><!--class CVE--><g id="elem_CVE"><rect codeLine="24" fill="#F1F1F1" height="50" id="CVE" rx="2.6042" ry="2.6042" style="stroke:#181818;stroke-width:0.5208333333333334;" width="62.5" x="1057.2917" y="505.2083"/><ellipse cx="1072.9167" cy="521.875" fill="#ADD1B2" rx="11.4583" ry="11.4583" style="stroke:#181818;stroke-width:1.0416666666666667;"/><path d="M1076.0091,527.7507 Q1075.4069,528.0599 1074.7396,528.2064 Q1074.0723,528.3691 1073.3398,528.3691 Q1070.7357,528.3691 1069.3522,526.6602 Q1067.985,524.9349 1067.985,521.6797 Q1067.985,518.4245 1069.3522,516.6992 Q1070.7357,514.974 1073.3398,514.974 Q1074.0723,514.974 1074.7396,515.1367 Q1075.4232,515.2995 1076.0091,515.6087 L1076.0091,518.4408 Q1075.3581,517.8385 1074.7396,517.5618 Q1074.1211,517.2689 1073.4701,517.2689 Q1072.0703,517.2689 1071.3542,518.3919 Q1070.638,519.4987 1070.638,521.6797 Q1070.638,523.8607 1071.3542,524.9837 Q1072.0703,526.0905 1073.4701,526.0905 Q1074.1211,526.0905 1074.7396,525.8138 Q1075.3581,525.5208 1076.0091,524.9186 L1076.0091,527.7507 Z " fill="#000000"/><text fill="#000000" font-family="sans-serif" font-size="14.5833" lengthAdjust="spacing" textLength="29.1667" x="1087.5" y="526.9236">CVE</text><line style="stroke:#181818;stroke-width:0.5208333333333334;" x1="1058.3333" x2="1118.75" y1="538.5417" y2="538.5417"/><line style="stroke:#181818;stroke-width:0.5208333333333334;" x1="1058.3333" x2="1118.75" y1="546.875" y2="546.875"/></g><!--class User--><g id="elem_User"><rect codeLine="25" fill="#F1F1F1" height="50" id="User" rx="2.6042" ry="2.6042" style="stroke:#181818;stroke-width:0.5208333333333334;" width="66.6667" x="954.1667" y="505.2083"/><ellipse cx="969.7917" cy="521.875" fill="#ADD1B2" rx="11.4583" ry="11.4583" style="stroke:#181818;stroke-width:1.0416666666666667;"/><path d="M972.8841,527.7507 Q972.2819,528.0599 971.6146,528.2064 Q970.9473,528.3691 970.2148,528.3691 Q967.6107,528.3691 966.2272,526.6602 Q964.86,524.9349 964.86,521.6797 Q964.86,518.4245 966.2272,516.6992 Q967.6107,514.974 970.2148,514.974 Q970.9473,514.974 971.6146,515.1367 Q972.2982,515.2995 972.8841,515.6087 L972.8841,518.4408 Q972.2331,517.8385 971.6146,517.5618 Q970.9961,517.2689 970.3451,517.2689 Q968.9453,517.2689 968.2292,518.3919 Q967.513,519.4987 967.513,521.6797 Q967.513,523.8607 968.2292,524.9837 Q968.9453,526.0905 970.3451,526.0905 Q970.9961,526.0905 971.6146,525.8138 Q972.2331,525.5208 972.8841,524.9186 L972.8841,527.7507 Z " fill="#000000"/><text fill="#000000" font-family="sans-serif" font-size="14.5833" lengthAdjust="spacing" textLength="33.3333" x="984.375" y="526.9236">User</text><line style="stroke:#181818;stroke-width:0.5208333333333334;" x1="955.2083" x2="1019.7917" y1="538.5417" y2="538.5417"/><line style="stroke:#181818;stroke-width:0.5208333333333334;" x1="955.2083" x2="1019.7917" y1="546.875" y2="546.875"/></g><!--class UserFilters--><g id="elem_UserFilters"><rect codeLine="26" fill="#F1F1F1" height="50" id="UserFilters" rx="2.6042" ry="2.6042" style="stroke:#181818;stroke-width:0.5208333333333334;" width="109.375" x="847.3958" y="576.0417"/><ellipse cx="863.0208" cy="592.7083" fill="#ADD1B2" rx="11.4583" ry="11.4583" style="stroke:#181818;stroke-width:1.0416666666666667;"/><path d="M866.1133,598.584 Q865.5111,598.8932 864.8438,599.0397 Q864.1764,599.2025 863.444,599.2025 Q860.8398,599.2025 859.4564,597.4935 Q858.0892,595.7682 858.0892,592.513 Q858.0892,589.2578 859.4564,587.5326 Q860.8398,585.8073 863.444,585.8073 Q864.1764,585.8073 864.8438,585.9701 Q865.5273,586.1328 866.1133,586.4421 L866.1133,589.2741 Q865.4622,588.6719 864.8438,588.3952 Q864.2253,588.1022 863.5742,588.1022 Q862.1745,588.1022 861.4583,589.2253 Q860.7422,590.332 860.7422,592.513 Q860.7422,594.694 861.4583,595.8171 Q862.1745,596.9238 863.5742,596.9238 Q864.2253,596.9238 864.8438,596.6471 Q865.4622,596.3542 866.1133,595.752 L866.1133,598.584 Z " fill="#000000"/><text fill="#000000" font-family="sans-serif" font-size="14.5833" lengthAdjust="spacing" textLength="76.0417" x="877.6042" y="597.757">UserFilters</text><line style="stroke:#181818;stroke-width:0.5208333333333334;" x1="848.4375" x2="955.7292" y1="609.375" y2="609.375"/><line style="stroke:#181818;stroke-width:0.5208333333333334;" x1="848.4375" x2="955.7292" y1="617.7083" y2="617.7083"/></g><!--class UserAlerts--><g id="elem_UserAlerts"><rect codeLine="27" fill="#F1F1F1" height="50" id="UserAlerts" rx="2.6042" ry="2.6042" style="stroke:#181818;stroke-width:0.5208333333333334;" width="107.2917" x="703.6458" y="576.0417"/><ellipse cx="719.2708" cy="592.7083" fill="#ADD1B2" rx="11.4583" ry="11.4583" style="stroke:#181818;stroke-width:1.0416666666666667;"/><path d="M722.3633,598.584 Q721.7611,598.8932 721.0938,599.0397 Q720.4264,599.2025 719.694,599.2025 Q717.0898,599.2025 715.7064,597.4935 Q714.3392,595.7682 714.3392,592.513 Q714.3392,589.2578 715.7064,587.5326 Q717.0898,585.8073 719.694,585.8073 Q720.4264,585.8073 721.0938,585.9701 Q721.7773,586.1328 722.3633,586.4421 L722.3633,589.2741 Q721.7122,588.6719 721.0938,588.3952 Q720.4753,588.1022 719.8242,588.1022 Q718.4245,588.1022 717.7083,589.2253 Q716.9922,590.332 716.9922,592.513 Q716.9922,594.694 717.7083,595.8171 Q718.4245,596.9238 719.8242,596.9238 Q720.4753,596.9238 721.0938,596.6471 Q721.7122,596.3542 722.3633,595.752 L722.3633,598.584 Z " fill="#000000"/><text fill="#000000" font-family="sans-serif" font-size="14.5833" lengthAdjust="spacing" textLength="73.9583" x="733.8542" y="597.757">UserAlerts</text><line style="stroke:#181818;stroke-width:0.5208333333333334;" x1="704.6875" x2="809.8958" y1="609.375" y2="609.375"/><line style="stroke:#181818;stroke-width:0.5208333333333334;" x1="704.6875" x2="809.8958" y1="617.7083" y2="617.7083"/></g><!--class UserArchives--><g id="elem_UserArchives"><rect codeLine="28" fill="#F1F1F1" height="50" id="UserArchives" rx="2.6042" ry="2.6042" style="stroke:#181818;stroke-width:0.5208333333333334;" width="127.0833" x="992.7083" y="576.0417"/><ellipse cx="1008.3333" cy="592.7083" fill="#ADD1B2" rx="11.4583" ry="11.4583" style="stroke:#181818;stroke-width:1.0416666666666667;"/><path d="M1011.4258,598.584 Q1010.8236,598.8932 1010.1563,599.0397 Q1009.4889,599.2025 1008.7565,599.2025 Q1006.1523,599.2025 1004.7689,597.4935 Q1003.4017,595.7682 1003.4017,592.513 Q1003.4017,589.2578 1004.7689,587.5326 Q1006.1523,585.8073 1008.7565,585.8073 Q1009.4889,585.8073 1010.1563,585.9701 Q1010.8398,586.1328 1011.4258,586.4421 L1011.4258,589.2741 Q1010.7747,588.6719 1010.1563,588.3952 Q1009.5378,588.1022 1008.8867,588.1022 Q1007.487,588.1022 1006.7708,589.2253 Q1006.0547,590.332 1006.0547,592.513 Q1006.0547,594.694 1006.7708,595.8171 Q1007.487,596.9238 1008.8867,596.9238 Q1009.5378,596.9238 1010.1563,596.6471 Q1010.7747,596.3542 1011.4258,595.752 L1011.4258,598.584 Z " fill="#000000"/><text fill="#000000" font-family="sans-serif" font-size="14.5833" lengthAdjust="spacing" textLength="93.75" x="1022.9167" y="597.757">UserArchives</text><line style="stroke:#181818;stroke-width:0.5208333333333334;" x1="993.75" x2="1118.75" y1="609.375" y2="609.375"/><line style="stroke:#181818;stroke-width:0.5208333333333334;" x1="993.75" x2="1118.75" y1="617.7083" y2="617.7083"/></g><!--class UserSettings--><g id="elem_UserSettings"><rect codeLine="29" fill="#F1F1F1" height="50" id="UserSettings" rx="2.6042" ry="2.6042" style="stroke:#181818;stroke-width:0.5208333333333334;" width="126.0417" x="541.1458" y="576.0417"/><ellipse cx="556.7708" cy="592.7083" fill="#ADD1B2" rx="11.4583" ry="11.4583" style="stroke:#181818;stroke-width:1.0416666666666667;"/><path d="M559.8633,598.584 Q559.2611,598.8932 558.5938,599.0397 Q557.9264,599.2025 557.194,599.2025 Q554.5898,599.2025 553.2064,597.4935 Q551.8392,595.7682 551.8392,592.513 Q551.8392,589.2578 553.2064,587.5326 Q554.5898,585.8073 557.194,585.8073 Q557.9264,585.8073 558.5938,585.9701 Q559.2773,586.1328 559.8633,586.4421 L559.8633,589.2741 Q559.2122,588.6719 558.5938,588.3952 Q557.9753,588.1022 557.3242,588.1022 Q555.9245,588.1022 555.2083,589.2253 Q554.4922,590.332 554.4922,592.513 Q554.4922,594.694 555.2083,595.8171 Q555.9245,596.9238 557.3242,596.9238 Q557.9753,596.9238 558.5938,596.6471 Q559.2122,596.3542 559.8633,595.752 L559.8633,598.584 Z " fill="#000000"/><text fill="#000000" font-family="sans-serif" font-size="14.5833" lengthAdjust="spacing" textLength="92.7083" x="571.3542" y="597.757">UserSettings</text><line style="stroke:#181818;stroke-width:0.5208333333333334;" x1="542.1875" x2="666.1458" y1="609.375" y2="609.375"/><line style="stroke:#181818;stroke-width:0.5208333333333334;" x1="542.1875" x2="666.1458" y1="617.7083" y2="617.7083"/></g><!--class AlertItem--><g id="elem_AlertItem"><rect codeLine="30" fill="#F1F1F1" height="50" id="AlertItem" rx="2.6042" ry="2.6042" style="stroke:#181818;stroke-width:0.5208333333333334;" width="96.875" x="820.3125" y="505.2083"/><ellipse cx="835.9375" cy="521.875" fill="#ADD1B2" rx="11.4583" ry="11.4583" style="stroke:#181818;stroke-width:1.0416666666666667;"/><path d="M839.0299,527.7507 Q838.4277,528.0599 837.7604,528.2064 Q837.0931,528.3691 836.3607,528.3691 Q833.7565,528.3691 832.373,526.6602 Q831.0059,524.9349 831.0059,521.6797 Q831.0059,518.4245 832.373,516.6992 Q833.7565,514.974 836.3607,514.974 Q837.0931,514.974 837.7604,515.1367 Q838.444,515.2995 839.0299,515.6087 L839.0299,518.4408 Q838.3789,517.8385 837.7604,517.5618 Q837.1419,517.2689 836.4909,517.2689 Q835.0911,517.2689 834.375,518.3919 Q833.6589,519.4987 833.6589,521.6797 Q833.6589,523.8607 834.375,524.9837 Q835.0911,526.0905 836.4909,526.0905 Q837.1419,526.0905 837.7604,525.8138 Q838.3789,525.5208 839.0299,524.9186 L839.0299,527.7507 Z " fill="#000000"/><text fill="#000000" font-family="sans-serif" font-size="14.5833" lengthAdjust="spacing" textLength="63.5417" x="850.5208" y="526.9236">AlertItem</text><line style="stroke:#181818;stroke-width:0.5208333333333334;" x1="821.3542" x2="916.1458" y1="538.5417" y2="538.5417"/><line style="stroke:#181818;stroke-width:0.5208333333333334;" x1="821.3542" x2="916.1458" y1="546.875" y2="546.875"/></g><!--class CVEFetcher--><g id="elem_CVEFetcher"><rect codeLine="34" fill="#F1F1F1" height="50" id="CVEFetcher" rx="2.6042" ry="2.6042" style="stroke:#181818;stroke-width:0.5208333333333334;" width="117.7083" x="1955.7292" y="377.0833"/><ellipse cx="1971.3542" cy="393.75" fill="#ADD1B2" rx="11.4583" ry="11.4583" style="stroke:#181818;stroke-width:1.0416666666666667;"/><path d="M1974.4466,399.6257 Q1973.8444,399.9349 1973.1771,400.0814 Q1972.5098,400.2441 1971.7773,400.2441 Q1969.1732,400.2441 1967.7897,398.5352 Q1966.4225,396.8099 1966.4225,393.5547 Q1966.4225,390.2995 1967.7897,388.5742 Q1969.1732,386.849 1971.7773,386.849 Q1972.5098,386.849 1973.1771,387.0117 Q1973.8607,387.1745 1974.4466,387.4837 L1974.4466,390.3158 Q1973.7956,389.7135 1973.1771,389.4368 Q1972.5586,389.1439 1971.9076,389.1439 Q1970.5078,389.1439 1969.7917,390.2669 Q1969.0755,391.3737 1969.0755,393.5547 Q1969.0755,395.7357 1969.7917,396.8587 Q1970.5078,397.9655 1971.9076,397.9655 Q1972.5586,397.9655 1973.1771,397.6888 Q1973.7956,397.3958 1974.4466,396.7936 L1974.4466,399.6257 Z " fill="#000000"/><text fill="#000000" font-family="sans-serif" font-size="14.5833" lengthAdjust="spacing" textLength="84.375" x="1985.9375" y="398.7986">CVEFetcher</text><line style="stroke:#181818;stroke-width:0.5208333333333334;" x1="1956.7708" x2="2072.3958" y1="410.4167" y2="410.4167"/><line style="stroke:#181818;stroke-width:0.5208333333333334;" x1="1956.7708" x2="2072.3958" y1="418.75" y2="418.75"/></g><!--class NotificationService--><g id="elem_NotificationService"><rect codeLine="35" fill="#F1F1F1" height="50" id="NotificationService" rx="2.6042" ry="2.6042" style="stroke:#181818;stroke-width:0.5208333333333334;" width="164.5833" x="2134.375" y="190.625"/><ellipse cx="2150" cy="207.2917" fill="#ADD1B2" rx="11.4583" ry="11.4583" style="stroke:#181818;stroke-width:1.0416666666666667;"/><path d="M2153.0924,213.1673 Q2152.4902,213.4766 2151.8229,213.623 Q2151.1556,213.7858 2150.4232,213.7858 Q2147.819,213.7858 2146.4355,212.0768 Q2145.0684,210.3516 2145.0684,207.0964 Q2145.0684,203.8411 2146.4355,202.1159 Q2147.819,200.3906 2150.4232,200.3906 Q2151.1556,200.3906 2151.8229,200.5534 Q2152.5065,200.7161 2153.0924,201.0254 L2153.0924,203.8574 Q2152.4414,203.2552 2151.8229,202.9785 Q2151.2044,202.6855 2150.5534,202.6855 Q2149.1536,202.6855 2148.4375,203.8086 Q2147.7214,204.9154 2147.7214,207.0964 Q2147.7214,209.2773 2148.4375,210.4004 Q2149.1536,211.5072 2150.5534,211.5072 Q2151.2044,211.5072 2151.8229,211.2305 Q2152.4414,210.9375 2153.0924,210.3353 L2153.0924,213.1673 Z " fill="#000000"/><text fill="#000000" font-family="sans-serif" font-size="14.5833" lengthAdjust="spacing" textLength="131.25" x="2164.5833" y="212.3403">NotificationService</text><line style="stroke:#181818;stroke-width:0.5208333333333334;" x1="2135.4167" x2="2297.9167" y1="223.9583" y2="223.9583"/><line style="stroke:#181818;stroke-width:0.5208333333333334;" x1="2135.4167" x2="2297.9167" y1="232.2917" y2="232.2917"/></g><!--class DatabaseService--><g id="elem_DatabaseService"><rect codeLine="36" fill="#F1F1F1" height="50" id="DatabaseService" rx="2.6042" ry="2.6042" style="stroke:#181818;stroke-width:0.5208333333333334;" width="154.1667" x="1994.7917" y="293.75"/><ellipse cx="2010.4167" cy="310.4167" fill="#ADD1B2" rx="11.4583" ry="11.4583" style="stroke:#181818;stroke-width:1.0416666666666667;"/><path d="M2013.5091,316.2923 Q2012.9069,316.6016 2012.2396,316.748 Q2011.5723,316.9108 2010.8398,316.9108 Q2008.2357,316.9108 2006.8522,315.2018 Q2005.485,313.4766 2005.485,310.2214 Q2005.485,306.9661 2006.8522,305.2409 Q2008.2357,303.5156 2010.8398,303.5156 Q2011.5723,303.5156 2012.2396,303.6784 Q2012.9232,303.8411 2013.5091,304.1504 L2013.5091,306.9824 Q2012.8581,306.3802 2012.2396,306.1035 Q2011.6211,305.8105 2010.9701,305.8105 Q2009.5703,305.8105 2008.8542,306.9336 Q2008.138,308.0404 2008.138,310.2214 Q2008.138,312.4023 2008.8542,313.5254 Q2009.5703,314.6322 2010.9701,314.6322 Q2011.6211,314.6322 2012.2396,314.3555 Q2012.8581,314.0625 2013.5091,313.4603 L2013.5091,316.2923 Z " fill="#000000"/><text fill="#000000" font-family="sans-serif" font-size="14.5833" lengthAdjust="spacing" textLength="120.8333" x="2025" y="315.4653">DatabaseService</text><line style="stroke:#181818;stroke-width:0.5208333333333334;" x1="1995.8333" x2="2147.9167" y1="327.0833" y2="327.0833"/><line style="stroke:#181818;stroke-width:0.5208333333333334;" x1="1995.8333" x2="2147.9167" y1="335.4167" y2="335.4167"/></g><!--class CheckService--><g id="elem_CheckService"><rect codeLine="37" fill="#F1F1F1" height="50" id="CheckService" rx="2.6042" ry="2.6042" style="stroke:#181818;stroke-width:0.5208333333333334;" width="131.25" x="1956.25" y="190.625"/><ellipse cx="1971.875" cy="207.2917" fill="#ADD1B2" rx="11.4583" ry="11.4583" style="stroke:#181818;stroke-width:1.0416666666666667;"/><path d="M1974.9674,213.1673 Q1974.3652,213.4766 1973.6979,213.623 Q1973.0306,213.7858 1972.2982,213.7858 Q1969.694,213.7858 1968.3105,212.0768 Q1966.9434,210.3516 1966.9434,207.0964 Q1966.9434,203.8411 1968.3105,202.1159 Q1969.694,200.3906 1972.2982,200.3906 Q1973.0306,200.3906 1973.6979,200.5534 Q1974.3815,200.7161 1974.9674,201.0254 L1974.9674,203.8574 Q1974.3164,203.2552 1973.6979,202.9785 Q1973.0794,202.6855 1972.4284,202.6855 Q1971.0286,202.6855 1970.3125,203.8086 Q1969.5964,204.9154 1969.5964,207.0964 Q1969.5964,209.2773 1970.3125,210.4004 Q1971.0286,211.5072 1972.4284,211.5072 Q1973.0794,211.5072 1973.6979,211.2305 Q1974.3164,210.9375 1974.9674,210.3353 L1974.9674,213.1673 Z " fill="#000000"/><text fill="#000000" font-family="sans-serif" font-size="14.5833" lengthAdjust="spacing" textLength="97.9167" x="1986.4583" y="212.3403">CheckService</text><line style="stroke:#181818;stroke-width:0.5208333333333334;" x1="1957.2917" x2="2086.4583" y1="223.9583" y2="223.9583"/><line style="stroke:#181818;stroke-width:0.5208333333333334;" x1="1957.2917" x2="2086.4583" y1="232.2917" y2="232.2917"/></g><!--class EmailService--><g id="elem_EmailService"><rect codeLine="38" fill="#F1F1F1" height="50" id="EmailService" rx="2.6042" ry="2.6042" style="stroke:#181818;stroke-width:0.5208333333333334;" width="122.9167" x="2185.4167" y="293.75"/><ellipse cx="2201.0417" cy="310.4167" fill="#ADD1B2" rx="11.4583" ry="11.4583" style="stroke:#181818;stroke-width:1.0416666666666667;"/><path d="M2204.1341,316.2923 Q2203.5319,316.6016 2202.8646,316.748 Q2202.1973,316.9108 2201.4648,316.9108 Q2198.8607,316.9108 2197.4772,315.2018 Q2196.11,313.4766 2196.11,310.2214 Q2196.11,306.9661 2197.4772,305.2409 Q2198.8607,303.5156 2201.4648,303.5156 Q2202.1973,303.5156 2202.8646,303.6784 Q2203.5482,303.8411 2204.1341,304.1504 L2204.1341,306.9824 Q2203.4831,306.3802 2202.8646,306.1035 Q2202.2461,305.8105 2201.5951,305.8105 Q2200.1953,305.8105 2199.4792,306.9336 Q2198.763,308.0404 2198.763,310.2214 Q2198.763,312.4023 2199.4792,313.5254 Q2200.1953,314.6322 2201.5951,314.6322 Q2202.2461,314.6322 2202.8646,314.3555 Q2203.4831,314.0625 2204.1341,313.4603 L2204.1341,316.2923 Z " fill="#000000"/><text fill="#000000" font-family="sans-serif" font-size="14.5833" lengthAdjust="spacing" textLength="89.5833" x="2215.625" y="315.4653">EmailService</text><line style="stroke:#181818;stroke-width:0.5208333333333334;" x1="2186.4583" x2="2307.2917" y1="327.0833" y2="327.0833"/><line style="stroke:#181818;stroke-width:0.5208333333333334;" x1="2186.4583" x2="2307.2917" y1="335.4167" y2="335.4167"/></g><!--class APIUtils--><g id="elem_APIUtils"><rect codeLine="42" fill="#F1F1F1" height="50" id="APIUtils" rx="2.6042" ry="2.6042" style="stroke:#181818;stroke-width:0.5208333333333334;" width="85.4167" x="1628.125" y="293.75"/><ellipse cx="1643.75" cy="310.4167" fill="#ADD1B2" rx="11.4583" ry="11.4583" style="stroke:#181818;stroke-width:1.0416666666666667;"/><path d="M1646.8424,316.2923 Q1646.2402,316.6016 1645.5729,316.748 Q1644.9056,316.9108 1644.1732,316.9108 Q1641.569,316.9108 1640.1855,315.2018 Q1638.8184,313.4766 1638.8184,310.2214 Q1638.8184,306.9661 1640.1855,305.2409 Q1641.569,303.5156 1644.1732,303.5156 Q1644.9056,303.5156 1645.5729,303.6784 Q1646.2565,303.8411 1646.8424,304.1504 L1646.8424,306.9824 Q1646.1914,306.3802 1645.5729,306.1035 Q1644.9544,305.8105 1644.3034,305.8105 Q1642.9036,305.8105 1642.1875,306.9336 Q1641.4714,308.0404 1641.4714,310.2214 Q1641.4714,312.4023 1642.1875,313.5254 Q1642.9036,314.6322 1644.3034,314.6322 Q1644.9544,314.6322 1645.5729,314.3555 Q1646.1914,314.0625 1646.8424,313.4603 L1646.8424,316.2923 Z " fill="#000000"/><text fill="#000000" font-family="sans-serif" font-size="14.5833" lengthAdjust="spacing" textLength="52.0833" x="1658.3333" y="315.4653">APIUtils</text><line style="stroke:#181818;stroke-width:0.5208333333333334;" x1="1629.1667" x2="1712.5" y1="327.0833" y2="327.0833"/><line style="stroke:#181818;stroke-width:0.5208333333333334;" x1="1629.1667" x2="1712.5" y1="335.4167" y2="335.4167"/></g><!--class Filters--><g id="elem_Filters"><rect codeLine="43" fill="#F1F1F1" height="50" id="Filters" rx="2.6042" ry="2.6042" style="stroke:#181818;stroke-width:0.5208333333333334;" width="76.0417" x="1515.1042" y="293.75"/><ellipse cx="1530.7292" cy="310.4167" fill="#ADD1B2" rx="11.4583" ry="11.4583" style="stroke:#181818;stroke-width:1.0416666666666667;"/><path d="M1533.8216,316.2923 Q1533.2194,316.6016 1532.5521,316.748 Q1531.8848,316.9108 1531.1523,316.9108 Q1528.5482,316.9108 1527.1647,315.2018 Q1525.7975,313.4766 1525.7975,310.2214 Q1525.7975,306.9661 1527.1647,305.2409 Q1528.5482,303.5156 1531.1523,303.5156 Q1531.8848,303.5156 1532.5521,303.6784 Q1533.2357,303.8411 1533.8216,304.1504 L1533.8216,306.9824 Q1533.1706,306.3802 1532.5521,306.1035 Q1531.9336,305.8105 1531.2826,305.8105 Q1529.8828,305.8105 1529.1667,306.9336 Q1528.4505,308.0404 1528.4505,310.2214 Q1528.4505,312.4023 1529.1667,313.5254 Q1529.8828,314.6322 1531.2826,314.6322 Q1531.9336,314.6322 1532.5521,314.3555 Q1533.1706,314.0625 1533.8216,313.4603 L1533.8216,316.2923 Z " fill="#000000"/><text fill="#000000" font-family="sans-serif" font-size="14.5833" lengthAdjust="spacing" textLength="42.7083" x="1545.3125" y="315.4653">Filters</text><line style="stroke:#181818;stroke-width:0.5208333333333334;" x1="1516.1458" x2="1590.1042" y1="327.0833" y2="327.0833"/><line style="stroke:#181818;stroke-width:0.5208333333333334;" x1="1516.1458" x2="1590.1042" y1="335.4167" y2="335.4167"/></g><!--class SessionManager--><g id="elem_SessionManager"><rect codeLine="44" fill="#F1F1F1" height="50" id="SessionManager" rx="2.6042" ry="2.6042" style="stroke:#181818;stroke-width:0.5208333333333334;" width="153.125" x="1325.5208" y="293.75"/><ellipse cx="1341.1458" cy="310.4167" fill="#ADD1B2" rx="11.4583" ry="11.4583" style="stroke:#181818;stroke-width:1.0416666666666667;"/><path d="M1344.2383,316.2923 Q1343.6361,316.6016 1342.9688,316.748 Q1342.3014,316.9108 1341.569,316.9108 Q1338.9648,316.9108 1337.5814,315.2018 Q1336.2142,313.4766 1336.2142,310.2214 Q1336.2142,306.9661 1337.5814,305.2409 Q1338.9648,303.5156 1341.569,303.5156 Q1342.3014,303.5156 1342.9688,303.6784 Q1343.6523,303.8411 1344.2383,304.1504 L1344.2383,306.9824 Q1343.5872,306.3802 1342.9688,306.1035 Q1342.3503,305.8105 1341.6992,305.8105 Q1340.2995,305.8105 1339.5833,306.9336 Q1338.8672,308.0404 1338.8672,310.2214 Q1338.8672,312.4023 1339.5833,313.5254 Q1340.2995,314.6322 1341.6992,314.6322 Q1342.3503,314.6322 1342.9688,314.3555 Q1343.5872,314.0625 1344.2383,313.4603 L1344.2383,316.2923 Z " fill="#000000"/><text fill="#000000" font-family="sans-serif" font-size="14.5833" lengthAdjust="spacing" textLength="119.7917" x="1355.7292" y="315.4653">SessionManager</text><line style="stroke:#181818;stroke-width:0.5208333333333334;" x1="1326.5625" x2="1477.6042" y1="327.0833" y2="327.0833"/><line style="stroke:#181818;stroke-width:0.5208333333333334;" x1="1326.5625" x2="1477.6042" y1="335.4167" y2="335.4167"/></g><!--class TaskWorker--><g id="elem_TaskWorker"><rect codeLine="45" fill="#F1F1F1" height="50" id="TaskWorker" rx="2.6042" ry="2.6042" style="stroke:#181818;stroke-width:0.5208333333333334;" width="118.75" x="1169.7917" y="293.75"/><ellipse cx="1185.4167" cy="310.4167" fill="#ADD1B2" rx="11.4583" ry="11.4583" style="stroke:#181818;stroke-width:1.0416666666666667;"/><path d="M1188.5091,316.2923 Q1187.9069,316.6016 1187.2396,316.748 Q1186.5723,316.9108 1185.8398,316.9108 Q1183.2357,316.9108 1181.8522,315.2018 Q1180.485,313.4766 1180.485,310.2214 Q1180.485,306.9661 1181.8522,305.2409 Q1183.2357,303.5156 1185.8398,303.5156 Q1186.5723,303.5156 1187.2396,303.6784 Q1187.9232,303.8411 1188.5091,304.1504 L1188.5091,306.9824 Q1187.8581,306.3802 1187.2396,306.1035 Q1186.6211,305.8105 1185.9701,305.8105 Q1184.5703,305.8105 1183.8542,306.9336 Q1183.138,308.0404 1183.138,310.2214 Q1183.138,312.4023 1183.8542,313.5254 Q1184.5703,314.6322 1185.9701,314.6322 Q1186.6211,314.6322 1187.2396,314.3555 Q1187.8581,314.0625 1188.5091,313.4603 L1188.5091,316.2923 Z " fill="#000000"/><text fill="#000000" font-family="sans-serif" font-size="14.5833" lengthAdjust="spacing" textLength="85.4167" x="1200" y="315.4653">TaskWorker</text><line style="stroke:#181818;stroke-width:0.5208333333333334;" x1="1170.8333" x2="1287.5" y1="327.0833" y2="327.0833"/><line style="stroke:#181818;stroke-width:0.5208333333333334;" x1="1170.8333" x2="1287.5" y1="335.4167" y2="335.4167"/></g><!--class EncryptionUtil--><g id="elem_EncryptionUtil"><rect codeLine="46" fill="#F1F1F1" height="50" id="EncryptionUtil" rx="2.6042" ry="2.6042" style="stroke:#181818;stroke-width:0.5208333333333334;" width="131.25" x="1750" y="293.75"/><ellipse cx="1765.625" cy="310.4167" fill="#ADD1B2" rx="11.4583" ry="11.4583" style="stroke:#181818;stroke-width:1.0416666666666667;"/><path d="M1768.7174,316.2923 Q1768.1152,316.6016 1767.4479,316.748 Q1766.7806,316.9108 1766.0482,316.9108 Q1763.444,316.9108 1762.0605,315.2018 Q1760.6934,313.4766 1760.6934,310.2214 Q1760.6934,306.9661 1762.0605,305.2409 Q1763.444,303.5156 1766.0482,303.5156 Q1766.7806,303.5156 1767.4479,303.6784 Q1768.1315,303.8411 1768.7174,304.1504 L1768.7174,306.9824 Q1768.0664,306.3802 1767.4479,306.1035 Q1766.8294,305.8105 1766.1784,305.8105 Q1764.7786,305.8105 1764.0625,306.9336 Q1763.3464,308.0404 1763.3464,310.2214 Q1763.3464,312.4023 1764.0625,313.5254 Q1764.7786,314.6322 1766.1784,314.6322 Q1766.8294,314.6322 1767.4479,314.3555 Q1768.0664,314.0625 1768.7174,313.4603 L1768.7174,316.2923 Z " fill="#000000"/><text fill="#000000" font-family="sans-serif" font-size="14.5833" lengthAdjust="spacing" textLength="97.9167" x="1780.2083" y="315.4653">EncryptionUtil</text><line style="stroke:#181818;stroke-width:0.5208333333333334;" x1="1751.0417" x2="1880.2083" y1="327.0833" y2="327.0833"/><line style="stroke:#181818;stroke-width:0.5208333333333334;" x1="1751.0417" x2="1880.2083" y1="335.4167" y2="335.4167"/></g><!--link Main to MainFrame--><g id="link_Main_MainFrame"><path codeLine="52" d="M1110.1979,113.5 C1045.5104,114.0729 899.4271,118.5938 780.2083,145.8333 C735.3646,156.0833 692.4627,172.3801 656.7127,187.7135 " fill="none" id="Main-to-MainFrame" style="stroke:#181818;stroke-width:1.0416666666666667;"/><polygon fill="#181818" points="650.9688,190.1771,661.2271,190.311,655.7554,188.1241,657.9423,182.6524,650.9688,190.1771" style="stroke:#181818;stroke-width:1.0416666666666667;"/></g><!--link Main to LoginFrame--><g id="link_Main_LoginFrame"><path codeLine="53" d="M1146.9688,137.7917 C1149.3854,164.3854 1150.0104,207.6354 1134.375,240.625 C1124.3854,261.7083 1110.7885,276.0666 1093.976,289.5041 " fill="none" id="Main-to-LoginFrame" style="stroke:#181818;stroke-width:1.0416666666666667;"/><polygon fill="#181818" points="1089.0938,293.4063,1099.0185,290.8079,1093.1623,290.1545,1093.8156,284.2983,1089.0938,293.4063" style="stroke:#181818;stroke-width:1.0416666666666667;"/></g><!--link LoginFrame to Main--><g id="link_LoginFrame_Main"><path codeLine="74" d="M1067.7917,293.5729 C1076.5417,278.625 1087.5313,258.8646 1095.8333,240.625 C1114.3854,199.8333 1113.8958,187.5729 1130.2083,145.8333 C1131.2292,143.2292 1129.9452,146.3051 1131.0493,143.6072 " fill="none" id="LoginFrame-to-Main" style="stroke:#181818;stroke-width:1.0416666666666667;"/><polygon fill="#181818" points="1133.4167,137.8229,1126.0095,144.9212,1131.4439,142.6432,1133.7219,148.0776,1133.4167,137.8229" style="stroke:#181818;stroke-width:1.0416666666666667;"/></g><!--link Main to FiltersFrame--><g id="link_Main_FiltersFrame"><path codeLine="54" d="M1110.0313,113.5521 C1081.3125,115.3333 1040.6771,122.3021 1014.5833,145.8333 C981.3021,175.8542 1016.6875,214.5938 980.2083,240.625 C957.4063,256.8958 502.1667,238.8542 476.0417,248.9583 C452.6146,258.0208 435.7849,272.8645 421.4619,288.7812 " fill="none" id="Main-to-FiltersFrame" style="stroke:#181818;stroke-width:1.0416666666666667;"/><polygon fill="#181818" points="417.2813,293.4271,426.6496,289.2454,420.7652,289.5555,420.455,283.6711,417.2813,293.4271" style="stroke:#181818;stroke-width:1.0416666666666667;"/></g><!--link Main to AlertsFrame--><g id="link_Main_AlertsFrame"><path codeLine="55" d="M1110,129.8542 C1103.25,134.3021 1096.6979,139.6354 1091.6667,145.8333 C1063.4271,180.625 1092.625,213.0625 1057.2917,240.625 C1042.9792,251.7917 992.6458,241.6354 976.0417,248.9583 C953.5625,258.8646 937.2809,273.2529 923.0934,288.7633 " fill="none" id="Main-to-AlertsFrame" style="stroke:#181818;stroke-width:1.0416666666666667;"/><polygon fill="#181818" points="918.875,293.375,928.277,289.2697,922.3903,289.5319,922.1281,283.6452,918.875,293.375" style="stroke:#181818;stroke-width:1.0416666666666667;"/></g><!--link Main to ArchivesFrame--><g id="link_Main_ArchivesFrame"><path codeLine="56" d="M1110.25,118.2812 C1091.2917,122.5625 1068.4063,130.6354 1053.125,145.8333 C1021.3438,177.4375 1054.8958,214.125 1018.75,240.625 C1001.0938,253.5729 842.4063,241.3646 821.875,248.9583 C796.8646,258.2083 777.8877,273.1126 761.5648,288.9043 " fill="none" id="Main-to-ArchivesFrame" style="stroke:#181818;stroke-width:1.0416666666666667;"/><polygon fill="#181818" points="757.0729,293.25,766.7079,289.726,760.8162,289.6286,760.9136,283.7368,757.0729,293.25" style="stroke:#181818;stroke-width:1.0416666666666667;"/></g><!--link Main to SettingsFrame--><g id="link_Main_SettingsFrame"><path codeLine="57" d="M1110.0729,115.8438 C1066.8125,119.4792 995.0521,128.0729 976.0417,145.8333 C944.2083,175.5833 985.375,213.8021 951.0417,240.625 C937.2188,251.4167 336.3229,243.1146 319.7917,248.9583 C294.4688,257.9063 275.3218,273.0356 259.0198,288.9835 " fill="none" id="Main-to-SettingsFrame" style="stroke:#181818;stroke-width:1.0416666666666667;"/><polygon fill="#181818" points="254.5521,293.3542,264.1674,289.7767,258.2752,289.712,258.3399,283.8198,254.5521,293.3542" style="stroke:#181818;stroke-width:1.0416666666666667;"/></g><!--link Main to DatabaseService--><g id="link_Main_DatabaseService"><path codeLine="58" d="M1177.5729,113.8333 C1367.7708,115.5208 2296.2708,124.8646 2316.6667,145.8333 C2346.0417,176.0313 2345.6146,210.0208 2316.6667,240.625 C2305.1979,252.75 2182.3958,243.3646 2166.6667,248.9583 C2140.2292,258.3542 2119.4394,273.4619 2101.5644,289.2119 " fill="none" id="Main-to-DatabaseService" style="stroke:#181818;stroke-width:1.0416666666666667;"/><polygon fill="#181818" points="2096.875,293.3438,2106.6636,290.2722,2100.7828,289.9005,2101.1544,284.0197,2096.875,293.3438" style="stroke:#181818;stroke-width:1.0416666666666667;"/></g><!--link Main to CheckService--><g id="link_Main_CheckService"><path codeLine="59" d="M1177.4896,113.4583 C1321.4479,113.3021 1880.3229,114.7396 1952.0833,145.8333 C1973.6146,155.1667 1988.3211,169.5309 2000.894,185.2913 " fill="none" id="Main-to-CheckService" style="stroke:#181818;stroke-width:1.0416666666666667;"/><polygon fill="#181818" points="2004.7917,190.1771,2002.2024,180.25,2001.5436,186.1056,1995.688,185.4468,2004.7917,190.1771" style="stroke:#181818;stroke-width:1.0416666666666667;"/></g><!--link Main to CVEFetcher--><g id="link_Main_CVEFetcher"><path codeLine="60" d="M1177.5521,115.3646 C1308.9479,123.0625 1784.1563,156.9271 1897.9167,248.9583 C1943.0521,285.4688 1910.0625,326.6146 1950,368.75 C1952.6771,371.5729 1950.6834,370.3775 1953.8397,372.7941 " fill="none" id="Main-to-CVEFetcher" style="stroke:#181818;stroke-width:1.0416666666666667;"/><polygon fill="#181818" points="1958.8021,376.5938,1953.8915,367.5861,1954.6667,373.4274,1948.8254,374.2026,1958.8021,376.5938" style="stroke:#181818;stroke-width:1.0416666666666667;"/></g><!--link Main to User--><g id="link_Main_User"><path codeLine="61" d="M1177.4792,113.8542 C1369.2604,115.6771 2314.5417,125.6771 2336.4583,145.8333 C2409.4792,212.9896 2361.1875,270.4375 2347.9167,368.75 C2342.7813,406.8125 2355.4792,428.6979 2325,452.0833 C2310.8333,462.9479 1055.5417,452.4167 1039.5833,460.4167 C1021.1042,469.6771 1010.4335,483.4534 1001.7356,499.2347 " fill="none" id="Main-to-User" style="stroke:#181818;stroke-width:1.0416666666666667;"/><polygon fill="#181818" points="998.7188,504.7083,1006.8931,498.509,1001.2328,500.1469,999.5949,494.4866,998.7188,504.7083" style="stroke:#181818;stroke-width:1.0416666666666667;"/></g><!--link Main to Filters--><g id="link_Main_Filters"><path codeLine="62" d="M1177.4063,119.9687 C1243.9479,133.9792 1394.6979,172.3438 1496.875,248.9583 C1513.1563,261.1667 1524.0084,273.9609 1534.1855,288.4296 " fill="none" id="Main-to-Filters" style="stroke:#181818;stroke-width:1.0416666666666667;"/><polygon fill="#181818" points="1537.7813,293.5417,1535.7957,283.4764,1534.7848,289.2816,1528.9796,288.2707,1537.7813,293.5417" style="stroke:#181818;stroke-width:1.0416666666666667;"/></g><!--link Main to SessionManager--><g id="link_Main_SessionManager"><path codeLine="63" d="M1174.3958,137.7604 C1224.1146,177.0625 1316.8779,250.364 1366.5759,289.6453 " fill="none" id="Main-to-SessionManager" style="stroke:#181818;stroke-width:1.0416666666666667;"/><polygon fill="#181818" points="1371.4792,293.5208,1366.7079,284.4386,1367.3931,290.2912,1361.5405,290.9763,1371.4792,293.5208" style="stroke:#181818;stroke-width:1.0416666666666667;"/></g><!--link Main to LoadingDialog--><g id="link_Main_LoadingDialog"><path codeLine="64" d="M1110.125,112.7604 C1067.7083,113.0938 993.5417,118.125 937.5,145.8333 C916.4479,156.2396 901.5554,170.2622 888.3991,185.5538 " fill="none" id="Main-to-LoadingDialog" style="stroke:#181818;stroke-width:1.0416666666666667;"/><polygon fill="#181818" points="884.3229,190.2917,893.5958,185.9024,887.7198,186.3435,887.2787,180.4675,884.3229,190.2917" style="stroke:#181818;stroke-width:1.0416666666666667;"/></g><!--link MainFrame to User--><g id="link_MainFrame_User"><path codeLine="66" d="M541.8125,223.6979 C496.1354,229.1563 429.9375,236.4792 371.875,240.625 C359.3438,241.5208 154.5521,239.9063 145.8333,248.9583 C108.8854,287.2917 111.3229,328.2083 145.8333,368.75 C221.0729,457.125 545.9167,441.0313 661.4583,452.0833 C691.7708,454.9792 908.3542,446.4479 935.4167,460.4167 C953.7813,469.8958 964.4448,483.6714 973.174,499.3902 " fill="none" id="MainFrame-to-User" style="stroke:#181818;stroke-width:1.0416666666666667;"/><polygon fill="#181818" points="976.2083,504.8542,975.2995,494.6353,973.6797,500.3008,968.0142,498.6811,976.2083,504.8542" style="stroke:#181818;stroke-width:1.0416666666666667;"/></g><!--link MainFrame to CVEInfoFrame--><g id="link_MainFrame_CVEInfoFrame"><path codeLine="67" d="M589.0938,241.125 C583.3542,257.0104 578.0386,271.7566 572.3198,287.6004 " fill="none" id="MainFrame-to-CVEInfoFrame" style="stroke:#181818;stroke-width:1.0416666666666667;"/><polygon fill="#181818" points="570.1979,293.4792,577.3,286.0756,571.9662,288.5802,569.4616,283.2464,570.1979,293.4792" style="stroke:#181818;stroke-width:1.0416666666666667;"/></g><!--link MainFrame to LoginFrame--><g id="link_MainFrame_LoginFrame"><path codeLine="68" d="M654.0313,225.3438 C690.0104,230.5833 737.75,236.9375 780.2083,240.625 C801.9063,242.5104 955.8646,240.7708 976.0417,248.9583 C998.9688,258.2604 1015.4135,272.8548 1029.5385,288.6256 " fill="none" id="MainFrame-to-LoginFrame" style="stroke:#181818;stroke-width:1.0416666666666667;"/><polygon fill="#181818" points="1033.7083,293.2813,1030.5574,283.5179,1030.2335,289.4015,1024.3498,289.0776,1033.7083,293.2813" style="stroke:#181818;stroke-width:1.0416666666666667;"/></g><!--link MainFrame to FiltersFrame--><g id="link_MainFrame_FiltersFrame"><path codeLine="69" d="M541.8958,225.8229 C520.4583,230.7604 496.3125,238.1354 476.0417,248.9583 C454.6875,260.3542 438.6599,274.1964 424.0661,289.061 " fill="none" id="MainFrame-to-FiltersFrame" style="stroke:#181818;stroke-width:1.0416666666666667;"/><polygon fill="#181818" points="419.6875,293.5208,429.2286,289.7501,423.3363,289.8043,423.2822,283.912,419.6875,293.5208" style="stroke:#181818;stroke-width:1.0416666666666667;"/></g><!--link MainFrame to AlertsFrame--><g id="link_MainFrame_AlertsFrame"><path codeLine="70" d="M653.9167,223.9167 C717.75,232.3125 814.2917,245.4271 821.875,248.9583 C843.9792,259.25 860.0996,273.4321 874.3391,288.755 " fill="none" id="MainFrame-to-AlertsFrame" style="stroke:#181818;stroke-width:1.0416666666666667;"/><polygon fill="#181818" points="878.5938,293.3333,875.264,283.6295,875.0482,289.5181,869.1596,289.3023,878.5938,293.3333" style="stroke:#181818;stroke-width:1.0416666666666667;"/></g><!--link MainFrame to ArchivesFrame--><g id="link_MainFrame_ArchivesFrame"><path codeLine="71" d="M635.5521,241.0313 C639.4063,243.6667 643.2396,246.3438 646.875,248.9583 C666.625,263.1875 683.2543,276.1564 700.0043,289.6251 " fill="none" id="MainFrame-to-ArchivesFrame" style="stroke:#181818;stroke-width:1.0416666666666667;"/><polygon fill="#181818" points="704.875,293.5417,700.18,284.4198,700.8161,290.2779,694.958,290.914,704.875,293.5417" style="stroke:#181818;stroke-width:1.0416666666666667;"/></g><!--link MainFrame to SettingsFrame--><g id="link_MainFrame_SettingsFrame"><path codeLine="72" d="M541.9375,222.375 C463.6667,230.4792 329.9167,244.7813 319.7917,248.9583 C295.3229,259.0417 276.5266,273.7333 260.1204,289.202 " fill="none" id="MainFrame-to-SettingsFrame" style="stroke:#181818;stroke-width:1.0416666666666667;"/><polygon fill="#181818" points="255.5729,293.4896,265.2525,290.0898,259.3624,289.9166,259.5357,284.0266,255.5729,293.4896" style="stroke:#181818;stroke-width:1.0416666666666667;"/></g><!--link LoginFrame to User--><g id="link_LoginFrame_User"><path codeLine="75" d="M1022.2188,344.0938 C1008.7708,353.3958 992.375,363.1042 976.0417,368.75 C958.4479,374.8333 905.1979,363.2813 892.7083,377.0833 C870.3438,401.8021 871.5104,426.3542 892.7083,452.0833 C905,467.0104 919.0104,450.1875 935.4167,460.4167 C952.5729,471.1146 962.9257,484.2706 971.9048,499.406 " fill="none" id="LoginFrame-to-User" style="stroke:#181818;stroke-width:1.0416666666666667;"/><polygon fill="#181818" points="975.0938,504.7813,973.8939,494.5924,972.4363,500.3019,966.7269,498.8443,975.0938,504.7813" style="stroke:#181818;stroke-width:1.0416666666666667;"/></g><!--link LoginFrame to SessionManager--><g id="link_LoginFrame_SessionManager"><path codeLine="76" d="M1078.5833,293.3021 C1100.875,273.5521 1135.2708,248.8646 1171.3542,244.7917 C1201.1563,241.4271 1278.9479,236.5313 1306.25,248.9583 C1330.9792,260.2083 1350.8712,274.4335 1368.9962,289.4231 " fill="none" id="LoginFrame-to-SessionManager" style="stroke:#181818;stroke-width:1.0416666666666667;"/><polygon fill="#181818" points="1373.8125,293.4063,1369.2435,284.2206,1369.7989,290.087,1363.9326,290.6424,1373.8125,293.4063" style="stroke:#181818;stroke-width:1.0416666666666667;"/></g><!--link FiltersFrame to UserFilters--><g id="link_FiltersFrame_UserFilters"><path codeLine="78" d="M427.3333,344.0833 C485.8438,391.2604 622.4479,495.8542 753.125,555.2083 C785.0313,569.6979 795.6146,565.9375 829.1667,576.0417 C835.0313,577.8125 835.1906,577.822 841.2739,579.7595 " fill="none" id="FiltersFrame-to-UserFilters" style="stroke:#181818;stroke-width:1.0416666666666667;"/><polygon fill="#181818" points="847.2292,581.6563,839.5608,574.841,842.2665,580.0757,837.0318,582.7814,847.2292,581.6563" style="stroke:#181818;stroke-width:1.0416666666666667;"/></g><!--link AlertsFrame to UserAlerts--><g id="link_AlertsFrame_UserAlerts"><path codeLine="79" d="M879.1146,343.8229 C857.6667,370.7917 823.6667,416.5208 802.0833,460.4167 C783.1042,499.0208 771.1475,541.4071 764.1996,569.8967 " fill="none" id="AlertsFrame-to-UserAlerts" style="stroke:#181818;stroke-width:1.0416666666666667;"/><polygon fill="#181818" points="762.7188,575.9688,768.988,567.8479,763.9528,570.9087,760.892,565.8735,762.7188,575.9688" style="stroke:#181818;stroke-width:1.0416666666666667;"/></g><!--link ArchivesFrame to UserArchives--><g id="link_ArchivesFrame_UserArchives"><path codeLine="80" d="M737.9063,343.8854 C746.3646,398.1771 769.5417,527.5 802.0833,555.2083 C831.5521,580.3021 937.0938,568.2292 975,576.0417 C980.6146,577.1979 980.3513,577.0133 986.1325,578.4925 " fill="none" id="ArchivesFrame-to-UserArchives" style="stroke:#181818;stroke-width:1.0416666666666667;"/><polygon fill="#181818" points="992.1875,580.0417,984.1379,573.6812,987.1417,578.7507,982.0723,581.7545,992.1875,580.0417" style="stroke:#181818;stroke-width:1.0416666666666667;"/></g><!--link AlertNotificationDialog to UserAlerts--><g id="link_AlertNotificationDialog_UserAlerts"><path codeLine="81" d="M163.3333,227.8542 C139.2396,232.7188 118,239.5417 110.4167,248.9583 C77.0208,290.4271 87.3542,320.7604 110.4167,368.75 C112.9896,374.0938 117.3854,372.2604 120.8333,377.0833 C141.4583,405.8958 121.3958,428.5729 147.9167,452.0833 C331.3438,614.7396 449.4167,509.6563 685.4167,576.0417 C691.2396,577.6771 691.3312,577.6199 697.3416,579.5157 " fill="none" id="AlertNotificationDialog-to-UserAlerts" style="stroke:#181818;stroke-width:1.0416666666666667;"/><polygon fill="#181818" points="703.3021,581.3958,695.6147,574.602,698.335,579.8291,693.1079,582.5494,703.3021,581.3958" style="stroke:#181818;stroke-width:1.0416666666666667;"/></g><!--link AlertNotificationDialog to UserSettings--><g id="link_AlertNotificationDialog_UserSettings"><path codeLine="82" d="M163.25,222.75 C126.1146,227.2813 89.6458,235.1875 78.125,248.9583 C43.9583,289.7917 51.0104,322.9271 78.125,368.75 C175.8021,533.8125 417.2282,580.663 534.5094,594.1109 " fill="none" id="AlertNotificationDialog-to-UserSettings" style="stroke:#181818;stroke-width:1.0416666666666667;"/><polygon fill="#181818" points="540.7188,594.8229,531.8794,589.6154,535.5443,594.2296,530.9301,597.8945,540.7188,594.8229" style="stroke:#181818;stroke-width:1.0416666666666667;"/></g><!--link SettingsFrame to UserSettings--><g id="link_SettingsFrame_UserSettings"><path codeLine="83" d="M264.6458,344.1667 C335.0625,397.2292 496.55,518.9056 566.9042,571.916 " fill="none" id="SettingsFrame-to-UserSettings" style="stroke:#181818;stroke-width:1.0416666666666667;"/><polygon fill="#181818" points="571.8958,575.6771,566.9158,566.7077,567.7361,572.5428,561.901,573.3632,571.8958,575.6771" style="stroke:#181818;stroke-width:1.0416666666666667;"/></g><!--link AlertsFrame to AlertEditorDialog--><g id="link_AlertsFrame_AlertEditorDialog"><path codeLine="85" d="M925.5208,344.1667 C936.7292,354.4479 945.1442,362.171 956.3525,372.4523 " fill="none" id="AlertsFrame-to-AlertEditorDialog" style="stroke:#181818;stroke-width:1.0416666666666667;"/><polygon fill="#181818" points="960.9583,376.6771,956.8662,367.2693,957.1202,373.1564,951.2331,373.4104,960.9583,376.6771" style="stroke:#181818;stroke-width:1.0416666666666667;"/></g><!--link AlertEditorDialog to AlertItem--><g id="link_AlertEditorDialog_AlertItem"><path codeLine="86" d="M964.6042,427.4271 C943.5729,449.75 916.8701,478.0976 895.8597,500.3893 " fill="none" id="AlertEditorDialog-to-AlertItem" style="stroke:#181818;stroke-width:1.0416666666666667;"/><polygon fill="#181818" points="891.5729,504.9375,901.0352,500.9731,895.1452,501.1473,894.971,495.2574,891.5729,504.9375" style="stroke:#181818;stroke-width:1.0416666666666667;"/></g><!--link AlertEditorDialog to User--><g id="link_AlertEditorDialog_User"><path codeLine="87" d="M987.5,427.4271 C987.5,449.75 987.5,476.3958 987.5,498.6875 " fill="none" id="AlertEditorDialog-to-User" style="stroke:#181818;stroke-width:1.0416666666666667;"/><polygon fill="#181818" points="987.5,504.9375,991.6667,495.5625,987.5,499.7292,983.3333,495.5625,987.5,504.9375" style="stroke:#181818;stroke-width:1.0416666666666667;"/></g><!--reverse link User to UserFilters--><g id="link_User_UserFilters"><path codeLine="89" d="M947.4133,563.521 C939.3612,570.0106 940.3958,569.1667 932.3438,575.6458 " fill="none" id="User-backto-UserFilters" style="stroke:#181818;stroke-width:1.0416666666666667;"/><polygon fill="#181818" points="957.1458,555.6771,949.6649,556.3549,947.4133,563.521,954.8942,562.8432,957.1458,555.6771" style="stroke:#181818;stroke-width:1.0416666666666667;"/></g><!--reverse link User to UserAlerts--><g id="link_User_UserAlerts"><path codeLine="90" d="M942.3157,553.1352 C936.2948,555.7498 941.4792,553.25 935.4167,555.2083 C889.625,570 875.6979,563.7813 829.1667,576.0417 C823.3125,577.5833 817.25,579.3438 811.2292,581.1979 " fill="none" id="User-backto-UserAlerts" style="stroke:#181818;stroke-width:1.0416666666666667;"/><polygon fill="#181818" points="953.7813,548.1563,946.3888,546.8239,942.3157,553.1352,949.7081,554.4676,953.7813,548.1563" style="stroke:#181818;stroke-width:1.0416666666666667;"/></g><!--reverse link User to UserArchives--><g id="link_User_UserArchives"><path codeLine="91" d="M1020.7659,564.5159 C1027.2555,571.0055 1025.4167,569.1667 1031.8958,575.6458 " fill="none" id="User-backto-UserArchives" style="stroke:#181818;stroke-width:1.0416666666666667;"/><polygon fill="#181818" points="1011.9271,555.6771,1013.4002,563.0428,1020.7659,564.5159,1019.2928,557.1502,1011.9271,555.6771" style="stroke:#181818;stroke-width:1.0416666666666667;"/></g><!--reverse link User to UserSettings--><g id="link_User_UserSettings"><path codeLine="92" d="M942.1432,553.6977 C936.1953,556.1977 941.4792,553.6146 935.4167,555.2083 C827.5833,583.5625 795.0104,555.5417 685.4167,576.0417 C679.4896,577.1458 673.375,578.5208 667.2917,580.0313 " fill="none" id="User-backto-UserSettings" style="stroke:#181818;stroke-width:1.0416666666666667;"/><polygon fill="#181818" points="953.6667,548.8542,946.2904,547.4348,942.1432,553.6977,949.5194,555.1171,953.6667,548.8542" style="stroke:#181818;stroke-width:1.0416666666666667;"/></g><!--link CVEInfoFrame to CVE--><g id="link_CVEInfoFrame_CVE"><path codeLine="94" d="M600.1771,344.0938 C614.5208,352.5313 631.1354,361.6563 646.875,368.75 C752.0417,416.1771 779.4583,430.0938 892.7083,452.0833 C924.8021,458.3125 1010.9583,444.6146 1039.5833,460.4167 C1057.1563,470.1146 1067.0686,483.5778 1075.1519,499.1507 " fill="none" id="CVEInfoFrame-to-CVE" style="stroke:#181818;stroke-width:1.0416666666666667;"/><polygon fill="#181818" points="1078.0313,504.6979,1077.4104,494.4575,1075.6318,500.0752,1070.014,498.2966,1078.0313,504.6979" style="stroke:#181818;stroke-width:1.0416666666666667;"/></g><!--link DatabaseService to CVE--><g id="link_DatabaseService_CVE"><path codeLine="96" d="M2085.8958,344.2188 C2100.75,373.7083 2118.6458,422.9479 2091.6667,452.0833 C2024.125,525.0104 1289.8646,529.1863 1126.5417,529.2176 " fill="none" id="DatabaseService-to-CVE" style="stroke:#181818;stroke-width:1.0416666666666667;"/><polygon fill="#181818" points="1120.2917,529.2188,1129.6667,533.3854,1125.5,529.2188,1129.6667,525.0521,1120.2917,529.2188" style="stroke:#181818;stroke-width:1.0416666666666667;"/></g><!--link DatabaseService to CVEFetcher--><g id="link_DatabaseService_CVEFetcher"><path codeLine="97" d="M2054.6875,344.1667 C2047.4375,354.4479 2042.6122,361.2881 2035.3622,371.5693 " fill="none" id="DatabaseService-to-CVEFetcher" style="stroke:#181818;stroke-width:1.0416666666666667;"/><polygon fill="#181818" points="2031.7604,376.6771,2040.5683,371.4166,2034.7619,372.4206,2033.758,366.6142,2031.7604,376.6771" style="stroke:#181818;stroke-width:1.0416666666666667;"/></g><!--link CVEFetcher to CVE--><g id="link_CVEFetcher_CVE"><path codeLine="98" d="M1955.25,411.1979 C1777.6042,435.375 1260.2346,505.8033 1126.245,524.0325 " fill="none" id="CVEFetcher-to-CVE" style="stroke:#181818;stroke-width:1.0416666666666667;"/><polygon fill="#181818" points="1120.0521,524.875,1129.9032,527.7398,1125.2129,524.1729,1128.7798,519.4825,1120.0521,524.875" style="stroke:#181818;stroke-width:1.0416666666666667;"/></g><!--link APIUtils to CVEFetcher--><g id="link_APIUtils_CVEFetcher"><path codeLine="100" d="M1694.7708,344.0417 C1705.375,353.3333 1718.5625,363.0521 1732.2917,368.75 C1771.3646,384.9583 1878.5316,393.5807 1949.1462,397.7369 " fill="none" id="APIUtils-to-CVEFetcher" style="stroke:#181818;stroke-width:1.0416666666666667;"/><polygon fill="#181818" points="1955.3854,398.1042,1946.2714,393.3939,1950.1861,397.7981,1945.7818,401.7128,1955.3854,398.1042" style="stroke:#181818;stroke-width:1.0416666666666667;"/></g><!--link NotificationService to User--><g id="link_NotificationService_User"><path codeLine="102" d="M2299.2188,239.9271 C2314.7813,244.4896 2326.4688,248.1354 2327.0833,248.9583 C2359.0104,291.5625 2357.8125,325.2708 2327.0833,368.75 C2319.0729,380.0833 2105.3333,449.6771 2091.6667,452.0833 C2062.8854,457.1458 1065.7083,447.3021 1039.5833,460.4167 C1021.1146,469.6875 1010.4439,483.4638 1001.746,499.2451 " fill="none" id="NotificationService-to-User" style="stroke:#181818;stroke-width:1.0416666666666667;"/><polygon fill="#181818" points="998.7292,504.7188,1006.9036,498.5195,1001.2432,500.1574,999.6053,494.497,998.7292,504.7188" style="stroke:#181818;stroke-width:1.0416666666666667;"/></g><!--link NotificationService to DatabaseService--><g id="link_NotificationService_DatabaseService"><path codeLine="103" d="M2178.3125,241.1354 C2174.3542,243.75 2170.4167,246.3854 2166.6667,248.9583 C2145.6979,263.3125 2127.6355,276.3339 2109.5001,289.6985 " fill="none" id="NotificationService-to-DatabaseService" style="stroke:#181818;stroke-width:1.0416666666666667;"/><polygon fill="#181818" points="2104.4688,293.4063,2114.4877,291.1988,2108.6616,290.3164,2109.544,284.4903,2104.4688,293.4063" style="stroke:#181818;stroke-width:1.0416666666666667;"/></g><!--link NotificationService to EmailService--><g id="link_NotificationService_EmailService"><path codeLine="104" d="M2212.4167,241.125 C2214.8646,257.0104 2218.5002,271.9255 2225.5523,287.7692 " fill="none" id="NotificationService-to-EmailService" style="stroke:#181818;stroke-width:1.0416666666666667;"/><polygon fill="#181818" points="2228.0938,293.4792,2228.0881,283.2199,2225.9758,288.7209,2220.4749,286.6086,2228.0938,293.4792" style="stroke:#181818;stroke-width:1.0416666666666667;"/></g><!--link EmailService to NotificationService--><g id="link_EmailService_NotificationService"><path codeLine="116" d="M2251.8438,293.4792 C2249.5625,277.6354 2245.9796,262.7061 2238.8025,246.8207 " fill="none" id="EmailService-to-NotificationService" style="stroke:#181818;stroke-width:1.0416666666666667;"/><polygon fill="#181818" points="2236.2292,241.125,2236.292,251.384,2238.3736,245.8714,2243.8862,247.9529,2236.2292,241.125" style="stroke:#181818;stroke-width:1.0416666666666667;"/></g><!--link SessionManager to User--><g id="link_SessionManager_User"><path codeLine="106" d="M1355.4479,344.0208 C1339.8646,352.0104 1322.3646,360.8646 1306.25,368.75 C1227.7396,407.1563 1212.4583,429.1354 1128.125,452.0833 C1109.0521,457.2708 1056.8542,450.8021 1039.5833,460.4167 C1021.6563,470.3958 1011.0918,483.9537 1002.2689,499.4537 " fill="none" id="SessionManager-to-User" style="stroke:#181818;stroke-width:1.0416666666666667;"/><polygon fill="#181818" points="999.1771,504.8854,1007.4359,498.7991,1001.7536,500.359,1000.1937,494.6767,999.1771,504.8854" style="stroke:#181818;stroke-width:1.0416666666666667;"/></g><!--link Filters to CVE--><g id="link_Filters_CVE"><path codeLine="108" d="M1528.8021,344.1875 C1519.3854,352.7396 1508.1667,361.8958 1496.875,368.75 C1366.7917,447.6563 1197.1269,499.4238 1126.1998,519.0904 " fill="none" id="Filters-to-CVE" style="stroke:#181818;stroke-width:1.0416666666666667;"/><polygon fill="#181818" points="1120.1771,520.7604,1130.3245,522.2706,1125.196,519.3688,1128.0979,514.2403,1120.1771,520.7604" style="stroke:#181818;stroke-width:1.0416666666666667;"/></g><!--link CheckService to DatabaseService--><g id="link_CheckService_DatabaseService"><path codeLine="110" d="M2033.9792,241.125 C2041.8438,257.0104 2049.2687,272.0342 2057.1124,287.878 " fill="none" id="CheckService-to-DatabaseService" style="stroke:#181818;stroke-width:1.0416666666666667;"/><polygon fill="#181818" points="2059.8854,293.4792,2059.4601,283.2288,2057.5746,288.8115,2051.9918,286.9261,2059.8854,293.4792" style="stroke:#181818;stroke-width:1.0416666666666667;"/></g><!--link CheckService to CVEFetcher--><g id="link_CheckService_CVEFetcher"><path codeLine="111" d="M1981.6875,240.7708 C1979.4896,243.2917 1977.5625,246.0208 1976.0417,248.9583 C1951.5313,296.2188 1953.5208,320.5104 1976.0417,368.75 C1977.375,371.5938 1975.2139,369.3731 1977.193,371.8835 " fill="none" id="CheckService-to-CVEFetcher" style="stroke:#181818;stroke-width:1.0416666666666667;"/><polygon fill="#181818" points="1981.0625,376.7917,1978.5304,366.8498,1977.8379,372.7016,1971.9862,372.0091,1981.0625,376.7917" style="stroke:#181818;stroke-width:1.0416666666666667;"/></g><!--link CheckService to APIUtils--><g id="link_CheckService_APIUtils"><path codeLine="112" d="M1955.8854,239.8646 C1954.6146,240.1354 1953.3438,240.3854 1952.0833,240.625 C1928.0625,245.1042 1754.4063,238.5521 1732.2917,248.9583 C1712.3021,258.3646 1699.5296,272.4462 1688.7588,288.1858 " fill="none" id="CheckService-to-APIUtils" style="stroke:#181818;stroke-width:1.0416666666666667;"/><polygon fill="#181818" points="1685.2292,293.3438,1693.9622,287.96,1688.1705,289.0455,1687.085,283.2538,1685.2292,293.3438" style="stroke:#181818;stroke-width:1.0416666666666667;"/></g><!--link LoadingDialog to TaskWorker--><g id="link_LoadingDialog_TaskWorker"><path codeLine="114" d="M933.2083,239.7708 C934.6458,240.0729 936.0729,240.3646 937.5,240.625 C979.1979,248.3333 1087.8854,235.5938 1128.125,248.9583 C1155.9167,258.1875 1178.2805,273.4632 1197.4472,289.2549 " fill="none" id="LoadingDialog-to-TaskWorker" style="stroke:#181818;stroke-width:1.0416666666666667;"/><polygon fill="#181818" points="1202.2708,293.2292,1197.6849,284.052,1198.2511,289.9173,1192.3858,290.4835,1202.2708,293.2292" style="stroke:#181818;stroke-width:1.0416666666666667;"/></g><!--link EncryptionUtil to DatabaseService--><g id="link_EncryptionUtil_DatabaseService"><path codeLine="118" d="M1881.6875,318.75 C1919.3333,318.75 1950.7188,318.75 1988.3646,318.75 " fill="none" id="EncryptionUtil-to-DatabaseService" style="stroke:#181818;stroke-width:1.0416666666666667;"/><polygon fill="#181818" points="1994.6146,318.75,1985.2396,314.5833,1989.4063,318.75,1985.2396,322.9167,1994.6146,318.75" style="stroke:#181818;stroke-width:1.0416666666666667;"/></g><!--SRC=[XPLlQzim4CRVwrE8l1aCCh9-W45e4mYifVJFzbfp54TObeoa14hPTv_jsDATT6QXXFByJjBT8zt5DyfqmecMTw9gH2tVLD1ogrLjMca2r_8Kc8z1nqxnxviDK9mmZPSTlzimDct1LvLjlrqlshJMg63TYdyonljFfONt_54eqok3yFUcnuNrHQqcXEFt_Laoq-z_xGxcP2dqqzRqchtIGJfFeQsMBYoJ9nlKILKYA6iUbD2sfg9snw5WchlghAwIFE5LXg1CxUbQnB5dOC_SjTOUfIvzw_t9b7Sl7I5DfX3avWa5fc88DDT2sNC8iYLBwDTTLIKzMSLUXkfSP0ulvFMsF8ju447y4LxIzFuiguP6krOe3L6UxYKeJUIwVJwy3uH-TCMTUz-d_YXClsLUt9lmpM_hcWBiJEK-kg7cuQGvkVxl2t-HUZJ3drNdsTXbw_KFq3vH0kqHDTGPKOLDaKJqagEC7t6Kyrk805r0KjDzHsryjtccy63a92WJTWwBHk0zauG62aQPOmaKjYMKUmT8OM1Ys4MM3ewNcMjZ9PcMMS9Wcd7HR2H8DBAfyr6c2SxTlp0PYrt-4nP71Yg-n4McvSmjb1Gt3X-QZnQouPj_NQ-HEKYSwi7QR0PIKyxmLStFZB6iAo9OqEUMIF-chUQfaySoOaAcQfTWtgvBSMX6ClpUWAUJZIbRsFNaWKK0B3zdSU8orEmZ0pEKmMn7IFrwC3nSoUp-0G00]--></g></svg>