<?xml version="1.0" encoding="us-ascii" standalone="no"?><svg xmlns="http://www.w3.org/2000/svg" xmlns:xlink="http://www.w3.org/1999/xlink" contentStyleType="text/css" height="1236.9792px" preserveAspectRatio="none" style="width:3808px;height:1236px;background:#FFFFFF;" version="1.1" viewBox="0 0 3808 1236" width="3808.5938px" zoomAndPan="magnify"><defs/><g><!--cluster com--><g id="cluster_com"><path d="M11.0677,7.8125 L55.3385,7.8125 A4.8828,4.8828 0 0 1 58.5938,11.0677 L67.7083,36.8449 L3796.224,36.8449 A3.2552,3.2552 0 0 1 3799.4792,40.1001 L3799.4792,1225.2995 A3.2552,3.2552 0 0 1 3796.224,1228.5547 L11.0677,1228.5547 A3.2552,3.2552 0 0 1 7.8125,1225.2995 L7.8125,11.0677 A3.2552,3.2552 0 0 1 11.0677,7.8125 " fill="none" style="stroke:#000000;stroke-width:1.953125;"/><line style="stroke:#000000;stroke-width:1.953125;" x1="7.8125" x2="67.7083" y1="36.8449" y2="36.8449"/><text fill="#000000" font-family="sans-serif" font-size="18.2292" font-weight="bold" lengthAdjust="spacing" textLength="42.9688" x="13.0208" y="27.3374">com</text></g><!--cluster vulnmonitor--><g id="cluster_vulnmonitor"><path d="M42.3177,63.8021 L166.0156,63.8021 A4.8828,4.8828 0 0 1 169.2708,67.0573 L178.3854,92.8345 L3764.974,92.8345 A3.2552,3.2552 0 0 1 3768.2292,96.0897 L3768.2292,1194.0495 A3.2552,3.2552 0 0 1 3764.974,1197.3047 L42.3177,1197.3047 A3.2552,3.2552 0 0 1 39.0625,1194.0495 L39.0625,67.0573 A3.2552,3.2552 0 0 1 42.3177,63.8021 " fill="none" style="stroke:#000000;stroke-width:1.953125;"/><line style="stroke:#000000;stroke-width:1.953125;" x1="39.0625" x2="178.3854" y1="92.8345" y2="92.8345"/><text fill="#000000" font-family="sans-serif" font-size="18.2292" font-weight="bold" lengthAdjust="spacing" textLength="122.3958" x="44.2708" y="83.327">vulnmonitor</text></g><!--cluster gui--><g id="cluster_gui"><path d="M90.4948,213.9323 L123.0469,213.9323 A4.8828,4.8828 0 0 1 126.3021,217.1875 L135.4167,242.9647 L1328.776,242.9647 A3.2552,3.2552 0 0 1 1332.0313,246.2199 L1332.0313,627.6302 A3.2552,3.2552 0 0 1 1328.776,630.8854 L90.4948,630.8854 A3.2552,3.2552 0 0 1 87.2396,627.6302 L87.2396,217.1875 A3.2552,3.2552 0 0 1 90.4948,213.9323 " fill="none" style="stroke:#000000;stroke-width:1.953125;"/><line style="stroke:#000000;stroke-width:1.953125;" x1="87.2396" x2="135.4167" y1="242.9647" y2="242.9647"/><text fill="#000000" font-family="sans-serif" font-size="18.2292" font-weight="bold" lengthAdjust="spacing" textLength="31.25" x="92.4479" y="233.4572">gui</text></g><!--cluster model--><g id="cluster_model"><path d="M956.3802,672.7474 L1020.1823,672.7474 A4.8828,4.8828 0 0 1 1023.4375,676.0026 L1032.5521,701.7798 L1905.599,701.7798 A3.2552,3.2552 0 0 1 1908.8542,705.035 L1908.8542,1162.7995 A3.2552,3.2552 0 0 1 1905.599,1166.0547 L956.3802,1166.0547 A3.2552,3.2552 0 0 1 953.125,1162.7995 L953.125,676.0026 A3.2552,3.2552 0 0 1 956.3802,672.7474 " fill="none" style="stroke:#000000;stroke-width:1.953125;"/><line style="stroke:#000000;stroke-width:1.953125;" x1="953.125" x2="1032.5521" y1="701.7798" y2="701.7798"/><text fill="#000000" font-family="sans-serif" font-size="18.2292" font-weight="bold" lengthAdjust="spacing" textLength="62.5" x="958.3333" y="692.2723">model</text></g><!--cluster services--><g id="cluster_services"><path d="M2948.5677,256.3672 L3037.1094,256.3672 A4.8828,4.8828 0 0 1 3040.3646,259.6224 L3049.4792,285.3996 L3733.724,285.3996 A3.2552,3.2552 0 0 1 3736.9792,288.6548 L3736.9792,904.5052 A3.2552,3.2552 0 0 1 3733.724,907.7604 L2948.5677,907.7604 A3.2552,3.2552 0 0 1 2945.3125,904.5052 L2945.3125,259.6224 A3.2552,3.2552 0 0 1 2948.5677,256.3672 " fill="none" style="stroke:#000000;stroke-width:1.953125;"/><line style="stroke:#000000;stroke-width:1.953125;" x1="2945.3125" x2="3049.4792" y1="285.3996" y2="285.3996"/><text fill="#000000" font-family="sans-serif" font-size="18.2292" font-weight="bold" lengthAdjust="spacing" textLength="87.2396" x="2950.5208" y="275.8921">services</text></g><!--cluster utils--><g id="cluster_utils"><path d="M1483.724,448.9323 L1527.9948,448.9323 A4.8828,4.8828 0 0 1 1531.25,452.1875 L1540.3646,477.9647 L2910.8073,477.9647 A3.2552,3.2552 0 0 1 2914.0625,481.2199 L2914.0625,638.2422 A3.2552,3.2552 0 0 1 2910.8073,641.4974 L1483.724,641.4974 A3.2552,3.2552 0 0 1 1480.4688,638.2422 L1480.4688,452.1875 A3.2552,3.2552 0 0 1 1483.724,448.9323 " fill="none" style="stroke:#000000;stroke-width:1.953125;"/><line style="stroke:#000000;stroke-width:1.953125;" x1="1480.4688" x2="1540.3646" y1="477.9647" y2="477.9647"/><text fill="#000000" font-family="sans-serif" font-size="18.2292" font-weight="bold" lengthAdjust="spacing" textLength="42.9688" x="1485.6771" y="468.4572">utils</text></g><!--class Main--><g id="elem_Main"><rect codeLine="7" fill="#F1F1F1" height="83.7199" id="Main" rx="3.2552" ry="3.2552" style="stroke:#181818;stroke-width:0.6510416666666666;" width="205.7292" x="794.2708" y="109.375"/><ellipse cx="870.7682" cy="130.2083" fill="#ADD1B2" rx="14.3229" ry="14.3229" style="stroke:#181818;stroke-width:1.3020833333333333;"/><path d="M874.6338,137.5529 Q873.881,137.9395 873.0469,138.1226 Q872.2127,138.326 871.2972,138.326 Q868.042,138.326 866.3127,136.1898 Q864.6037,134.0332 864.6037,129.9642 Q864.6037,125.8952 866.3127,123.7386 Q868.042,121.582 871.2972,121.582 Q872.2127,121.582 873.0469,121.7855 Q873.9014,121.9889 874.6338,122.3755 L874.6338,125.9155 Q873.82,125.1628 873.0469,124.8169 Q872.2738,124.4507 871.46,124.4507 Q869.7103,124.4507 868.8151,125.8545 Q867.9199,127.238 867.9199,129.9642 Q867.9199,132.6904 868.8151,134.0942 Q869.7103,135.4777 871.46,135.4777 Q872.2738,135.4777 873.0469,135.1318 Q873.82,134.7656 874.6338,134.0129 L874.6338,137.5529 Z " fill="#000000"/><text fill="#000000" font-family="sans-serif" font-size="18.2292" lengthAdjust="spacing" textLength="41.6667" x="897.4609" y="136.5191">Main</text><line style="stroke:#181818;stroke-width:0.6510416666666666;" x1="795.5729" x2="998.6979" y1="151.0417" y2="151.0417"/><line style="stroke:#181818;stroke-width:0.6510416666666666;" x1="795.5729" x2="998.6979" y1="161.4583" y2="161.4583"/><ellipse cx="808.5938" cy="179.2297" fill="#84BE84" rx="3.9063" ry="3.9063" style="stroke:#038048;stroke-width:1.3020833333333333;"/><text fill="#000000" font-family="sans-serif" font-size="18.2292" lengthAdjust="spacing" textLength="171.875" x="820.3125" y="183.5874">main(args: String[])</text></g><!--class MainFrame--><g id="elem_MainFrame"><rect codeLine="12" fill="#F1F1F1" height="168.5994" id="MainFrame" rx="3.2552" ry="3.2552" style="stroke:#181818;stroke-width:0.6510416666666666;" width="294.2708" x="750" y="259.5052"/><ellipse cx="842.7734" cy="280.3385" fill="#ADD1B2" rx="14.3229" ry="14.3229" style="stroke:#181818;stroke-width:1.3020833333333333;"/><path d="M846.639,287.6831 Q845.8862,288.0697 845.0521,288.2528 Q844.2179,288.4562 843.3024,288.4562 Q840.0472,288.4562 838.3179,286.32 Q836.6089,284.1634 836.6089,280.0944 Q836.6089,276.0254 838.3179,273.8688 Q840.0472,271.7122 843.3024,271.7122 Q844.2179,271.7122 845.0521,271.9157 Q845.9066,272.1191 846.639,272.5057 L846.639,276.0457 Q845.8252,275.293 845.0521,274.9471 Q844.279,274.5809 843.4652,274.5809 Q841.7155,274.5809 840.8203,275.9847 Q839.9251,277.3682 839.9251,280.0944 Q839.9251,282.8206 840.8203,284.2244 Q841.7155,285.6079 843.4652,285.6079 Q844.279,285.6079 845.0521,285.262 Q845.8252,284.8958 846.639,284.1431 L846.639,287.6831 Z " fill="#000000"/><text fill="#000000" font-family="sans-serif" font-size="18.2292" lengthAdjust="spacing" textLength="97.6563" x="869.4661" y="286.6493">MainFrame</text><line style="stroke:#181818;stroke-width:0.6510416666666666;" x1="751.3021" x2="1042.9688" y1="301.1719" y2="301.1719"/><line style="stroke:#181818;stroke-width:0.6510416666666666;" x1="751.3021" x2="1042.9688" y1="311.5885" y2="311.5885"/><ellipse cx="764.3229" cy="329.3599" fill="#84BE84" rx="3.9063" ry="3.9063" style="stroke:#038048;stroke-width:1.3020833333333333;"/><text fill="#000000" font-family="sans-serif" font-size="18.2292" lengthAdjust="spacing" textLength="110.6771" x="776.0417" y="333.7176">MainFrame()</text><ellipse cx="764.3229" cy="350.5798" fill="#84BE84" rx="3.9063" ry="3.9063" style="stroke:#038048;stroke-width:1.3020833333333333;"/><text fill="#000000" font-family="sans-serif" font-size="18.2292" lengthAdjust="spacing" textLength="156.25" x="776.0417" y="354.9375">initComponents()</text><ellipse cx="764.3229" cy="371.7997" fill="#84BE84" rx="3.9063" ry="3.9063" style="stroke:#038048;stroke-width:1.3020833333333333;"/><text fill="#000000" font-family="sans-serif" font-size="18.2292" lengthAdjust="spacing" textLength="167.9688" x="776.0417" y="376.1574">startCVEFetching()</text><ellipse cx="764.3229" cy="393.0196" fill="#84BE84" rx="3.9063" ry="3.9063" style="stroke:#038048;stroke-width:1.3020833333333333;"/><text fill="#000000" font-family="sans-serif" font-size="18.2292" lengthAdjust="spacing" textLength="147.1354" x="776.0417" y="397.3773">reloadCVEData()</text><ellipse cx="764.3229" cy="414.2395" fill="#84BE84" rx="3.9063" ry="3.9063" style="stroke:#038048;stroke-width:1.3020833333333333;"/><text fill="#000000" font-family="sans-serif" font-size="18.2292" lengthAdjust="spacing" textLength="260.4167" x="776.0417" y="418.5972">performSearch(query: String)</text></g><!--class CVEListPanel--><g id="elem_CVEListPanel"><rect codeLine="19" fill="#F1F1F1" height="104.9398" id="CVEListPanel" rx="3.2552" ry="3.2552" style="stroke:#181818;stroke-width:0.6510416666666666;" width="291.6667" x="1019.5312" y="505.1172"/><ellipse cx="1101.888" cy="525.9505" fill="#ADD1B2" rx="14.3229" ry="14.3229" style="stroke:#181818;stroke-width:1.3020833333333333;"/><path d="M1105.7536,533.2951 Q1105.0008,533.6816 1104.1667,533.8647 Q1103.3325,534.0682 1102.417,534.0682 Q1099.1618,534.0682 1097.4325,531.932 Q1095.7235,529.7754 1095.7235,525.7064 Q1095.7235,521.6374 1097.4325,519.4808 Q1099.1618,517.3242 1102.417,517.3242 Q1103.3325,517.3242 1104.1667,517.5277 Q1105.0212,517.7311 1105.7536,518.1177 L1105.7536,521.6577 Q1104.9398,520.9049 1104.1667,520.5591 Q1103.3936,520.1929 1102.5798,520.1929 Q1100.8301,520.1929 1099.9349,521.5967 Q1099.0397,522.9801 1099.0397,525.7064 Q1099.0397,528.4326 1099.9349,529.8364 Q1100.8301,531.2199 1102.5798,531.2199 Q1103.3936,531.2199 1104.1667,530.874 Q1104.9398,530.5078 1105.7536,529.755 L1105.7536,533.2951 Z " fill="#000000"/><text fill="#000000" font-family="sans-serif" font-size="18.2292" lengthAdjust="spacing" textLength="115.8854" x="1128.5807" y="532.2613">CVEListPanel</text><line style="stroke:#181818;stroke-width:0.6510416666666666;" x1="1020.8333" x2="1309.8958" y1="546.7839" y2="546.7839"/><line style="stroke:#181818;stroke-width:0.6510416666666666;" x1="1020.8333" x2="1309.8958" y1="557.2005" y2="557.2005"/><ellipse cx="1033.8542" cy="574.9719" fill="#84BE84" rx="3.9063" ry="3.9063" style="stroke:#038048;stroke-width:1.3020833333333333;"/><text fill="#000000" font-family="sans-serif" font-size="18.2292" lengthAdjust="spacing" textLength="128.9063" x="1045.5729" y="579.3296">CVEListPanel()</text><ellipse cx="1033.8542" cy="596.1918" fill="#84BE84" rx="3.9063" ry="3.9063" style="stroke:#038048;stroke-width:1.3020833333333333;"/><text fill="#000000" font-family="sans-serif" font-size="18.2292" lengthAdjust="spacing" textLength="257.8125" x="1045.5729" y="600.5495">updateList(cves: List&lt;CVE&gt;)</text></g><!--class FiltersFrame--><g id="elem_FiltersFrame"><rect codeLine="23" fill="#F1F1F1" height="104.9398" id="FiltersFrame" rx="3.2552" ry="3.2552" style="stroke:#181818;stroke-width:0.6510416666666666;" width="156.25" x="618.4896" y="505.1172"/><ellipse cx="640.3646" cy="525.9505" fill="#ADD1B2" rx="14.3229" ry="14.3229" style="stroke:#181818;stroke-width:1.3020833333333333;"/><path d="M644.2301,533.2951 Q643.4774,533.6816 642.6432,533.8647 Q641.8091,534.0682 640.8936,534.0682 Q637.6383,534.0682 635.909,531.932 Q634.2,529.7754 634.2,525.7064 Q634.2,521.6374 635.909,519.4808 Q637.6383,517.3242 640.8936,517.3242 Q641.8091,517.3242 642.6432,517.5277 Q643.4977,517.7311 644.2301,518.1177 L644.2301,521.6577 Q643.4163,520.9049 642.6432,520.5591 Q641.8701,520.1929 641.0563,520.1929 Q639.3066,520.1929 638.4115,521.5967 Q637.5163,522.9801 637.5163,525.7064 Q637.5163,528.4326 638.4115,529.8364 Q639.3066,531.2199 641.0563,531.2199 Q641.8701,531.2199 642.6432,530.874 Q643.4163,530.5078 644.2301,529.755 L644.2301,533.2951 Z " fill="#000000"/><text fill="#000000" font-family="sans-serif" font-size="18.2292" lengthAdjust="spacing" textLength="109.375" x="659.1146" y="532.2613">FiltersFrame</text><line style="stroke:#181818;stroke-width:0.6510416666666666;" x1="619.7917" x2="773.4375" y1="546.7839" y2="546.7839"/><line style="stroke:#181818;stroke-width:0.6510416666666666;" x1="619.7917" x2="773.4375" y1="557.2005" y2="557.2005"/><ellipse cx="632.8125" cy="574.9719" fill="#84BE84" rx="3.9063" ry="3.9063" style="stroke:#038048;stroke-width:1.3020833333333333;"/><text fill="#000000" font-family="sans-serif" font-size="18.2292" lengthAdjust="spacing" textLength="122.3958" x="644.5313" y="579.3296">FiltersFrame()</text><ellipse cx="632.8125" cy="596.1918" fill="#84BE84" rx="3.9063" ry="3.9063" style="stroke:#038048;stroke-width:1.3020833333333333;"/><text fill="#000000" font-family="sans-serif" font-size="18.2292" lengthAdjust="spacing" textLength="113.2813" x="644.5313" y="600.5495">applyFilters()</text></g><!--class AlertsFrame--><g id="elem_AlertsFrame"><rect codeLine="27" fill="#F1F1F1" height="104.9398" id="AlertsFrame" rx="3.2552" ry="3.2552" style="stroke:#181818;stroke-width:0.6510416666666666;" width="153.6458" x="820.3125" y="505.1172"/><ellipse cx="842.1875" cy="525.9505" fill="#ADD1B2" rx="14.3229" ry="14.3229" style="stroke:#181818;stroke-width:1.3020833333333333;"/><path d="M846.0531,533.2951 Q845.3003,533.6816 844.4661,533.8647 Q843.632,534.0682 842.7165,534.0682 Q839.4613,534.0682 837.7319,531.932 Q836.0229,529.7754 836.0229,525.7064 Q836.0229,521.6374 837.7319,519.4808 Q839.4613,517.3242 842.7165,517.3242 Q843.632,517.3242 844.4661,517.5277 Q845.3206,517.7311 846.0531,518.1177 L846.0531,521.6577 Q845.2393,520.9049 844.4661,520.5591 Q843.693,520.1929 842.8792,520.1929 Q841.1296,520.1929 840.2344,521.5967 Q839.3392,522.9801 839.3392,525.7064 Q839.3392,528.4326 840.2344,529.8364 Q841.1296,531.2199 842.8792,531.2199 Q843.693,531.2199 844.4661,530.874 Q845.2393,530.5078 846.0531,529.755 L846.0531,533.2951 Z " fill="#000000"/><text fill="#000000" font-family="sans-serif" font-size="18.2292" lengthAdjust="spacing" textLength="106.7708" x="860.9375" y="532.2613">AlertsFrame</text><line style="stroke:#181818;stroke-width:0.6510416666666666;" x1="821.6146" x2="972.6563" y1="546.7839" y2="546.7839"/><line style="stroke:#181818;stroke-width:0.6510416666666666;" x1="821.6146" x2="972.6563" y1="557.2005" y2="557.2005"/><ellipse cx="834.6354" cy="574.9719" fill="#84BE84" rx="3.9063" ry="3.9063" style="stroke:#038048;stroke-width:1.3020833333333333;"/><text fill="#000000" font-family="sans-serif" font-size="18.2292" lengthAdjust="spacing" textLength="119.7917" x="846.3542" y="579.3296">AlertsFrame()</text><ellipse cx="834.6354" cy="596.1918" fill="#84BE84" rx="3.9063" ry="3.9063" style="stroke:#038048;stroke-width:1.3020833333333333;"/><text fill="#000000" font-family="sans-serif" font-size="18.2292" lengthAdjust="spacing" textLength="110.6771" x="846.3542" y="600.5495">applyAlerts()</text></g><!--class AlertNotificationDialog--><g id="elem_AlertNotificationDialog"><rect codeLine="31" fill="#F1F1F1" height="104.9398" id="AlertNotificationDialog" rx="3.2552" ry="3.2552" style="stroke:#181818;stroke-width:0.6510416666666666;" width="242.1875" x="108.0729" y="505.1172"/><ellipse cx="129.9479" cy="525.9505" fill="#ADD1B2" rx="14.3229" ry="14.3229" style="stroke:#181818;stroke-width:1.3020833333333333;"/><path d="M133.8135,533.2951 Q133.0607,533.6816 132.2266,533.8647 Q131.3924,534.0682 130.4769,534.0682 Q127.2217,534.0682 125.4924,531.932 Q123.7834,529.7754 123.7834,525.7064 Q123.7834,521.6374 125.4924,519.4808 Q127.2217,517.3242 130.4769,517.3242 Q131.3924,517.3242 132.2266,517.5277 Q133.0811,517.7311 133.8135,518.1177 L133.8135,521.6577 Q132.9997,520.9049 132.2266,520.5591 Q131.4535,520.1929 130.6396,520.1929 Q128.89,520.1929 127.9948,521.5967 Q127.0996,522.9801 127.0996,525.7064 Q127.0996,528.4326 127.9948,529.8364 Q128.89,531.2199 130.6396,531.2199 Q131.4535,531.2199 132.2266,530.874 Q132.9997,530.5078 133.8135,529.755 L133.8135,533.2951 Z " fill="#000000"/><text fill="#000000" font-family="sans-serif" font-size="18.2292" lengthAdjust="spacing" textLength="195.3125" x="148.6979" y="532.2613">AlertNotificationDialog</text><line style="stroke:#181818;stroke-width:0.6510416666666666;" x1="109.375" x2="348.9583" y1="546.7839" y2="546.7839"/><line style="stroke:#181818;stroke-width:0.6510416666666666;" x1="109.375" x2="348.9583" y1="557.2005" y2="557.2005"/><ellipse cx="122.3958" cy="574.9719" fill="#84BE84" rx="3.9063" ry="3.9063" style="stroke:#038048;stroke-width:1.3020833333333333;"/><text fill="#000000" font-family="sans-serif" font-size="18.2292" lengthAdjust="spacing" textLength="208.3333" x="134.1146" y="579.3296">AlertNotificationDialog()</text><ellipse cx="122.3958" cy="596.1918" fill="#84BE84" rx="3.9063" ry="3.9063" style="stroke:#038048;stroke-width:1.3020833333333333;"/><text fill="#000000" font-family="sans-serif" font-size="18.2292" lengthAdjust="spacing" textLength="128.9063" x="134.1146" y="600.5495">saveSettings()</text></g><!--class SettingsFrame--><g id="elem_SettingsFrame"><rect codeLine="35" fill="#F1F1F1" height="104.9398" id="SettingsFrame" rx="3.2552" ry="3.2552" style="stroke:#181818;stroke-width:0.6510416666666666;" width="177.0833" x="395.8333" y="505.1172"/><ellipse cx="417.7083" cy="525.9505" fill="#ADD1B2" rx="14.3229" ry="14.3229" style="stroke:#181818;stroke-width:1.3020833333333333;"/><path d="M421.5739,533.2951 Q420.8211,533.6816 419.987,533.8647 Q419.1528,534.0682 418.2373,534.0682 Q414.9821,534.0682 413.2528,531.932 Q411.5438,529.7754 411.5438,525.7064 Q411.5438,521.6374 413.2528,519.4808 Q414.9821,517.3242 418.2373,517.3242 Q419.1528,517.3242 419.987,517.5277 Q420.8415,517.7311 421.5739,518.1177 L421.5739,521.6577 Q420.7601,520.9049 419.987,520.5591 Q419.2139,520.1929 418.4001,520.1929 Q416.6504,520.1929 415.7552,521.5967 Q414.86,522.9801 414.86,525.7064 Q414.86,528.4326 415.7552,529.8364 Q416.6504,531.2199 418.4001,531.2199 Q419.2139,531.2199 419.987,530.874 Q420.7601,530.5078 421.5739,529.755 L421.5739,533.2951 Z " fill="#000000"/><text fill="#000000" font-family="sans-serif" font-size="18.2292" lengthAdjust="spacing" textLength="130.2083" x="436.4583" y="532.2613">SettingsFrame</text><line style="stroke:#181818;stroke-width:0.6510416666666666;" x1="397.1354" x2="571.6146" y1="546.7839" y2="546.7839"/><line style="stroke:#181818;stroke-width:0.6510416666666666;" x1="397.1354" x2="571.6146" y1="557.2005" y2="557.2005"/><ellipse cx="410.1563" cy="574.9719" fill="#84BE84" rx="3.9063" ry="3.9063" style="stroke:#038048;stroke-width:1.3020833333333333;"/><text fill="#000000" font-family="sans-serif" font-size="18.2292" lengthAdjust="spacing" textLength="143.2292" x="421.875" y="579.3296">SettingsFrame()</text><ellipse cx="410.1563" cy="596.1918" fill="#84BE84" rx="3.9063" ry="3.9063" style="stroke:#038048;stroke-width:1.3020833333333333;"/><text fill="#000000" font-family="sans-serif" font-size="18.2292" lengthAdjust="spacing" textLength="128.9063" x="421.875" y="600.5495">saveSettings()</text></g><!--class CVE--><g id="elem_CVE"><rect codeLine="42" fill="#F1F1F1" height="211.0392" id="CVE" rx="3.2552" ry="3.2552" style="stroke:#181818;stroke-width:0.6510416666666666;" width="246.0938" x="1641.276" y="728.9323"/><ellipse cx="1740.5599" cy="749.7656" fill="#ADD1B2" rx="14.3229" ry="14.3229" style="stroke:#181818;stroke-width:1.3020833333333333;"/><path d="M1744.4255,757.1102 Q1743.6727,757.4967 1742.8385,757.6799 Q1742.0044,757.8833 1741.0889,757.8833 Q1737.8337,757.8833 1736.1043,755.7471 Q1734.3953,753.5905 1734.3953,749.5215 Q1734.3953,745.4525 1736.1043,743.2959 Q1737.8337,741.1393 1741.0889,741.1393 Q1742.0044,741.1393 1742.8385,741.3428 Q1743.693,741.5462 1744.4255,741.9328 L1744.4255,745.4728 Q1743.6117,744.7201 1742.8385,744.3742 Q1742.0654,744.008 1741.2516,744.008 Q1739.502,744.008 1738.6068,745.4118 Q1737.7116,746.7952 1737.7116,749.5215 Q1737.7116,752.2477 1738.6068,753.6515 Q1739.502,755.035 1741.2516,755.035 Q1742.0654,755.035 1742.8385,754.6891 Q1743.6117,754.3229 1744.4255,753.5701 L1744.4255,757.1102 Z " fill="#000000"/><text fill="#000000" font-family="sans-serif" font-size="18.2292" lengthAdjust="spacing" textLength="36.4583" x="1767.2526" y="756.0764">CVE</text><line style="stroke:#181818;stroke-width:0.6510416666666666;" x1="1642.5781" x2="1886.0677" y1="770.599" y2="770.599"/><rect fill="none" height="7.8125" style="stroke:#C82930;stroke-width:1.3020833333333333;" width="7.8125" x="1651.6927" y="784.4641"/><text fill="#000000" font-family="sans-serif" font-size="18.2292" lengthAdjust="spacing" textLength="96.3542" x="1667.3177" y="792.728">id : Integer</text><rect fill="none" height="7.8125" style="stroke:#C82930;stroke-width:1.3020833333333333;" width="7.8125" x="1651.6927" y="805.684"/><text fill="#000000" font-family="sans-serif" font-size="18.2292" lengthAdjust="spacing" textLength="125" x="1667.3177" y="813.9479">cve_id : String</text><rect fill="none" height="7.8125" style="stroke:#C82930;stroke-width:1.3020833333333333;" width="7.8125" x="1651.6927" y="826.9039"/><text fill="#000000" font-family="sans-serif" font-size="18.2292" lengthAdjust="spacing" textLength="169.2708" x="1667.3177" y="835.1678">description : String</text><rect fill="none" height="7.8125" style="stroke:#C82930;stroke-width:1.3020833333333333;" width="7.8125" x="1651.6927" y="848.1238"/><text fill="#000000" font-family="sans-serif" font-size="18.2292" lengthAdjust="spacing" textLength="138.0208" x="1667.3177" y="856.3877">severity : String</text><rect fill="none" height="7.8125" style="stroke:#C82930;stroke-width:1.3020833333333333;" width="7.8125" x="1651.6927" y="869.3437"/><text fill="#000000" font-family="sans-serif" font-size="18.2292" lengthAdjust="spacing" textLength="212.2396" x="1667.3177" y="877.6076">affectedProduct : String</text><rect fill="none" height="7.8125" style="stroke:#C82930;stroke-width:1.3020833333333333;" width="7.8125" x="1651.6927" y="890.5636"/><text fill="#000000" font-family="sans-serif" font-size="18.2292" lengthAdjust="spacing" textLength="191.4063" x="1667.3177" y="898.8275">publishedDate : Date</text><line style="stroke:#181818;stroke-width:0.6510416666666666;" x1="1642.5781" x2="1886.0677" y1="908.335" y2="908.335"/><ellipse cx="1655.599" cy="926.1064" fill="#84BE84" rx="3.9063" ry="3.9063" style="stroke:#038048;stroke-width:1.3020833333333333;"/><text fill="#000000" font-family="sans-serif" font-size="18.2292" lengthAdjust="spacing" textLength="173.1771" x="1667.3177" y="930.464">getDetails() : String</text></g><!--class User--><g id="elem_User"><rect codeLine="51" fill="#F1F1F1" height="232.2591" id="User" rx="3.2552" ry="3.2552" style="stroke:#181818;stroke-width:0.6510416666666666;" width="281.25" x="1313.8021" y="718.3203"/><ellipse cx="1428.0599" cy="739.1536" fill="#ADD1B2" rx="14.3229" ry="14.3229" style="stroke:#181818;stroke-width:1.3020833333333333;"/><path d="M1431.9255,746.4982 Q1431.1727,746.8848 1430.3385,747.0679 Q1429.5044,747.2713 1428.5889,747.2713 Q1425.3337,747.2713 1423.6043,745.1351 Q1421.8953,742.9785 1421.8953,738.9095 Q1421.8953,734.8405 1423.6043,732.6839 Q1425.3337,730.5273 1428.5889,730.5273 Q1429.5044,730.5273 1430.3385,730.7308 Q1431.193,730.9342 1431.9255,731.3208 L1431.9255,734.8608 Q1431.1117,734.1081 1430.3385,733.7622 Q1429.5654,733.396 1428.7516,733.396 Q1427.002,733.396 1426.1068,734.7998 Q1425.2116,736.1833 1425.2116,738.9095 Q1425.2116,741.6357 1426.1068,743.0396 Q1427.002,744.423 1428.7516,744.423 Q1429.5654,744.423 1430.3385,744.0771 Q1431.1117,743.7109 1431.9255,742.9582 L1431.9255,746.4982 Z " fill="#000000"/><text fill="#000000" font-family="sans-serif" font-size="18.2292" lengthAdjust="spacing" textLength="41.6667" x="1454.7526" y="745.4644">User</text><line style="stroke:#181818;stroke-width:0.6510416666666666;" x1="1315.1042" x2="1593.75" y1="759.987" y2="759.987"/><rect fill="none" height="7.8125" style="stroke:#C82930;stroke-width:1.3020833333333333;" width="7.8125" x="1324.2188" y="773.8521"/><text fill="#000000" font-family="sans-serif" font-size="18.2292" lengthAdjust="spacing" textLength="136.7188" x="1339.8438" y="782.116">userId : Integer</text><rect fill="none" height="7.8125" style="stroke:#C82930;stroke-width:1.3020833333333333;" width="7.8125" x="1324.2188" y="795.072"/><text fill="#000000" font-family="sans-serif" font-size="18.2292" lengthAdjust="spacing" textLength="160.1563" x="1339.8438" y="803.3359">username : String</text><rect fill="none" height="7.8125" style="stroke:#C82930;stroke-width:1.3020833333333333;" width="7.8125" x="1324.2188" y="816.2919"/><text fill="#000000" font-family="sans-serif" font-size="18.2292" lengthAdjust="spacing" textLength="115.8854" x="1339.8438" y="824.5558">email : String</text><rect fill="none" height="7.8125" style="stroke:#C82930;stroke-width:1.3020833333333333;" width="7.8125" x="1324.2188" y="837.5118"/><text fill="#000000" font-family="sans-serif" font-size="18.2292" lengthAdjust="spacing" textLength="156.25" x="1339.8438" y="845.7757">password : String</text><rect fill="none" height="7.8125" style="stroke:#C82930;stroke-width:1.3020833333333333;" width="7.8125" x="1324.2188" y="858.7317"/><text fill="#000000" font-family="sans-serif" font-size="18.2292" lengthAdjust="spacing" textLength="205.7292" x="1339.8438" y="866.9956">userFilters : UserFilters</text><rect fill="none" height="7.8125" style="stroke:#C82930;stroke-width:1.3020833333333333;" width="7.8125" x="1324.2188" y="879.9516"/><text fill="#000000" font-family="sans-serif" font-size="18.2292" lengthAdjust="spacing" textLength="200.5208" x="1339.8438" y="888.2155">userAlerts : UserAlerts</text><rect fill="none" height="7.8125" style="stroke:#C82930;stroke-width:1.3020833333333333;" width="7.8125" x="1324.2188" y="901.1715"/><text fill="#000000" font-family="sans-serif" font-size="18.2292" lengthAdjust="spacing" textLength="247.3958" x="1339.8438" y="909.4354">userSettings : UserSettings</text><line style="stroke:#181818;stroke-width:0.6510416666666666;" x1="1315.1042" x2="1593.75" y1="918.9429" y2="918.9429"/><ellipse cx="1328.125" cy="936.7143" fill="#84BE84" rx="3.9063" ry="3.9063" style="stroke:#038048;stroke-width:1.3020833333333333;"/><text fill="#000000" font-family="sans-serif" font-size="18.2292" lengthAdjust="spacing" textLength="186.1979" x="1339.8438" y="941.0719">getUserInfo() : String</text></g><!--class UserFilters--><g id="elem_UserFilters"><rect codeLine="61" fill="#F1F1F1" height="168.5994" id="UserFilters" rx="3.2552" ry="3.2552" style="stroke:#181818;stroke-width:0.6510416666666666;" width="287.7604" x="1326.1719" y="976.6276"/><ellipse cx="1416.9922" cy="997.4609" fill="#ADD1B2" rx="14.3229" ry="14.3229" style="stroke:#181818;stroke-width:1.3020833333333333;"/><path d="M1420.8577,1004.8055 Q1420.105,1005.1921 1419.2708,1005.3752 Q1418.4367,1005.5786 1417.5212,1005.5786 Q1414.266,1005.5786 1412.5366,1003.4424 Q1410.8276,1001.2858 1410.8276,997.2168 Q1410.8276,993.1478 1412.5366,990.9912 Q1414.266,988.8346 1417.5212,988.8346 Q1418.4367,988.8346 1419.2708,989.0381 Q1420.1253,989.2415 1420.8577,989.6281 L1420.8577,993.1681 Q1420.0439,992.4154 1419.2708,992.0695 Q1418.4977,991.7033 1417.6839,991.7033 Q1415.9342,991.7033 1415.0391,993.1071 Q1414.1439,994.4906 1414.1439,997.2168 Q1414.1439,999.943 1415.0391,1001.3468 Q1415.9342,1002.7303 1417.6839,1002.7303 Q1418.4977,1002.7303 1419.2708,1002.3844 Q1420.0439,1002.0182 1420.8577,1001.2655 L1420.8577,1004.8055 Z " fill="#000000"/><text fill="#000000" font-family="sans-serif" font-size="18.2292" lengthAdjust="spacing" textLength="95.0521" x="1443.6849" y="1003.7717">UserFilters</text><line style="stroke:#181818;stroke-width:0.6510416666666666;" x1="1327.474" x2="1612.6302" y1="1018.2943" y2="1018.2943"/><rect fill="none" height="7.8125" style="stroke:#C82930;stroke-width:1.3020833333333333;" width="7.8125" x="1336.5885" y="1032.1594"/><text fill="#000000" font-family="sans-serif" font-size="18.2292" lengthAdjust="spacing" textLength="134.1146" x="1352.2135" y="1040.4233">osFilter : String</text><rect fill="none" height="7.8125" style="stroke:#C82930;stroke-width:1.3020833333333333;" width="7.8125" x="1336.5885" y="1053.3793"/><text fill="#000000" font-family="sans-serif" font-size="18.2292" lengthAdjust="spacing" textLength="180.9896" x="1352.2135" y="1061.6432">severityFilter : String</text><rect fill="none" height="7.8125" style="stroke:#C82930;stroke-width:1.3020833333333333;" width="7.8125" x="1336.5885" y="1074.5992"/><text fill="#000000" font-family="sans-serif" font-size="18.2292" lengthAdjust="spacing" textLength="253.9062" x="1352.2135" y="1082.8631">productFilters : List&lt;String&gt;</text><rect fill="none" height="7.8125" style="stroke:#C82930;stroke-width:1.3020833333333333;" width="7.8125" x="1336.5885" y="1095.8191"/><text fill="#000000" font-family="sans-serif" font-size="18.2292" lengthAdjust="spacing" textLength="239.5833" x="1352.2135" y="1104.083">includeResolved : Boolean</text><line style="stroke:#181818;stroke-width:0.6510416666666666;" x1="1327.474" x2="1612.6302" y1="1113.5905" y2="1113.5905"/><ellipse cx="1340.4948" cy="1131.3619" fill="#84BE84" rx="3.9063" ry="3.9063" style="stroke:#038048;stroke-width:1.3020833333333333;"/><text fill="#000000" font-family="sans-serif" font-size="18.2292" lengthAdjust="spacing" textLength="197.9167" x="1352.2135" y="1135.7196">getFiltersInfo() : String</text></g><!--class UserAlerts--><g id="elem_UserAlerts"><rect codeLine="68" fill="#F1F1F1" height="83.7199" id="UserAlerts" rx="3.2552" ry="3.2552" style="stroke:#181818;stroke-width:0.6510416666666666;" width="229.1667" x="1658.8542" y="1019.0625"/><ellipse cx="1721.6797" cy="1039.8958" fill="#ADD1B2" rx="14.3229" ry="14.3229" style="stroke:#181818;stroke-width:1.3020833333333333;"/><path d="M1725.5452,1047.2404 Q1724.7925,1047.627 1723.9583,1047.8101 Q1723.1242,1048.0135 1722.2087,1048.0135 Q1718.9535,1048.0135 1717.2241,1045.8773 Q1715.5151,1043.7207 1715.5151,1039.6517 Q1715.5151,1035.5827 1717.2241,1033.4261 Q1718.9535,1031.2695 1722.2087,1031.2695 Q1723.1242,1031.2695 1723.9583,1031.473 Q1724.8128,1031.6764 1725.5452,1032.063 L1725.5452,1035.603 Q1724.7314,1034.8503 1723.9583,1034.5044 Q1723.1852,1034.1382 1722.3714,1034.1382 Q1720.6217,1034.1382 1719.7266,1035.542 Q1718.8314,1036.9255 1718.8314,1039.6517 Q1718.8314,1042.3779 1719.7266,1043.7817 Q1720.6217,1045.1652 1722.3714,1045.1652 Q1723.1852,1045.1652 1723.9583,1044.8193 Q1724.7314,1044.4531 1725.5452,1043.7004 L1725.5452,1047.2404 Z " fill="#000000"/><text fill="#000000" font-family="sans-serif" font-size="18.2292" lengthAdjust="spacing" textLength="92.4479" x="1748.3724" y="1046.2066">UserAlerts</text><line style="stroke:#181818;stroke-width:0.6510416666666666;" x1="1660.1563" x2="1886.7188" y1="1060.7292" y2="1060.7292"/><line style="stroke:#181818;stroke-width:0.6510416666666666;" x1="1660.1563" x2="1886.7188" y1="1071.1458" y2="1071.1458"/><ellipse cx="1673.1771" cy="1088.9172" fill="#84BE84" rx="3.9063" ry="3.9063" style="stroke:#038048;stroke-width:1.3020833333333333;"/><text fill="#000000" font-family="sans-serif" font-size="18.2292" lengthAdjust="spacing" textLength="195.3125" x="1684.8958" y="1093.2749">getAlertsInfo() : String</text></g><!--class UserSettings--><g id="elem_UserSettings"><rect codeLine="71" fill="#F1F1F1" height="168.5994" id="UserSettings" rx="3.2552" ry="3.2552" style="stroke:#181818;stroke-width:0.6510416666666666;" width="305.9896" x="974.6094" y="976.6276"/><ellipse cx="1064.1276" cy="997.4609" fill="#ADD1B2" rx="14.3229" ry="14.3229" style="stroke:#181818;stroke-width:1.3020833333333333;"/><path d="M1067.9932,1004.8055 Q1067.2404,1005.1921 1066.4063,1005.3752 Q1065.5721,1005.5786 1064.6566,1005.5786 Q1061.4014,1005.5786 1059.672,1003.4424 Q1057.9631,1001.2858 1057.9631,997.2168 Q1057.9631,993.1478 1059.672,990.9912 Q1061.4014,988.8346 1064.6566,988.8346 Q1065.5721,988.8346 1066.4063,989.0381 Q1067.2607,989.2415 1067.9932,989.6281 L1067.9932,993.1681 Q1067.1794,992.4154 1066.4063,992.0695 Q1065.6331,991.7033 1064.8193,991.7033 Q1063.0697,991.7033 1062.1745,993.1071 Q1061.2793,994.4906 1061.2793,997.2168 Q1061.2793,999.943 1062.1745,1001.3468 Q1063.0697,1002.7303 1064.8193,1002.7303 Q1065.6331,1002.7303 1066.4063,1002.3844 Q1067.1794,1002.0182 1067.9932,1001.2655 L1067.9932,1004.8055 Z " fill="#000000"/><text fill="#000000" font-family="sans-serif" font-size="18.2292" lengthAdjust="spacing" textLength="115.8854" x="1090.8203" y="1003.7717">UserSettings</text><line style="stroke:#181818;stroke-width:0.6510416666666666;" x1="975.9115" x2="1279.2969" y1="1018.2943" y2="1018.2943"/><rect fill="none" height="7.8125" style="stroke:#C82930;stroke-width:1.3020833333333333;" width="7.8125" x="985.026" y="1032.1594"/><text fill="#000000" font-family="sans-serif" font-size="18.2292" lengthAdjust="spacing" textLength="272.1354" x="1000.651" y="1040.4233">notificationsEnabled : Boolean</text><rect fill="none" height="7.8125" style="stroke:#C82930;stroke-width:1.3020833333333333;" width="7.8125" x="985.026" y="1053.3793"/><text fill="#000000" font-family="sans-serif" font-size="18.2292" lengthAdjust="spacing" textLength="139.3229" x="1000.651" y="1061.6432">lastLogin : Date</text><rect fill="none" height="7.8125" style="stroke:#C82930;stroke-width:1.3020833333333333;" width="7.8125" x="985.026" y="1074.5992"/><text fill="#000000" font-family="sans-serif" font-size="18.2292" lengthAdjust="spacing" textLength="253.9062" x="1000.651" y="1082.8631">darkModeEnabled : Boolean</text><rect fill="none" height="7.8125" style="stroke:#C82930;stroke-width:1.3020833333333333;" width="7.8125" x="985.026" y="1095.8191"/><text fill="#000000" font-family="sans-serif" font-size="18.2292" lengthAdjust="spacing" textLength="227.8646" x="1000.651" y="1104.083">startupEnabled : Boolean</text><line style="stroke:#181818;stroke-width:0.6510416666666666;" x1="975.9115" x2="1279.2969" y1="1113.5905" y2="1113.5905"/><ellipse cx="988.9323" cy="1131.3619" fill="#84BE84" rx="3.9063" ry="3.9063" style="stroke:#038048;stroke-width:1.3020833333333333;"/><text fill="#000000" font-family="sans-serif" font-size="18.2292" lengthAdjust="spacing" textLength="227.8646" x="1000.651" y="1135.7196">getUserSettings() : String</text></g><!--class CVEFetcher--><g id="elem_CVEFetcher"><rect codeLine="81" fill="#F1F1F1" height="104.9398" id="CVEFetcher" rx="3.2552" ry="3.2552" style="stroke:#181818;stroke-width:0.6510416666666666;" width="750" x="2966.1458" y="781.9792"/><ellipse cx="3282.8776" cy="802.8125" fill="#ADD1B2" rx="14.3229" ry="14.3229" style="stroke:#181818;stroke-width:1.3020833333333333;"/><path d="M3286.7432,810.1571 Q3285.9904,810.5436 3285.1563,810.7267 Q3284.3221,810.9302 3283.4066,810.9302 Q3280.1514,810.9302 3278.422,808.7939 Q3276.7131,806.6374 3276.7131,802.5684 Q3276.7131,798.4993 3278.422,796.3428 Q3280.1514,794.1862 3283.4066,794.1862 Q3284.3221,794.1862 3285.1563,794.3896 Q3286.0107,794.5931 3286.7432,794.9797 L3286.7432,798.5197 Q3285.9294,797.7669 3285.1563,797.4211 Q3284.3831,797.0549 3283.5693,797.0549 Q3281.8197,797.0549 3280.9245,798.4587 Q3280.0293,799.8421 3280.0293,802.5684 Q3280.0293,805.2946 3280.9245,806.6984 Q3281.8197,808.0819 3283.5693,808.0819 Q3284.3831,808.0819 3285.1563,807.736 Q3285.9294,807.3698 3286.7432,806.617 L3286.7432,810.1571 Z " fill="#000000"/><text fill="#000000" font-family="sans-serif" font-size="18.2292" lengthAdjust="spacing" textLength="105.4688" x="3309.5703" y="809.1233">CVEFetcher</text><line style="stroke:#181818;stroke-width:0.6510416666666666;" x1="2967.4479" x2="3714.8438" y1="823.6458" y2="823.6458"/><line style="stroke:#181818;stroke-width:0.6510416666666666;" x1="2967.4479" x2="3714.8438" y1="834.0625" y2="834.0625"/><ellipse cx="2980.4688" cy="851.8339" fill="#84BE84" rx="3.9063" ry="3.9063" style="stroke:#038048;stroke-width:1.3020833333333333;"/><text fill="#000000" font-family="sans-serif" font-size="18.2292" lengthAdjust="spacing" textLength="716.1458" x="2992.1875" y="856.1916">fetchLatestCVEs(lastModStartDate: String, lastModEndDate: String) : List&lt;CVE&gt;</text><ellipse cx="2980.4688" cy="873.0538" fill="#84BE84" rx="3.9063" ry="3.9063" style="stroke:#038048;stroke-width:1.3020833333333333;"/><text fill="#000000" font-family="sans-serif" font-size="18.2292" lengthAdjust="spacing" textLength="361.9792" x="2992.1875" y="877.4114">fetchCVEById(cveId: String) : JSONObject</text></g><!--class NotificationService--><g id="elem_NotificationService"><rect codeLine="85" fill="#F1F1F1" height="83.7199" id="NotificationService" rx="3.2552" ry="3.2552" style="stroke:#181818;stroke-width:0.6510416666666666;" width="384.1146" x="2973.3073" y="301.9401"/><ellipse cx="3077.7995" cy="322.7734" fill="#ADD1B2" rx="14.3229" ry="14.3229" style="stroke:#181818;stroke-width:1.3020833333333333;"/><path d="M3081.665,330.118 Q3080.9123,330.5046 3080.0781,330.6877 Q3079.244,330.8911 3078.3285,330.8911 Q3075.0732,330.8911 3073.3439,328.7549 Q3071.6349,326.5983 3071.6349,322.5293 Q3071.6349,318.4603 3073.3439,316.3037 Q3075.0732,314.1471 3078.3285,314.1471 Q3079.244,314.1471 3080.0781,314.3506 Q3080.9326,314.554 3081.665,314.9406 L3081.665,318.4806 Q3080.8512,317.7279 3080.0781,317.382 Q3079.305,317.0158 3078.4912,317.0158 Q3076.7415,317.0158 3075.8464,318.4196 Q3074.9512,319.8031 3074.9512,322.5293 Q3074.9512,325.2555 3075.8464,326.6593 Q3076.7415,328.0428 3078.4912,328.0428 Q3079.305,328.0428 3080.0781,327.6969 Q3080.8512,327.3307 3081.665,326.578 L3081.665,330.118 Z " fill="#000000"/><text fill="#000000" font-family="sans-serif" font-size="18.2292" lengthAdjust="spacing" textLength="164.0625" x="3104.4922" y="329.0842">NotificationService</text><line style="stroke:#181818;stroke-width:0.6510416666666666;" x1="2974.6094" x2="3356.1198" y1="343.6068" y2="343.6068"/><line style="stroke:#181818;stroke-width:0.6510416666666666;" x1="2974.6094" x2="3356.1198" y1="354.0234" y2="354.0234"/><ellipse cx="2987.6302" cy="371.7948" fill="#84BE84" rx="3.9063" ry="3.9063" style="stroke:#038048;stroke-width:1.3020833333333333;"/><text fill="#000000" font-family="sans-serif" font-size="18.2292" lengthAdjust="spacing" textLength="350.2604" x="2999.349" y="376.1525">sendAlert(user: User, message: String)</text></g><!--class DatabaseService--><g id="elem_DatabaseService"><rect codeLine="88" fill="#F1F1F1" height="168.5994" id="DatabaseService" rx="3.2552" ry="3.2552" style="stroke:#181818;stroke-width:0.6510416666666666;" width="415.3646" x="2966.7969" y="473.2813"/><ellipse cx="3093.4245" cy="494.1146" fill="#ADD1B2" rx="14.3229" ry="14.3229" style="stroke:#181818;stroke-width:1.3020833333333333;"/><path d="M3097.29,501.4591 Q3096.5373,501.8457 3095.7031,502.0288 Q3094.869,502.2323 3093.9535,502.2323 Q3090.6982,502.2323 3088.9689,500.096 Q3087.2599,497.9395 3087.2599,493.8704 Q3087.2599,489.8014 3088.9689,487.6449 Q3090.6982,485.4883 3093.9535,485.4883 Q3094.869,485.4883 3095.7031,485.6917 Q3096.5576,485.8952 3097.29,486.2817 L3097.29,489.8218 Q3096.4762,489.069 3095.7031,488.7231 Q3094.93,488.3569 3094.1162,488.3569 Q3092.3665,488.3569 3091.4714,489.7607 Q3090.5762,491.1442 3090.5762,493.8704 Q3090.5762,496.5967 3091.4714,498.0005 Q3092.3665,499.384 3094.1162,499.384 Q3094.93,499.384 3095.7031,499.0381 Q3096.4762,498.6719 3097.29,497.9191 L3097.29,501.4591 Z " fill="#000000"/><text fill="#000000" font-family="sans-serif" font-size="18.2292" lengthAdjust="spacing" textLength="151.0417" x="3120.1172" y="500.4254">DatabaseService</text><line style="stroke:#181818;stroke-width:0.6510416666666666;" x1="2968.099" x2="3380.8594" y1="514.9479" y2="514.9479"/><line style="stroke:#181818;stroke-width:0.6510416666666666;" x1="2968.099" x2="3380.8594" y1="525.3646" y2="525.3646"/><ellipse cx="2981.1198" cy="543.136" fill="#84BE84" rx="3.9063" ry="3.9063" style="stroke:#038048;stroke-width:1.3020833333333333;"/><text fill="#000000" font-family="sans-serif" font-size="18.2292" lengthAdjust="spacing" textLength="87.2396" x="2992.8385" y="547.4936">connect()</text><ellipse cx="2981.1198" cy="564.3559" fill="#84BE84" rx="3.9063" ry="3.9063" style="stroke:#038048;stroke-width:1.3020833333333333;"/><text fill="#000000" font-family="sans-serif" font-size="18.2292" lengthAdjust="spacing" textLength="283.8542" x="2992.8385" y="568.7135">saveCVEData(cves: List&lt;CVE&gt;)</text><ellipse cx="2981.1198" cy="585.5758" fill="#84BE84" rx="3.9063" ry="3.9063" style="stroke:#038048;stroke-width:1.3020833333333333;"/><text fill="#000000" font-family="sans-serif" font-size="18.2292" lengthAdjust="spacing" textLength="235.6771" x="2992.8385" y="589.9334">getCVEData() : List&lt;CVE&gt;</text><ellipse cx="2981.1198" cy="606.7957" fill="#84BE84" rx="3.9063" ry="3.9063" style="stroke:#038048;stroke-width:1.3020833333333333;"/><text fill="#000000" font-family="sans-serif" font-size="18.2292" lengthAdjust="spacing" textLength="281.25" x="2992.8385" y="611.1533">getCVEById(cveId: String) : CVE</text><ellipse cx="2981.1198" cy="628.0155" fill="#84BE84" rx="3.9063" ry="3.9063" style="stroke:#038048;stroke-width:1.3020833333333333;"/><text fill="#000000" font-family="sans-serif" font-size="18.2292" lengthAdjust="spacing" textLength="381.5104" x="2992.8385" y="632.3732">searchCVEData(query: String) : List&lt;CVE&gt;</text></g><!--class APIUtils--><g id="elem_APIUtils"><rect codeLine="98" fill="#F1F1F1" height="83.7199" id="APIUtils" rx="3.2552" ry="3.2552" style="stroke:#181818;stroke-width:0.6510416666666666;" width="309.8958" x="2583.3333" y="515.7292"/><ellipse cx="2700.1953" cy="536.5625" fill="#ADD1B2" rx="14.3229" ry="14.3229" style="stroke:#181818;stroke-width:1.3020833333333333;"/><path d="M2704.0609,543.9071 Q2703.3081,544.2936 2702.474,544.4767 Q2701.6398,544.6802 2700.7243,544.6802 Q2697.4691,544.6802 2695.7397,542.5439 Q2694.0308,540.3874 2694.0308,536.3184 Q2694.0308,532.2493 2695.7397,530.0928 Q2697.4691,527.9362 2700.7243,527.9362 Q2701.6398,527.9362 2702.474,528.1396 Q2703.3285,528.3431 2704.0609,528.7297 L2704.0609,532.2697 Q2703.2471,531.5169 2702.474,531.1711 Q2701.7008,530.8049 2700.887,530.8049 Q2699.1374,530.8049 2698.2422,532.2087 Q2697.347,533.5921 2697.347,536.3184 Q2697.347,539.0446 2698.2422,540.4484 Q2699.1374,541.8319 2700.887,541.8319 Q2701.7008,541.8319 2702.474,541.486 Q2703.2471,541.1198 2704.0609,540.367 L2704.0609,543.9071 Z " fill="#000000"/><text fill="#000000" font-family="sans-serif" font-size="18.2292" lengthAdjust="spacing" textLength="65.1042" x="2726.888" y="542.8733">APIUtils</text><line style="stroke:#181818;stroke-width:0.6510416666666666;" x1="2584.6354" x2="2891.9271" y1="557.3958" y2="557.3958"/><line style="stroke:#181818;stroke-width:0.6510416666666666;" x1="2584.6354" x2="2891.9271" y1="567.8125" y2="567.8125"/><ellipse cx="2597.6563" cy="585.5839" fill="#84BE84" rx="3.9063" ry="3.9063" style="stroke:#038048;stroke-width:1.3020833333333333;"/><text fill="#000000" font-family="sans-serif" font-size="18.2292" lengthAdjust="spacing" textLength="276.0417" x="2609.375" y="589.9416">makeAPICall(url: String) : String</text></g><!--class Filters--><g id="elem_Filters"><rect codeLine="101" fill="#F1F1F1" height="126.1597" id="Filters" rx="3.2552" ry="3.2552" style="stroke:#181818;stroke-width:0.6510416666666666;" width="1036.4583" x="1501.3021" y="494.5052"/><ellipse cx="1987.3047" cy="515.3385" fill="#ADD1B2" rx="14.3229" ry="14.3229" style="stroke:#181818;stroke-width:1.3020833333333333;"/><path d="M1991.1702,522.6831 Q1990.4175,523.0697 1989.5833,523.2528 Q1988.7492,523.4562 1987.8337,523.4562 Q1984.5785,523.4562 1982.8491,521.32 Q1981.1401,519.1634 1981.1401,515.0944 Q1981.1401,511.0254 1982.8491,508.8688 Q1984.5785,506.7122 1987.8337,506.7122 Q1988.7492,506.7122 1989.5833,506.9157 Q1990.4378,507.1191 1991.1702,507.5057 L1991.1702,511.0457 Q1990.3564,510.293 1989.5833,509.9471 Q1988.8102,509.5809 1987.9964,509.5809 Q1986.2467,509.5809 1985.3516,510.9847 Q1984.4564,512.3682 1984.4564,515.0944 Q1984.4564,517.8206 1985.3516,519.2244 Q1986.2467,520.6079 1987.9964,520.6079 Q1988.8102,520.6079 1989.5833,520.262 Q1990.3564,519.8958 1991.1702,519.1431 L1991.1702,522.6831 Z " fill="#000000"/><text fill="#000000" font-family="sans-serif" font-size="18.2292" lengthAdjust="spacing" textLength="53.3854" x="2013.9974" y="521.6493">Filters</text><line style="stroke:#181818;stroke-width:0.6510416666666666;" x1="1502.6042" x2="2536.4583" y1="536.1719" y2="536.1719"/><line style="stroke:#181818;stroke-width:0.6510416666666666;" x1="1502.6042" x2="2536.4583" y1="546.5885" y2="546.5885"/><ellipse cx="1515.625" cy="564.3599" fill="#84BE84" rx="3.9063" ry="3.9063" style="stroke:#038048;stroke-width:1.3020833333333333;"/><text fill="#000000" font-family="sans-serif" font-size="18.2292" lengthAdjust="spacing" textLength="542.9688" x="1527.3438" y="568.7176">filterByOS(cves: List&lt;CVE&gt;, selectedOS: String) : List&lt;CVE&gt;</text><ellipse cx="1515.625" cy="585.5798" fill="#84BE84" rx="3.9063" ry="3.9063" style="stroke:#038048;stroke-width:1.3020833333333333;"/><text fill="#000000" font-family="sans-serif" font-size="18.2292" lengthAdjust="spacing" textLength="631.5104" x="1527.3438" y="589.9375">filterBySeverity(cves: List&lt;CVE&gt;, selectedSeverity: String) : List&lt;CVE&gt;</text><ellipse cx="1515.625" cy="606.7997" fill="#84BE84" rx="3.9063" ry="3.9063" style="stroke:#038048;stroke-width:1.3020833333333333;"/><text fill="#000000" font-family="sans-serif" font-size="18.2292" lengthAdjust="spacing" textLength="1002.6042" x="1527.3438" y="611.1574">applyFilters(cves: List&lt;CVE&gt;, selectedOS: String, selectedProduct: String, selectedSeverity: String) : List&lt;CVE&gt;</text></g><!--link Main to MainFrame--><g id="link_Main_MainFrame"><path codeLine="109" d="M897.1354,193.2812 C897.1354,212.474 897.1354,228.2943 897.1354,251.0417 " fill="none" id="Main-to-MainFrame" style="stroke:#181818;stroke-width:1.3020833333333333;"/><polygon fill="#181818" points="897.1354,258.8542,902.3438,247.1354,897.1354,252.3437,891.9271,247.1354,897.1354,258.8542" style="stroke:#181818;stroke-width:1.3020833333333333;"/></g><!--link MainFrame to CVEListPanel--><g id="link_MainFrame_CVEListPanel"><path codeLine="110" d="M1003.151,428.5677 C1035.8073,454.2708 1064.6418,476.9916 1093.7303,499.8822 " fill="none" id="MainFrame-to-CVEListPanel" style="stroke:#181818;stroke-width:1.3020833333333333;"/><polygon fill="#181818" points="1099.8698,504.7135,1093.8815,493.3735,1094.7536,500.6874,1087.4397,501.5595,1099.8698,504.7135" style="stroke:#181818;stroke-width:1.3020833333333333;"/></g><!--link MainFrame to FiltersFrame--><g id="link_MainFrame_FiltersFrame"><path codeLine="111" d="M806.4844,428.6458 C803.2161,431.9531 800,435.2474 796.875,438.5156 C776.8359,459.4792 760.8674,477.7147 743.3153,498.7303 " fill="none" id="MainFrame-to-FiltersFrame" style="stroke:#181818;stroke-width:1.3020833333333333;"/><polygon fill="#181818" points="738.3073,504.7266,749.8168,499.0709,742.4806,499.7297,741.8218,492.3935,738.3073,504.7266" style="stroke:#181818;stroke-width:1.3020833333333333;"/></g><!--link MainFrame to AlertsFrame--><g id="link_MainFrame_AlertsFrame"><path codeLine="112" d="M897.1354,428.5677 C897.1354,454.388 897.1354,474.2578 897.1354,497.2135 " fill="none" id="MainFrame-to-AlertsFrame" style="stroke:#181818;stroke-width:1.3020833333333333;"/><polygon fill="#181818" points="897.1354,505.026,902.3438,493.3073,897.1354,498.5156,891.9271,493.3073,897.1354,505.026" style="stroke:#181818;stroke-width:1.3020833333333333;"/></g><!--link MainFrame to AlertNotificationDialog--><g id="link_MainFrame_AlertNotificationDialog"><path codeLine="113" d="M749.7656,351.3411 C641.1589,360.599 492.1354,383.2943 372.3958,438.5156 C337.7604,454.4922 310.2299,475.6093 284.5008,499.3853 " fill="none" id="MainFrame-to-AlertNotificationDialog" style="stroke:#181818;stroke-width:1.3020833333333333;"/><polygon fill="#181818" points="278.763,504.6875,290.9045,500.5594,283.5445,500.269,283.8349,492.909,278.763,504.6875" style="stroke:#181818;stroke-width:1.3020833333333333;"/></g><!--link MainFrame to SettingsFrame--><g id="link_MainFrame_SettingsFrame"><path codeLine="114" d="M749.5833,374.388 C698.1771,388.724 641.7318,409.375 595.0521,438.5156 C567.4479,455.7552 547.169,475.5747 527.7419,498.6346 " fill="none" id="MainFrame-to-SettingsFrame" style="stroke:#181818;stroke-width:1.3020833333333333;"/><polygon fill="#181818" points="522.7083,504.6094,534.2419,499.0029,526.903,499.6304,526.2755,492.2914,522.7083,504.6094" style="stroke:#181818;stroke-width:1.3020833333333333;"/></g><!--link MainFrame to DatabaseService--><g id="link_MainFrame_DatabaseService"><path codeLine="115" d="M1044.7917,344.7526 C1447.6432,344.9349 2559.2448,353.3854 2914.0625,438.5156 C2947.5911,446.5625 2974.9133,455.8777 3007.4133,469.6146 " fill="none" id="MainFrame-to-DatabaseService" style="stroke:#181818;stroke-width:1.3020833333333333;"/><polygon fill="#181818" points="3014.6094,472.6563,3005.843,463.2964,3008.6126,470.1216,3001.7875,472.8912,3014.6094,472.6563" style="stroke:#181818;stroke-width:1.3020833333333333;"/></g><!--link MainFrame to User--><g id="link_MainFrame_User"><path codeLine="116" d="M1044.7396,356.6927 C1165.8203,369.2708 1324.401,393.8542 1369.7917,438.5156 C1408.8802,476.9661 1430.8911,608.1386 1442.8181,710.3131 " fill="none" id="MainFrame-to-User" style="stroke:#181818;stroke-width:1.3020833333333333;"/><polygon fill="#181818" points="1443.724,718.0729,1447.5384,705.8293,1442.9691,711.6064,1437.192,707.0371,1443.724,718.0729" style="stroke:#181818;stroke-width:1.3020833333333333;"/></g><!--link MainFrame to UserSettings--><g id="link_MainFrame_UserSettings"><path codeLine="117" d="M749.6745,351.6276 C527.7865,362.9818 129.2448,389.9349 85.9375,438.5156 C22.8255,509.3099 59.5573,560.8073 85.9375,651.9141 C129.6224,802.7604 142.2786,866.224 274.7396,950.5859 C387.5781,1022.4479 752.7273,1046.8307 966.2169,1055.164 " fill="none" id="MainFrame-to-UserSettings" style="stroke:#181818;stroke-width:1.3020833333333333;stroke-dasharray:7.0,7.0;"/><polygon fill="#181818" points="974.0234,1055.4687,962.5168,1049.8073,967.518,1055.2148,962.1105,1060.216,974.0234,1055.4687" style="stroke:#181818;stroke-width:1.3020833333333333;"/></g><!--link MainFrame to UserFilters--><g id="link_MainFrame_UserFilters"><path codeLine="118" d="M1044.7266,357.0964 C1156.6667,369.6094 1297.2396,393.8802 1333.3333,438.5156 C1363.151,475.3906 1362.513,614.5312 1333.3333,651.9141 C1321.5885,666.9661 1303.4115,647.2917 1291.6667,662.3307 C1212.8255,763.3073 1229.0104,838.8411 1291.6667,950.5859 C1300.3646,966.0938 1306.37,974.5353 1319.9377,986.3322 " fill="none" id="MainFrame-to-UserFilters" style="stroke:#181818;stroke-width:1.3020833333333333;stroke-dasharray:7.0,7.0;"/><polygon fill="#181818" points="1325.8333,991.4583,1320.4073,979.8388,1320.9203,987.1866,1313.5725,987.6996,1325.8333,991.4583" style="stroke:#181818;stroke-width:1.3020833333333333;"/></g><!--link FiltersFrame to UserFilters--><g id="link_FiltersFrame_UserFilters"><path codeLine="119" d="M725.1172,610.638 C776.3542,697.9948 893.0599,872.7604 1045.5729,950.5859 C1148.151,1002.9297 1192.7474,944.6484 1303.3854,976.6276 C1310.8333,978.776 1311.018,978.5781 1318.531,981.3125 " fill="none" id="FiltersFrame-to-UserFilters" style="stroke:#181818;stroke-width:1.3020833333333333;stroke-dasharray:7.0,7.0;"/><polygon fill="#181818" points="1325.8724,983.9844,1316.6416,975.0822,1319.7546,981.7578,1313.079,984.8708,1325.8724,983.9844" style="stroke:#181818;stroke-width:1.3020833333333333;"/></g><!--link AlertsFrame to UserAlerts--><g id="link_AlertsFrame_UserAlerts"><path codeLine="120" d="M930.4427,610.4557 C990.4948,698.3464 1126.1849,874.974 1291.6667,950.5859 C1431.5495,1014.4922 1490.2734,929.6354 1636.7188,976.6276 C1665.8073,985.9505 1688.6222,998.269 1712.6196,1014.2065 " fill="none" id="AlertsFrame-to-UserAlerts" style="stroke:#181818;stroke-width:1.3020833333333333;stroke-dasharray:7.0,7.0;"/><polygon fill="#181818" points="1719.1276,1018.5286,1712.2471,1007.7067,1713.7043,1014.9268,1706.4842,1016.384,1719.1276,1018.5286" style="stroke:#181818;stroke-width:1.3020833333333333;"/></g><!--link AlertNotificationDialog to UserSettings--><g id="link_AlertNotificationDialog_UserSettings"><path codeLine="121" d="M255.651,610.638 C302.4219,696.3672 408.2292,866.7057 549.4792,950.5859 C619.6875,992.2656 819.93,1023.4461 966.2321,1041.7143 " fill="none" id="AlertNotificationDialog-to-UserSettings" style="stroke:#181818;stroke-width:1.3020833333333333;stroke-dasharray:7.0,7.0;"/><polygon fill="#181818" points="973.9844,1042.6823,963.0013,1036.0621,967.5241,1041.8756,961.7106,1046.3985,973.9844,1042.6823" style="stroke:#181818;stroke-width:1.3020833333333333;"/></g><!--link SettingsFrame to UserSettings--><g id="link_SettingsFrame_UserSettings"><path codeLine="122" d="M519.0234,610.4557 C576.8099,692.8906 700.4948,854.7917 841.1458,950.5859 C881.276,977.9167 921.8625,996.9069 966.9276,1013.5215 " fill="none" id="SettingsFrame-to-UserSettings" style="stroke:#181818;stroke-width:1.3020833333333333;stroke-dasharray:7.0,7.0;"/><polygon fill="#181818" points="974.2578,1016.224,965.0642,1007.2834,968.1493,1013.9719,961.4609,1017.057,974.2578,1016.224" style="stroke:#181818;stroke-width:1.3020833333333333;"/></g><!--reverse link User to UserFilters--><g id="link_User_UserFilters"><path codeLine="123" d="M1463.5636,966.5505 C1464.1626,975.1182 1463.6589,968.0859 1464.2448,976.3932 " fill="none" id="User-backto-UserFilters" style="stroke:#181818;stroke-width:1.3020833333333333;"/><polygon fill="#181818" points="1462.474,950.9635,1457.8231,959.1202,1463.5636,966.5505,1468.2144,958.3938,1462.474,950.9635" style="stroke:#181818;stroke-width:1.3020833333333333;"/></g><!--reverse link User to UserAlerts--><g id="link_User_UserAlerts"><path codeLine="124" d="M1608.0641,943.5708 C1650.1344,973.089 1681.1589,994.8568 1714.8047,1018.4766 " fill="none" id="User-backto-UserAlerts" style="stroke:#181818;stroke-width:1.3020833333333333;"/><polygon fill="#181818" points="1595.2734,934.5964,1598.6773,943.3471,1608.0641,943.5708,1604.6602,934.82,1595.2734,934.5964" style="stroke:#181818;stroke-width:1.3020833333333333;"/></g><!--reverse link User to UserSettings--><g id="link_User_UserSettings"><path codeLine="125" d="M1300.5601,941.1483 C1279.3101,955.7055 1270.4427,961.7839 1249.6354,976.0286 " fill="none" id="User-backto-UserSettings" style="stroke:#181818;stroke-width:1.3020833333333333;"/><polygon fill="#181818" points="1313.4505,932.3177,1304.0618,932.4362,1300.5601,941.1483,1309.9488,941.0298,1313.4505,932.3177" style="stroke:#181818;stroke-width:1.3020833333333333;"/></g><!--link CVEListPanel to CVE--><g id="link_CVEListPanel_CVE"><path codeLine="126" d="M1311.6797,609.0885 C1364.3099,625.2734 1424.5052,641.6667 1480.4688,651.9141 C1510.7292,657.4609 1591.0677,648.4115 1618.4896,662.3307 C1648.9193,677.7734 1670.538,696.6435 1692.4651,722.6591 " fill="none" id="CVEListPanel-to-CVE" style="stroke:#181818;stroke-width:1.3020833333333333;"/><polygon fill="#181818" points="1697.5,728.6328,1693.9301,716.3157,1693.3043,723.6547,1685.9652,723.0289,1697.5,728.6328" style="stroke:#181818;stroke-width:1.3020833333333333;"/></g><!--link CVEFetcher to CVE--><g id="link_CVEFetcher_CVE"><path codeLine="127" d="M2965.7682,834.4531 C2606.4844,834.4531 2255,834.4531 1895.7161,834.4531 " fill="none" id="CVEFetcher-to-CVE" style="stroke:#181818;stroke-width:1.3020833333333333;stroke-dasharray:7.0,7.0;"/><polygon fill="#181818" points="1887.9036,834.4531,1899.6224,839.6615,1894.4141,834.4531,1899.6224,829.2448,1887.9036,834.4531" style="stroke:#181818;stroke-width:1.3020833333333333;"/></g><!--link DatabaseService to CVE--><g id="link_DatabaseService_CVE"><path codeLine="128" d="M2966.237,637.1224 C2948.7109,642.526 2931.1589,647.5521 2914.0625,651.9141 C2546.6797,745.612 2107.9923,798.5178 1895.7136,820.51 " fill="none" id="DatabaseService-to-CVE" style="stroke:#181818;stroke-width:1.3020833333333333;stroke-dasharray:7.0,7.0;"/><polygon fill="#181818" points="1887.9427,821.3151,1900.1358,825.2881,1894.4185,820.6442,1899.0624,814.9269,1887.9427,821.3151" style="stroke:#181818;stroke-width:1.3020833333333333;"/></g><!--link DatabaseService to CVEFetcher--><g id="link_DatabaseService_CVEFetcher"><path codeLine="129" d="M3225.1693,642.2917 C3252.7474,687.6823 3281.9326,735.7193 3305.7477,774.912 " fill="none" id="DatabaseService-to-CVEFetcher" style="stroke:#181818;stroke-width:1.3020833333333333;"/><polygon fill="#181818" points="3309.8047,781.5885,3308.1703,768.8691,3306.4239,776.0247,3299.2682,774.2783,3309.8047,781.5885" style="stroke:#181818;stroke-width:1.3020833333333333;"/></g><!--link NotificationService to User--><g id="link_NotificationService_User"><path codeLine="130" d="M2972.7083,349.0104 C2541.6406,358.6849 1532.7865,386.7448 1480.4688,438.5156 C1408.724,509.5052 1409.5022,621.3815 1424.2678,710.3528 " fill="none" id="NotificationService-to-User" style="stroke:#181818;stroke-width:1.3020833333333333;stroke-dasharray:7.0,7.0;"/><polygon fill="#181818" points="1425.5469,718.0599,1428.7663,705.6466,1424.481,711.6373,1418.4902,707.352,1425.5469,718.0599" style="stroke:#181818;stroke-width:1.3020833333333333;"/></g><!--link NotificationService to DatabaseService--><g id="link_NotificationService_DatabaseService"><path codeLine="131" d="M3167.1224,385.8203 C3168.1901,410.5078 3169.2471,435.1244 3170.5361,465.0463 " fill="none" id="NotificationService-to-DatabaseService" style="stroke:#181818;stroke-width:1.3020833333333333;"/><polygon fill="#181818" points="3170.8724,472.8516,3175.5715,460.9195,3170.5922,466.3472,3165.1645,461.3678,3170.8724,472.8516" style="stroke:#181818;stroke-width:1.3020833333333333;"/></g><!--link Filters to CVE--><g id="link_Filters_CVE"><path codeLine="132" d="M1961.6146,621.1198 C1932.0573,652.8906 1900.622,686.677 1866.872,722.94 " fill="none" id="Filters-to-CVE" style="stroke:#181818;stroke-width:1.3020833333333333;stroke-dasharray:7.0,7.0;"/><polygon fill="#181818" points="1861.5495,728.6589,1873.3459,723.6289,1865.9849,723.8931,1865.7207,716.5322,1861.5495,728.6589" style="stroke:#181818;stroke-width:1.3020833333333333;"/></g><!--link APIUtils to CVEFetcher--><g id="link_APIUtils_CVEFetcher"><path codeLine="133" d="M2828.8672,600.0911 C2935.3646,648.5417 3105.1023,725.7624 3220.6231,778.3145 " fill="none" id="APIUtils-to-CVEFetcher" style="stroke:#181818;stroke-width:1.3020833333333333;stroke-dasharray:7.0,7.0;"/><polygon fill="#181818" points="3227.7344,781.5495,3219.2242,771.9561,3221.8083,778.8536,3214.9108,781.4378,3227.7344,781.5495" style="stroke:#181818;stroke-width:1.3020833333333333;"/></g><!--SRC=[bLVBRjiw4DtxAuIid2OERWjqKnG1yWHSf4rGDTrSN5mmqbXXJP4gIRamYlvxXn9fKHGPEruayPpX6Sw3CnErfhmXajHPGuergU0RrGmk6Aru3Lnd35PwfdPAPKEpj-_UUn99-5f1axtxPpQp5DbH8UgpJSjuBJZLGXvblsSPVheV1IDAPPy9vLPgFYSrVfyJMQaFMQubvTM__nrtw9_Xv8w-QkcHTtXWlCKRWOTqr3jWVZm6A5xkIjIDuEYf2b6bYTHNtszkGHVFUA4Gby04AL7XccWIWWt8bP1r3aGMp_EVBSYjSspG_1DuW5ntLEa7me65JlXOQAnjIgB1mFDY0nX1y-T7F76UjdLBcGQfeW7piT0MQHgsjGhpDFq50wdZx1uK9U_nVTnVXAOhMX1D1R-cX8agQcUgDaapsK0EMcDcNZBgLA8kZS1N6OXLTorAODFwndm6TXUqp3vaIwwX0Zb6i0x-xz2-viPW2QgGj34nIMWes82aUfk0oMe5XORoGOgoBNH2gscV65NFKE830TGnlyQXgK1VWoQKOM2c964A7XN8C08jofR9A1YKctp5BmZOT5ZgycZnbv2f41fc-mfGut7uDbNhwzbgzL-cIgv0h9hxEWcN0PTy9GwDbxjZ43QXUc1F-bzKQlha3r7ekawlUHxKAIzOMy9NK89jmCJqKWW6X4_yisolST76z_U4gmTUGxNBGX0kxdKHTSF94qiwiK0oVISgocCLloY9N7_6zxs7f9izRVEobgk7eRcal8nr6JoueGMeQAFfPjxajPsiZFWEdL9cCAgvyHMzoSrjZQ_E_6bcaHjU-lBZp9jD4MeKNswNfPbYoz8_z2c__tB_z0ERJZ9_VgVFUz_2wolWPLSKS_Fa-fTscjMW54Pa_tWsS_w9A4Ym5u9pl62i_Rib8JcTNJftsqGwKBrMF4m8X1wR_SEnZjUGg0bNB-DQQJMsw6cXN3mi7mqIHg8cQq3iYZ0sRoNpBUvvXF5sTRBgn9VR-pmCuMccW7Mpw3u_fCeiKMuRN9hEQHn0Ebg93hZV8BFpSmeSPjqb2zFLhTEBnVcm1S-6VTZ8_VqnWFnrBu2yNIs6JBUhG6kq60LOy9m2rBnDJtHsTZuUZ5F83U3HPXk2_bxgC3kJKslbnFHu5Pp0tPhoPh4OsHq9hS6HR7Tyz4-0pTpCQyd6dX65tIWbjnJs-2pM9fqBKJ2MAlTCdSrT8x02Q-ml]--></g></svg>