<?xml version="1.0" encoding="us-ascii" standalone="no"?><svg xmlns="http://www.w3.org/2000/svg" xmlns:xlink="http://www.w3.org/1999/xlink" contentStyleType="text/css" height="1451.8229px" preserveAspectRatio="none" style="width:4252px;height:1451px;background:#FFFFFF;" version="1.1" viewBox="0 0 4252 1451" width="4252.6042px" zoomAndPan="magnify"><defs/><g><!--cluster com--><g id="cluster_com"><path d="M11.0677,7.8125 L55.3385,7.8125 A4.8828,4.8828 0 0 1 58.5938,11.0677 L67.7083,36.8449 L4208.9844,36.8449 A3.2552,3.2552 0 0 1 4212.2396,40.1001 L4212.2396,1439.5703 A3.2552,3.2552 0 0 1 4208.9844,1442.8255 L11.0677,1442.8255 A3.2552,3.2552 0 0 1 7.8125,1439.5703 L7.8125,11.0677 A3.2552,3.2552 0 0 1 11.0677,7.8125 " fill="none" style="stroke:#000000;stroke-width:1.953125;"/><line style="stroke:#000000;stroke-width:1.953125;" x1="7.8125" x2="67.7083" y1="36.8449" y2="36.8449"/><text fill="#000000" font-family="sans-serif" font-size="18.2292" font-weight="bold" lengthAdjust="spacing" textLength="42.9688" x="13.0208" y="27.3374">com</text></g><!--cluster vulnmonitor--><g id="cluster_vulnmonitor"><path d="M42.3177,63.8021 L166.0156,63.8021 A4.8828,4.8828 0 0 1 169.2708,67.0573 L178.3854,92.8345 L4177.7344,92.8345 A3.2552,3.2552 0 0 1 4180.9896,96.0897 L4180.9896,1408.3203 A3.2552,3.2552 0 0 1 4177.7344,1411.5755 L42.3177,1411.5755 A3.2552,3.2552 0 0 1 39.0625,1408.3203 L39.0625,67.0573 A3.2552,3.2552 0 0 1 42.3177,63.8021 " fill="none" style="stroke:#000000;stroke-width:1.953125;"/><line style="stroke:#000000;stroke-width:1.953125;" x1="39.0625" x2="178.3854" y1="92.8345" y2="92.8345"/><text fill="#000000" font-family="sans-serif" font-size="18.2292" font-weight="bold" lengthAdjust="spacing" textLength="122.3958" x="44.2708" y="83.327">vulnmonitor</text></g><!--cluster gui--><g id="cluster_gui"><path d="M138.6719,383.6849 L171.224,383.6849 A4.8828,4.8828 0 0 1 174.4792,386.9401 L183.5938,412.7173 L1776.6927,412.7173 A3.2552,3.2552 0 0 1 1779.9479,415.9725 L1779.9479,841.901 A3.2552,3.2552 0 0 1 1776.6927,845.1562 L138.6719,845.1562 A3.2552,3.2552 0 0 1 135.4167,841.901 L135.4167,386.9401 A3.2552,3.2552 0 0 1 138.6719,383.6849 " fill="none" style="stroke:#000000;stroke-width:1.953125;"/><line style="stroke:#000000;stroke-width:1.953125;" x1="135.4167" x2="183.5938" y1="412.7173" y2="412.7173"/><text fill="#000000" font-family="sans-serif" font-size="18.2292" font-weight="bold" lengthAdjust="spacing" textLength="31.25" x="140.625" y="403.2098">gui</text></g><!--cluster model--><g id="cluster_model"><path d="M1544.9219,887.0182 L1608.724,887.0182 A4.8828,4.8828 0 0 1 1611.9792,890.2734 L1621.0938,916.0506 L2492.8385,916.0506 A3.2552,3.2552 0 0 1 2496.0938,919.3058 L2496.0938,1377.0703 A3.2552,3.2552 0 0 1 2492.8385,1380.3255 L1544.9219,1380.3255 A3.2552,3.2552 0 0 1 1541.6667,1377.0703 L1541.6667,890.2734 A3.2552,3.2552 0 0 1 1544.9219,887.0182 " fill="none" style="stroke:#000000;stroke-width:1.953125;"/><line style="stroke:#000000;stroke-width:1.953125;" x1="1541.6667" x2="1621.0938" y1="916.0506" y2="916.0506"/><text fill="#000000" font-family="sans-serif" font-size="18.2292" font-weight="bold" lengthAdjust="spacing" textLength="62.5" x="1546.875" y="906.5431">model</text></g><!--cluster services--><g id="cluster_services"><path d="M3296.224,148.6719 L3384.7656,148.6719 A4.8828,4.8828 0 0 1 3388.0208,151.9271 L3397.1354,177.7043 L4081.3802,177.7043 A3.2552,3.2552 0 0 1 4084.6354,180.9595 L4084.6354,852.513 A3.2552,3.2552 0 0 1 4081.3802,855.7682 L3296.224,855.7682 A3.2552,3.2552 0 0 1 3292.9688,852.513 L3292.9688,151.9271 A3.2552,3.2552 0 0 1 3296.224,148.6719 " fill="none" style="stroke:#000000;stroke-width:1.953125;"/><line style="stroke:#000000;stroke-width:1.953125;" x1="3292.9688" x2="3397.1354" y1="177.7043" y2="177.7043"/><text fill="#000000" font-family="sans-serif" font-size="18.2292" font-weight="bold" lengthAdjust="spacing" textLength="87.2396" x="3298.1771" y="168.1968">services</text></g><!--cluster utils--><g id="cluster_utils"><path d="M1831.3802,447.3437 L1875.651,447.3437 A4.8828,4.8828 0 0 1 1878.9063,450.599 L1888.0208,476.3761 L3258.4635,476.3761 A3.2552,3.2552 0 0 1 3261.7188,479.6313 L3261.7188,636.6536 A3.2552,3.2552 0 0 1 3258.4635,639.9089 L1831.3802,639.9089 A3.2552,3.2552 0 0 1 1828.125,636.6536 L1828.125,450.599 A3.2552,3.2552 0 0 1 1831.3802,447.3437 " fill="none" style="stroke:#000000;stroke-width:1.953125;"/><line style="stroke:#000000;stroke-width:1.953125;" x1="1828.125" x2="1888.0208" y1="476.3761" y2="476.3761"/><text fill="#000000" font-family="sans-serif" font-size="18.2292" font-weight="bold" lengthAdjust="spacing" textLength="42.9688" x="1833.3333" y="466.8686">utils</text></g><!--class Main--><g id="elem_Main"><rect codeLine="7" fill="#F1F1F1" height="253.479" id="Main" rx="3.2552" ry="3.2552" style="stroke:#181818;stroke-width:0.6510416666666666;" width="427.0833" x="2153.6458" y="109.375"/><ellipse cx="2340.8203" cy="130.2083" fill="#ADD1B2" rx="14.3229" ry="14.3229" style="stroke:#181818;stroke-width:1.3020833333333333;"/><path d="M2344.6859,137.5529 Q2343.9331,137.9395 2343.099,138.1226 Q2342.2648,138.326 2341.3493,138.326 Q2338.0941,138.326 2336.3647,136.1898 Q2334.6558,134.0332 2334.6558,129.9642 Q2334.6558,125.8952 2336.3647,123.7386 Q2338.0941,121.582 2341.3493,121.582 Q2342.2648,121.582 2343.099,121.7855 Q2343.9535,121.9889 2344.6859,122.3755 L2344.6859,125.9155 Q2343.8721,125.1628 2343.099,124.8169 Q2342.3258,124.4507 2341.512,124.4507 Q2339.7624,124.4507 2338.8672,125.8545 Q2337.972,127.238 2337.972,129.9642 Q2337.972,132.6904 2338.8672,134.0942 Q2339.7624,135.4777 2341.512,135.4777 Q2342.3258,135.4777 2343.099,135.1318 Q2343.8721,134.7656 2344.6859,134.0129 L2344.6859,137.5529 Z " fill="#000000"/><text fill="#000000" font-family="sans-serif" font-size="18.2292" lengthAdjust="spacing" textLength="41.6667" x="2367.513" y="136.5191">Main</text><line style="stroke:#181818;stroke-width:0.6510416666666666;" x1="2154.9479" x2="2579.4271" y1="151.0417" y2="151.0417"/><line style="stroke:#181818;stroke-width:0.6510416666666666;" x1="2154.9479" x2="2579.4271" y1="161.4583" y2="161.4583"/><ellipse cx="2167.9688" cy="179.2297" fill="#84BE84" rx="3.9063" ry="3.9063" style="stroke:#038048;stroke-width:1.3020833333333333;"/><text fill="#000000" font-family="sans-serif" font-size="18.2292" lengthAdjust="spacing" textLength="171.875" x="2179.6875" y="183.5874">main(args: String[])</text><ellipse cx="2167.9688" cy="200.4496" fill="#84BE84" rx="3.9063" ry="3.9063" style="stroke:#038048;stroke-width:1.3020833333333333;"/><text fill="#000000" font-family="sans-serif" font-size="18.2292" lengthAdjust="spacing" textLength="88.5417" x="2179.6875" y="204.8073">startApp()</text><ellipse cx="2167.9688" cy="221.6695" fill="#84BE84" rx="3.9063" ry="3.9063" style="stroke:#038048;stroke-width:1.3020833333333333;"/><text fill="#000000" font-family="sans-serif" font-size="18.2292" lengthAdjust="spacing" textLength="393.2292" x="2179.6875" y="226.0272">startCVEFetching(isManualReload: boolean)</text><ellipse cx="2167.9688" cy="242.8894" fill="#84BE84" rx="3.9063" ry="3.9063" style="stroke:#038048;stroke-width:1.3020833333333333;"/><text fill="#000000" font-family="sans-serif" font-size="18.2292" lengthAdjust="spacing" textLength="147.1354" x="2179.6875" y="247.2471">reloadCVEData()</text><ellipse cx="2167.9688" cy="264.1093" fill="#84BE84" rx="3.9063" ry="3.9063" style="stroke:#038048;stroke-width:1.3020833333333333;"/><text fill="#000000" font-family="sans-serif" font-size="18.2292" lengthAdjust="spacing" textLength="260.4167" x="2179.6875" y="268.4669">performSearch(query: String)</text><ellipse cx="2167.9688" cy="285.3292" fill="#84BE84" rx="3.9063" ry="3.9063" style="stroke:#038048;stroke-width:1.3020833333333333;"/><text fill="#000000" font-family="sans-serif" font-size="18.2292" lengthAdjust="spacing" textLength="240.8854" x="2179.6875" y="289.6868">showCVEInfo(cveId: String)</text><ellipse cx="2167.9688" cy="306.5491" fill="#84BE84" rx="3.9063" ry="3.9063" style="stroke:#038048;stroke-width:1.3020833333333333;"/><text fill="#000000" font-family="sans-serif" font-size="18.2292" lengthAdjust="spacing" textLength="160.1563" x="2179.6875" y="310.9067">showFilterFrame()</text><ellipse cx="2167.9688" cy="327.769" fill="#84BE84" rx="3.9063" ry="3.9063" style="stroke:#038048;stroke-width:1.3020833333333333;"/><text fill="#000000" font-family="sans-serif" font-size="18.2292" lengthAdjust="spacing" textLength="167.9688" x="2179.6875" y="332.1266">showAlertsFrame()</text><ellipse cx="2167.9688" cy="348.9889" fill="#84BE84" rx="3.9063" ry="3.9063" style="stroke:#038048;stroke-width:1.3020833333333333;"/><text fill="#000000" font-family="sans-serif" font-size="18.2292" lengthAdjust="spacing" textLength="191.4063" x="2179.6875" y="353.3465">showSettingsFrame()</text></g><!--class MainFrame--><g id="elem_MainFrame"><rect codeLine="20" fill="#F1F1F1" height="253.479" id="MainFrame" rx="3.2552" ry="3.2552" style="stroke:#181818;stroke-width:0.6510416666666666;" width="602.8646" x="1151.6927" y="429.2578"/><ellipse cx="1398.763" cy="450.0911" fill="#ADD1B2" rx="14.3229" ry="14.3229" style="stroke:#181818;stroke-width:1.3020833333333333;"/><path d="M1402.6286,457.4357 Q1401.8758,457.8223 1401.0417,458.0054 Q1400.2075,458.2088 1399.292,458.2088 Q1396.0368,458.2088 1394.3075,456.0726 Q1392.5985,453.916 1392.5985,449.847 Q1392.5985,445.778 1394.3075,443.6214 Q1396.0368,441.4648 1399.292,441.4648 Q1400.2075,441.4648 1401.0417,441.6683 Q1401.8962,441.8717 1402.6286,442.2583 L1402.6286,445.7983 Q1401.8148,445.0456 1401.0417,444.6997 Q1400.2686,444.3335 1399.4548,444.3335 Q1397.7051,444.3335 1396.8099,445.7373 Q1395.9147,447.1208 1395.9147,449.847 Q1395.9147,452.5732 1396.8099,453.9771 Q1397.7051,455.3605 1399.4548,455.3605 Q1400.2686,455.3605 1401.0417,455.0146 Q1401.8148,454.6484 1402.6286,453.8957 L1402.6286,457.4357 Z " fill="#000000"/><text fill="#000000" font-family="sans-serif" font-size="18.2292" lengthAdjust="spacing" textLength="97.6563" x="1425.4557" y="456.4019">MainFrame</text><line style="stroke:#181818;stroke-width:0.6510416666666666;" x1="1152.9948" x2="1753.2552" y1="470.9245" y2="470.9245"/><line style="stroke:#181818;stroke-width:0.6510416666666666;" x1="1152.9948" x2="1753.2552" y1="481.3411" y2="481.3411"/><ellipse cx="1166.0156" cy="499.1125" fill="#84BE84" rx="3.9063" ry="3.9063" style="stroke:#038048;stroke-width:1.3020833333333333;"/><text fill="#000000" font-family="sans-serif" font-size="18.2292" lengthAdjust="spacing" textLength="352.8646" x="1177.7344" y="503.4702">MainFrame(controller: Main, user: User)</text><ellipse cx="1166.0156" cy="520.3324" fill="#84BE84" rx="3.9063" ry="3.9063" style="stroke:#038048;stroke-width:1.3020833333333333;"/><text fill="#000000" font-family="sans-serif" font-size="18.2292" lengthAdjust="spacing" textLength="156.25" x="1177.7344" y="524.6901">initComponents()</text><ellipse cx="1166.0156" cy="541.5523" fill="#84BE84" rx="3.9063" ry="3.9063" style="stroke:#038048;stroke-width:1.3020833333333333;"/><text fill="#000000" font-family="sans-serif" font-size="18.2292" lengthAdjust="spacing" textLength="268.2292" x="1177.7344" y="545.91">updateProgressBar(value: int)</text><ellipse cx="1166.0156" cy="562.7722" fill="#84BE84" rx="3.9063" ry="3.9063" style="stroke:#038048;stroke-width:1.3020833333333333;"/><text fill="#000000" font-family="sans-serif" font-size="18.2292" lengthAdjust="spacing" textLength="162.7604" x="1177.7344" y="567.1299">hideProgressBar()</text><ellipse cx="1166.0156" cy="583.9921" fill="#84BE84" rx="3.9063" ry="3.9063" style="stroke:#038048;stroke-width:1.3020833333333333;"/><text fill="#000000" font-family="sans-serif" font-size="18.2292" lengthAdjust="spacing" textLength="269.5313" x="1177.7344" y="588.3498">showProgressBar(text: String)</text><ellipse cx="1166.0156" cy="605.212" fill="#84BE84" rx="3.9063" ry="3.9063" style="stroke:#038048;stroke-width:1.3020833333333333;"/><text fill="#000000" font-family="sans-serif" font-size="18.2292" lengthAdjust="spacing" textLength="333.3333" x="1177.7344" y="609.5697">updateCVETable(cveList: List&lt;CVE&gt;)</text><ellipse cx="1166.0156" cy="626.4319" fill="#84BE84" rx="3.9063" ry="3.9063" style="stroke:#038048;stroke-width:1.3020833333333333;"/><text fill="#000000" font-family="sans-serif" font-size="18.2292" lengthAdjust="spacing" textLength="209.6354" x="1177.7344" y="630.7895">showCVEInfo(cve: CVE)</text><ellipse cx="1166.0156" cy="647.6518" fill="#84BE84" rx="3.9063" ry="3.9063" style="stroke:#038048;stroke-width:1.3020833333333333;"/><text fill="#000000" font-family="sans-serif" font-size="18.2292" lengthAdjust="spacing" textLength="569.0104" x="1177.7344" y="652.0094">showMessage(message: String, title: String, messageType: int)</text><ellipse cx="1166.0156" cy="668.8717" fill="#84BE84" rx="3.9063" ry="3.9063" style="stroke:#038048;stroke-width:1.3020833333333333;"/><text fill="#000000" font-family="sans-serif" font-size="18.2292" lengthAdjust="spacing" textLength="395.8333" x="1177.7344" y="673.2293">setReloadButtonEnabled(enabled: boolean)</text></g><!--class CVEInfoFrame--><g id="elem_CVEInfoFrame"><rect codeLine="31" fill="#F1F1F1" height="83.7199" id="CVEInfoFrame" rx="3.2552" ry="3.2552" style="stroke:#181818;stroke-width:0.6510416666666666;" width="251.3021" x="1507.1615" y="730"/><ellipse cx="1564.7786" cy="750.8333" fill="#ADD1B2" rx="14.3229" ry="14.3229" style="stroke:#181818;stroke-width:1.3020833333333333;"/><path d="M1568.6442,758.1779 Q1567.8914,758.5645 1567.0573,758.7476 Q1566.2231,758.951 1565.3076,758.951 Q1562.0524,758.951 1560.3231,756.8148 Q1558.6141,754.6582 1558.6141,750.5892 Q1558.6141,746.5202 1560.3231,744.3636 Q1562.0524,742.207 1565.3076,742.207 Q1566.2231,742.207 1567.0573,742.4105 Q1567.9118,742.6139 1568.6442,743.0005 L1568.6442,746.5405 Q1567.8304,745.7878 1567.0573,745.4419 Q1566.2842,745.0757 1565.4704,745.0757 Q1563.7207,745.0757 1562.8255,746.4795 Q1561.9303,747.863 1561.9303,750.5892 Q1561.9303,753.3154 1562.8255,754.7192 Q1563.7207,756.1027 1565.4704,756.1027 Q1566.2842,756.1027 1567.0573,755.7568 Q1567.8304,755.3906 1568.6442,754.6379 L1568.6442,758.1779 Z " fill="#000000"/><text fill="#000000" font-family="sans-serif" font-size="18.2292" lengthAdjust="spacing" textLength="125" x="1591.4714" y="757.1441">CVEInfoFrame</text><line style="stroke:#181818;stroke-width:0.6510416666666666;" x1="1508.4635" x2="1757.1615" y1="771.6667" y2="771.6667"/><line style="stroke:#181818;stroke-width:0.6510416666666666;" x1="1508.4635" x2="1757.1615" y1="782.0833" y2="782.0833"/><ellipse cx="1521.4844" cy="799.8547" fill="#84BE84" rx="3.9063" ry="3.9063" style="stroke:#038048;stroke-width:1.3020833333333333;"/><text fill="#000000" font-family="sans-serif" font-size="18.2292" lengthAdjust="spacing" textLength="217.4479" x="1533.2031" y="804.2124">CVEInfoFrame(cve: CVE)</text></g><!--class FiltersFrame--><g id="elem_FiltersFrame"><rect codeLine="34" fill="#F1F1F1" height="104.9398" id="FiltersFrame" rx="3.2552" ry="3.2552" style="stroke:#181818;stroke-width:0.6510416666666666;" width="398.4375" x="1062.5" y="719.388"/><ellipse cx="1201.4974" cy="740.2214" fill="#ADD1B2" rx="14.3229" ry="14.3229" style="stroke:#181818;stroke-width:1.3020833333333333;"/><path d="M1205.363,747.5659 Q1204.6102,747.9525 1203.776,748.1356 Q1202.9419,748.339 1202.0264,748.339 Q1198.7712,748.339 1197.0418,746.2028 Q1195.3328,744.0462 1195.3328,739.9772 Q1195.3328,735.9082 1197.0418,733.7516 Q1198.7712,731.5951 1202.0264,731.5951 Q1202.9419,731.5951 1203.776,731.7985 Q1204.6305,732.002 1205.363,732.3885 L1205.363,735.9285 Q1204.5492,735.1758 1203.776,734.8299 Q1203.0029,734.4637 1202.1891,734.4637 Q1200.4395,734.4637 1199.5443,735.8675 Q1198.6491,737.251 1198.6491,739.9772 Q1198.6491,742.7035 1199.5443,744.1073 Q1200.4395,745.4907 1202.1891,745.4907 Q1203.0029,745.4907 1203.776,745.1449 Q1204.5492,744.7786 1205.363,744.0259 L1205.363,747.5659 Z " fill="#000000"/><text fill="#000000" font-family="sans-serif" font-size="18.2292" lengthAdjust="spacing" textLength="109.375" x="1228.1901" y="746.5321">FiltersFrame</text><line style="stroke:#181818;stroke-width:0.6510416666666666;" x1="1063.8021" x2="1459.6354" y1="761.0547" y2="761.0547"/><line style="stroke:#181818;stroke-width:0.6510416666666666;" x1="1063.8021" x2="1459.6354" y1="771.4714" y2="771.4714"/><ellipse cx="1076.8229" cy="789.2428" fill="#84BE84" rx="3.9063" ry="3.9063" style="stroke:#038048;stroke-width:1.3020833333333333;"/><text fill="#000000" font-family="sans-serif" font-size="18.2292" lengthAdjust="spacing" textLength="364.5833" x="1088.5417" y="793.6004">FiltersFrame(controller: Main, user: User)</text><ellipse cx="1076.8229" cy="810.4626" fill="#84BE84" rx="3.9063" ry="3.9063" style="stroke:#038048;stroke-width:1.3020833333333333;"/><text fill="#000000" font-family="sans-serif" font-size="18.2292" lengthAdjust="spacing" textLength="113.2813" x="1088.5417" y="814.8203">applyFilters()</text></g><!--class AlertsFrame--><g id="elem_AlertsFrame"><rect codeLine="38" fill="#F1F1F1" height="104.9398" id="AlertsFrame" rx="3.2552" ry="3.2552" style="stroke:#181818;stroke-width:0.6510416666666666;" width="395.8333" x="156.25" y="719.388"/><ellipse cx="295.2474" cy="740.2214" fill="#ADD1B2" rx="14.3229" ry="14.3229" style="stroke:#181818;stroke-width:1.3020833333333333;"/><path d="M299.113,747.5659 Q298.3602,747.9525 297.526,748.1356 Q296.6919,748.339 295.7764,748.339 Q292.5212,748.339 290.7918,746.2028 Q289.0828,744.0462 289.0828,739.9772 Q289.0828,735.9082 290.7918,733.7516 Q292.5212,731.5951 295.7764,731.5951 Q296.6919,731.5951 297.526,731.7985 Q298.3805,732.002 299.113,732.3885 L299.113,735.9285 Q298.2992,735.1758 297.526,734.8299 Q296.7529,734.4637 295.9391,734.4637 Q294.1895,734.4637 293.2943,735.8675 Q292.3991,737.251 292.3991,739.9772 Q292.3991,742.7035 293.2943,744.1073 Q294.1895,745.4907 295.9391,745.4907 Q296.7529,745.4907 297.526,745.1449 Q298.2992,744.7786 299.113,744.0259 L299.113,747.5659 Z " fill="#000000"/><text fill="#000000" font-family="sans-serif" font-size="18.2292" lengthAdjust="spacing" textLength="106.7708" x="321.9401" y="746.5321">AlertsFrame</text><line style="stroke:#181818;stroke-width:0.6510416666666666;" x1="157.5521" x2="550.7813" y1="761.0547" y2="761.0547"/><line style="stroke:#181818;stroke-width:0.6510416666666666;" x1="157.5521" x2="550.7813" y1="771.4714" y2="771.4714"/><ellipse cx="170.5729" cy="789.2428" fill="#84BE84" rx="3.9063" ry="3.9063" style="stroke:#038048;stroke-width:1.3020833333333333;"/><text fill="#000000" font-family="sans-serif" font-size="18.2292" lengthAdjust="spacing" textLength="361.9792" x="182.2917" y="793.6004">AlertsFrame(controller: Main, user: User)</text><ellipse cx="170.5729" cy="810.4626" fill="#84BE84" rx="3.9063" ry="3.9063" style="stroke:#038048;stroke-width:1.3020833333333333;"/><text fill="#000000" font-family="sans-serif" font-size="18.2292" lengthAdjust="spacing" textLength="110.6771" x="182.2917" y="814.8203">applyAlerts()</text></g><!--class AlertNotificationDialog--><g id="elem_AlertNotificationDialog"><rect codeLine="42" fill="#F1F1F1" height="104.9398" id="AlertNotificationDialog" rx="3.2552" ry="3.2552" style="stroke:#181818;stroke-width:0.6510416666666666;" width="242.1875" x="156.25" y="503.5286"/><ellipse cx="178.125" cy="524.362" fill="#ADD1B2" rx="14.3229" ry="14.3229" style="stroke:#181818;stroke-width:1.3020833333333333;"/><path d="M181.9906,531.7065 Q181.2378,532.0931 180.4036,532.2762 Q179.5695,532.4797 178.654,532.4797 Q175.3988,532.4797 173.6694,530.3434 Q171.9604,528.1868 171.9604,524.1178 Q171.9604,520.0488 173.6694,517.8923 Q175.3988,515.7357 178.654,515.7357 Q179.5695,515.7357 180.4036,515.9391 Q181.2581,516.1426 181.9906,516.5291 L181.9906,520.0692 Q181.1768,519.3164 180.4036,518.9705 Q179.6305,518.6043 178.8167,518.6043 Q177.0671,518.6043 176.1719,520.0081 Q175.2767,521.3916 175.2767,524.1178 Q175.2767,526.8441 176.1719,528.2479 Q177.0671,529.6313 178.8167,529.6313 Q179.6305,529.6313 180.4036,529.2855 Q181.1768,528.9193 181.9906,528.1665 L181.9906,531.7065 Z " fill="#000000"/><text fill="#000000" font-family="sans-serif" font-size="18.2292" lengthAdjust="spacing" textLength="195.3125" x="196.875" y="530.6728">AlertNotificationDialog</text><line style="stroke:#181818;stroke-width:0.6510416666666666;" x1="157.5521" x2="397.1354" y1="545.1953" y2="545.1953"/><line style="stroke:#181818;stroke-width:0.6510416666666666;" x1="157.5521" x2="397.1354" y1="555.612" y2="555.612"/><ellipse cx="170.5729" cy="573.3834" fill="#84BE84" rx="3.9063" ry="3.9063" style="stroke:#038048;stroke-width:1.3020833333333333;"/><text fill="#000000" font-family="sans-serif" font-size="18.2292" lengthAdjust="spacing" textLength="208.3333" x="182.2917" y="577.741">AlertNotificationDialog()</text><ellipse cx="170.5729" cy="594.6033" fill="#84BE84" rx="3.9063" ry="3.9063" style="stroke:#038048;stroke-width:1.3020833333333333;"/><text fill="#000000" font-family="sans-serif" font-size="18.2292" lengthAdjust="spacing" textLength="128.9063" x="182.2917" y="598.9609">saveSettings()</text></g><!--class SettingsFrame--><g id="elem_SettingsFrame"><rect codeLine="46" fill="#F1F1F1" height="104.9398" id="SettingsFrame" rx="3.2552" ry="3.2552" style="stroke:#181818;stroke-width:0.6510416666666666;" width="419.2708" x="597.6563" y="719.388"/><ellipse cx="736.6536" cy="740.2214" fill="#ADD1B2" rx="14.3229" ry="14.3229" style="stroke:#181818;stroke-width:1.3020833333333333;"/><path d="M740.5192,747.5659 Q739.7664,747.9525 738.9323,748.1356 Q738.0981,748.339 737.1826,748.339 Q733.9274,748.339 732.1981,746.2028 Q730.4891,744.0462 730.4891,739.9772 Q730.4891,735.9082 732.1981,733.7516 Q733.9274,731.5951 737.1826,731.5951 Q738.0981,731.5951 738.9323,731.7985 Q739.7868,732.002 740.5192,732.3885 L740.5192,735.9285 Q739.7054,735.1758 738.9323,734.8299 Q738.1592,734.4637 737.3454,734.4637 Q735.5957,734.4637 734.7005,735.8675 Q733.8053,737.251 733.8053,739.9772 Q733.8053,742.7035 734.7005,744.1073 Q735.5957,745.4907 737.3454,745.4907 Q738.1592,745.4907 738.9323,745.1449 Q739.7054,744.7786 740.5192,744.0259 L740.5192,747.5659 Z " fill="#000000"/><text fill="#000000" font-family="sans-serif" font-size="18.2292" lengthAdjust="spacing" textLength="130.2083" x="763.3464" y="746.5321">SettingsFrame</text><line style="stroke:#181818;stroke-width:0.6510416666666666;" x1="598.9583" x2="1015.625" y1="761.0547" y2="761.0547"/><line style="stroke:#181818;stroke-width:0.6510416666666666;" x1="598.9583" x2="1015.625" y1="771.4714" y2="771.4714"/><ellipse cx="611.9792" cy="789.2428" fill="#84BE84" rx="3.9063" ry="3.9063" style="stroke:#038048;stroke-width:1.3020833333333333;"/><text fill="#000000" font-family="sans-serif" font-size="18.2292" lengthAdjust="spacing" textLength="385.4167" x="623.6979" y="793.6004">SettingsFrame(controller: Main, user: User)</text><ellipse cx="611.9792" cy="810.4626" fill="#84BE84" rx="3.9063" ry="3.9063" style="stroke:#038048;stroke-width:1.3020833333333333;"/><text fill="#000000" font-family="sans-serif" font-size="18.2292" lengthAdjust="spacing" textLength="128.9063" x="623.6979" y="814.8203">saveSettings()</text></g><!--class CVE--><g id="elem_CVE"><rect codeLine="53" fill="#F1F1F1" height="211.0392" id="CVE" rx="3.2552" ry="3.2552" style="stroke:#181818;stroke-width:0.6510416666666666;" width="246.0938" x="2228.5156" y="943.2031"/><ellipse cx="2327.7995" cy="964.0365" fill="#ADD1B2" rx="14.3229" ry="14.3229" style="stroke:#181818;stroke-width:1.3020833333333333;"/><path d="M2331.665,971.381 Q2330.9123,971.7676 2330.0781,971.9507 Q2329.244,972.1541 2328.3285,972.1541 Q2325.0732,972.1541 2323.3439,970.0179 Q2321.6349,967.8613 2321.6349,963.7923 Q2321.6349,959.7233 2323.3439,957.5667 Q2325.0732,955.4102 2328.3285,955.4102 Q2329.244,955.4102 2330.0781,955.6136 Q2330.9326,955.8171 2331.665,956.2036 L2331.665,959.7437 Q2330.8512,958.9909 2330.0781,958.645 Q2329.305,958.2788 2328.4912,958.2788 Q2326.7415,958.2788 2325.8464,959.6826 Q2324.9512,961.0661 2324.9512,963.7923 Q2324.9512,966.5186 2325.8464,967.9224 Q2326.7415,969.3058 2328.4912,969.3058 Q2329.305,969.3058 2330.0781,968.96 Q2330.8512,968.5937 2331.665,967.841 L2331.665,971.381 Z " fill="#000000"/><text fill="#000000" font-family="sans-serif" font-size="18.2292" lengthAdjust="spacing" textLength="36.4583" x="2354.4922" y="970.3472">CVE</text><line style="stroke:#181818;stroke-width:0.6510416666666666;" x1="2229.8177" x2="2473.3073" y1="984.8698" y2="984.8698"/><rect fill="none" height="7.8125" style="stroke:#C82930;stroke-width:1.3020833333333333;" width="7.8125" x="2238.9323" y="998.7349"/><text fill="#000000" font-family="sans-serif" font-size="18.2292" lengthAdjust="spacing" textLength="96.3542" x="2254.5573" y="1006.9989">id : Integer</text><rect fill="none" height="7.8125" style="stroke:#C82930;stroke-width:1.3020833333333333;" width="7.8125" x="2238.9323" y="1019.9548"/><text fill="#000000" font-family="sans-serif" font-size="18.2292" lengthAdjust="spacing" textLength="125" x="2254.5573" y="1028.2187">cve_id : String</text><rect fill="none" height="7.8125" style="stroke:#C82930;stroke-width:1.3020833333333333;" width="7.8125" x="2238.9323" y="1041.1747"/><text fill="#000000" font-family="sans-serif" font-size="18.2292" lengthAdjust="spacing" textLength="169.2708" x="2254.5573" y="1049.4386">description : String</text><rect fill="none" height="7.8125" style="stroke:#C82930;stroke-width:1.3020833333333333;" width="7.8125" x="2238.9323" y="1062.3946"/><text fill="#000000" font-family="sans-serif" font-size="18.2292" lengthAdjust="spacing" textLength="138.0208" x="2254.5573" y="1070.6585">severity : String</text><rect fill="none" height="7.8125" style="stroke:#C82930;stroke-width:1.3020833333333333;" width="7.8125" x="2238.9323" y="1083.6145"/><text fill="#000000" font-family="sans-serif" font-size="18.2292" lengthAdjust="spacing" textLength="212.2396" x="2254.5573" y="1091.8784">affectedProduct : String</text><rect fill="none" height="7.8125" style="stroke:#C82930;stroke-width:1.3020833333333333;" width="7.8125" x="2238.9323" y="1104.8344"/><text fill="#000000" font-family="sans-serif" font-size="18.2292" lengthAdjust="spacing" textLength="191.4063" x="2254.5573" y="1113.0983">publishedDate : Date</text><line style="stroke:#181818;stroke-width:0.6510416666666666;" x1="2229.8177" x2="2473.3073" y1="1122.6058" y2="1122.6058"/><ellipse cx="2242.8385" cy="1140.3772" fill="#84BE84" rx="3.9063" ry="3.9063" style="stroke:#038048;stroke-width:1.3020833333333333;"/><text fill="#000000" font-family="sans-serif" font-size="18.2292" lengthAdjust="spacing" textLength="173.1771" x="2254.5573" y="1144.7349">getDetails() : String</text></g><!--class User--><g id="elem_User"><rect codeLine="62" fill="#F1F1F1" height="232.2591" id="User" rx="3.2552" ry="3.2552" style="stroke:#181818;stroke-width:0.6510416666666666;" width="281.25" x="1901.0417" y="932.5911"/><ellipse cx="2015.2995" cy="953.4245" fill="#ADD1B2" rx="14.3229" ry="14.3229" style="stroke:#181818;stroke-width:1.3020833333333333;"/><path d="M2019.165,960.769 Q2018.4123,961.1556 2017.5781,961.3387 Q2016.744,961.5422 2015.8285,961.5422 Q2012.5732,961.5422 2010.8439,959.4059 Q2009.1349,957.2493 2009.1349,953.1803 Q2009.1349,949.1113 2010.8439,946.9548 Q2012.5732,944.7982 2015.8285,944.7982 Q2016.744,944.7982 2017.5781,945.0016 Q2018.4326,945.2051 2019.165,945.5916 L2019.165,949.1317 Q2018.3512,948.3789 2017.5781,948.033 Q2016.805,947.6668 2015.9912,947.6668 Q2014.2415,947.6668 2013.3464,949.0706 Q2012.4512,950.4541 2012.4512,953.1803 Q2012.4512,955.9066 2013.3464,957.3104 Q2014.2415,958.6938 2015.9912,958.6938 Q2016.805,958.6938 2017.5781,958.348 Q2018.3512,957.9818 2019.165,957.229 L2019.165,960.769 Z " fill="#000000"/><text fill="#000000" font-family="sans-serif" font-size="18.2292" lengthAdjust="spacing" textLength="41.6667" x="2041.9922" y="959.7353">User</text><line style="stroke:#181818;stroke-width:0.6510416666666666;" x1="1902.3438" x2="2180.9896" y1="974.2578" y2="974.2578"/><rect fill="none" height="7.8125" style="stroke:#C82930;stroke-width:1.3020833333333333;" width="7.8125" x="1911.4583" y="988.123"/><text fill="#000000" font-family="sans-serif" font-size="18.2292" lengthAdjust="spacing" textLength="136.7188" x="1927.0833" y="996.3869">userId : Integer</text><rect fill="none" height="7.8125" style="stroke:#C82930;stroke-width:1.3020833333333333;" width="7.8125" x="1911.4583" y="1009.3429"/><text fill="#000000" font-family="sans-serif" font-size="18.2292" lengthAdjust="spacing" textLength="160.1563" x="1927.0833" y="1017.6068">username : String</text><rect fill="none" height="7.8125" style="stroke:#C82930;stroke-width:1.3020833333333333;" width="7.8125" x="1911.4583" y="1030.5627"/><text fill="#000000" font-family="sans-serif" font-size="18.2292" lengthAdjust="spacing" textLength="115.8854" x="1927.0833" y="1038.8266">email : String</text><rect fill="none" height="7.8125" style="stroke:#C82930;stroke-width:1.3020833333333333;" width="7.8125" x="1911.4583" y="1051.7826"/><text fill="#000000" font-family="sans-serif" font-size="18.2292" lengthAdjust="spacing" textLength="156.25" x="1927.0833" y="1060.0465">password : String</text><rect fill="none" height="7.8125" style="stroke:#C82930;stroke-width:1.3020833333333333;" width="7.8125" x="1911.4583" y="1073.0025"/><text fill="#000000" font-family="sans-serif" font-size="18.2292" lengthAdjust="spacing" textLength="205.7292" x="1927.0833" y="1081.2664">userFilters : UserFilters</text><rect fill="none" height="7.8125" style="stroke:#C82930;stroke-width:1.3020833333333333;" width="7.8125" x="1911.4583" y="1094.2224"/><text fill="#000000" font-family="sans-serif" font-size="18.2292" lengthAdjust="spacing" textLength="200.5208" x="1927.0833" y="1102.4863">userAlerts : UserAlerts</text><rect fill="none" height="7.8125" style="stroke:#C82930;stroke-width:1.3020833333333333;" width="7.8125" x="1911.4583" y="1115.4423"/><text fill="#000000" font-family="sans-serif" font-size="18.2292" lengthAdjust="spacing" textLength="247.3958" x="1927.0833" y="1123.7062">userSettings : UserSettings</text><line style="stroke:#181818;stroke-width:0.6510416666666666;" x1="1902.3438" x2="2180.9896" y1="1133.2137" y2="1133.2137"/><ellipse cx="1915.3646" cy="1150.9851" fill="#84BE84" rx="3.9063" ry="3.9063" style="stroke:#038048;stroke-width:1.3020833333333333;"/><text fill="#000000" font-family="sans-serif" font-size="18.2292" lengthAdjust="spacing" textLength="186.1979" x="1927.0833" y="1155.3428">getUserInfo() : String</text></g><!--class UserFilters--><g id="elem_UserFilters"><rect codeLine="72" fill="#F1F1F1" height="168.5994" id="UserFilters" rx="3.2552" ry="3.2552" style="stroke:#181818;stroke-width:0.6510416666666666;" width="287.7604" x="2188.151" y="1190.8984"/><ellipse cx="2278.9714" cy="1211.7318" fill="#ADD1B2" rx="14.3229" ry="14.3229" style="stroke:#181818;stroke-width:1.3020833333333333;"/><path d="M2282.8369,1219.0763 Q2282.0841,1219.4629 2281.25,1219.646 Q2280.4159,1219.8494 2279.5003,1219.8494 Q2276.2451,1219.8494 2274.5158,1217.7132 Q2272.8068,1215.5566 2272.8068,1211.4876 Q2272.8068,1207.4186 2274.5158,1205.262 Q2276.2451,1203.1055 2279.5003,1203.1055 Q2280.4159,1203.1055 2281.25,1203.3089 Q2282.1045,1203.5124 2282.8369,1203.8989 L2282.8369,1207.439 Q2282.0231,1206.6862 2281.25,1206.3403 Q2280.4769,1205.9741 2279.6631,1205.9741 Q2277.9134,1205.9741 2277.0182,1207.3779 Q2276.123,1208.7614 2276.123,1211.4876 Q2276.123,1214.2139 2277.0182,1215.6177 Q2277.9134,1217.0011 2279.6631,1217.0011 Q2280.4769,1217.0011 2281.25,1216.6553 Q2282.0231,1216.2891 2282.8369,1215.5363 L2282.8369,1219.0763 Z " fill="#000000"/><text fill="#000000" font-family="sans-serif" font-size="18.2292" lengthAdjust="spacing" textLength="95.0521" x="2305.6641" y="1218.0426">UserFilters</text><line style="stroke:#181818;stroke-width:0.6510416666666666;" x1="2189.4531" x2="2474.6094" y1="1232.5651" y2="1232.5651"/><rect fill="none" height="7.8125" style="stroke:#C82930;stroke-width:1.3020833333333333;" width="7.8125" x="2198.5677" y="1246.4303"/><text fill="#000000" font-family="sans-serif" font-size="18.2292" lengthAdjust="spacing" textLength="134.1146" x="2214.1927" y="1254.6942">osFilter : String</text><rect fill="none" height="7.8125" style="stroke:#C82930;stroke-width:1.3020833333333333;" width="7.8125" x="2198.5677" y="1267.6501"/><text fill="#000000" font-family="sans-serif" font-size="18.2292" lengthAdjust="spacing" textLength="180.9896" x="2214.1927" y="1275.9141">severityFilter : String</text><rect fill="none" height="7.8125" style="stroke:#C82930;stroke-width:1.3020833333333333;" width="7.8125" x="2198.5677" y="1288.87"/><text fill="#000000" font-family="sans-serif" font-size="18.2292" lengthAdjust="spacing" textLength="253.9062" x="2214.1927" y="1297.1339">productFilters : List&lt;String&gt;</text><rect fill="none" height="7.8125" style="stroke:#C82930;stroke-width:1.3020833333333333;" width="7.8125" x="2198.5677" y="1310.0899"/><text fill="#000000" font-family="sans-serif" font-size="18.2292" lengthAdjust="spacing" textLength="239.5833" x="2214.1927" y="1318.3538">includeResolved : Boolean</text><line style="stroke:#181818;stroke-width:0.6510416666666666;" x1="2189.4531" x2="2474.6094" y1="1327.8613" y2="1327.8613"/><ellipse cx="2202.474" cy="1345.6327" fill="#84BE84" rx="3.9063" ry="3.9063" style="stroke:#038048;stroke-width:1.3020833333333333;"/><text fill="#000000" font-family="sans-serif" font-size="18.2292" lengthAdjust="spacing" textLength="197.9167" x="2214.1927" y="1349.9904">getFiltersInfo() : String</text></g><!--class UserAlerts--><g id="elem_UserAlerts"><rect codeLine="79" fill="#F1F1F1" height="83.7199" id="UserAlerts" rx="3.2552" ry="3.2552" style="stroke:#181818;stroke-width:0.6510416666666666;" width="229.1667" x="1562.5" y="1233.3333"/><ellipse cx="1625.3255" cy="1254.1667" fill="#ADD1B2" rx="14.3229" ry="14.3229" style="stroke:#181818;stroke-width:1.3020833333333333;"/><path d="M1629.1911,1261.5112 Q1628.4383,1261.8978 1627.6042,1262.0809 Q1626.77,1262.2843 1625.8545,1262.2843 Q1622.5993,1262.2843 1620.87,1260.1481 Q1619.161,1257.9915 1619.161,1253.9225 Q1619.161,1249.8535 1620.87,1247.6969 Q1622.5993,1245.5404 1625.8545,1245.5404 Q1626.77,1245.5404 1627.6042,1245.7438 Q1628.4587,1245.9473 1629.1911,1246.3338 L1629.1911,1249.8739 Q1628.3773,1249.1211 1627.6042,1248.7752 Q1626.8311,1248.409 1626.0173,1248.409 Q1624.2676,1248.409 1623.3724,1249.8128 Q1622.4772,1251.1963 1622.4772,1253.9225 Q1622.4772,1256.6488 1623.3724,1258.0526 Q1624.2676,1259.436 1626.0173,1259.436 Q1626.8311,1259.436 1627.6042,1259.0902 Q1628.3773,1258.724 1629.1911,1257.9712 L1629.1911,1261.5112 Z " fill="#000000"/><text fill="#000000" font-family="sans-serif" font-size="18.2292" lengthAdjust="spacing" textLength="92.4479" x="1652.0182" y="1260.4774">UserAlerts</text><line style="stroke:#181818;stroke-width:0.6510416666666666;" x1="1563.8021" x2="1790.3646" y1="1275" y2="1275"/><line style="stroke:#181818;stroke-width:0.6510416666666666;" x1="1563.8021" x2="1790.3646" y1="1285.4167" y2="1285.4167"/><ellipse cx="1576.8229" cy="1303.1881" fill="#84BE84" rx="3.9063" ry="3.9063" style="stroke:#038048;stroke-width:1.3020833333333333;"/><text fill="#000000" font-family="sans-serif" font-size="18.2292" lengthAdjust="spacing" textLength="195.3125" x="1588.5417" y="1307.5457">getAlertsInfo() : String</text></g><!--class UserSettings--><g id="elem_UserSettings"><rect codeLine="82" fill="#F1F1F1" height="168.5994" id="UserSettings" rx="3.2552" ry="3.2552" style="stroke:#181818;stroke-width:0.6510416666666666;" width="305.9896" x="1836.5885" y="1190.8984"/><ellipse cx="1926.1068" cy="1211.7318" fill="#ADD1B2" rx="14.3229" ry="14.3229" style="stroke:#181818;stroke-width:1.3020833333333333;"/><path d="M1929.9723,1219.0763 Q1929.2196,1219.4629 1928.3854,1219.646 Q1927.5513,1219.8494 1926.6357,1219.8494 Q1923.3805,1219.8494 1921.6512,1217.7132 Q1919.9422,1215.5566 1919.9422,1211.4876 Q1919.9422,1207.4186 1921.6512,1205.262 Q1923.3805,1203.1055 1926.6357,1203.1055 Q1927.5513,1203.1055 1928.3854,1203.3089 Q1929.2399,1203.5124 1929.9723,1203.8989 L1929.9723,1207.439 Q1929.1585,1206.6862 1928.3854,1206.3403 Q1927.6123,1205.9741 1926.7985,1205.9741 Q1925.0488,1205.9741 1924.1536,1207.3779 Q1923.2585,1208.7614 1923.2585,1211.4876 Q1923.2585,1214.2139 1924.1536,1215.6177 Q1925.0488,1217.0011 1926.7985,1217.0011 Q1927.6123,1217.0011 1928.3854,1216.6553 Q1929.1585,1216.2891 1929.9723,1215.5363 L1929.9723,1219.0763 Z " fill="#000000"/><text fill="#000000" font-family="sans-serif" font-size="18.2292" lengthAdjust="spacing" textLength="115.8854" x="1952.7995" y="1218.0426">UserSettings</text><line style="stroke:#181818;stroke-width:0.6510416666666666;" x1="1837.8906" x2="2141.276" y1="1232.5651" y2="1232.5651"/><rect fill="none" height="7.8125" style="stroke:#C82930;stroke-width:1.3020833333333333;" width="7.8125" x="1847.0052" y="1246.4303"/><text fill="#000000" font-family="sans-serif" font-size="18.2292" lengthAdjust="spacing" textLength="272.1354" x="1862.6302" y="1254.6942">notificationsEnabled : Boolean</text><rect fill="none" height="7.8125" style="stroke:#C82930;stroke-width:1.3020833333333333;" width="7.8125" x="1847.0052" y="1267.6501"/><text fill="#000000" font-family="sans-serif" font-size="18.2292" lengthAdjust="spacing" textLength="139.3229" x="1862.6302" y="1275.9141">lastLogin : Date</text><rect fill="none" height="7.8125" style="stroke:#C82930;stroke-width:1.3020833333333333;" width="7.8125" x="1847.0052" y="1288.87"/><text fill="#000000" font-family="sans-serif" font-size="18.2292" lengthAdjust="spacing" textLength="253.9062" x="1862.6302" y="1297.1339">darkModeEnabled : Boolean</text><rect fill="none" height="7.8125" style="stroke:#C82930;stroke-width:1.3020833333333333;" width="7.8125" x="1847.0052" y="1310.0899"/><text fill="#000000" font-family="sans-serif" font-size="18.2292" lengthAdjust="spacing" textLength="227.8646" x="1862.6302" y="1318.3538">startupEnabled : Boolean</text><line style="stroke:#181818;stroke-width:0.6510416666666666;" x1="1837.8906" x2="2141.276" y1="1327.8613" y2="1327.8613"/><ellipse cx="1850.9115" cy="1345.6327" fill="#84BE84" rx="3.9063" ry="3.9063" style="stroke:#038048;stroke-width:1.3020833333333333;"/><text fill="#000000" font-family="sans-serif" font-size="18.2292" lengthAdjust="spacing" textLength="227.8646" x="1862.6302" y="1349.9904">getUserSettings() : String</text></g><!--class CVEFetcher--><g id="elem_CVEFetcher"><rect codeLine="92" fill="#F1F1F1" height="126.1597" id="CVEFetcher" rx="3.2552" ry="3.2552" style="stroke:#181818;stroke-width:0.6510416666666666;" width="750" x="3313.8021" y="708.776"/><ellipse cx="3630.5339" cy="729.6094" fill="#ADD1B2" rx="14.3229" ry="14.3229" style="stroke:#181818;stroke-width:1.3020833333333333;"/><path d="M3634.3994,736.9539 Q3633.6466,737.3405 3632.8125,737.5236 Q3631.9784,737.7271 3631.0628,737.7271 Q3627.8076,737.7271 3626.0783,735.5908 Q3624.3693,733.4342 3624.3693,729.3652 Q3624.3693,725.2962 3626.0783,723.1396 Q3627.8076,720.9831 3631.0628,720.9831 Q3631.9784,720.9831 3632.8125,721.1865 Q3633.667,721.39 3634.3994,721.7765 L3634.3994,725.3166 Q3633.5856,724.5638 3632.8125,724.2179 Q3632.0394,723.8517 3631.2256,723.8517 Q3629.4759,723.8517 3628.5807,725.2555 Q3627.6855,726.639 3627.6855,729.3652 Q3627.6855,732.0915 3628.5807,733.4953 Q3629.4759,734.8787 3631.2256,734.8787 Q3632.0394,734.8787 3632.8125,734.5329 Q3633.5856,734.1667 3634.3994,733.4139 L3634.3994,736.9539 Z " fill="#000000"/><text fill="#000000" font-family="sans-serif" font-size="18.2292" lengthAdjust="spacing" textLength="105.4688" x="3657.2266" y="735.9202">CVEFetcher</text><line style="stroke:#181818;stroke-width:0.6510416666666666;" x1="3315.1042" x2="4062.5" y1="750.4427" y2="750.4427"/><line style="stroke:#181818;stroke-width:0.6510416666666666;" x1="3315.1042" x2="4062.5" y1="760.8594" y2="760.8594"/><ellipse cx="3328.125" cy="778.6308" fill="#84BE84" rx="3.9063" ry="3.9063" style="stroke:#038048;stroke-width:1.3020833333333333;"/><text fill="#000000" font-family="sans-serif" font-size="18.2292" lengthAdjust="spacing" textLength="716.1458" x="3339.8438" y="782.9884">fetchLatestCVEs(lastModStartDate: String, lastModEndDate: String) : List&lt;CVE&gt;</text><ellipse cx="3328.125" cy="799.8507" fill="#84BE84" rx="3.9063" ry="3.9063" style="stroke:#038048;stroke-width:1.3020833333333333;"/><text fill="#000000" font-family="sans-serif" font-size="18.2292" lengthAdjust="spacing" textLength="361.9792" x="3339.8438" y="804.2083">fetchCVEById(cveId: String) : JSONObject</text><ellipse cx="3328.125" cy="821.0706" fill="#84BE84" rx="3.9063" ry="3.9063" style="stroke:#038048;stroke-width:1.3020833333333333;"/><text fill="#000000" font-family="sans-serif" font-size="18.2292" lengthAdjust="spacing" textLength="377.6042" x="3339.8438" y="825.4282">SfetchCVEData(query: String) : List&lt;CVE&gt;</text></g><!--class NotificationService--><g id="elem_NotificationService"><rect codeLine="97" fill="#F1F1F1" height="83.7199" id="NotificationService" rx="3.2552" ry="3.2552" style="stroke:#181818;stroke-width:0.6510416666666666;" width="384.1146" x="3629.5573" y="194.2448"/><ellipse cx="3734.0495" cy="215.0781" fill="#ADD1B2" rx="14.3229" ry="14.3229" style="stroke:#181818;stroke-width:1.3020833333333333;"/><path d="M3737.915,222.4227 Q3737.1623,222.8092 3736.3281,222.9924 Q3735.494,223.1958 3734.5785,223.1958 Q3731.3232,223.1958 3729.5939,221.0596 Q3727.8849,218.903 3727.8849,214.834 Q3727.8849,210.765 3729.5939,208.6084 Q3731.3232,206.4518 3734.5785,206.4518 Q3735.494,206.4518 3736.3281,206.6553 Q3737.1826,206.8587 3737.915,207.2453 L3737.915,210.7853 Q3737.1012,210.0326 3736.3281,209.6867 Q3735.555,209.3205 3734.7412,209.3205 Q3732.9915,209.3205 3732.0964,210.7243 Q3731.2012,212.1077 3731.2012,214.834 Q3731.2012,217.5602 3732.0964,218.964 Q3732.9915,220.3475 3734.7412,220.3475 Q3735.555,220.3475 3736.3281,220.0016 Q3737.1012,219.6354 3737.915,218.8826 L3737.915,222.4227 Z " fill="#000000"/><text fill="#000000" font-family="sans-serif" font-size="18.2292" lengthAdjust="spacing" textLength="164.0625" x="3760.7422" y="221.3889">NotificationService</text><line style="stroke:#181818;stroke-width:0.6510416666666666;" x1="3630.8594" x2="4012.3698" y1="235.9115" y2="235.9115"/><line style="stroke:#181818;stroke-width:0.6510416666666666;" x1="3630.8594" x2="4012.3698" y1="246.3281" y2="246.3281"/><ellipse cx="3643.8802" cy="264.0995" fill="#84BE84" rx="3.9063" ry="3.9063" style="stroke:#038048;stroke-width:1.3020833333333333;"/><text fill="#000000" font-family="sans-serif" font-size="18.2292" lengthAdjust="spacing" textLength="350.2604" x="3655.599" y="268.4572">sendAlert(user: User, message: String)</text></g><!--class DatabaseService--><g id="elem_DatabaseService"><rect codeLine="100" fill="#F1F1F1" height="189.8193" id="DatabaseService" rx="3.2552" ry="3.2552" style="stroke:#181818;stroke-width:0.6510416666666666;" width="415.3646" x="3564.4531" y="461.0807"/><ellipse cx="3691.0807" cy="481.9141" fill="#ADD1B2" rx="14.3229" ry="14.3229" style="stroke:#181818;stroke-width:1.3020833333333333;"/><path d="M3694.9463,489.2586 Q3694.1935,489.6452 3693.3594,489.8283 Q3692.5252,490.0317 3691.6097,490.0317 Q3688.3545,490.0317 3686.6252,487.8955 Q3684.9162,485.7389 3684.9162,481.6699 Q3684.9162,477.6009 3686.6252,475.4443 Q3688.3545,473.2878 3691.6097,473.2878 Q3692.5252,473.2878 3693.3594,473.4912 Q3694.2139,473.6947 3694.9463,474.0812 L3694.9463,477.6213 Q3694.1325,476.8685 3693.3594,476.5226 Q3692.5863,476.1564 3691.7725,476.1564 Q3690.0228,476.1564 3689.1276,477.5602 Q3688.2324,478.9437 3688.2324,481.6699 Q3688.2324,484.3962 3689.1276,485.8 Q3690.0228,487.1834 3691.7725,487.1834 Q3692.5863,487.1834 3693.3594,486.8376 Q3694.1325,486.4714 3694.9463,485.7186 L3694.9463,489.2586 Z " fill="#000000"/><text fill="#000000" font-family="sans-serif" font-size="18.2292" lengthAdjust="spacing" textLength="151.0417" x="3717.7734" y="488.2248">DatabaseService</text><line style="stroke:#181818;stroke-width:0.6510416666666666;" x1="3565.7552" x2="3978.5156" y1="502.7474" y2="502.7474"/><line style="stroke:#181818;stroke-width:0.6510416666666666;" x1="3565.7552" x2="3978.5156" y1="513.1641" y2="513.1641"/><ellipse cx="3578.776" cy="530.9355" fill="#84BE84" rx="3.9063" ry="3.9063" style="stroke:#038048;stroke-width:1.3020833333333333;"/><text fill="#000000" font-family="sans-serif" font-size="18.2292" lengthAdjust="spacing" textLength="87.2396" x="3590.4948" y="535.2931">connect()</text><ellipse cx="3578.776" cy="552.1554" fill="#84BE84" rx="3.9063" ry="3.9063" style="stroke:#038048;stroke-width:1.3020833333333333;"/><text fill="#000000" font-family="sans-serif" font-size="18.2292" lengthAdjust="spacing" textLength="283.8542" x="3590.4948" y="556.513">saveCVEData(cves: List&lt;CVE&gt;)</text><ellipse cx="3578.776" cy="573.3752" fill="#84BE84" rx="3.9063" ry="3.9063" style="stroke:#038048;stroke-width:1.3020833333333333;"/><text fill="#000000" font-family="sans-serif" font-size="18.2292" lengthAdjust="spacing" textLength="235.6771" x="3590.4948" y="577.7329">getCVEData() : List&lt;CVE&gt;</text><ellipse cx="3578.776" cy="594.5951" fill="#84BE84" rx="3.9063" ry="3.9063" style="stroke:#038048;stroke-width:1.3020833333333333;"/><text fill="#000000" font-family="sans-serif" font-size="18.2292" lengthAdjust="spacing" textLength="281.25" x="3590.4948" y="598.9528">getCVEById(cveId: String) : CVE</text><ellipse cx="3578.776" cy="615.815" fill="#84BE84" rx="3.9063" ry="3.9063" style="stroke:#038048;stroke-width:1.3020833333333333;"/><text fill="#000000" font-family="sans-serif" font-size="18.2292" lengthAdjust="spacing" textLength="381.5104" x="3590.4948" y="620.1727">searchCVEData(query: String) : List&lt;CVE&gt;</text><ellipse cx="3578.776" cy="637.0349" fill="#84BE84" rx="3.9063" ry="3.9063" style="stroke:#038048;stroke-width:1.3020833333333333;"/><text fill="#000000" font-family="sans-serif" font-size="18.2292" lengthAdjust="spacing" textLength="106.7708" x="3590.4948" y="641.3926">resetCVEs()</text></g><!--class APIUtils--><g id="elem_APIUtils"><rect codeLine="111" fill="#F1F1F1" height="83.7199" id="APIUtils" rx="3.2552" ry="3.2552" style="stroke:#181818;stroke-width:0.6510416666666666;" width="309.8958" x="2930.9896" y="514.1406"/><ellipse cx="3047.8516" cy="534.974" fill="#ADD1B2" rx="14.3229" ry="14.3229" style="stroke:#181818;stroke-width:1.3020833333333333;"/><path d="M3051.7171,542.3185 Q3050.9644,542.7051 3050.1302,542.8882 Q3049.2961,543.0916 3048.3805,543.0916 Q3045.1253,543.0916 3043.396,540.9554 Q3041.687,538.7988 3041.687,534.7298 Q3041.687,530.6608 3043.396,528.5042 Q3045.1253,526.3477 3048.3805,526.3477 Q3049.2961,526.3477 3050.1302,526.5511 Q3050.9847,526.7546 3051.7171,527.1411 L3051.7171,530.6812 Q3050.9033,529.9284 3050.1302,529.5825 Q3049.3571,529.2163 3048.5433,529.2163 Q3046.7936,529.2163 3045.8984,530.6201 Q3045.0033,532.0036 3045.0033,534.7298 Q3045.0033,537.4561 3045.8984,538.8599 Q3046.7936,540.2433 3048.5433,540.2433 Q3049.3571,540.2433 3050.1302,539.8975 Q3050.9033,539.5312 3051.7171,538.7785 L3051.7171,542.3185 Z " fill="#000000"/><text fill="#000000" font-family="sans-serif" font-size="18.2292" lengthAdjust="spacing" textLength="65.1042" x="3074.5443" y="541.2847">APIUtils</text><line style="stroke:#181818;stroke-width:0.6510416666666666;" x1="2932.2917" x2="3239.5833" y1="555.8073" y2="555.8073"/><line style="stroke:#181818;stroke-width:0.6510416666666666;" x1="2932.2917" x2="3239.5833" y1="566.224" y2="566.224"/><ellipse cx="2945.3125" cy="583.9954" fill="#84BE84" rx="3.9063" ry="3.9063" style="stroke:#038048;stroke-width:1.3020833333333333;"/><text fill="#000000" font-family="sans-serif" font-size="18.2292" lengthAdjust="spacing" textLength="276.0417" x="2957.0313" y="588.353">makeAPICall(url: String) : String</text></g><!--class Filters--><g id="elem_Filters"><rect codeLine="114" fill="#F1F1F1" height="126.1597" id="Filters" rx="3.2552" ry="3.2552" style="stroke:#181818;stroke-width:0.6510416666666666;" width="1036.4583" x="1848.9583" y="492.9167"/><ellipse cx="2334.9609" cy="513.75" fill="#ADD1B2" rx="14.3229" ry="14.3229" style="stroke:#181818;stroke-width:1.3020833333333333;"/><path d="M2338.8265,521.0946 Q2338.0737,521.4811 2337.2396,521.6642 Q2336.4054,521.8677 2335.4899,521.8677 Q2332.2347,521.8677 2330.5054,519.7314 Q2328.7964,517.5749 2328.7964,513.5059 Q2328.7964,509.4368 2330.5054,507.2803 Q2332.2347,505.1237 2335.4899,505.1237 Q2336.4054,505.1237 2337.2396,505.3271 Q2338.0941,505.5306 2338.8265,505.9172 L2338.8265,509.4572 Q2338.0127,508.7044 2337.2396,508.3586 Q2336.4665,507.9924 2335.6527,507.9924 Q2333.903,507.9924 2333.0078,509.3962 Q2332.1126,510.7796 2332.1126,513.5059 Q2332.1126,516.2321 2333.0078,517.6359 Q2333.903,519.0194 2335.6527,519.0194 Q2336.4665,519.0194 2337.2396,518.6735 Q2338.0127,518.3073 2338.8265,517.5545 L2338.8265,521.0946 Z " fill="#000000"/><text fill="#000000" font-family="sans-serif" font-size="18.2292" lengthAdjust="spacing" textLength="53.3854" x="2361.6536" y="520.0608">Filters</text><line style="stroke:#181818;stroke-width:0.6510416666666666;" x1="1850.2604" x2="2884.1146" y1="534.5833" y2="534.5833"/><line style="stroke:#181818;stroke-width:0.6510416666666666;" x1="1850.2604" x2="2884.1146" y1="545" y2="545"/><ellipse cx="1863.2813" cy="562.7714" fill="#84BE84" rx="3.9063" ry="3.9063" style="stroke:#038048;stroke-width:1.3020833333333333;"/><text fill="#000000" font-family="sans-serif" font-size="18.2292" lengthAdjust="spacing" textLength="542.9688" x="1875" y="567.1291">filterByOS(cves: List&lt;CVE&gt;, selectedOS: String) : List&lt;CVE&gt;</text><ellipse cx="1863.2813" cy="583.9913" fill="#84BE84" rx="3.9063" ry="3.9063" style="stroke:#038048;stroke-width:1.3020833333333333;"/><text fill="#000000" font-family="sans-serif" font-size="18.2292" lengthAdjust="spacing" textLength="631.5104" x="1875" y="588.3489">filterBySeverity(cves: List&lt;CVE&gt;, selectedSeverity: String) : List&lt;CVE&gt;</text><ellipse cx="1863.2813" cy="605.2112" fill="#84BE84" rx="3.9063" ry="3.9063" style="stroke:#038048;stroke-width:1.3020833333333333;"/><text fill="#000000" font-family="sans-serif" font-size="18.2292" lengthAdjust="spacing" textLength="1002.6042" x="1875" y="609.5688">applyFilters(cves: List&lt;CVE&gt;, selectedOS: String, selectedProduct: String, selectedSeverity: String) : List&lt;CVE&gt;</text></g><!--link Main to MainFrame--><g id="link_Main_MainFrame"><path codeLine="122" d="M2153.0729,272.3568 C2040.7682,293.8021 1902.4219,326.3411 1783.8542,373.2682 C1745.4036,388.4766 1712.9466,404.3238 1675.4597,425.014 " fill="none" id="Main-to-MainFrame" style="stroke:#181818;stroke-width:1.3020833333333333;"/><polygon fill="#181818" points="1668.6198,428.7891,1681.3963,427.6863,1674.3197,425.6431,1676.3628,418.5665,1668.6198,428.7891" style="stroke:#181818;stroke-width:1.3020833333333333;"/></g><!--link MainFrame to Main--><g id="link_MainFrame_Main"><path codeLine="127" d="M1623.8542,428.7891 C1660.5339,408.099 1699.8307,388.4766 1738.2813,373.2682 C1871.1589,320.6901 2021.1515,287.4644 2145.5265,266.3837 " fill="none" id="MainFrame-to-Main" style="stroke:#181818;stroke-width:1.3020833333333333;"/><polygon fill="#181818" points="2153.2292,265.0781,2140.8048,261.9013,2146.8103,266.1661,2142.5456,272.1715,2153.2292,265.0781" style="stroke:#181818;stroke-width:1.3020833333333333;"/></g><!--link Main to DatabaseService--><g id="link_Main_DatabaseService"><path codeLine="123" d="M2581.1979,272.3177 C2768.4245,301.4323 3047.9688,341.4974 3292.9688,362.8516 C3322.3958,365.4167 3531.0807,362.5391 3558.5938,373.2682 C3606.862,392.0833 3646.2303,421.2945 3682.4021,455.2398 " fill="none" id="Main-to-DatabaseService" style="stroke:#181818;stroke-width:1.3020833333333333;"/><polygon fill="#181818" points="3688.099,460.5859,3683.1178,448.7688,3683.3516,456.1308,3675.9896,456.3646,3688.099,460.5859" style="stroke:#181818;stroke-width:1.3020833333333333;"/></g><!--link Main to CVEFetcher--><g id="link_Main_CVEFetcher"><path codeLine="124" d="M2581.1068,253.3203 C2807.4089,273.0469 3147.3047,311.7839 3261.7188,373.2682 C3425.0911,461.0547 3398.2422,565.1432 3541.6667,682.7344 C3552.474,691.6016 3557.7953,695.8179 3569.8526,703.9038 " fill="none" id="Main-to-CVEFetcher" style="stroke:#181818;stroke-width:1.3020833333333333;"/><polygon fill="#181818" points="3576.3411,708.2552,3569.5093,697.4025,3570.9341,704.6291,3563.7075,706.0538,3576.3411,708.2552" style="stroke:#181818;stroke-width:1.3020833333333333;"/></g><!--link Main to User--><g id="link_Main_User"><path codeLine="125" d="M2153.099,264.2578 C2020.8464,285.7422 1868.8411,321.0286 1828.125,373.2682 C1785.8594,427.513 1788.8411,626.2891 1828.125,682.7344 C1847.1615,710.0911 1874.349,685.7552 1898.4375,708.776 C1960.8594,768.4245 1995.1864,852.0505 2015.6681,924.7588 " fill="none" id="Main-to-User" style="stroke:#181818;stroke-width:1.3020833333333333;"/><polygon fill="#181818" points="2017.7865,932.2786,2019.6222,919.5867,2016.0212,926.0121,2009.5958,922.4111,2017.7865,932.2786" style="stroke:#181818;stroke-width:1.3020833333333333;"/></g><!--link MainFrame to User--><g id="link_MainFrame_User"><path codeLine="126" d="M1755.0651,680.9766 C1756.849,681.5755 1758.6328,682.1484 1760.4167,682.7344 C1806.3281,697.6823 1831.3281,675.0521 1865.8854,708.776 C1917.7865,759.4271 1877.3437,800.8724 1908.8542,866.1849 C1919.6224,888.4896 1928.8183,904.4283 1943.1673,925.496 " fill="none" id="MainFrame-to-User" style="stroke:#181818;stroke-width:1.3020833333333333;"/><polygon fill="#181818" points="1947.5651,931.9531,1945.2731,919.3356,1943.9002,926.5722,1936.6636,925.1994,1947.5651,931.9531" style="stroke:#181818;stroke-width:1.3020833333333333;"/></g><!--link MainFrame to CVEInfoFrame--><g id="link_MainFrame_CVEInfoFrame"><path codeLine="128" d="M1559.2057,683.2031 C1573.1901,699.7917 1581.5914,709.7696 1593.0758,723.3894 " fill="none" id="MainFrame-to-CVEInfoFrame" style="stroke:#181818;stroke-width:1.3020833333333333;"/><polygon fill="#181818" points="1598.112,729.362,1594.5395,717.0456,1593.9152,724.3848,1586.576,723.7605,1598.112,729.362" style="stroke:#181818;stroke-width:1.3020833333333333;"/></g><!--link MainFrame to FiltersFrame--><g id="link_MainFrame_FiltersFrame"><path codeLine="129" d="M1340.1172,683.2031 C1328.9583,695.638 1323.3291,701.9062 1313.4463,712.9218 " fill="none" id="MainFrame-to-FiltersFrame" style="stroke:#181818;stroke-width:1.3020833333333333;"/><polygon fill="#181818" points="1308.2292,718.737,1319.9317,713.4923,1312.5768,713.891,1312.1781,706.5361,1308.2292,718.737" style="stroke:#181818;stroke-width:1.3020833333333333;"/></g><!--link MainFrame to AlertsFrame--><g id="link_MainFrame_AlertsFrame"><path codeLine="130" d="M1151.0677,601.6927 C981.1458,628.6068 765.5729,665.9635 575.5208,708.776 C561.901,711.849 555.4397,713.3231 541.3511,716.8778 " fill="none" id="MainFrame-to-AlertsFrame" style="stroke:#181818;stroke-width:1.3020833333333333;"/><polygon fill="#181818" points="533.776,718.7891,546.4129,720.9722,540.0886,717.1963,543.8645,710.8721,533.776,718.7891" style="stroke:#181818;stroke-width:1.3020833333333333;"/></g><!--link MainFrame to SettingsFrame--><g id="link_MainFrame_SettingsFrame"><path codeLine="131" d="M1151.4844,656.901 C1086.5885,678.3333 1027.9658,697.6947 971.3121,716.3926 " fill="none" id="MainFrame-to-SettingsFrame" style="stroke:#181818;stroke-width:1.3020833333333333;"/><polygon fill="#181818" points="963.8932,718.8411,976.6539,720.1143,970.0756,716.8007,973.3892,710.2224,963.8932,718.8411" style="stroke:#181818;stroke-width:1.3020833333333333;"/></g><!--link MainFrame to UserSettings--><g id="link_MainFrame_UserSettings"><path codeLine="132" d="M1755.2083,679.0885 C1764.6745,688.2943 1773.4245,698.1771 1781.25,708.776 C1902.7083,873.3203 1738.4896,988.724 1842.4479,1164.8568 C1847.7865,1173.8802 1848.9834,1176.575 1856.0928,1184.5567 " fill="none" id="MainFrame-to-UserSettings" style="stroke:#181818;stroke-width:1.3020833333333333;stroke-dasharray:7.0,7.0;"/><polygon fill="#181818" points="1861.2891,1190.3906,1857.3839,1178.1756,1856.9589,1185.5291,1849.6054,1185.104,1861.2891,1190.3906" style="stroke:#181818;stroke-width:1.3020833333333333;"/></g><!--link MainFrame to UserFilters--><g id="link_MainFrame_UserFilters"><path codeLine="133" d="M1754.8047,680.5859 C1790.2734,695.638 1814.7005,706.5625 1816.4063,708.776 C1941.1979,870.9115 1730.9766,1023.5156 1878.9063,1164.8568 C1925.1172,1209.0104 2103.8672,1173.4505 2165.3646,1190.8984 C2172.8255,1193.0078 2173.0006,1192.8104 2180.5266,1195.5187 " fill="none" id="MainFrame-to-UserFilters" style="stroke:#181818;stroke-width:1.3020833333333333;stroke-dasharray:7.0,7.0;"/><polygon fill="#181818" points="2187.8776,1198.1641,2178.6147,1189.2954,2181.7518,1195.9596,2175.0875,1199.0967,2187.8776,1198.1641" style="stroke:#181818;stroke-width:1.3020833333333333;"/></g><!--link FiltersFrame to UserFilters--><g id="link_FiltersFrame_UserFilters"><path codeLine="134" d="M1316.4323,824.6875 C1413.5026,912.513 1626.1068,1089.0625 1842.4479,1164.8568 C1978.3333,1212.4479 2026.6406,1152.3177 2165.3646,1190.8984 C2172.8385,1192.9687 2173.0145,1192.7791 2180.5405,1195.4484 " fill="none" id="FiltersFrame-to-UserFilters" style="stroke:#181818;stroke-width:1.3020833333333333;stroke-dasharray:7.0,7.0;"/><polygon fill="#181818" points="2187.9036,1198.0599,2178.6,1189.2339,2181.7677,1195.8837,2175.118,1199.0514,2187.9036,1198.0599" style="stroke:#181818;stroke-width:1.3020833333333333;"/></g><!--link AlertsFrame to UserAlerts--><g id="link_AlertsFrame_UserAlerts"><path codeLine="135" d="M425.8073,824.9479 C547.0573,909.9609 803.2812,1078.2682 1045.5729,1164.8568 C1219.4922,1227.0052 1425.6173,1253.7022 1554.5105,1265.2778 " fill="none" id="AlertsFrame-to-UserAlerts" style="stroke:#181818;stroke-width:1.3020833333333333;stroke-dasharray:7.0,7.0;"/><polygon fill="#181818" points="1562.2917,1265.9766,1551.0858,1259.7409,1555.8073,1265.3942,1550.154,1270.1158,1562.2917,1265.9766" style="stroke:#181818;stroke-width:1.3020833333333333;"/></g><!--link AlertNotificationDialog to UserAlerts--><g id="link_AlertNotificationDialog_UserAlerts"><path codeLine="136" d="M187.6042,608.8542 C152.7344,634.0755 116.6667,667.8906 97.6563,708.776 C68.1641,772.2135 66.5625,803.5156 97.6563,866.1849 C195.2083,1062.7734 286.3281,1085.3646 490.8854,1164.8568 C684.375,1240.0391 1296.0315,1264.1506 1554.4039,1271.1428 " fill="none" id="AlertNotificationDialog-to-UserAlerts" style="stroke:#181818;stroke-width:1.3020833333333333;stroke-dasharray:7.0,7.0;"/><polygon fill="#181818" points="1562.2135,1271.3542,1550.64,1265.8307,1555.7055,1271.178,1550.3582,1276.2436,1562.2135,1271.3542" style="stroke:#181818;stroke-width:1.3020833333333333;"/></g><!--link AlertNotificationDialog to UserSettings--><g id="link_AlertNotificationDialog_UserSettings"><path codeLine="137" d="M209.2318,608.9974 C180.2344,635.3125 149.5703,669.9349 134.1146,708.776 C108.2552,773.776 93.0599,809.5312 134.1146,866.1849 C149.7526,887.7604 1019.3359,1160.2083 1045.5729,1164.8568 C1213.776,1194.6354 1647.7865,1150.7031 1813.8021,1190.8984 C1821.1849,1192.6823 1821.1763,1192.4191 1828.6112,1194.7889 " fill="none" id="AlertNotificationDialog-to-UserSettings" style="stroke:#181818;stroke-width:1.3020833333333333;stroke-dasharray:7.0,7.0;"/><polygon fill="#181818" points="1836.0547,1197.1615,1826.4711,1188.6403,1829.8517,1195.1843,1823.3077,1198.565,1836.0547,1197.1615" style="stroke:#181818;stroke-width:1.3020833333333333;"/></g><!--link SettingsFrame to UserSettings--><g id="link_SettingsFrame_UserSettings"><path codeLine="138" d="M928.3724,824.9609 C1106.7708,900.9766 1451.0286,1046.5755 1746.0938,1164.8568 C1776.0156,1176.849 1784.1536,1178.2161 1813.8021,1190.8984 C1821.0937,1194.0104 1821.3915,1194.075 1828.8785,1197.4084 " fill="none" id="SettingsFrame-to-UserSettings" style="stroke:#181818;stroke-width:1.3020833333333333;stroke-dasharray:7.0,7.0;"/><polygon fill="#181818" points="1836.0156,1200.5859,1827.4283,1191.0615,1830.068,1197.938,1823.1916,1200.5777,1836.0156,1200.5859" style="stroke:#181818;stroke-width:1.3020833333333333;"/></g><!--reverse link User to UserFilters--><g id="link_User_UserFilters"><path codeLine="139" d="M2194.9647,1168.2132 C2208.8449,1178.9163 2210.3906,1180.1042 2223.8542,1190.4948 " fill="none" id="User-backto-UserFilters" style="stroke:#181818;stroke-width:1.3020833333333333;"/><polygon fill="#181818" points="2182.5911,1158.6719,2185.5975,1167.567,2194.9647,1168.2132,2191.9583,1159.318,2182.5911,1158.6719" style="stroke:#181818;stroke-width:1.3020833333333333;"/></g><!--reverse link User to UserAlerts--><g id="link_User_UserAlerts"><path codeLine="140" d="M1887.3887,1144.7527 C1833.4955,1177.8517 1787.8125,1205.8984 1743.9583,1232.8255 " fill="none" id="User-backto-UserAlerts" style="stroke:#181818;stroke-width:1.3020833333333333;"/><polygon fill="#181818" points="1900.7031,1136.5755,1891.3202,1136.226,1887.3887,1144.7527,1896.7716,1145.1023,1900.7031,1136.5755" style="stroke:#181818;stroke-width:1.3020833333333333;"/></g><!--reverse link User to UserSettings--><g id="link_User_UserSettings"><path codeLine="141" d="M2011.318,1180.4534 C2009.3258,1189.0211 2010.8854,1182.3568 2008.9453,1190.6641 " fill="none" id="User-backto-UserSettings" style="stroke:#181818;stroke-width:1.3020833333333333;"/><polygon fill="#181818" points="2014.8568,1165.2344,2008.0144,1171.6643,2011.318,1180.4534,2018.1604,1174.0235,2014.8568,1165.2344" style="stroke:#181818;stroke-width:1.3020833333333333;"/></g><!--link CVEInfoFrame to CVE--><g id="link_CVEInfoFrame_CVE"><path codeLine="142" d="M1758.763,785.9245 C1903.6979,802.3307 2131.3411,833.8802 2205.7292,876.6016 C2234.4661,893.112 2255.1319,911.5486 2276.6813,936.7569 " fill="none" id="CVEInfoFrame-to-CVE" style="stroke:#181818;stroke-width:1.3020833333333333;"/><polygon fill="#181818" points="2281.7578,942.6953,2278.102,930.4034,2277.5274,937.7466,2270.1842,937.172,2281.7578,942.6953" style="stroke:#181818;stroke-width:1.3020833333333333;"/></g><!--link DatabaseService to CVE--><g id="link_DatabaseService_CVE"><path codeLine="143" d="M3980.3516,616.8229 C4022.6823,638.7891 4061.9531,668.5677 4087.2396,708.776 C4124.4792,767.9948 4134.0755,814.2057 4087.2396,866.1849 C3979.4661,985.7943 2861.8449,1031.4683 2483.0168,1043.6168 " fill="none" id="DatabaseService-to-CVE" style="stroke:#181818;stroke-width:1.3020833333333333;stroke-dasharray:7.0,7.0;"/><polygon fill="#181818" points="2475.2083,1043.8672,2487.088,1048.6972,2481.7154,1043.6585,2486.7541,1038.2859,2475.2083,1043.8672" style="stroke:#181818;stroke-width:1.3020833333333333;"/></g><!--link DatabaseService to CVEFetcher--><g id="link_DatabaseService_CVEFetcher"><path codeLine="144" d="M3735.3385,651.4583 C3727.8385,670.651 3722.9755,683.1147 3716.0354,700.8621 " fill="none" id="DatabaseService-to-CVEFetcher" style="stroke:#181818;stroke-width:1.3020833333333333;"/><polygon fill="#181818" points="3713.1901,708.138,3722.3086,699.1209,3715.5612,702.0747,3712.6074,695.3272,3713.1901,708.138" style="stroke:#181818;stroke-width:1.3020833333333333;"/></g><!--link CVEFetcher to CVE--><g id="link_CVEFetcher_CVE"><path codeLine="145" d="M3384.5313,835.5599 C3097.0443,894.5182 2687.8615,978.443 2482.7182,1020.5264 " fill="none" id="CVEFetcher-to-CVE" style="stroke:#181818;stroke-width:1.3020833333333333;stroke-dasharray:7.0,7.0;"/><polygon fill="#181818" points="2475.0651,1022.0964,2487.5914,1024.8435,2481.4427,1020.788,2485.4981,1014.6393,2475.0651,1022.0964" style="stroke:#181818;stroke-width:1.3020833333333333;"/></g><!--link Main to Filters--><g id="link_Main_Filters"><path codeLine="146" d="M2367.1875,363.2682 C2367.1875,407.7344 2367.1875,447.9687 2367.1875,484.8177 " fill="none" id="Main-to-Filters" style="stroke:#181818;stroke-width:1.3020833333333333;"/><polygon fill="#181818" points="2367.1875,492.6302,2372.3958,480.9115,2367.1875,486.1198,2361.9792,480.9115,2367.1875,492.6302" style="stroke:#181818;stroke-width:1.3020833333333333;"/></g><!--link Filters to CVE--><g id="link_Filters_CVE"><path codeLine="147" d="M2365.2083,619.375 C2362.6172,700.638 2358.2821,836.4753 2355.1571,934.7696 " fill="none" id="Filters-to-CVE" style="stroke:#181818;stroke-width:1.3020833333333333;stroke-dasharray:7.0,7.0;"/><polygon fill="#181818" points="2354.9089,942.5781,2360.4869,931.0308,2355.1157,936.071,2350.0755,930.6998,2354.9089,942.5781" style="stroke:#181818;stroke-width:1.3020833333333333;"/></g><!--link APIUtils to CVEFetcher--><g id="link_APIUtils_CVEFetcher"><path codeLine="148" d="M3126.4583,597.9167 C3156.849,626.0286 3200.8333,661.9661 3246.0938,682.7344 C3267.6432,692.6172 3282.8681,698.904 3306.0322,706.6904 " fill="none" id="APIUtils-to-CVEFetcher" style="stroke:#181818;stroke-width:1.3020833333333333;stroke-dasharray:7.0,7.0;"/><polygon fill="#181818" points="3313.4375,709.1797,3303.989,700.5089,3307.2664,707.1053,3300.67,710.3827,3313.4375,709.1797" style="stroke:#181818;stroke-width:1.3020833333333333;"/></g><!--link NotificationService to User--><g id="link_NotificationService_User"><path codeLine="149" d="M3898.4766,278.4635 C3935.0911,301.7057 3976.4974,334.0104 4002.6042,373.2682 C4125.7161,558.3333 4243.9844,708.5807 4087.2396,866.1849 C4068.8151,884.7135 2229.7396,866.2891 2205.7292,876.6016 C2176.6406,889.0885 2155.7513,904.0259 2133.0169,926.4998 " fill="none" id="NotificationService-to-User" style="stroke:#181818;stroke-width:1.3020833333333333;stroke-dasharray:7.0,7.0;"/><polygon fill="#181818" points="2127.4609,931.9922,2139.4565,927.4577,2132.0909,927.4152,2132.1334,920.0496,2127.4609,931.9922" style="stroke:#181818;stroke-width:1.3020833333333333;"/></g><!--link NotificationService to DatabaseService--><g id="link_NotificationService_DatabaseService"><path codeLine="150" d="M3815.2474,278.2422 C3808.099,324.1016 3797.4537,392.3329 3787.9876,453.036 " fill="none" id="NotificationService-to-DatabaseService" style="stroke:#181818;stroke-width:1.3020833333333333;"/><polygon fill="#181818" points="3786.7839,460.7552,3793.7356,449.9789,3787.787,454.3225,3783.4433,448.3739,3786.7839,460.7552" style="stroke:#181818;stroke-width:1.3020833333333333;"/></g><!--SRC=[bLVVR-Cs37xFNo7qoLsROZjWBy5GeEaF84DxFLnwUnaE1yLc72sAv4boRi7X_lTHjcpBijmaUKXYVXGfVgGeMc-PAAYYErBGT4jpU6E6mnrdkTY1C8J3sanqgvGLZFpsuNTFegZOQYZ8Xryd4sU2NAHoTxClkTX9mOnK5-J7P4BmatAgDNcXJA24kC_L3fyJgd8z8qkZcCZ__dhPeTfGPUwA8WbbztyzFe59DxWWOVg5YfBopy0bpMPa9IK7Ahmbga9mpGCrrBTLW5fBjLi2LUac-RS4TMZsuNlSoE-uU27MCadtiCX6T9uODw2Ua1b80kYEWp8w2Yt16BJL0t_MbBMSvYMxy5ZhgAmMUKXbjGMIL0gZ94VdiqhzcfJQ_l-2tvVzHGopTIztXHIOUfq4Q5barC0d9NC5Mi-fIlQKbp0ZJ9X0TSEodc80sv1zsC1_PiYdvnIPVwCh3fRwPwPHsNx_WUBRY6alJpE23n6L5_ICh2Qx-hTnVasCBV_kqU5lXo8QfmPJLzoyD4QAHs4tcILG_qRAy6UGFxVLQ0fzB19BQAgkF1qrvMFd50Gj2dvmYvDnrrvbXvxzeZ_NSRtscD-Fqh0rIwbXKZmmocKUtSDGRL2LT0_DGNp7QU-iXgxw1_cCWDzr7hQ2dSo03vi1baUmdodBo8miX84SL1_1WlfMeNMfzy4CTAfOORaQqT2m1yNCOGIcwpMa1Z8yvLcPcX6jebnnfZUGOKy6rB4_VLfoC0zWAED8oj18c1hBQyY0PNmnoe95XSrZV8E0LnCVspnw_2xL68NMiZivfCwuUnggrNNkjEg7eL9J74wjUHpGPS6g-vt8LxF7W3QfQ-18-jzLAkhaTonKJRlMl0tgLAIypE0pQCdtO3cTrwrp49-pTaw8ZjyV0rirS8wfDWi1NSBhBjfT0oD1JD6OUPOv4x6AdsPKRL_mV1ynKar0PV6-LbCFNMCPYpBiCBXeprBGqIPJJLs3atQrjk9d34ZRqKmdDawCP6btQkFiRbM7F8hCbryIxrgFc4Rn_B38Wl4B5_svVFtukle76qxGZ9jbrSZNd-oYliAC-tV6icOa35g3oAeoIhhMteuDmvacz61tjg8QHgpZ1I8mhDXDrOI5REZnSGWBe1rvn-cjjUBa8X16R0VbCrXruxU6kYoENMwbmMu_hBkxJuil5Wafsj4j87PFEKzAnVsj73dFySvtjQx4yyFhCkJsccZWrRNskZobQ9sXfUkLu-OQZHECzYQo4_RNoTnLF0HEyzua2zDLlRzDfxVTsqSd2Wgw0xg-qSdiOPbqhp0Z8liKYFpHE83yKJU0l5aqG7fZcuVTtDpsRziXrDpglV4x1Fq1kS7SHJysmvwfrkwmFvuEu6f4-cKwxMsl9tGEUx9sUUzznMLY4ZOnwpGc3yh0kqcQ5Mrb1Aos2cqNS8B6LgnJDx57mLYj_Wy0]--></g></svg>