<?xml version="1.0" encoding="us-ascii" standalone="no"?><svg xmlns="http://www.w3.org/2000/svg" xmlns:xlink="http://www.w3.org/1999/xlink" contentStyleType="text/css" height="704.1667px" preserveAspectRatio="none" style="width:2843px;height:704px;background:#FFFFFF;" version="1.1" viewBox="0 0 2843 704" width="2843.75px" zoomAndPan="magnify"><defs/><g><!--cluster com--><g id="cluster_com"><path d="M8.8542,37.4167 L44.2708,37.4167 A3.9063,3.9063 0 0 1 46.875,40.0208 L54.1667,60.6426 L2833.8542,60.6426 A2.6042,2.6042 0 0 1 2836.4583,63.2467 L2836.4583,695.2292 A2.6042,2.6042 0 0 1 2833.8542,697.8333 L8.8542,697.8333 A2.6042,2.6042 0 0 1 6.25,695.2292 L6.25,40.0208 A2.6042,2.6042 0 0 1 8.8542,37.4167 " fill="none" style="stroke:#000000;stroke-width:1.5625;"/><line style="stroke:#000000;stroke-width:1.5625;" x1="6.25" x2="54.1667" y1="60.6426" y2="60.6426"/><text fill="#000000" font-family="sans-serif" font-size="14.5833" font-weight="bold" lengthAdjust="spacing" textLength="34.375" x="10.4167" y="53.0366">com</text></g><!--cluster vulnmonitor--><g id="cluster_vulnmonitor"><path d="M33.8542,82.2083 L132.8125,82.2083 A3.9063,3.9063 0 0 1 135.4167,84.8125 L142.7083,105.4342 L2808.8542,105.4342 A2.6042,2.6042 0 0 1 2811.4583,108.0384 L2811.4583,670.2292 A2.6042,2.6042 0 0 1 2808.8542,672.8333 L33.8542,672.8333 A2.6042,2.6042 0 0 1 31.25,670.2292 L31.25,84.8125 A2.6042,2.6042 0 0 1 33.8542,82.2083 " fill="none" style="stroke:#000000;stroke-width:1.5625;"/><line style="stroke:#000000;stroke-width:1.5625;" x1="31.25" x2="142.7083" y1="105.4342" y2="105.4342"/><text fill="#000000" font-family="sans-serif" font-size="14.5833" font-weight="bold" lengthAdjust="spacing" textLength="97.9167" x="35.4167" y="97.8282">vulnmonitor</text></g><!--cluster gui--><g id="cluster_gui"><path d="M1468.2292,127 L1494.2708,127 A3.9063,3.9063 0 0 1 1496.875,129.6042 L1504.1667,150.2259 L2616.1458,150.2259 A2.6042,2.6042 0 0 1 2618.75,152.8301 L2618.75,433.7708 A2.6042,2.6042 0 0 1 2616.1458,436.375 L1468.2292,436.375 A2.6042,2.6042 0 0 1 1465.625,433.7708 L1465.625,129.6042 A2.6042,2.6042 0 0 1 1468.2292,127 " fill="none" style="stroke:#000000;stroke-width:1.5625;"/><line style="stroke:#000000;stroke-width:1.5625;" x1="1465.625" x2="1504.1667" y1="150.2259" y2="150.2259"/><text fill="#000000" font-family="sans-serif" font-size="14.5833" font-weight="bold" lengthAdjust="spacing" textLength="25" x="1469.7917" y="142.6199">gui</text></g><!--cluster model--><g id="cluster_model"><path d="M1701.5625,461.375 L1752.6042,461.375 A3.9063,3.9063 0 0 1 1755.2083,463.9792 L1762.5,484.6009 L2492.1875,484.6009 A2.6042,2.6042 0 0 1 2494.7917,487.2051 L2494.7917,645.2292 A2.6042,2.6042 0 0 1 2492.1875,647.8333 L1701.5625,647.8333 A2.6042,2.6042 0 0 1 1698.9583,645.2292 L1698.9583,463.9792 A2.6042,2.6042 0 0 1 1701.5625,461.375 " fill="none" style="stroke:#000000;stroke-width:1.5625;"/><line style="stroke:#000000;stroke-width:1.5625;" x1="1698.9583" x2="1762.5" y1="484.6009" y2="484.6009"/><text fill="#000000" font-family="sans-serif" font-size="14.5833" font-weight="bold" lengthAdjust="spacing" textLength="50" x="1703.125" y="476.9949">model</text></g><!--cluster services--><g id="cluster_services"><path d="M113.0208,230.125 L183.8542,230.125 A3.9063,3.9063 0 0 1 186.4583,232.7292 L193.75,253.3509 L509.8958,253.3509 A2.6042,2.6042 0 0 1 512.5,255.9551 L512.5,561.8958 A2.6042,2.6042 0 0 1 509.8958,564.5 L113.0208,564.5 A2.6042,2.6042 0 0 1 110.4167,561.8958 L110.4167,232.7292 A2.6042,2.6042 0 0 1 113.0208,230.125 " fill="none" style="stroke:#000000;stroke-width:1.5625;"/><line style="stroke:#000000;stroke-width:1.5625;" x1="110.4167" x2="193.75" y1="253.3509" y2="253.3509"/><text fill="#000000" font-family="sans-serif" font-size="14.5833" font-weight="bold" lengthAdjust="spacing" textLength="69.7917" x="114.5833" y="245.7449">services</text></g><!--cluster utils--><g id="cluster_utils"><path d="M540.1042,333.25 L575.5208,333.25 A3.9063,3.9063 0 0 1 578.125,335.8542 L585.4167,356.4759 L1424.4792,356.4759 A2.6042,2.6042 0 0 1 1427.0833,359.0801 L1427.0833,433.7708 A2.6042,2.6042 0 0 1 1424.4792,436.375 L540.1042,436.375 A2.6042,2.6042 0 0 1 537.5,433.7708 L537.5,335.8542 A2.6042,2.6042 0 0 1 540.1042,333.25 " fill="none" style="stroke:#000000;stroke-width:1.5625;"/><line style="stroke:#000000;stroke-width:1.5625;" x1="537.5" x2="585.4167" y1="356.4759" y2="356.4759"/><text fill="#000000" font-family="sans-serif" font-size="14.5833" font-weight="bold" lengthAdjust="spacing" textLength="34.375" x="541.6667" y="348.8699">utils</text></g><!--class Main--><g id="elem_Main"><rect codeLine="7" fill="#F1F1F1" height="50" id="Main" rx="2.6042" ry="2.6042" style="stroke:#181818;stroke-width:0.5208333333333334;" width="66.6667" x="1380.2083" y="163.4583"/><ellipse cx="1395.8333" cy="180.125" fill="#ADD1B2" rx="11.4583" ry="11.4583" style="stroke:#181818;stroke-width:1.0416666666666667;"/><path d="M1398.9258,186.0007 Q1398.3236,186.3099 1397.6563,186.4564 Q1396.9889,186.6191 1396.2565,186.6191 Q1393.6523,186.6191 1392.2689,184.9102 Q1390.9017,183.1849 1390.9017,179.9297 Q1390.9017,176.6745 1392.2689,174.9492 Q1393.6523,173.224 1396.2565,173.224 Q1396.9889,173.224 1397.6563,173.3867 Q1398.3398,173.5495 1398.9258,173.8587 L1398.9258,176.6908 Q1398.2747,176.0885 1397.6563,175.8118 Q1397.0378,175.5189 1396.3867,175.5189 Q1394.987,175.5189 1394.2708,176.6419 Q1393.5547,177.7487 1393.5547,179.9297 Q1393.5547,182.1107 1394.2708,183.2337 Q1394.987,184.3405 1396.3867,184.3405 Q1397.0378,184.3405 1397.6563,184.0638 Q1398.2747,183.7708 1398.9258,183.1686 L1398.9258,186.0007 Z " fill="#000000"/><text fill="#000000" font-family="sans-serif" font-size="14.5833" lengthAdjust="spacing" textLength="33.3333" x="1410.4167" y="185.1736">Main</text><line style="stroke:#181818;stroke-width:0.5208333333333334;" x1="1381.25" x2="1445.8333" y1="196.7917" y2="196.7917"/><line style="stroke:#181818;stroke-width:0.5208333333333334;" x1="1381.25" x2="1445.8333" y1="205.125" y2="205.125"/></g><!--class MainFrame--><g id="elem_MainFrame"><rect codeLine="11" fill="#F1F1F1" height="50" id="MainFrame" rx="2.6042" ry="2.6042" style="stroke:#181818;stroke-width:0.5208333333333334;" width="111.4583" x="2050.5208" y="163.4583"/><ellipse cx="2066.1458" cy="180.125" fill="#ADD1B2" rx="11.4583" ry="11.4583" style="stroke:#181818;stroke-width:1.0416666666666667;"/><path d="M2069.2383,186.0007 Q2068.6361,186.3099 2067.9688,186.4564 Q2067.3014,186.6191 2066.569,186.6191 Q2063.9648,186.6191 2062.5814,184.9102 Q2061.2142,183.1849 2061.2142,179.9297 Q2061.2142,176.6745 2062.5814,174.9492 Q2063.9648,173.224 2066.569,173.224 Q2067.3014,173.224 2067.9688,173.3867 Q2068.6523,173.5495 2069.2383,173.8587 L2069.2383,176.6908 Q2068.5872,176.0885 2067.9688,175.8118 Q2067.3503,175.5189 2066.6992,175.5189 Q2065.2995,175.5189 2064.5833,176.6419 Q2063.8672,177.7487 2063.8672,179.9297 Q2063.8672,182.1107 2064.5833,183.2337 Q2065.2995,184.3405 2066.6992,184.3405 Q2067.3503,184.3405 2067.9688,184.0638 Q2068.5872,183.7708 2069.2383,183.1686 L2069.2383,186.0007 Z " fill="#000000"/><text fill="#000000" font-family="sans-serif" font-size="14.5833" lengthAdjust="spacing" textLength="78.125" x="2080.7292" y="185.1736">MainFrame</text><line style="stroke:#181818;stroke-width:0.5208333333333334;" x1="2051.5625" x2="2160.9375" y1="196.7917" y2="196.7917"/><line style="stroke:#181818;stroke-width:0.5208333333333334;" x1="2051.5625" x2="2160.9375" y1="205.125" y2="205.125"/></g><!--class CVEInfoFrame--><g id="elem_CVEInfoFrame"><rect codeLine="12" fill="#F1F1F1" height="50" id="CVEInfoFrame" rx="2.6042" ry="2.6042" style="stroke:#181818;stroke-width:0.5208333333333334;" width="133.3333" x="2294.7917" y="266.5833"/><ellipse cx="2310.4167" cy="283.25" fill="#ADD1B2" rx="11.4583" ry="11.4583" style="stroke:#181818;stroke-width:1.0416666666666667;"/><path d="M2313.5091,289.1257 Q2312.9069,289.4349 2312.2396,289.5814 Q2311.5723,289.7441 2310.8398,289.7441 Q2308.2357,289.7441 2306.8522,288.0352 Q2305.485,286.3099 2305.485,283.0547 Q2305.485,279.7995 2306.8522,278.0742 Q2308.2357,276.349 2310.8398,276.349 Q2311.5723,276.349 2312.2396,276.5117 Q2312.9232,276.6745 2313.5091,276.9837 L2313.5091,279.8158 Q2312.8581,279.2135 2312.2396,278.9368 Q2311.6211,278.6439 2310.9701,278.6439 Q2309.5703,278.6439 2308.8542,279.7669 Q2308.138,280.8737 2308.138,283.0547 Q2308.138,285.2357 2308.8542,286.3587 Q2309.5703,287.4655 2310.9701,287.4655 Q2311.6211,287.4655 2312.2396,287.1888 Q2312.8581,286.8958 2313.5091,286.2936 L2313.5091,289.1257 Z " fill="#000000"/><text fill="#000000" font-family="sans-serif" font-size="14.5833" lengthAdjust="spacing" textLength="100" x="2325" y="288.2986">CVEInfoFrame</text><line style="stroke:#181818;stroke-width:0.5208333333333334;" x1="2295.8333" x2="2427.0833" y1="299.9167" y2="299.9167"/><line style="stroke:#181818;stroke-width:0.5208333333333334;" x1="2295.8333" x2="2427.0833" y1="308.25" y2="308.25"/></g><!--class LoginFrame--><g id="elem_LoginFrame"><rect codeLine="13" fill="#F1F1F1" height="50" id="LoginFrame" rx="2.6042" ry="2.6042" style="stroke:#181818;stroke-width:0.5208333333333334;" width="116.6667" x="1654.1667" y="266.5833"/><ellipse cx="1669.7917" cy="283.25" fill="#ADD1B2" rx="11.4583" ry="11.4583" style="stroke:#181818;stroke-width:1.0416666666666667;"/><path d="M1672.8841,289.1257 Q1672.2819,289.4349 1671.6146,289.5814 Q1670.9473,289.7441 1670.2148,289.7441 Q1667.6107,289.7441 1666.2272,288.0352 Q1664.86,286.3099 1664.86,283.0547 Q1664.86,279.7995 1666.2272,278.0742 Q1667.6107,276.349 1670.2148,276.349 Q1670.9473,276.349 1671.6146,276.5117 Q1672.2982,276.6745 1672.8841,276.9837 L1672.8841,279.8158 Q1672.2331,279.2135 1671.6146,278.9368 Q1670.9961,278.6439 1670.3451,278.6439 Q1668.9453,278.6439 1668.2292,279.7669 Q1667.513,280.8737 1667.513,283.0547 Q1667.513,285.2357 1668.2292,286.3587 Q1668.9453,287.4655 1670.3451,287.4655 Q1670.9961,287.4655 1671.6146,287.1888 Q1672.2331,286.8958 1672.8841,286.2936 L1672.8841,289.1257 Z " fill="#000000"/><text fill="#000000" font-family="sans-serif" font-size="14.5833" lengthAdjust="spacing" textLength="83.3333" x="1684.375" y="288.2986">LoginFrame</text><line style="stroke:#181818;stroke-width:0.5208333333333334;" x1="1655.2083" x2="1769.7917" y1="299.9167" y2="299.9167"/><line style="stroke:#181818;stroke-width:0.5208333333333334;" x1="1655.2083" x2="1769.7917" y1="308.25" y2="308.25"/></g><!--class FiltersFrame--><g id="elem_FiltersFrame"><rect codeLine="14" fill="#F1F1F1" height="50" id="FiltersFrame" rx="2.6042" ry="2.6042" style="stroke:#181818;stroke-width:0.5208333333333334;" width="120.8333" x="1807.2917" y="266.5833"/><ellipse cx="1822.9167" cy="283.25" fill="#ADD1B2" rx="11.4583" ry="11.4583" style="stroke:#181818;stroke-width:1.0416666666666667;"/><path d="M1826.0091,289.1257 Q1825.4069,289.4349 1824.7396,289.5814 Q1824.0723,289.7441 1823.3398,289.7441 Q1820.7357,289.7441 1819.3522,288.0352 Q1817.985,286.3099 1817.985,283.0547 Q1817.985,279.7995 1819.3522,278.0742 Q1820.7357,276.349 1823.3398,276.349 Q1824.0723,276.349 1824.7396,276.5117 Q1825.4232,276.6745 1826.0091,276.9837 L1826.0091,279.8158 Q1825.3581,279.2135 1824.7396,278.9368 Q1824.1211,278.6439 1823.4701,278.6439 Q1822.0703,278.6439 1821.3542,279.7669 Q1820.638,280.8737 1820.638,283.0547 Q1820.638,285.2357 1821.3542,286.3587 Q1822.0703,287.4655 1823.4701,287.4655 Q1824.1211,287.4655 1824.7396,287.1888 Q1825.3581,286.8958 1826.0091,286.2936 L1826.0091,289.1257 Z " fill="#000000"/><text fill="#000000" font-family="sans-serif" font-size="14.5833" lengthAdjust="spacing" textLength="87.5" x="1837.5" y="288.2986">FiltersFrame</text><line style="stroke:#181818;stroke-width:0.5208333333333334;" x1="1808.3333" x2="1927.0833" y1="299.9167" y2="299.9167"/><line style="stroke:#181818;stroke-width:0.5208333333333334;" x1="1808.3333" x2="1927.0833" y1="308.25" y2="308.25"/></g><!--class AlertsFrame--><g id="elem_AlertsFrame"><rect codeLine="15" fill="#F1F1F1" height="50" id="AlertsFrame" rx="2.6042" ry="2.6042" style="stroke:#181818;stroke-width:0.5208333333333334;" width="118.75" x="1964.5833" y="266.5833"/><ellipse cx="1980.2083" cy="283.25" fill="#ADD1B2" rx="11.4583" ry="11.4583" style="stroke:#181818;stroke-width:1.0416666666666667;"/><path d="M1983.3008,289.1257 Q1982.6986,289.4349 1982.0313,289.5814 Q1981.3639,289.7441 1980.6315,289.7441 Q1978.0273,289.7441 1976.6439,288.0352 Q1975.2767,286.3099 1975.2767,283.0547 Q1975.2767,279.7995 1976.6439,278.0742 Q1978.0273,276.349 1980.6315,276.349 Q1981.3639,276.349 1982.0313,276.5117 Q1982.7148,276.6745 1983.3008,276.9837 L1983.3008,279.8158 Q1982.6497,279.2135 1982.0313,278.9368 Q1981.4128,278.6439 1980.7617,278.6439 Q1979.362,278.6439 1978.6458,279.7669 Q1977.9297,280.8737 1977.9297,283.0547 Q1977.9297,285.2357 1978.6458,286.3587 Q1979.362,287.4655 1980.7617,287.4655 Q1981.4128,287.4655 1982.0313,287.1888 Q1982.6497,286.8958 1983.3008,286.2936 L1983.3008,289.1257 Z " fill="#000000"/><text fill="#000000" font-family="sans-serif" font-size="14.5833" lengthAdjust="spacing" textLength="85.4167" x="1994.7917" y="288.2986">AlertsFrame</text><line style="stroke:#181818;stroke-width:0.5208333333333334;" x1="1965.625" x2="2082.2917" y1="299.9167" y2="299.9167"/><line style="stroke:#181818;stroke-width:0.5208333333333334;" x1="1965.625" x2="2082.2917" y1="308.25" y2="308.25"/></g><!--class AlertNotificationDialog--><g id="elem_AlertNotificationDialog"><rect codeLine="16" fill="#F1F1F1" height="50" id="AlertNotificationDialog" rx="2.6042" ry="2.6042" style="stroke:#181818;stroke-width:0.5208333333333334;" width="189.5833" x="2412.5" y="163.4583"/><ellipse cx="2428.125" cy="180.125" fill="#ADD1B2" rx="11.4583" ry="11.4583" style="stroke:#181818;stroke-width:1.0416666666666667;"/><path d="M2431.2174,186.0007 Q2430.6152,186.3099 2429.9479,186.4564 Q2429.2806,186.6191 2428.5482,186.6191 Q2425.944,186.6191 2424.5605,184.9102 Q2423.1934,183.1849 2423.1934,179.9297 Q2423.1934,176.6745 2424.5605,174.9492 Q2425.944,173.224 2428.5482,173.224 Q2429.2806,173.224 2429.9479,173.3867 Q2430.6315,173.5495 2431.2174,173.8587 L2431.2174,176.6908 Q2430.5664,176.0885 2429.9479,175.8118 Q2429.3294,175.5189 2428.6784,175.5189 Q2427.2786,175.5189 2426.5625,176.6419 Q2425.8464,177.7487 2425.8464,179.9297 Q2425.8464,182.1107 2426.5625,183.2337 Q2427.2786,184.3405 2428.6784,184.3405 Q2429.3294,184.3405 2429.9479,184.0638 Q2430.5664,183.7708 2431.2174,183.1686 L2431.2174,186.0007 Z " fill="#000000"/><text fill="#000000" font-family="sans-serif" font-size="14.5833" lengthAdjust="spacing" textLength="156.25" x="2442.7083" y="185.1736">AlertNotificationDialog</text><line style="stroke:#181818;stroke-width:0.5208333333333334;" x1="2413.5417" x2="2601.0417" y1="196.7917" y2="196.7917"/><line style="stroke:#181818;stroke-width:0.5208333333333334;" x1="2413.5417" x2="2601.0417" y1="205.125" y2="205.125"/></g><!--class AlertEditorDialog--><g id="elem_AlertEditorDialog"><rect codeLine="17" fill="#F1F1F1" height="50" id="AlertEditorDialog" rx="2.6042" ry="2.6042" style="stroke:#181818;stroke-width:0.5208333333333334;" width="152.0833" x="1858.3333" y="369.7083"/><ellipse cx="1873.9583" cy="386.375" fill="#ADD1B2" rx="11.4583" ry="11.4583" style="stroke:#181818;stroke-width:1.0416666666666667;"/><path d="M1877.0508,392.2507 Q1876.4486,392.5599 1875.7813,392.7064 Q1875.1139,392.8691 1874.3815,392.8691 Q1871.7773,392.8691 1870.3939,391.1602 Q1869.0267,389.4349 1869.0267,386.1797 Q1869.0267,382.9245 1870.3939,381.1992 Q1871.7773,379.474 1874.3815,379.474 Q1875.1139,379.474 1875.7813,379.6367 Q1876.4648,379.7995 1877.0508,380.1087 L1877.0508,382.9408 Q1876.3997,382.3385 1875.7813,382.0618 Q1875.1628,381.7689 1874.5117,381.7689 Q1873.112,381.7689 1872.3958,382.8919 Q1871.6797,383.9987 1871.6797,386.1797 Q1871.6797,388.3607 1872.3958,389.4837 Q1873.112,390.5905 1874.5117,390.5905 Q1875.1628,390.5905 1875.7813,390.3138 Q1876.3997,390.0208 1877.0508,389.4186 L1877.0508,392.2507 Z " fill="#000000"/><text fill="#000000" font-family="sans-serif" font-size="14.5833" lengthAdjust="spacing" textLength="118.75" x="1888.5417" y="391.4236">AlertEditorDialog</text><line style="stroke:#181818;stroke-width:0.5208333333333334;" x1="1859.375" x2="2009.375" y1="403.0417" y2="403.0417"/><line style="stroke:#181818;stroke-width:0.5208333333333334;" x1="1859.375" x2="2009.375" y1="411.375" y2="411.375"/></g><!--class ArchivesFrame--><g id="elem_ArchivesFrame"><rect codeLine="18" fill="#F1F1F1" height="50" id="ArchivesFrame" rx="2.6042" ry="2.6042" style="stroke:#181818;stroke-width:0.5208333333333334;" width="138.5417" x="2119.2708" y="266.5833"/><ellipse cx="2134.8958" cy="283.25" fill="#ADD1B2" rx="11.4583" ry="11.4583" style="stroke:#181818;stroke-width:1.0416666666666667;"/><path d="M2137.9883,289.1257 Q2137.3861,289.4349 2136.7188,289.5814 Q2136.0514,289.7441 2135.319,289.7441 Q2132.7148,289.7441 2131.3314,288.0352 Q2129.9642,286.3099 2129.9642,283.0547 Q2129.9642,279.7995 2131.3314,278.0742 Q2132.7148,276.349 2135.319,276.349 Q2136.0514,276.349 2136.7188,276.5117 Q2137.4023,276.6745 2137.9883,276.9837 L2137.9883,279.8158 Q2137.3372,279.2135 2136.7188,278.9368 Q2136.1003,278.6439 2135.4492,278.6439 Q2134.0495,278.6439 2133.3333,279.7669 Q2132.6172,280.8737 2132.6172,283.0547 Q2132.6172,285.2357 2133.3333,286.3587 Q2134.0495,287.4655 2135.4492,287.4655 Q2136.1003,287.4655 2136.7188,287.1888 Q2137.3372,286.8958 2137.9883,286.2936 L2137.9883,289.1257 Z " fill="#000000"/><text fill="#000000" font-family="sans-serif" font-size="14.5833" lengthAdjust="spacing" textLength="105.2083" x="2149.4792" y="288.2986">ArchivesFrame</text><line style="stroke:#181818;stroke-width:0.5208333333333334;" x1="2120.3125" x2="2256.7708" y1="299.9167" y2="299.9167"/><line style="stroke:#181818;stroke-width:0.5208333333333334;" x1="2120.3125" x2="2256.7708" y1="308.25" y2="308.25"/></g><!--class SettingsFrame--><g id="elem_SettingsFrame"><rect codeLine="19" fill="#F1F1F1" height="50" id="SettingsFrame" rx="2.6042" ry="2.6042" style="stroke:#181818;stroke-width:0.5208333333333334;" width="137.5" x="2464.5833" y="266.5833"/><ellipse cx="2480.2083" cy="283.25" fill="#ADD1B2" rx="11.4583" ry="11.4583" style="stroke:#181818;stroke-width:1.0416666666666667;"/><path d="M2483.3008,289.1257 Q2482.6986,289.4349 2482.0313,289.5814 Q2481.3639,289.7441 2480.6315,289.7441 Q2478.0273,289.7441 2476.6439,288.0352 Q2475.2767,286.3099 2475.2767,283.0547 Q2475.2767,279.7995 2476.6439,278.0742 Q2478.0273,276.349 2480.6315,276.349 Q2481.3639,276.349 2482.0313,276.5117 Q2482.7148,276.6745 2483.3008,276.9837 L2483.3008,279.8158 Q2482.6497,279.2135 2482.0313,278.9368 Q2481.4128,278.6439 2480.7617,278.6439 Q2479.362,278.6439 2478.6458,279.7669 Q2477.9297,280.8737 2477.9297,283.0547 Q2477.9297,285.2357 2478.6458,286.3587 Q2479.362,287.4655 2480.7617,287.4655 Q2481.4128,287.4655 2482.0313,287.1888 Q2482.6497,286.8958 2483.3008,286.2936 L2483.3008,289.1257 Z " fill="#000000"/><text fill="#000000" font-family="sans-serif" font-size="14.5833" lengthAdjust="spacing" textLength="104.1667" x="2494.7917" y="288.2986">SettingsFrame</text><line style="stroke:#181818;stroke-width:0.5208333333333334;" x1="2465.625" x2="2601.0417" y1="299.9167" y2="299.9167"/><line style="stroke:#181818;stroke-width:0.5208333333333334;" x1="2465.625" x2="2601.0417" y1="308.25" y2="308.25"/></g><!--class LoadingDialog--><g id="elem_LoadingDialog"><rect codeLine="20" fill="#F1F1F1" height="50" id="LoadingDialog" rx="2.6042" ry="2.6042" style="stroke:#181818;stroke-width:0.5208333333333334;" width="134.375" x="1482.8125" y="266.5833"/><ellipse cx="1498.4375" cy="283.25" fill="#ADD1B2" rx="11.4583" ry="11.4583" style="stroke:#181818;stroke-width:1.0416666666666667;"/><path d="M1501.5299,289.1257 Q1500.9277,289.4349 1500.2604,289.5814 Q1499.5931,289.7441 1498.8607,289.7441 Q1496.2565,289.7441 1494.873,288.0352 Q1493.5059,286.3099 1493.5059,283.0547 Q1493.5059,279.7995 1494.873,278.0742 Q1496.2565,276.349 1498.8607,276.349 Q1499.5931,276.349 1500.2604,276.5117 Q1500.944,276.6745 1501.5299,276.9837 L1501.5299,279.8158 Q1500.8789,279.2135 1500.2604,278.9368 Q1499.6419,278.6439 1498.9909,278.6439 Q1497.5911,278.6439 1496.875,279.7669 Q1496.1589,280.8737 1496.1589,283.0547 Q1496.1589,285.2357 1496.875,286.3587 Q1497.5911,287.4655 1498.9909,287.4655 Q1499.6419,287.4655 1500.2604,287.1888 Q1500.8789,286.8958 1501.5299,286.2936 L1501.5299,289.1257 Z " fill="#000000"/><text fill="#000000" font-family="sans-serif" font-size="14.5833" lengthAdjust="spacing" textLength="101.0417" x="1513.0208" y="288.2986">LoadingDialog</text><line style="stroke:#181818;stroke-width:0.5208333333333334;" x1="1483.8542" x2="1616.1458" y1="299.9167" y2="299.9167"/><line style="stroke:#181818;stroke-width:0.5208333333333334;" x1="1483.8542" x2="1616.1458" y1="308.25" y2="308.25"/></g><!--class ChangePasswordDialog--><g id="elem_ChangePasswordDialog"><rect codeLine="21" fill="#F1F1F1" height="50" id="ChangePasswordDialog" rx="2.6042" ry="2.6042" style="stroke:#181818;stroke-width:0.5208333333333334;" width="204.1667" x="1483.3333" y="163.4583"/><ellipse cx="1498.9583" cy="180.125" fill="#ADD1B2" rx="11.4583" ry="11.4583" style="stroke:#181818;stroke-width:1.0416666666666667;"/><path d="M1502.0508,186.0007 Q1501.4486,186.3099 1500.7813,186.4564 Q1500.1139,186.6191 1499.3815,186.6191 Q1496.7773,186.6191 1495.3939,184.9102 Q1494.0267,183.1849 1494.0267,179.9297 Q1494.0267,176.6745 1495.3939,174.9492 Q1496.7773,173.224 1499.3815,173.224 Q1500.1139,173.224 1500.7813,173.3867 Q1501.4648,173.5495 1502.0508,173.8587 L1502.0508,176.6908 Q1501.3997,176.0885 1500.7813,175.8118 Q1500.1628,175.5189 1499.5117,175.5189 Q1498.112,175.5189 1497.3958,176.6419 Q1496.6797,177.7487 1496.6797,179.9297 Q1496.6797,182.1107 1497.3958,183.2337 Q1498.112,184.3405 1499.5117,184.3405 Q1500.1628,184.3405 1500.7813,184.0638 Q1501.3997,183.7708 1502.0508,183.1686 L1502.0508,186.0007 Z " fill="#000000"/><text fill="#000000" font-family="sans-serif" font-size="14.5833" lengthAdjust="spacing" textLength="170.8333" x="1513.5417" y="185.1736">ChangePasswordDialog</text><line style="stroke:#181818;stroke-width:0.5208333333333334;" x1="1484.375" x2="1686.4583" y1="196.7917" y2="196.7917"/><line style="stroke:#181818;stroke-width:0.5208333333333334;" x1="1484.375" x2="1686.4583" y1="205.125" y2="205.125"/></g><!--class NotificationTableModel--><g id="elem_NotificationTableModel"><rect codeLine="22" fill="#F1F1F1" height="50" id="NotificationTableModel" rx="2.6042" ry="2.6042" style="stroke:#181818;stroke-width:0.5208333333333334;" width="195.8333" x="1723.9583" y="163.4583"/><ellipse cx="1739.5833" cy="180.125" fill="#ADD1B2" rx="11.4583" ry="11.4583" style="stroke:#181818;stroke-width:1.0416666666666667;"/><path d="M1742.6758,186.0007 Q1742.0736,186.3099 1741.4063,186.4564 Q1740.7389,186.6191 1740.0065,186.6191 Q1737.4023,186.6191 1736.0189,184.9102 Q1734.6517,183.1849 1734.6517,179.9297 Q1734.6517,176.6745 1736.0189,174.9492 Q1737.4023,173.224 1740.0065,173.224 Q1740.7389,173.224 1741.4063,173.3867 Q1742.0898,173.5495 1742.6758,173.8587 L1742.6758,176.6908 Q1742.0247,176.0885 1741.4063,175.8118 Q1740.7878,175.5189 1740.1367,175.5189 Q1738.737,175.5189 1738.0208,176.6419 Q1737.3047,177.7487 1737.3047,179.9297 Q1737.3047,182.1107 1738.0208,183.2337 Q1738.737,184.3405 1740.1367,184.3405 Q1740.7878,184.3405 1741.4063,184.0638 Q1742.0247,183.7708 1742.6758,183.1686 L1742.6758,186.0007 Z " fill="#000000"/><text fill="#000000" font-family="sans-serif" font-size="14.5833" lengthAdjust="spacing" textLength="162.5" x="1754.1667" y="185.1736">NotificationTableModel</text><line style="stroke:#181818;stroke-width:0.5208333333333334;" x1="1725" x2="1918.75" y1="196.7917" y2="196.7917"/><line style="stroke:#181818;stroke-width:0.5208333333333334;" x1="1725" x2="1918.75" y1="205.125" y2="205.125"/></g><!--class CVE--><g id="elem_CVE"><rect codeLine="26" fill="#F1F1F1" height="50" id="CVE" rx="2.6042" ry="2.6042" style="stroke:#181818;stroke-width:0.5208333333333334;" width="62.5" x="1715.625" y="497.8333"/><ellipse cx="1731.25" cy="514.5" fill="#ADD1B2" rx="11.4583" ry="11.4583" style="stroke:#181818;stroke-width:1.0416666666666667;"/><path d="M1734.3424,520.3757 Q1733.7402,520.6849 1733.0729,520.8314 Q1732.4056,520.9941 1731.6732,520.9941 Q1729.069,520.9941 1727.6855,519.2852 Q1726.3184,517.5599 1726.3184,514.3047 Q1726.3184,511.0495 1727.6855,509.3242 Q1729.069,507.599 1731.6732,507.599 Q1732.4056,507.599 1733.0729,507.7617 Q1733.7565,507.9245 1734.3424,508.2337 L1734.3424,511.0658 Q1733.6914,510.4635 1733.0729,510.1868 Q1732.4544,509.8939 1731.8034,509.8939 Q1730.4036,509.8939 1729.6875,511.0169 Q1728.9714,512.1237 1728.9714,514.3047 Q1728.9714,516.4857 1729.6875,517.6087 Q1730.4036,518.7155 1731.8034,518.7155 Q1732.4544,518.7155 1733.0729,518.4388 Q1733.6914,518.1458 1734.3424,517.5436 L1734.3424,520.3757 Z " fill="#000000"/><text fill="#000000" font-family="sans-serif" font-size="14.5833" lengthAdjust="spacing" textLength="29.1667" x="1745.8333" y="519.5486">CVE</text><line style="stroke:#181818;stroke-width:0.5208333333333334;" x1="1716.6667" x2="1777.0833" y1="531.1667" y2="531.1667"/><line style="stroke:#181818;stroke-width:0.5208333333333334;" x1="1716.6667" x2="1777.0833" y1="539.5" y2="539.5"/></g><!--class User--><g id="elem_User"><rect codeLine="27" fill="#F1F1F1" height="50" id="User" rx="2.6042" ry="2.6042" style="stroke:#181818;stroke-width:0.5208333333333334;" width="66.6667" x="1847.9167" y="497.8333"/><ellipse cx="1863.5417" cy="514.5" fill="#ADD1B2" rx="11.4583" ry="11.4583" style="stroke:#181818;stroke-width:1.0416666666666667;"/><path d="M1866.6341,520.3757 Q1866.0319,520.6849 1865.3646,520.8314 Q1864.6973,520.9941 1863.9648,520.9941 Q1861.3607,520.9941 1859.9772,519.2852 Q1858.61,517.5599 1858.61,514.3047 Q1858.61,511.0495 1859.9772,509.3242 Q1861.3607,507.599 1863.9648,507.599 Q1864.6973,507.599 1865.3646,507.7617 Q1866.0482,507.9245 1866.6341,508.2337 L1866.6341,511.0658 Q1865.9831,510.4635 1865.3646,510.1868 Q1864.7461,509.8939 1864.0951,509.8939 Q1862.6953,509.8939 1861.9792,511.0169 Q1861.263,512.1237 1861.263,514.3047 Q1861.263,516.4857 1861.9792,517.6087 Q1862.6953,518.7155 1864.0951,518.7155 Q1864.7461,518.7155 1865.3646,518.4388 Q1865.9831,518.1458 1866.6341,517.5436 L1866.6341,520.3757 Z " fill="#000000"/><text fill="#000000" font-family="sans-serif" font-size="14.5833" lengthAdjust="spacing" textLength="33.3333" x="1878.125" y="519.5486">User</text><line style="stroke:#181818;stroke-width:0.5208333333333334;" x1="1848.9583" x2="1913.5417" y1="531.1667" y2="531.1667"/><line style="stroke:#181818;stroke-width:0.5208333333333334;" x1="1848.9583" x2="1913.5417" y1="539.5" y2="539.5"/></g><!--class UserFilters--><g id="elem_UserFilters"><rect codeLine="28" fill="#F1F1F1" height="50" id="UserFilters" rx="2.6042" ry="2.6042" style="stroke:#181818;stroke-width:0.5208333333333334;" width="109.375" x="1715.1042" y="581.1667"/><ellipse cx="1730.7292" cy="597.8333" fill="#ADD1B2" rx="11.4583" ry="11.4583" style="stroke:#181818;stroke-width:1.0416666666666667;"/><path d="M1733.8216,603.709 Q1733.2194,604.0182 1732.5521,604.1647 Q1731.8848,604.3275 1731.1523,604.3275 Q1728.5482,604.3275 1727.1647,602.6185 Q1725.7975,600.8932 1725.7975,597.638 Q1725.7975,594.3828 1727.1647,592.6576 Q1728.5482,590.9323 1731.1523,590.9323 Q1731.8848,590.9323 1732.5521,591.0951 Q1733.2357,591.2578 1733.8216,591.5671 L1733.8216,594.3991 Q1733.1706,593.7969 1732.5521,593.5202 Q1731.9336,593.2272 1731.2826,593.2272 Q1729.8828,593.2272 1729.1667,594.3503 Q1728.4505,595.457 1728.4505,597.638 Q1728.4505,599.819 1729.1667,600.9421 Q1729.8828,602.0488 1731.2826,602.0488 Q1731.9336,602.0488 1732.5521,601.7721 Q1733.1706,601.4792 1733.8216,600.877 L1733.8216,603.709 Z " fill="#000000"/><text fill="#000000" font-family="sans-serif" font-size="14.5833" lengthAdjust="spacing" textLength="76.0417" x="1745.3125" y="602.882">UserFilters</text><line style="stroke:#181818;stroke-width:0.5208333333333334;" x1="1716.1458" x2="1823.4375" y1="614.5" y2="614.5"/><line style="stroke:#181818;stroke-width:0.5208333333333334;" x1="1716.1458" x2="1823.4375" y1="622.8333" y2="622.8333"/></g><!--class UserAlerts--><g id="elem_UserAlerts"><rect codeLine="29" fill="#F1F1F1" height="50" id="UserAlerts" rx="2.6042" ry="2.6042" style="stroke:#181818;stroke-width:0.5208333333333334;" width="107.2917" x="1860.9375" y="581.1667"/><ellipse cx="1876.5625" cy="597.8333" fill="#ADD1B2" rx="11.4583" ry="11.4583" style="stroke:#181818;stroke-width:1.0416666666666667;"/><path d="M1879.6549,603.709 Q1879.0527,604.0182 1878.3854,604.1647 Q1877.7181,604.3275 1876.9857,604.3275 Q1874.3815,604.3275 1872.998,602.6185 Q1871.6309,600.8932 1871.6309,597.638 Q1871.6309,594.3828 1872.998,592.6576 Q1874.3815,590.9323 1876.9857,590.9323 Q1877.7181,590.9323 1878.3854,591.0951 Q1879.069,591.2578 1879.6549,591.5671 L1879.6549,594.3991 Q1879.0039,593.7969 1878.3854,593.5202 Q1877.7669,593.2272 1877.1159,593.2272 Q1875.7161,593.2272 1875,594.3503 Q1874.2839,595.457 1874.2839,597.638 Q1874.2839,599.819 1875,600.9421 Q1875.7161,602.0488 1877.1159,602.0488 Q1877.7669,602.0488 1878.3854,601.7721 Q1879.0039,601.4792 1879.6549,600.877 L1879.6549,603.709 Z " fill="#000000"/><text fill="#000000" font-family="sans-serif" font-size="14.5833" lengthAdjust="spacing" textLength="73.9583" x="1891.1458" y="602.882">UserAlerts</text><line style="stroke:#181818;stroke-width:0.5208333333333334;" x1="1861.9792" x2="1967.1875" y1="614.5" y2="614.5"/><line style="stroke:#181818;stroke-width:0.5208333333333334;" x1="1861.9792" x2="1967.1875" y1="622.8333" y2="622.8333"/></g><!--class UserArchives--><g id="elem_UserArchives"><rect codeLine="30" fill="#F1F1F1" height="50" id="UserArchives" rx="2.6042" ry="2.6042" style="stroke:#181818;stroke-width:0.5208333333333334;" width="127.0833" x="2005.2083" y="581.1667"/><ellipse cx="2020.8333" cy="597.8333" fill="#ADD1B2" rx="11.4583" ry="11.4583" style="stroke:#181818;stroke-width:1.0416666666666667;"/><path d="M2023.9258,603.709 Q2023.3236,604.0182 2022.6563,604.1647 Q2021.9889,604.3275 2021.2565,604.3275 Q2018.6523,604.3275 2017.2689,602.6185 Q2015.9017,600.8932 2015.9017,597.638 Q2015.9017,594.3828 2017.2689,592.6576 Q2018.6523,590.9323 2021.2565,590.9323 Q2021.9889,590.9323 2022.6563,591.0951 Q2023.3398,591.2578 2023.9258,591.5671 L2023.9258,594.3991 Q2023.2747,593.7969 2022.6563,593.5202 Q2022.0378,593.2272 2021.3867,593.2272 Q2019.987,593.2272 2019.2708,594.3503 Q2018.5547,595.457 2018.5547,597.638 Q2018.5547,599.819 2019.2708,600.9421 Q2019.987,602.0488 2021.3867,602.0488 Q2022.0378,602.0488 2022.6563,601.7721 Q2023.2747,601.4792 2023.9258,600.877 L2023.9258,603.709 Z " fill="#000000"/><text fill="#000000" font-family="sans-serif" font-size="14.5833" lengthAdjust="spacing" textLength="93.75" x="2035.4167" y="602.882">UserArchives</text><line style="stroke:#181818;stroke-width:0.5208333333333334;" x1="2006.25" x2="2131.25" y1="614.5" y2="614.5"/><line style="stroke:#181818;stroke-width:0.5208333333333334;" x1="2006.25" x2="2131.25" y1="622.8333" y2="622.8333"/></g><!--class UserSettings--><g id="elem_UserSettings"><rect codeLine="31" fill="#F1F1F1" height="50" id="UserSettings" rx="2.6042" ry="2.6042" style="stroke:#181818;stroke-width:0.5208333333333334;" width="126.0417" x="2351.5625" y="581.1667"/><ellipse cx="2367.1875" cy="597.8333" fill="#ADD1B2" rx="11.4583" ry="11.4583" style="stroke:#181818;stroke-width:1.0416666666666667;"/><path d="M2370.2799,603.709 Q2369.6777,604.0182 2369.0104,604.1647 Q2368.3431,604.3275 2367.6107,604.3275 Q2365.0065,604.3275 2363.623,602.6185 Q2362.2559,600.8932 2362.2559,597.638 Q2362.2559,594.3828 2363.623,592.6576 Q2365.0065,590.9323 2367.6107,590.9323 Q2368.3431,590.9323 2369.0104,591.0951 Q2369.694,591.2578 2370.2799,591.5671 L2370.2799,594.3991 Q2369.6289,593.7969 2369.0104,593.5202 Q2368.3919,593.2272 2367.7409,593.2272 Q2366.3411,593.2272 2365.625,594.3503 Q2364.9089,595.457 2364.9089,597.638 Q2364.9089,599.819 2365.625,600.9421 Q2366.3411,602.0488 2367.7409,602.0488 Q2368.3919,602.0488 2369.0104,601.7721 Q2369.6289,601.4792 2370.2799,600.877 L2370.2799,603.709 Z " fill="#000000"/><text fill="#000000" font-family="sans-serif" font-size="14.5833" lengthAdjust="spacing" textLength="92.7083" x="2381.7708" y="602.882">UserSettings</text><line style="stroke:#181818;stroke-width:0.5208333333333334;" x1="2352.6042" x2="2476.5625" y1="614.5" y2="614.5"/><line style="stroke:#181818;stroke-width:0.5208333333333334;" x1="2352.6042" x2="2476.5625" y1="622.8333" y2="622.8333"/></g><!--class AlertItem--><g id="elem_AlertItem"><rect codeLine="32" fill="#F1F1F1" height="50" id="AlertItem" rx="2.6042" ry="2.6042" style="stroke:#181818;stroke-width:0.5208333333333334;" width="96.875" x="1951.5625" y="497.8333"/><ellipse cx="1967.1875" cy="514.5" fill="#ADD1B2" rx="11.4583" ry="11.4583" style="stroke:#181818;stroke-width:1.0416666666666667;"/><path d="M1970.2799,520.3757 Q1969.6777,520.6849 1969.0104,520.8314 Q1968.3431,520.9941 1967.6107,520.9941 Q1965.0065,520.9941 1963.623,519.2852 Q1962.2559,517.5599 1962.2559,514.3047 Q1962.2559,511.0495 1963.623,509.3242 Q1965.0065,507.599 1967.6107,507.599 Q1968.3431,507.599 1969.0104,507.7617 Q1969.694,507.9245 1970.2799,508.2337 L1970.2799,511.0658 Q1969.6289,510.4635 1969.0104,510.1868 Q1968.3919,509.8939 1967.7409,509.8939 Q1966.3411,509.8939 1965.625,511.0169 Q1964.9089,512.1237 1964.9089,514.3047 Q1964.9089,516.4857 1965.625,517.6087 Q1966.3411,518.7155 1967.7409,518.7155 Q1968.3919,518.7155 1969.0104,518.4388 Q1969.6289,518.1458 1970.2799,517.5436 L1970.2799,520.3757 Z " fill="#000000"/><text fill="#000000" font-family="sans-serif" font-size="14.5833" lengthAdjust="spacing" textLength="63.5417" x="1981.7708" y="519.5486">AlertItem</text><line style="stroke:#181818;stroke-width:0.5208333333333334;" x1="1952.6042" x2="2047.3958" y1="531.1667" y2="531.1667"/><line style="stroke:#181818;stroke-width:0.5208333333333334;" x1="1952.6042" x2="2047.3958" y1="539.5" y2="539.5"/></g><!--class UserNotification--><g id="elem_UserNotification"><rect codeLine="33" fill="#F1F1F1" height="50" id="UserNotification" rx="2.6042" ry="2.6042" style="stroke:#181818;stroke-width:0.5208333333333334;" width="145.8333" x="2168.75" y="581.1667"/><ellipse cx="2184.375" cy="597.8333" fill="#ADD1B2" rx="11.4583" ry="11.4583" style="stroke:#181818;stroke-width:1.0416666666666667;"/><path d="M2187.4674,603.709 Q2186.8652,604.0182 2186.1979,604.1647 Q2185.5306,604.3275 2184.7982,604.3275 Q2182.194,604.3275 2180.8105,602.6185 Q2179.4434,600.8932 2179.4434,597.638 Q2179.4434,594.3828 2180.8105,592.6576 Q2182.194,590.9323 2184.7982,590.9323 Q2185.5306,590.9323 2186.1979,591.0951 Q2186.8815,591.2578 2187.4674,591.5671 L2187.4674,594.3991 Q2186.8164,593.7969 2186.1979,593.5202 Q2185.5794,593.2272 2184.9284,593.2272 Q2183.5286,593.2272 2182.8125,594.3503 Q2182.0964,595.457 2182.0964,597.638 Q2182.0964,599.819 2182.8125,600.9421 Q2183.5286,602.0488 2184.9284,602.0488 Q2185.5794,602.0488 2186.1979,601.7721 Q2186.8164,601.4792 2187.4674,600.877 L2187.4674,603.709 Z " fill="#000000"/><text fill="#000000" font-family="sans-serif" font-size="14.5833" lengthAdjust="spacing" textLength="112.5" x="2198.9583" y="602.882">UserNotification</text><line style="stroke:#181818;stroke-width:0.5208333333333334;" x1="2169.7917" x2="2313.5417" y1="614.5" y2="614.5"/><line style="stroke:#181818;stroke-width:0.5208333333333334;" x1="2169.7917" x2="2313.5417" y1="622.8333" y2="622.8333"/></g><!--class CVEFetcher--><g id="elem_CVEFetcher"><rect codeLine="37" fill="#F1F1F1" height="50" id="CVEFetcher" rx="2.6042" ry="2.6042" style="stroke:#181818;stroke-width:0.5208333333333334;" width="117.7083" x="183.8542" y="497.8333"/><ellipse cx="199.4792" cy="514.5" fill="#ADD1B2" rx="11.4583" ry="11.4583" style="stroke:#181818;stroke-width:1.0416666666666667;"/><path d="M202.5716,520.3757 Q201.9694,520.6849 201.3021,520.8314 Q200.6348,520.9941 199.9023,520.9941 Q197.2982,520.9941 195.9147,519.2852 Q194.5475,517.5599 194.5475,514.3047 Q194.5475,511.0495 195.9147,509.3242 Q197.2982,507.599 199.9023,507.599 Q200.6348,507.599 201.3021,507.7617 Q201.9857,507.9245 202.5716,508.2337 L202.5716,511.0658 Q201.9206,510.4635 201.3021,510.1868 Q200.6836,509.8939 200.0326,509.8939 Q198.6328,509.8939 197.9167,511.0169 Q197.2005,512.1237 197.2005,514.3047 Q197.2005,516.4857 197.9167,517.6087 Q198.6328,518.7155 200.0326,518.7155 Q200.6836,518.7155 201.3021,518.4388 Q201.9206,518.1458 202.5716,517.5436 L202.5716,520.3757 Z " fill="#000000"/><text fill="#000000" font-family="sans-serif" font-size="14.5833" lengthAdjust="spacing" textLength="84.375" x="214.0625" y="519.5486">CVEFetcher</text><line style="stroke:#181818;stroke-width:0.5208333333333334;" x1="184.8958" x2="300.5208" y1="531.1667" y2="531.1667"/><line style="stroke:#181818;stroke-width:0.5208333333333334;" x1="184.8958" x2="300.5208" y1="539.5" y2="539.5"/></g><!--class NotificationService--><g id="elem_NotificationService"><rect codeLine="38" fill="#F1F1F1" height="50" id="NotificationService" rx="2.6042" ry="2.6042" style="stroke:#181818;stroke-width:0.5208333333333334;" width="164.5833" x="331.25" y="266.5833"/><ellipse cx="346.875" cy="283.25" fill="#ADD1B2" rx="11.4583" ry="11.4583" style="stroke:#181818;stroke-width:1.0416666666666667;"/><path d="M349.9674,289.1257 Q349.3652,289.4349 348.6979,289.5814 Q348.0306,289.7441 347.2982,289.7441 Q344.694,289.7441 343.3105,288.0352 Q341.9434,286.3099 341.9434,283.0547 Q341.9434,279.7995 343.3105,278.0742 Q344.694,276.349 347.2982,276.349 Q348.0306,276.349 348.6979,276.5117 Q349.3815,276.6745 349.9674,276.9837 L349.9674,279.8158 Q349.3164,279.2135 348.6979,278.9368 Q348.0794,278.6439 347.4284,278.6439 Q346.0286,278.6439 345.3125,279.7669 Q344.5964,280.8737 344.5964,283.0547 Q344.5964,285.2357 345.3125,286.3587 Q346.0286,287.4655 347.4284,287.4655 Q348.0794,287.4655 348.6979,287.1888 Q349.3164,286.8958 349.9674,286.2936 L349.9674,289.1257 Z " fill="#000000"/><text fill="#000000" font-family="sans-serif" font-size="14.5833" lengthAdjust="spacing" textLength="131.25" x="361.4583" y="288.2986">NotificationService</text><line style="stroke:#181818;stroke-width:0.5208333333333334;" x1="332.2917" x2="494.7917" y1="299.9167" y2="299.9167"/><line style="stroke:#181818;stroke-width:0.5208333333333334;" x1="332.2917" x2="494.7917" y1="308.25" y2="308.25"/></g><!--class DatabaseService--><g id="elem_DatabaseService"><rect codeLine="39" fill="#F1F1F1" height="50" id="DatabaseService" rx="2.6042" ry="2.6042" style="stroke:#181818;stroke-width:0.5208333333333334;" width="154.1667" x="165.625" y="369.7083"/><ellipse cx="181.25" cy="386.375" fill="#ADD1B2" rx="11.4583" ry="11.4583" style="stroke:#181818;stroke-width:1.0416666666666667;"/><path d="M184.3424,392.2507 Q183.7402,392.5599 183.0729,392.7064 Q182.4056,392.8691 181.6732,392.8691 Q179.069,392.8691 177.6855,391.1602 Q176.3184,389.4349 176.3184,386.1797 Q176.3184,382.9245 177.6855,381.1992 Q179.069,379.474 181.6732,379.474 Q182.4056,379.474 183.0729,379.6367 Q183.7565,379.7995 184.3424,380.1087 L184.3424,382.9408 Q183.6914,382.3385 183.0729,382.0618 Q182.4544,381.7689 181.8034,381.7689 Q180.4036,381.7689 179.6875,382.8919 Q178.9714,383.9987 178.9714,386.1797 Q178.9714,388.3607 179.6875,389.4837 Q180.4036,390.5905 181.8034,390.5905 Q182.4544,390.5905 183.0729,390.3138 Q183.6914,390.0208 184.3424,389.4186 L184.3424,392.2507 Z " fill="#000000"/><text fill="#000000" font-family="sans-serif" font-size="14.5833" lengthAdjust="spacing" textLength="120.8333" x="195.8333" y="391.4236">DatabaseService</text><line style="stroke:#181818;stroke-width:0.5208333333333334;" x1="166.6667" x2="318.75" y1="403.0417" y2="403.0417"/><line style="stroke:#181818;stroke-width:0.5208333333333334;" x1="166.6667" x2="318.75" y1="411.375" y2="411.375"/></g><!--class CheckService--><g id="elem_CheckService"><rect codeLine="40" fill="#F1F1F1" height="50" id="CheckService" rx="2.6042" ry="2.6042" style="stroke:#181818;stroke-width:0.5208333333333334;" width="131.25" x="163.5417" y="266.5833"/><ellipse cx="179.1667" cy="283.25" fill="#ADD1B2" rx="11.4583" ry="11.4583" style="stroke:#181818;stroke-width:1.0416666666666667;"/><path d="M182.2591,289.1257 Q181.6569,289.4349 180.9896,289.5814 Q180.3223,289.7441 179.5898,289.7441 Q176.9857,289.7441 175.6022,288.0352 Q174.235,286.3099 174.235,283.0547 Q174.235,279.7995 175.6022,278.0742 Q176.9857,276.349 179.5898,276.349 Q180.3223,276.349 180.9896,276.5117 Q181.6732,276.6745 182.2591,276.9837 L182.2591,279.8158 Q181.6081,279.2135 180.9896,278.9368 Q180.3711,278.6439 179.7201,278.6439 Q178.3203,278.6439 177.6042,279.7669 Q176.888,280.8737 176.888,283.0547 Q176.888,285.2357 177.6042,286.3587 Q178.3203,287.4655 179.7201,287.4655 Q180.3711,287.4655 180.9896,287.1888 Q181.6081,286.8958 182.2591,286.2936 L182.2591,289.1257 Z " fill="#000000"/><text fill="#000000" font-family="sans-serif" font-size="14.5833" lengthAdjust="spacing" textLength="97.9167" x="193.75" y="288.2986">CheckService</text><line style="stroke:#181818;stroke-width:0.5208333333333334;" x1="164.5833" x2="293.75" y1="299.9167" y2="299.9167"/><line style="stroke:#181818;stroke-width:0.5208333333333334;" x1="164.5833" x2="293.75" y1="308.25" y2="308.25"/></g><!--class EmailService--><g id="elem_EmailService"><rect codeLine="41" fill="#F1F1F1" height="50" id="EmailService" rx="2.6042" ry="2.6042" style="stroke:#181818;stroke-width:0.5208333333333334;" width="122.9167" x="356.25" y="369.7083"/><ellipse cx="371.875" cy="386.375" fill="#ADD1B2" rx="11.4583" ry="11.4583" style="stroke:#181818;stroke-width:1.0416666666666667;"/><path d="M374.9674,392.2507 Q374.3652,392.5599 373.6979,392.7064 Q373.0306,392.8691 372.2982,392.8691 Q369.694,392.8691 368.3105,391.1602 Q366.9434,389.4349 366.9434,386.1797 Q366.9434,382.9245 368.3105,381.1992 Q369.694,379.474 372.2982,379.474 Q373.0306,379.474 373.6979,379.6367 Q374.3815,379.7995 374.9674,380.1087 L374.9674,382.9408 Q374.3164,382.3385 373.6979,382.0618 Q373.0794,381.7689 372.4284,381.7689 Q371.0286,381.7689 370.3125,382.8919 Q369.5964,383.9987 369.5964,386.1797 Q369.5964,388.3607 370.3125,389.4837 Q371.0286,390.5905 372.4284,390.5905 Q373.0794,390.5905 373.6979,390.3138 Q374.3164,390.0208 374.9674,389.4186 L374.9674,392.2507 Z " fill="#000000"/><text fill="#000000" font-family="sans-serif" font-size="14.5833" lengthAdjust="spacing" textLength="89.5833" x="386.4583" y="391.4236">EmailService</text><line style="stroke:#181818;stroke-width:0.5208333333333334;" x1="357.2917" x2="478.125" y1="403.0417" y2="403.0417"/><line style="stroke:#181818;stroke-width:0.5208333333333334;" x1="357.2917" x2="478.125" y1="411.375" y2="411.375"/></g><!--class APIUtils--><g id="elem_APIUtils"><rect codeLine="45" fill="#F1F1F1" height="50" id="APIUtils" rx="2.6042" ry="2.6042" style="stroke:#181818;stroke-width:0.5208333333333334;" width="85.4167" x="721.875" y="369.7083"/><ellipse cx="737.5" cy="386.375" fill="#ADD1B2" rx="11.4583" ry="11.4583" style="stroke:#181818;stroke-width:1.0416666666666667;"/><path d="M740.5924,392.2507 Q739.9902,392.5599 739.3229,392.7064 Q738.6556,392.8691 737.9232,392.8691 Q735.319,392.8691 733.9355,391.1602 Q732.5684,389.4349 732.5684,386.1797 Q732.5684,382.9245 733.9355,381.1992 Q735.319,379.474 737.9232,379.474 Q738.6556,379.474 739.3229,379.6367 Q740.0065,379.7995 740.5924,380.1087 L740.5924,382.9408 Q739.9414,382.3385 739.3229,382.0618 Q738.7044,381.7689 738.0534,381.7689 Q736.6536,381.7689 735.9375,382.8919 Q735.2214,383.9987 735.2214,386.1797 Q735.2214,388.3607 735.9375,389.4837 Q736.6536,390.5905 738.0534,390.5905 Q738.7044,390.5905 739.3229,390.3138 Q739.9414,390.0208 740.5924,389.4186 L740.5924,392.2507 Z " fill="#000000"/><text fill="#000000" font-family="sans-serif" font-size="14.5833" lengthAdjust="spacing" textLength="52.0833" x="752.0833" y="391.4236">APIUtils</text><line style="stroke:#181818;stroke-width:0.5208333333333334;" x1="722.9167" x2="806.25" y1="403.0417" y2="403.0417"/><line style="stroke:#181818;stroke-width:0.5208333333333334;" x1="722.9167" x2="806.25" y1="411.375" y2="411.375"/></g><!--class Filters--><g id="elem_Filters"><rect codeLine="46" fill="#F1F1F1" height="50" id="Filters" rx="2.6042" ry="2.6042" style="stroke:#181818;stroke-width:0.5208333333333334;" width="76.0417" x="844.2708" y="369.7083"/><ellipse cx="859.8958" cy="386.375" fill="#ADD1B2" rx="11.4583" ry="11.4583" style="stroke:#181818;stroke-width:1.0416666666666667;"/><path d="M862.9883,392.2507 Q862.3861,392.5599 861.7188,392.7064 Q861.0514,392.8691 860.319,392.8691 Q857.7148,392.8691 856.3314,391.1602 Q854.9642,389.4349 854.9642,386.1797 Q854.9642,382.9245 856.3314,381.1992 Q857.7148,379.474 860.319,379.474 Q861.0514,379.474 861.7188,379.6367 Q862.4023,379.7995 862.9883,380.1087 L862.9883,382.9408 Q862.3372,382.3385 861.7188,382.0618 Q861.1003,381.7689 860.4492,381.7689 Q859.0495,381.7689 858.3333,382.8919 Q857.6172,383.9987 857.6172,386.1797 Q857.6172,388.3607 858.3333,389.4837 Q859.0495,390.5905 860.4492,390.5905 Q861.1003,390.5905 861.7188,390.3138 Q862.3372,390.0208 862.9883,389.4186 L862.9883,392.2507 Z " fill="#000000"/><text fill="#000000" font-family="sans-serif" font-size="14.5833" lengthAdjust="spacing" textLength="42.7083" x="874.4792" y="391.4236">Filters</text><line style="stroke:#181818;stroke-width:0.5208333333333334;" x1="845.3125" x2="919.2708" y1="403.0417" y2="403.0417"/><line style="stroke:#181818;stroke-width:0.5208333333333334;" x1="845.3125" x2="919.2708" y1="411.375" y2="411.375"/></g><!--class SessionManager--><g id="elem_SessionManager"><rect codeLine="47" fill="#F1F1F1" height="50" id="SessionManager" rx="2.6042" ry="2.6042" style="stroke:#181818;stroke-width:0.5208333333333334;" width="153.125" x="1256.7708" y="369.7083"/><ellipse cx="1272.3958" cy="386.375" fill="#ADD1B2" rx="11.4583" ry="11.4583" style="stroke:#181818;stroke-width:1.0416666666666667;"/><path d="M1275.4883,392.2507 Q1274.8861,392.5599 1274.2188,392.7064 Q1273.5514,392.8691 1272.819,392.8691 Q1270.2148,392.8691 1268.8314,391.1602 Q1267.4642,389.4349 1267.4642,386.1797 Q1267.4642,382.9245 1268.8314,381.1992 Q1270.2148,379.474 1272.819,379.474 Q1273.5514,379.474 1274.2188,379.6367 Q1274.9023,379.7995 1275.4883,380.1087 L1275.4883,382.9408 Q1274.8372,382.3385 1274.2188,382.0618 Q1273.6003,381.7689 1272.9492,381.7689 Q1271.5495,381.7689 1270.8333,382.8919 Q1270.1172,383.9987 1270.1172,386.1797 Q1270.1172,388.3607 1270.8333,389.4837 Q1271.5495,390.5905 1272.9492,390.5905 Q1273.6003,390.5905 1274.2188,390.3138 Q1274.8372,390.0208 1275.4883,389.4186 L1275.4883,392.2507 Z " fill="#000000"/><text fill="#000000" font-family="sans-serif" font-size="14.5833" lengthAdjust="spacing" textLength="119.7917" x="1286.9792" y="391.4236">SessionManager</text><line style="stroke:#181818;stroke-width:0.5208333333333334;" x1="1257.8125" x2="1408.8542" y1="403.0417" y2="403.0417"/><line style="stroke:#181818;stroke-width:0.5208333333333334;" x1="1257.8125" x2="1408.8542" y1="411.375" y2="411.375"/></g><!--class TaskWorker--><g id="elem_TaskWorker"><rect codeLine="48" fill="#F1F1F1" height="50" id="TaskWorker" rx="2.6042" ry="2.6042" style="stroke:#181818;stroke-width:0.5208333333333334;" width="118.75" x="1101.0417" y="369.7083"/><ellipse cx="1116.6667" cy="386.375" fill="#ADD1B2" rx="11.4583" ry="11.4583" style="stroke:#181818;stroke-width:1.0416666666666667;"/><path d="M1119.7591,392.2507 Q1119.1569,392.5599 1118.4896,392.7064 Q1117.8223,392.8691 1117.0898,392.8691 Q1114.4857,392.8691 1113.1022,391.1602 Q1111.735,389.4349 1111.735,386.1797 Q1111.735,382.9245 1113.1022,381.1992 Q1114.4857,379.474 1117.0898,379.474 Q1117.8223,379.474 1118.4896,379.6367 Q1119.1732,379.7995 1119.7591,380.1087 L1119.7591,382.9408 Q1119.1081,382.3385 1118.4896,382.0618 Q1117.8711,381.7689 1117.2201,381.7689 Q1115.8203,381.7689 1115.1042,382.8919 Q1114.388,383.9987 1114.388,386.1797 Q1114.388,388.3607 1115.1042,389.4837 Q1115.8203,390.5905 1117.2201,390.5905 Q1117.8711,390.5905 1118.4896,390.3138 Q1119.1081,390.0208 1119.7591,389.4186 L1119.7591,392.2507 Z " fill="#000000"/><text fill="#000000" font-family="sans-serif" font-size="14.5833" lengthAdjust="spacing" textLength="85.4167" x="1131.25" y="391.4236">TaskWorker</text><line style="stroke:#181818;stroke-width:0.5208333333333334;" x1="1102.0833" x2="1218.75" y1="403.0417" y2="403.0417"/><line style="stroke:#181818;stroke-width:0.5208333333333334;" x1="1102.0833" x2="1218.75" y1="411.375" y2="411.375"/></g><!--class EncryptionUtil--><g id="elem_EncryptionUtil"><rect codeLine="49" fill="#F1F1F1" height="50" id="EncryptionUtil" rx="2.6042" ry="2.6042" style="stroke:#181818;stroke-width:0.5208333333333334;" width="131.25" x="554.1667" y="369.7083"/><ellipse cx="569.7917" cy="386.375" fill="#ADD1B2" rx="11.4583" ry="11.4583" style="stroke:#181818;stroke-width:1.0416666666666667;"/><path d="M572.8841,392.2507 Q572.2819,392.5599 571.6146,392.7064 Q570.9473,392.8691 570.2148,392.8691 Q567.6107,392.8691 566.2272,391.1602 Q564.86,389.4349 564.86,386.1797 Q564.86,382.9245 566.2272,381.1992 Q567.6107,379.474 570.2148,379.474 Q570.9473,379.474 571.6146,379.6367 Q572.2982,379.7995 572.8841,380.1087 L572.8841,382.9408 Q572.2331,382.3385 571.6146,382.0618 Q570.9961,381.7689 570.3451,381.7689 Q568.9453,381.7689 568.2292,382.8919 Q567.513,383.9987 567.513,386.1797 Q567.513,388.3607 568.2292,389.4837 Q568.9453,390.5905 570.3451,390.5905 Q570.9961,390.5905 571.6146,390.3138 Q572.2331,390.0208 572.8841,389.4186 L572.8841,392.2507 Z " fill="#000000"/><text fill="#000000" font-family="sans-serif" font-size="14.5833" lengthAdjust="spacing" textLength="97.9167" x="584.375" y="391.4236">EncryptionUtil</text><line style="stroke:#181818;stroke-width:0.5208333333333334;" x1="555.2083" x2="684.375" y1="403.0417" y2="403.0417"/><line style="stroke:#181818;stroke-width:0.5208333333333334;" x1="555.2083" x2="684.375" y1="411.375" y2="411.375"/></g><!--class Constants--><g id="elem_Constants"><rect codeLine="50" fill="#F1F1F1" height="50" id="Constants" rx="2.6042" ry="2.6042" style="stroke:#181818;stroke-width:0.5208333333333334;" width="107.2917" x="956.7708" y="369.7083"/><ellipse cx="972.3958" cy="386.375" fill="#ADD1B2" rx="11.4583" ry="11.4583" style="stroke:#181818;stroke-width:1.0416666666666667;"/><path d="M975.4883,392.2507 Q974.8861,392.5599 974.2188,392.7064 Q973.5514,392.8691 972.819,392.8691 Q970.2148,392.8691 968.8314,391.1602 Q967.4642,389.4349 967.4642,386.1797 Q967.4642,382.9245 968.8314,381.1992 Q970.2148,379.474 972.819,379.474 Q973.5514,379.474 974.2188,379.6367 Q974.9023,379.7995 975.4883,380.1087 L975.4883,382.9408 Q974.8372,382.3385 974.2188,382.0618 Q973.6003,381.7689 972.9492,381.7689 Q971.5495,381.7689 970.8333,382.8919 Q970.1172,383.9987 970.1172,386.1797 Q970.1172,388.3607 970.8333,389.4837 Q971.5495,390.5905 972.9492,390.5905 Q973.6003,390.5905 974.2188,390.3138 Q974.8372,390.0208 975.4883,389.4186 L975.4883,392.2507 Z " fill="#000000"/><text fill="#000000" font-family="sans-serif" font-size="14.5833" lengthAdjust="spacing" textLength="73.9583" x="986.9792" y="391.4236">Constants</text><line style="stroke:#181818;stroke-width:0.5208333333333334;" x1="957.8125" x2="1063.0208" y1="403.0417" y2="403.0417"/><line style="stroke:#181818;stroke-width:0.5208333333333334;" x1="957.8125" x2="1063.0208" y1="411.375" y2="411.375"/></g><!--link Main to MainFrame--><g id="link_Main_MainFrame"><path codeLine="56" d="M1413.4792,163.1771 C1414.9688,119.7604 1425.4167,34.1875 1483.8542,18.6667 C1530.6146,6.25 1872.5104,6.25 1919.2708,18.6667 C1998.7292,39.7708 2058.6067,115.8549 2086.8359,157.8444 " fill="none" id="Main-to-MainFrame" style="stroke:#181818;stroke-width:1.0416666666666667;"/><polygon fill="#181818" points="2090.3229,163.0313,2088.5502,152.9263,2087.417,158.7089,2081.6345,157.5757,2090.3229,163.0313" style="stroke:#181818;stroke-width:1.0416666666666667;"/></g><!--link Main to LoginFrame--><g id="link_Main_LoginFrame"><path codeLine="57" d="M1447.2813,199.4479 C1459.3854,204.625 1472.1979,210.4792 1484.375,213.4583 C1521.0729,222.4375 1619.2083,207.4792 1654.1667,221.7917 C1677.0625,231.1667 1694.0555,245.3229 1705.2534,261.0729 " fill="none" id="Main-to-LoginFrame" style="stroke:#181818;stroke-width:1.0416666666666667;"/><polygon fill="#181818" points="1708.875,266.1667,1706.8385,256.1116,1705.857,261.9218,1700.0468,260.9404,1708.875,266.1667" style="stroke:#181818;stroke-width:1.0416666666666667;"/></g><!--link LoginFrame to Main--><g id="link_LoginFrame_Main"><path codeLine="79" d="M1678.125,266.1667 C1661.2188,250.4167 1640.6042,231.1667 1617.7083,221.7917 C1582.75,207.4792 1484.6146,222.4375 1447.9167,213.4583 C1447.7188,213.4062 1453.5755,214.9552 1453.3775,214.9031 " fill="none" id="LoginFrame-to-Main" style="stroke:#181818;stroke-width:1.0416666666666667;"/><polygon fill="#181818" points="1447.3333,213.3125,1455.3393,219.7279,1452.3702,214.638,1457.46,211.6689,1447.3333,213.3125" style="stroke:#181818;stroke-width:1.0416666666666667;"/></g><!--link Main to FiltersFrame--><g id="link_Main_FiltersFrame"><path codeLine="58" d="M1447.3021,207.3958 C1453.2604,209.8646 1459.5208,212.0417 1465.625,213.4583 C1500.6979,221.6146 1756.0625,208.6458 1789.5833,221.7917 C1812.9688,230.9583 1829.8042,245.7958 1844.1375,261.6917 " fill="none" id="Main-to-FiltersFrame" style="stroke:#181818;stroke-width:1.0416666666666667;"/><polygon fill="#181818" points="1848.3229,266.3333,1845.1393,256.5806,1844.8351,262.4653,1838.9504,262.1611,1848.3229,266.3333" style="stroke:#181818;stroke-width:1.0416666666666667;"/></g><!--link Main to AlertsFrame--><g id="link_Main_AlertsFrame"><path codeLine="59" d="M1447.2917,207.4375 C1453.25,209.9062 1459.5104,212.0625 1465.625,213.4583 C1517.6563,225.3229 1896.0729,202.5208 1945.8333,221.7917 C1969.25,230.8646 1986.0901,245.7083 2000.4131,261.6249 " fill="none" id="Main-to-AlertsFrame" style="stroke:#181818;stroke-width:1.0416666666666667;"/><polygon fill="#181818" points="2004.5938,266.2708,2001.42,256.5149,2001.1098,262.3993,1995.2254,262.0891,2004.5938,266.2708" style="stroke:#181818;stroke-width:1.0416666666666667;"/></g><!--link Main to ArchivesFrame--><g id="link_Main_ArchivesFrame"><path codeLine="60" d="M1447.2813,207.4687 C1453.25,209.9271 1459.5104,212.0729 1465.625,213.4583 C1500.0625,221.2396 2067.75,210.0312 2101.0417,221.7917 C2126.3646,230.7396 2145.5115,245.869 2161.8136,261.8169 " fill="none" id="Main-to-ArchivesFrame" style="stroke:#181818;stroke-width:1.0416666666666667;"/><polygon fill="#181818" points="2166.2813,266.1875,2162.4935,256.6531,2162.5582,262.5453,2156.666,262.61,2166.2813,266.1875" style="stroke:#181818;stroke-width:1.0416666666666667;"/></g><!--link Main to SettingsFrame--><g id="link_Main_SettingsFrame"><path codeLine="61" d="M1447.2813,207.4896 C1453.2396,209.9479 1459.5104,212.0937 1465.625,213.4583 C1518.8333,225.3438 2395.4792,203.6042 2446.875,221.7917 C2472,230.6875 2490.8996,245.7825 2506.9725,261.7512 " fill="none" id="Main-to-SettingsFrame" style="stroke:#181818;stroke-width:1.0416666666666667;"/><polygon fill="#181818" points="2511.4063,266.1562,2507.6923,256.5929,2507.7114,262.4854,2501.8189,262.5046,2511.4063,266.1562" style="stroke:#181818;stroke-width:1.0416666666666667;"/></g><!--link Main to DatabaseService--><g id="link_Main_DatabaseService"><path codeLine="62" d="M1379.8333,189.6979 C1178.1667,190.9479 139.3854,198.5 116.6667,221.7917 C87.25,251.9479 89.7396,284.1875 116.6667,316.5833 C129.6042,332.1562 143.1667,316.2396 161.4583,324.9167 C183.9896,335.6146 200.9302,349.731 216.0969,364.8664 " fill="none" id="Main-to-DatabaseService" style="stroke:#181818;stroke-width:1.0416666666666667;"/><polygon fill="#181818" points="220.5208,369.2812,216.8281,359.7096,216.8342,365.6022,210.9416,365.6083,220.5208,369.2812" style="stroke:#181818;stroke-width:1.0416666666666667;"/></g><!--link Main to CheckService--><g id="link_Main_CheckService"><path codeLine="63" d="M1379.9583,189.875 C1200.8958,191.9687 364.6771,202.75 313.5417,221.7917 C288.9271,230.9583 270.5524,245.9847 254.8961,261.8805 " fill="none" id="Main-to-CheckService" style="stroke:#181818;stroke-width:1.0416666666666667;"/><polygon fill="#181818" points="250.5104,266.3333,260.0576,262.5779,254.1652,262.6226,254.1205,256.7302,250.5104,266.3333" style="stroke:#181818;stroke-width:1.0416666666666667;"/></g><!--link Main to CVEFetcher--><g id="link_Main_CVEFetcher"><path codeLine="64" d="M1379.7083,189.6771 C1174.9896,190.8229 109.7396,197.9375 86.4583,221.7917 C16.5833,293.3854 58.875,363.7917 117.7083,444.7083 C134.2813,467.4896 154.3062,482.0509 178.0042,494.5613 " fill="none" id="Main-to-CVEFetcher" style="stroke:#181818;stroke-width:1.0416666666666667;"/><polygon fill="#181818" points="183.5313,497.4792,177.1858,489.4177,178.9253,495.0476,173.2954,496.7872,183.5313,497.4792" style="stroke:#181818;stroke-width:1.0416666666666667;"/></g><!--link Main to User--><g id="link_Main_User"><path codeLine="65" d="M1416.7396,213.6354 C1425.0417,274.375 1447.8125,429.7917 1465.625,444.7083 C1479.6875,456.4896 1778.6042,446.7188 1795.8333,453.0417 C1820.6771,462.1563 1839.3022,477.2131 1855.1876,493.1194 " fill="none" id="Main-to-User" style="stroke:#181818;stroke-width:1.0416666666666667;"/><polygon fill="#181818" points="1859.6042,497.5417,1855.9276,487.9639,1855.9237,493.8564,1850.0312,493.8525,1859.6042,497.5417" style="stroke:#181818;stroke-width:1.0416666666666667;"/></g><!--link Main to Filters--><g id="link_Main_Filters"><path codeLine="66" d="M1379.9063,192.1875 C1297.9792,200.1146 1084.1979,229.1979 938.5417,324.9167 C921.2708,336.2708 910.1528,349.3855 900.1632,364.2501 " fill="none" id="Main-to-Filters" style="stroke:#181818;stroke-width:1.0416666666666667;"/><polygon fill="#181818" points="896.6771,369.4375,905.3646,363.9805,899.5822,365.1147,898.448,359.3323,896.6771,369.4375" style="stroke:#181818;stroke-width:1.0416666666666667;"/></g><!--link Main to SessionManager--><g id="link_Main_SessionManager"><path codeLine="67" d="M1379.8958,202.8333 C1371.6563,207.625 1363.6667,213.875 1358.3333,221.7917 C1327.9167,266.9271 1327.5014,327.6217 1330.1681,363.1842 " fill="none" id="Main-to-SessionManager" style="stroke:#181818;stroke-width:1.0416666666666667;"/><polygon fill="#181818" points="1330.6354,369.4167,1334.0894,359.7563,1330.246,364.2229,1325.7794,360.3795,1330.6354,369.4167" style="stroke:#181818;stroke-width:1.0416666666666667;"/></g><!--link Main to LoadingDialog--><g id="link_Main_LoadingDialog"><path codeLine="68" d="M1447.1563,203.9375 C1457.4583,208.9792 1468.5938,215.0833 1478.125,221.7917 C1496.4792,234.7188 1510.4091,247.723 1523.9195,261.848 " fill="none" id="Main-to-LoadingDialog" style="stroke:#181818;stroke-width:1.0416666666666667;"/><polygon fill="#181818" points="1528.2396,266.3646,1524.7705,256.7097,1524.6395,262.6008,1518.7484,262.4698,1528.2396,266.3646" style="stroke:#181818;stroke-width:1.0416666666666667;"/></g><!--link Main to ChangePasswordDialog--><g id="link_Main_ChangePasswordDialog"><path codeLine="69" d="M1447.1146,188.4583 C1459.0833,188.4583 1464.8125,188.4583 1476.7917,188.4583 " fill="none" id="Main-to-ChangePasswordDialog" style="stroke:#181818;stroke-width:1.0416666666666667;"/><polygon fill="#181818" points="1483.0417,188.4583,1473.6667,184.2917,1477.8333,188.4583,1473.6667,192.625,1483.0417,188.4583" style="stroke:#181818;stroke-width:1.0416666666666667;"/></g><!--link MainFrame to User--><g id="link_MainFrame_User"><path codeLine="71" d="M2162.3854,195.0208 C2220.2917,200.5208 2313.25,208.7917 2393.75,213.4583 C2407.9167,214.2813 2639.0938,211.5937 2648.9583,221.7917 C2678.2604,252.0625 2671.9167,281.2604 2648.9583,316.5833 C2643.9896,324.2292 2637.875,319.9896 2630.2083,324.9167 C2562.6146,368.3646 2569.7188,415.6875 2494.7917,444.7083 C2465.6979,455.9792 1961.1667,438.9479 1933.3333,453.0417 C1914.8958,462.375 1904.2178,476.153 1895.5199,491.9134 " fill="none" id="MainFrame-to-User" style="stroke:#181818;stroke-width:1.0416666666666667;"/><polygon fill="#181818" points="1892.5,497.3854,1900.6778,491.1907,1895.0166,492.8254,1893.3819,487.1642,1892.5,497.3854" style="stroke:#181818;stroke-width:1.0416666666666667;"/></g><!--link MainFrame to CVEInfoFrame--><g id="link_MainFrame_CVEInfoFrame"><path codeLine="72" d="M2162.25,193.2396 C2196.3958,197.1771 2240.2188,205.2396 2276.0417,221.7917 C2299.375,232.5729 2317.2934,246.8197 2333.335,261.9239 " fill="none" id="MainFrame-to-CVEInfoFrame" style="stroke:#181818;stroke-width:1.0416666666666667;"/><polygon fill="#181818" points="2337.8854,266.2083,2333.9161,256.7481,2334.0934,262.638,2328.2035,262.8152,2337.8854,266.2083" style="stroke:#181818;stroke-width:1.0416666666666667;"/></g><!--link MainFrame to LoginFrame--><g id="link_MainFrame_LoginFrame"><path codeLine="73" d="M2050.1458,198.6771 C2017.375,203.7396 1975.1875,209.7292 1937.5,213.4583 C1904.7396,216.6979 1820,209.2083 1789.5833,221.7917 C1766.7188,231.25 1750.2835,245.8425 1736.1377,261.5716 " fill="none" id="MainFrame-to-LoginFrame" style="stroke:#181818;stroke-width:1.0416666666666667;"/><polygon fill="#181818" points="1731.9583,266.2187,1741.3254,262.0343,1735.4411,262.3462,1735.1292,256.4619,1731.9583,266.2187" style="stroke:#181818;stroke-width:1.0416666666666667;"/></g><!--link MainFrame to FiltersFrame--><g id="link_MainFrame_FiltersFrame"><path codeLine="74" d="M2050.1354,193.7708 C2018.5208,197.8854 1979.0417,205.9583 1946.875,221.7917 C1924.8229,232.6458 1908.3891,246.6966 1893.6391,261.7904 " fill="none" id="MainFrame-to-FiltersFrame" style="stroke:#181818;stroke-width:1.0416666666666667;"/><polygon fill="#181818" points="1889.2708,266.2604,1898.8032,262.4675,1892.911,262.5354,1892.8432,256.6432,1889.2708,266.2604" style="stroke:#181818;stroke-width:1.0416666666666667;"/></g><!--link MainFrame to AlertsFrame--><g id="link_MainFrame_AlertsFrame"><path codeLine="75" d="M2086.3333,213.9583 C2073.3958,229.8438 2060.5392,245.6215 2047.6433,261.4652 " fill="none" id="MainFrame-to-AlertsFrame" style="stroke:#181818;stroke-width:1.0416666666666667;"/><polygon fill="#181818" points="2043.6979,266.3125,2052.8476,261.6718,2046.9858,262.2731,2046.3845,256.4113,2043.6979,266.3125" style="stroke:#181818;stroke-width:1.0416666666666667;"/></g><!--link MainFrame to ArchivesFrame--><g id="link_MainFrame_ArchivesFrame"><path codeLine="76" d="M2126.1667,213.9583 C2139.1042,229.8438 2151.9608,245.6215 2164.8567,261.4652 " fill="none" id="MainFrame-to-ArchivesFrame" style="stroke:#181818;stroke-width:1.0416666666666667;"/><polygon fill="#181818" points="2168.8021,266.3125,2166.1155,256.4113,2165.5142,262.2731,2159.6524,261.6718,2168.8021,266.3125" style="stroke:#181818;stroke-width:1.0416666666666667;"/></g><!--link MainFrame to SettingsFrame--><g id="link_MainFrame_SettingsFrame"><path codeLine="77" d="M2162.4688,193.9896 C2255.8229,201.5625 2433.9063,216.5625 2446.875,221.7917 C2471.2396,231.6146 2489.7874,246.2817 2505.9437,261.8233 " fill="none" id="MainFrame-to-SettingsFrame" style="stroke:#181818;stroke-width:1.0416666666666667;"/><polygon fill="#181818" points="2510.4479,266.1562,2506.5801,256.654,2506.6944,262.5455,2500.8029,262.6597,2510.4479,266.1562" style="stroke:#181818;stroke-width:1.0416666666666667;"/></g><!--link LoginFrame to User--><g id="link_LoginFrame_User"><path codeLine="80" d="M1752.6979,316.9375 C1755.8021,319.4583 1758.7708,322.1354 1761.4583,324.9167 C1788.3958,352.8542 1840.324,446.0156 1865.3344,492.1614 " fill="none" id="LoginFrame-to-User" style="stroke:#181818;stroke-width:1.0416666666666667;"/><polygon fill="#181818" points="1868.3125,497.6563,1867.5085,487.4286,1865.8307,493.0772,1860.1821,491.3994,1868.3125,497.6563" style="stroke:#181818;stroke-width:1.0416666666666667;"/></g><!--link LoginFrame to SessionManager--><g id="link_LoginFrame_SessionManager"><path codeLine="81" d="M1653.9583,312.4896 C1647.75,314.0938 1641.4896,315.5104 1635.4167,316.5833 C1561.0208,329.75 1538.5625,305.1875 1465.625,324.9167 C1431.1458,334.2396 1400.7185,350.2137 1375.0935,365.9846 " fill="none" id="LoginFrame-to-SessionManager" style="stroke:#181818;stroke-width:1.0416666666666667;"/><polygon fill="#181818" points="1369.7708,369.2604,1379.9388,367.8951,1374.2064,366.5305,1375.571,360.7982,1369.7708,369.2604" style="stroke:#181818;stroke-width:1.0416666666666667;"/></g><!--link FiltersFrame to UserFilters--><g id="link_FiltersFrame_UserFilters"><path codeLine="83" d="M1928.3542,312.2708 C1934.5625,313.8958 1940.8229,315.375 1946.875,316.5833 C1964.8958,320.1875 2015.0313,313.1667 2029.1667,324.9167 C2114.8646,396.1562 2143.9896,492.5833 2066.6667,572.8333 C2058.0313,581.8021 1854.9688,578.9688 1842.7083,581.1667 C1836.8021,582.2292 1836.7606,582.0075 1830.7398,583.6429 " fill="none" id="FiltersFrame-to-UserFilters" style="stroke:#181818;stroke-width:1.0416666666666667;"/><polygon fill="#181818" points="1824.7083,585.2813,1834.8477,586.8448,1829.7345,583.916,1832.6633,578.8028,1824.7083,585.2813" style="stroke:#181818;stroke-width:1.0416666666666667;"/></g><!--link AlertsFrame to UserAlerts--><g id="link_AlertsFrame_UserAlerts"><path codeLine="84" d="M2070.3646,316.9479 C2072.875,319.3958 2075.1563,322.0521 2077.0833,324.9167 C2138.8646,416.6146 2173.1042,491.7604 2097.9167,572.8333 C2089.5521,581.8542 1999.5625,578.7708 1987.5,581.1667 C1981.3542,582.3854 1981.0245,582.2676 1974.764,584.0384 " fill="none" id="AlertsFrame-to-UserAlerts" style="stroke:#181818;stroke-width:1.0416666666666667;"/><polygon fill="#181818" points="1968.75,585.7396,1978.9051,587.1972,1973.7617,584.322,1976.637,579.1785,1968.75,585.7396" style="stroke:#181818;stroke-width:1.0416666666666667;"/></g><!--link ArchivesFrame to UserArchives--><g id="link_ArchivesFrame_UserArchives"><path codeLine="85" d="M2189.7292,316.7188 C2191.0417,368.8333 2187.3229,493.75 2128.125,572.8333 C2126.0208,575.6563 2128.2162,574.0549 2125.5704,576.4507 " fill="none" id="ArchivesFrame-to-UserArchives" style="stroke:#181818;stroke-width:1.0416666666666667;"/><polygon fill="#181818" points="2120.9375,580.6458,2130.6836,577.4417,2124.7982,577.1499,2125.0901,571.2646,2120.9375,580.6458" style="stroke:#181818;stroke-width:1.0416666666666667;"/></g><!--link AlertNotificationDialog to UserAlerts--><g id="link_AlertNotificationDialog_UserAlerts"><path codeLine="86" d="M2602.5104,198.4687 C2631.7292,203.3229 2658.6146,210.6875 2667.7083,221.7917 C2694.3958,254.3854 2690.2188,280.9688 2667.7083,316.5833 C2525.8542,540.9896 2385.2708,506.8229 2128.125,572.8333 C2067.4792,588.3958 2049,569.4479 1987.5,581.1667 C1981.3438,582.3438 1981.02,582.2054 1974.7491,583.9554 " fill="none" id="AlertNotificationDialog-to-UserAlerts" style="stroke:#181818;stroke-width:1.0416666666666667;"/><polygon fill="#181818" points="1968.7292,585.6354,1978.8791,587.1287,1973.7458,584.2354,1976.6391,579.1021,1968.7292,585.6354" style="stroke:#181818;stroke-width:1.0416666666666667;"/></g><!--link AlertNotificationDialog to UserSettings--><g id="link_AlertNotificationDialog_UserSettings"><path codeLine="87" d="M2602.25,195.3854 C2670.9896,200.6354 2753.6771,209.4271 2764.5833,221.7917 C2822.75,287.7188 2827.4063,476.0313 2726.0417,572.8333 C2708.5,589.5833 2570.2433,598.3886 2484.3579,602.3573 " fill="none" id="AlertNotificationDialog-to-UserSettings" style="stroke:#181818;stroke-width:1.0416666666666667;"/><polygon fill="#181818" points="2478.1146,602.6458,2487.6719,606.3753,2483.3174,602.4054,2487.2873,598.0509,2478.1146,602.6458" style="stroke:#181818;stroke-width:1.0416666666666667;"/></g><!--link SettingsFrame to UserSettings--><g id="link_SettingsFrame_UserSettings"><path codeLine="88" d="M2601.7292,316.9271 C2604.8646,319.3542 2607.7917,322.0104 2610.4167,324.9167 C2685.0417,407.7708 2722.2292,488.7708 2648.9583,572.8333 C2627.1667,597.8333 2545.8425,604.0192 2484.155,605.2692 " fill="none" id="SettingsFrame-to-UserSettings" style="stroke:#181818;stroke-width:1.0416666666666667;"/><polygon fill="#181818" points="2477.9063,605.3958,2487.3637,609.3717,2483.1135,605.2903,2487.1949,601.0401,2477.9063,605.3958" style="stroke:#181818;stroke-width:1.0416666666666667;"/></g><!--link AlertsFrame to AlertEditorDialog--><g id="link_AlertsFrame_AlertEditorDialog"><path codeLine="90" d="M2002.2708,317.0833 C1988.1875,332.9688 1974.0516,348.9163 1960.01,364.7601 " fill="none" id="AlertsFrame-to-AlertEditorDialog" style="stroke:#181818;stroke-width:1.0416666666666667;"/><polygon fill="#181818" points="1955.8646,369.4375,1965.201,365.185,1959.3191,365.5397,1958.9644,359.6578,1955.8646,369.4375" style="stroke:#181818;stroke-width:1.0416666666666667;"/></g><!--link AlertEditorDialog to AlertItem--><g id="link_AlertEditorDialog_AlertItem"><path codeLine="91" d="M1947.0313,420.0521 C1958.6458,442.375 1972.8953,469.727 1984.4995,492.0187 " fill="none" id="AlertEditorDialog-to-AlertItem" style="stroke:#181818;stroke-width:1.0416666666666667;"/><polygon fill="#181818" points="1987.3854,497.5625,1986.7525,487.3228,1984.9805,492.9426,1979.3607,491.1707,1987.3854,497.5625" style="stroke:#181818;stroke-width:1.0416666666666667;"/></g><!--link AlertEditorDialog to User--><g id="link_AlertEditorDialog_User"><path codeLine="92" d="M1924.1354,420.0521 C1914.7292,442.375 1903.2817,469.5115 1893.8859,491.8032 " fill="none" id="AlertEditorDialog-to-User" style="stroke:#181818;stroke-width:1.0416666666666667;"/><polygon fill="#181818" points="1891.4583,497.5625,1898.9392,490.5419,1893.4813,492.7631,1891.2601,487.3052,1891.4583,497.5625" style="stroke:#181818;stroke-width:1.0416666666666667;"/></g><!--link ChangePasswordDialog to User--><g id="link_ChangePasswordDialog_User"><path codeLine="94" d="M1687.7292,211.1563 C1693.9792,212.0521 1700.1875,212.8333 1706.25,213.4583 C1718.875,214.7604 2610.8646,212.7813 2619.7917,221.7917 C2649.4479,251.7188 2648.6042,285.8542 2619.7917,316.5833 C2609.9583,327.0729 2504.6771,321.8646 2490.625,324.9167 C2343.9896,356.7187 2322.0938,415.1042 2175,444.7083 C2148.6563,450.0104 1957.1875,440.6667 1933.3333,453.0417 C1914.9896,462.5521 1904.3303,476.3301 1895.5907,492.0384 " fill="none" id="ChangePasswordDialog-to-User" style="stroke:#181818;stroke-width:1.0416666666666667;"/><polygon fill="#181818" points="1892.5521,497.5,1900.7511,491.3334,1895.0843,492.9487,1893.469,487.2818,1892.5521,497.5" style="stroke:#181818;stroke-width:1.0416666666666667;"/></g><!--link ChangePasswordDialog to DatabaseService--><g id="link_ChangePasswordDialog_DatabaseService"><path codeLine="95" d="M1482.8438,213.0104 C1481.6146,213.1667 1480.3854,213.3229 1479.1667,213.4583 C1460.7708,215.5625 158.8854,208.6562 145.8333,221.7917 C116.1354,251.6771 124.1563,280.4583 145.8333,316.5833 C149.8854,323.3333 154.9479,320.5 161.4583,324.9167 C181.0313,338.1979 196.6966,351.2061 212.1133,365.0707 " fill="none" id="ChangePasswordDialog-to-DatabaseService" style="stroke:#181818;stroke-width:1.0416666666666667;"/><polygon fill="#181818" points="216.7604,369.25,212.5759,359.883,212.8878,365.7673,207.0035,366.0792,216.7604,369.25" style="stroke:#181818;stroke-width:1.0416666666666667;"/></g><!--link ChangePasswordDialog to LoadingDialog--><g id="link_ChangePasswordDialog_LoadingDialog"><path codeLine="96" d="M1576.8438,213.9583 C1571.2708,229.8438 1566.1225,244.5716 1560.56,260.4154 " fill="none" id="ChangePasswordDialog-to-LoadingDialog" style="stroke:#181818;stroke-width:1.0416666666666667;"/><polygon fill="#181818" points="1558.4896,266.3125,1565.5266,258.8471,1560.2149,261.3982,1557.6638,256.0866,1558.4896,266.3125" style="stroke:#181818;stroke-width:1.0416666666666667;"/></g><!--link NotificationTableModel to UserNotification--><g id="link_NotificationTableModel_UserNotification"><path codeLine="98" d="M1920.1771,202.75 C1955.4688,206.9583 1995.6042,211.125 2032.2917,213.4583 C2040.7083,213.9896 2633.6563,215.7813 2639.5833,221.7917 C2776.5,360.5938 2450.9354,518.1952 2308.5917,578.2577 " fill="none" id="NotificationTableModel-to-UserNotification" style="stroke:#181818;stroke-width:1.0416666666666667;"/><polygon fill="#181818" points="2302.8333,580.6875,2313.0907,580.8818,2307.632,578.6627,2309.851,573.2039,2302.8333,580.6875" style="stroke:#181818;stroke-width:1.0416666666666667;"/></g><!--link NotificationTableModel to Constants--><g id="link_NotificationTableModel_Constants"><path codeLine="99" d="M1723.7292,210.9062 C1717.4792,211.8854 1711.2708,212.75 1705.2083,213.4583 C1690.3125,215.2083 1447.5625,212.9896 1435.4167,221.7917 C1399.125,248.0833 1437.3958,290.375 1401.0417,316.5833 C1386.7188,326.9063 1099.6563,318.1875 1083.3333,324.9167 C1060.9792,334.1354 1045.3951,348.8117 1032.1764,364.6867 " fill="none" id="NotificationTableModel-to-Constants" style="stroke:#181818;stroke-width:1.0416666666666667;"/><polygon fill="#181818" points="1028.1771,369.4896,1037.378,364.9514,1031.5098,365.4871,1030.9741,359.619,1028.1771,369.4896" style="stroke:#181818;stroke-width:1.0416666666666667;"/></g><!--link Constants to NotificationTableModel--><g id="link_Constants_NotificationTableModel"><path codeLine="135" d="M1028.1667,369.4792 C1041.3958,353.5937 1060.9688,334.1146 1083.3333,324.9167 C1101,317.6562 1411.4167,327.5104 1427.0833,316.5833 C1464.2396,290.6563 1427.5625,247.9062 1464.5833,221.7917 C1475.5104,214.0833 1691.9271,215.0417 1705.2083,213.4583 C1711.2604,212.7396 1711.3047,212.8335 1717.5443,211.8544 " fill="none" id="Constants-to-NotificationTableModel" style="stroke:#181818;stroke-width:1.0416666666666667;"/><polygon fill="#181818" points="1723.7188,210.8854,1713.8111,208.2225,1718.5734,211.6929,1715.1031,216.4551,1723.7188,210.8854" style="stroke:#181818;stroke-width:1.0416666666666667;"/></g><!--reverse link User to UserFilters--><g id="link_User_UserFilters"><path codeLine="101" d="M1837.7088,555.6097 C1823.5942,565.8909 1817.3125,570.4792 1803.2083,580.7604 " fill="none" id="User-backto-UserFilters" style="stroke:#181818;stroke-width:1.0416666666666667;"/><polygon fill="#181818" points="1847.8125,548.25,1840.3074,548.5619,1837.7088,555.6097,1845.2139,555.2977,1847.8125,548.25" style="stroke:#181818;stroke-width:1.0416666666666667;"/></g><!--reverse link User to UserAlerts--><g id="link_User_UserAlerts"><path codeLine="102" d="M1895.9952,559.8143 C1900.214,570.0955 1900.375,570.4792 1904.5938,580.7604 " fill="none" id="User-backto-UserAlerts" style="stroke:#181818;stroke-width:1.0416666666666667;"/><polygon fill="#181818" points="1891.25,548.25,1889.7678,555.6139,1895.9952,559.8143,1897.4774,552.4504,1891.25,548.25" style="stroke:#181818;stroke-width:1.0416666666666667;"/></g><!--reverse link User to UserArchives--><g id="link_User_UserArchives"><path codeLine="103" d="M1909.9605,557.1209 C1918.8355,566.298 1921.2917,566.9479 1933.3333,572.8333 C1954.8021,583.3333 1963.1354,575.9688 1986.4583,581.1667 C1992.4167,582.4896 1998.5729,584.0104 2004.7188,585.625 " fill="none" id="User-backto-UserArchives" style="stroke:#181818;stroke-width:1.0416666666666667;"/><polygon fill="#181818" points="1901.2708,548.1354,1902.6205,555.5247,1909.9605,557.1209,1908.6108,549.7316,1901.2708,548.1354" style="stroke:#181818;stroke-width:1.0416666666666667;"/></g><!--reverse link User to UserSettings--><g id="link_User_UserSettings"><path codeLine="104" d="M1908.4534,557.0879 C1917.4013,566.7025 1920.4688,567.5833 1933.3333,572.8333 C1974.3854,589.5938 2288.4688,574.4479 2332.2917,581.1667 C2338.4688,582.1146 2344.8333,583.3958 2351.1563,584.875 " fill="none" id="User-backto-UserSettings" style="stroke:#181818;stroke-width:1.0416666666666667;"/><polygon fill="#181818" points="1899.9375,547.9375,1901.1453,555.3513,1908.4534,557.0879,1907.2456,549.6741,1899.9375,547.9375" style="stroke:#181818;stroke-width:1.0416666666666667;"/></g><!--reverse link User to UserNotification--><g id="link_User_UserNotification"><path codeLine="105" d="M1909.0323,557.4398 C1917.9281,566.8773 1920.7396,567.5625 1933.3333,572.8333 C1955.5521,582.1354 2126.1667,577.6354 2150,581.1667 C2156.0208,582.0625 2162.2188,583.1979 2168.4063,584.4792 " fill="none" id="User-backto-UserNotification" style="stroke:#181818;stroke-width:1.0416666666666667;"/><polygon fill="#181818" points="1900.4583,548.3438,1901.7133,555.7497,1909.0323,557.4398,1907.7773,550.0338,1900.4583,548.3438" style="stroke:#181818;stroke-width:1.0416666666666667;"/></g><!--link CVEInfoFrame to CVE--><g id="link_CVEInfoFrame_CVE"><path codeLine="107" d="M2321.8646,316.9479 C2261.3646,352.625 2141.1458,417.8437 2029.1667,444.7083 C1985.9063,455.0833 1870.6563,437 1829.1667,453.0417 C1805.2083,462.3021 1787.5067,477.0651 1772.2776,492.8464 " fill="none" id="CVEInfoFrame-to-CVE" style="stroke:#181818;stroke-width:1.0416666666666667;"/><polygon fill="#181818" points="1767.9375,497.3437,1777.4458,493.491,1771.5542,493.5959,1771.4493,487.7043,1767.9375,497.3437" style="stroke:#181818;stroke-width:1.0416666666666667;"/></g><!--link DatabaseService to CVE--><g id="link_DatabaseService_CVE"><path codeLine="109" d="M280.8333,420.2083 C297.5521,429.6458 317.8229,439.4271 337.5,444.7083 C375.1042,454.8021 473.6146,451.0313 512.5,453.0417 C991.5625,477.7917 1568.7503,511.364 1709.1669,519.5827 " fill="none" id="DatabaseService-to-CVE" style="stroke:#181818;stroke-width:1.0416666666666667;"/><polygon fill="#181818" points="1715.4063,519.9479,1706.2907,515.2406,1710.2068,519.6436,1705.8038,523.5597,1715.4063,519.9479" style="stroke:#181818;stroke-width:1.0416666666666667;"/></g><!--link DatabaseService to CVEFetcher--><g id="link_DatabaseService_CVEFetcher"><path codeLine="110" d="M242.7083,420.0521 C242.7083,442.375 242.7083,469.0208 242.7083,491.3125 " fill="none" id="DatabaseService-to-CVEFetcher" style="stroke:#181818;stroke-width:1.0416666666666667;"/><polygon fill="#181818" points="242.7083,497.5625,246.875,488.1875,242.7083,492.3542,238.5417,488.1875,242.7083,497.5625" style="stroke:#181818;stroke-width:1.0416666666666667;"/></g><!--link CVEFetcher to CVE--><g id="link_CVEFetcher_CVE"><path codeLine="111" d="M301.8333,522.8333 C772.9271,522.8333 1237.7813,522.8333 1708.875,522.8333 " fill="none" id="CVEFetcher-to-CVE" style="stroke:#181818;stroke-width:1.0416666666666667;"/><polygon fill="#181818" points="1715.125,522.8333,1705.75,518.6667,1709.9167,522.8333,1705.75,527,1715.125,522.8333" style="stroke:#181818;stroke-width:1.0416666666666667;"/></g><!--link APIUtils to CVEFetcher--><g id="link_APIUtils_CVEFetcher"><path codeLine="113" d="M740.3958,420.1667 C730.0521,429.25 717.3333,438.7708 704.1667,444.7083 C569.1979,505.5104 398.7682,518.6322 308.1745,521.2468 " fill="none" id="APIUtils-to-CVEFetcher" style="stroke:#181818;stroke-width:1.0416666666666667;"/><polygon fill="#181818" points="301.9271,521.4271,311.4184,525.3216,307.1332,521.2768,311.178,516.9917,301.9271,521.4271" style="stroke:#181818;stroke-width:1.0416666666666667;"/></g><!--link NotificationService to User--><g id="link_NotificationService_User"><path codeLine="115" d="M488.6667,316.8438 C491.9896,319.2812 495.1042,321.9688 497.9167,324.9167 C536.6354,365.4792 492.1667,411.7083 537.5,444.7083 C551.6354,454.9896 1779.3646,447.1771 1795.8333,453.0417 C1820.7604,461.9167 1839.3986,476.9918 1855.2528,492.9605 " fill="none" id="NotificationService-to-User" style="stroke:#181818;stroke-width:1.0416666666666667;"/><polygon fill="#181818" points="1859.6563,497.3958,1856.0079,487.8072,1855.9867,493.6997,1850.0942,493.6785,1859.6563,497.3958" style="stroke:#181818;stroke-width:1.0416666666666667;"/></g><!--link NotificationService to DatabaseService--><g id="link_NotificationService_DatabaseService"><path codeLine="116" d="M352.75,316.9583 C347.5208,319.5 342.3646,322.1667 337.5,324.9167 C314.6667,337.8229 295.7178,351.3439 277.6344,365.3856 " fill="none" id="NotificationService-to-DatabaseService" style="stroke:#181818;stroke-width:1.0416666666666667;"/><polygon fill="#181818" points="272.6979,369.2187,282.6581,366.76,276.8117,366.0244,277.5472,360.178,272.6979,369.2187" style="stroke:#181818;stroke-width:1.0416666666666667;"/></g><!--link NotificationService to EmailService--><g id="link_NotificationService_EmailService"><path codeLine="117" d="M402.9792,317.0833 C401.3438,332.9688 401.0429,347.4514 404.0221,363.2951 " fill="none" id="NotificationService-to-EmailService" style="stroke:#181818;stroke-width:1.0416666666666667;"/><polygon fill="#181818" points="405.1771,369.4375,407.5395,359.454,404.2146,364.3189,399.3497,360.9939,405.1771,369.4375" style="stroke:#181818;stroke-width:1.0416666666666667;"/></g><!--link EmailService to NotificationService--><g id="link_EmailService_NotificationService"><path codeLine="129" d="M428.9167,369.4375 C430.7188,353.5937 431.0802,339.1035 427.9864,323.2181 " fill="none" id="EmailService-to-NotificationService" style="stroke:#181818;stroke-width:1.0416666666666667;"/><polygon fill="#181818" points="426.7917,317.0833,424.494,327.082,427.7873,322.1956,432.6736,325.4889,426.7917,317.0833" style="stroke:#181818;stroke-width:1.0416666666666667;"/></g><!--link SessionManager to User--><g id="link_SessionManager_User"><path codeLine="119" d="M1365.1042,420.1771 C1379.4167,429.7396 1397.0208,439.625 1414.5833,444.7083 C1455.2813,456.5 1756.0313,438.5208 1795.8333,453.0417 C1820.6875,462.1042 1839.3274,477.1671 1855.2024,493.0942 " fill="none" id="SessionManager-to-User" style="stroke:#181818;stroke-width:1.0416666666666667;"/><polygon fill="#181818" points="1859.6146,497.5208,1855.9474,487.9394,1855.9378,493.832,1850.0452,493.8223,1859.6146,497.5208" style="stroke:#181818;stroke-width:1.0416666666666667;"/></g><!--link Filters to CVE--><g id="link_Filters_CVE"><path codeLine="121" d="M903.8021,420.1354 C913.4479,429.4375 925.5729,439.1354 938.5417,444.7083 C1082.3229,506.4583 1578.3655,518.9645 1709.2509,521.2353 " fill="none" id="Filters-to-CVE" style="stroke:#181818;stroke-width:1.0416666666666667;"/><polygon fill="#181818" points="1715.5,521.3438,1706.1987,517.0151,1710.2925,521.2534,1706.0541,525.3472,1715.5,521.3438" style="stroke:#181818;stroke-width:1.0416666666666667;"/></g><!--link CheckService to DatabaseService--><g id="link_CheckService_DatabaseService"><path codeLine="123" d="M232.4479,317.0833 C234.5729,332.9688 236.5025,347.3992 238.6275,363.243 " fill="none" id="CheckService-to-DatabaseService" style="stroke:#181818;stroke-width:1.0416666666666667;"/><polygon fill="#181818" points="239.4583,369.4375,242.3418,359.5918,238.766,364.2754,234.0824,360.6996,239.4583,369.4375" style="stroke:#181818;stroke-width:1.0416666666666667;"/></g><!--link CheckService to CVEFetcher--><g id="link_CheckService_CVEFetcher"><path codeLine="124" d="M163.1979,315.9688 C154.6458,319.5729 148.3229,322.7917 146.875,324.9167 C116.8854,368.9063 123.875,396.6875 146.875,444.7083 C157.4792,466.8542 172.7016,481.1803 191.9724,494.0761 " fill="none" id="CheckService-to-CVEFetcher" style="stroke:#181818;stroke-width:1.0416666666666667;"/><polygon fill="#181818" points="197.1667,497.5521,191.6926,488.8753,192.8381,494.6555,187.058,495.801,197.1667,497.5521" style="stroke:#181818;stroke-width:1.0416666666666667;"/></g><!--link CheckService to APIUtils--><g id="link_CheckService_APIUtils"><path codeLine="125" d="M295.1458,313.0833 C301.3125,314.4688 307.5208,315.6771 313.5417,316.5833 C335.0104,319.8021 684.4896,315.7604 704.1667,324.9167 C724.0521,334.1667 736.5828,348.2284 747.1141,364.0096 " fill="none" id="CheckService-to-APIUtils" style="stroke:#181818;stroke-width:1.0416666666666667;"/><polygon fill="#181818" points="750.5833,369.2083,748.8453,359.0974,747.6923,364.8761,741.9136,363.7231,750.5833,369.2083" style="stroke:#181818;stroke-width:1.0416666666666667;"/></g><!--link LoadingDialog to TaskWorker--><g id="link_LoadingDialog_TaskWorker"><path codeLine="127" d="M1482.5417,311.3333 C1473.0729,313.4167 1463.4167,315.2604 1454.1667,316.5833 C1430.4271,319.9688 1260.8021,316.0208 1238.5417,324.9167 C1215.3854,334.1667 1198.7037,348.802 1184.36,364.5833 " fill="none" id="LoadingDialog-to-TaskWorker" style="stroke:#181818;stroke-width:1.0416666666666667;"/><polygon fill="#181818" points="1180.1563,369.2083,1189.5452,365.0733,1183.6594,365.3541,1183.3785,359.4683,1180.1563,369.2083" style="stroke:#181818;stroke-width:1.0416666666666667;"/></g><!--link EncryptionUtil to DatabaseService--><g id="link_EncryptionUtil_DatabaseService"><path codeLine="131" d="M592.2292,369.3437 C574.5313,354.3438 550.3646,336.1354 526.0417,324.9167 C518.5,321.4375 516.0729,321.6771 507.8125,320.75 C474.2292,316.9583 389.3125,316.9583 355.7292,320.75 C320.7813,324.6979 292.5444,345.1376 271.3777,364.9293 " fill="none" id="EncryptionUtil-to-DatabaseService" style="stroke:#181818;stroke-width:1.0416666666666667;"/><polygon fill="#181818" points="266.8125,369.1979,276.5061,365.8384,270.6168,365.6407,270.8145,359.7515,266.8125,369.1979" style="stroke:#181818;stroke-width:1.0416666666666667;"/></g><!--link Constants to UserFilters--><g id="link_Constants_UserFilters"><path codeLine="133" d="M1039.9167,419.9896 C1091.0521,460.3646 1201.0833,540.1771 1309.375,572.8333 C1383.7917,595.2708 1603.5845,602.1274 1708.6991,604.1899 " fill="none" id="Constants-to-UserFilters" style="stroke:#181818;stroke-width:1.0416666666666667;"/><polygon fill="#181818" points="1714.9479,604.3125,1705.6565,599.9627,1709.7406,604.2103,1705.493,608.2944,1714.9479,604.3125" style="stroke:#181818;stroke-width:1.0416666666666667;"/></g><!--link Constants to UserAlerts--><g id="link_Constants_UserAlerts"><path codeLine="134" d="M1039.0313,420.0625 C1051.7708,429.4792 1067.4583,439.2813 1083.3333,444.7083 C1135.1458,462.4271 1152.1354,444.6771 1206.25,453.0417 C1428.5208,487.3958 1475.4688,539.6146 1697.9167,572.8333 C1761.6667,582.3542 1779.4063,569.0208 1842.7083,581.1667 C1848.5208,582.2812 1848.4883,582.0778 1854.4154,583.7236 " fill="none" id="Constants-to-UserAlerts" style="stroke:#181818;stroke-width:1.0416666666666667;"/><polygon fill="#181818" points="1860.4375,585.3958,1852.5191,578.8727,1855.4191,584.0023,1850.2895,586.9022,1860.4375,585.3958" style="stroke:#181818;stroke-width:1.0416666666666667;"/></g><!--SRC=[XLNRYjim47sVhp1vAHHIqdv08MGJ23HbwMRRPwsZsCAoP2mbfPJ-UsN7bZJIk0rvCEUCf9apDzC8rR6UjKN7oePL_2oiv5ifAjLoPGl9hnQCDxfqelYusKH8prHZU5TysW1CLnIhKhSVxZUfMgs4rVsg-0rGk5yfcJ75YGdba07uyy3zmUecLXE5xG_kBPxWk-_xexfgYlgYA_hCGKZBUqDHMybxkynyrLPSHSciqEf9CAahocf_6GAc-RwinPsJBxnmQuMg31qBkpYEl7DNCrNnP_VvK_SNqYJs-ypU93_f2vUa-kt0vFexdHFarV2UW2Pn2UQXBKLCeX3Kh0abyz7obZWInqf6w6pkekI63FB0RLbdWSLtlZoE9nPFpB8tPZZDxcfUDZIrRvcGCPMwUxD24hvkdu-l0qFNTbPQnZZNJqovAzFWpimqFtJVPCHUbVslReXvU2aDIIjZcPeIwfns_tV5Dov7aKmjEWDZaw_NdwFkzL3KdHv3ZUdHk2S3Y1h9mxY7F9ncnnCeCG4DTU2niTnJJ-E7aS9Hc77ZHkyIFGjU9lnYWD2qmrIYPo0oKGELAXincRo1mnf3UDYdEiN6I18i4GnYD_sXMUR8KSzDumHv6iXvf2oCxUoM_vZvEOI2p-dCqtmXP4Ym6oSQpOyI0bKsWLvaq_9VDCJL2lJQy0-YIViFsp0gO3XMl5-lKNOHE2K4OtCs4Uf5HoXo2kA6cJi88D734mluF0l2PxXg7iEfBH0h8sHgYKmJjMI7bWRWLehAPH8uU1kFkuNAI0pYy5FEho10TJDoqLA1sDkHfDOfu6r3UWU-ah89aJDJ8M62hjA_]--></g></svg>