<?xml version="1.0" encoding="us-ascii" standalone="no"?><svg xmlns="http://www.w3.org/2000/svg" xmlns:xlink="http://www.w3.org/1999/xlink" contentStyleType="text/css" height="1451.8229px" preserveAspectRatio="none" style="width:4854px;height:1451px;background:#FFFFFF;" version="1.1" viewBox="0 0 4854 1451" width="4854.1667px" zoomAndPan="magnify"><defs/><g><!--cluster com--><g id="cluster_com"><path d="M11.0677,7.8125 L55.3385,7.8125 A4.8828,4.8828 0 0 1 58.5938,11.0677 L67.7083,36.8449 L4787.1094,36.8449 A3.2552,3.2552 0 0 1 4790.3646,40.1001 L4790.3646,1439.5703 A3.2552,3.2552 0 0 1 4787.1094,1442.8255 L11.0677,1442.8255 A3.2552,3.2552 0 0 1 7.8125,1439.5703 L7.8125,11.0677 A3.2552,3.2552 0 0 1 11.0677,7.8125 " fill="none" style="stroke:#000000;stroke-width:1.953125;"/><line style="stroke:#000000;stroke-width:1.953125;" x1="7.8125" x2="67.7083" y1="36.8449" y2="36.8449"/><text fill="#000000" font-family="sans-serif" font-size="18.2292" font-weight="bold" lengthAdjust="spacing" textLength="42.9688" x="13.0208" y="27.3374">com</text></g><!--cluster vulnmonitor--><g id="cluster_vulnmonitor"><path d="M42.3177,63.8021 L166.0156,63.8021 A4.8828,4.8828 0 0 1 169.2708,67.0573 L178.3854,92.8345 L4755.8594,92.8345 A3.2552,3.2552 0 0 1 4759.1146,96.0897 L4759.1146,1408.3203 A3.2552,3.2552 0 0 1 4755.8594,1411.5755 L42.3177,1411.5755 A3.2552,3.2552 0 0 1 39.0625,1408.3203 L39.0625,67.0573 A3.2552,3.2552 0 0 1 42.3177,63.8021 " fill="none" style="stroke:#000000;stroke-width:1.953125;"/><line style="stroke:#000000;stroke-width:1.953125;" x1="39.0625" x2="178.3854" y1="92.8345" y2="92.8345"/><text fill="#000000" font-family="sans-serif" font-size="18.2292" font-weight="bold" lengthAdjust="spacing" textLength="122.3958" x="44.2708" y="83.327">vulnmonitor</text></g><!--cluster gui--><g id="cluster_gui"><path d="M73.5677,383.6849 L106.1198,383.6849 A4.8828,4.8828 0 0 1 109.375,386.9401 L118.4896,412.7173 L2350.9115,412.7173 A3.2552,3.2552 0 0 1 2354.1667,415.9725 L2354.1667,831.2891 A3.2552,3.2552 0 0 1 2350.9115,834.5443 L73.5677,834.5443 A3.2552,3.2552 0 0 1 70.3125,831.2891 L70.3125,386.9401 A3.2552,3.2552 0 0 1 73.5677,383.6849 " fill="none" style="stroke:#000000;stroke-width:1.953125;"/><line style="stroke:#000000;stroke-width:1.953125;" x1="70.3125" x2="118.4896" y1="412.7173" y2="412.7173"/><text fill="#000000" font-family="sans-serif" font-size="18.2292" font-weight="bold" lengthAdjust="spacing" textLength="31.25" x="75.5208" y="403.2098">gui</text></g><!--cluster model--><g id="cluster_model"><path d="M1590.4948,887.0182 L1654.2969,887.0182 A4.8828,4.8828 0 0 1 1657.5521,890.2734 L1666.6667,916.0506 L2538.4115,916.0506 A3.2552,3.2552 0 0 1 2541.6667,919.3058 L2541.6667,1377.0703 A3.2552,3.2552 0 0 1 2538.4115,1380.3255 L1590.4948,1380.3255 A3.2552,3.2552 0 0 1 1587.2396,1377.0703 L1587.2396,890.2734 A3.2552,3.2552 0 0 1 1590.4948,887.0182 " fill="none" style="stroke:#000000;stroke-width:1.953125;"/><line style="stroke:#000000;stroke-width:1.953125;" x1="1587.2396" x2="1666.6667" y1="916.0506" y2="916.0506"/><text fill="#000000" font-family="sans-serif" font-size="18.2292" font-weight="bold" lengthAdjust="spacing" textLength="62.5" x="1592.4479" y="906.5431">model</text></g><!--cluster services--><g id="cluster_services"><path d="M3874.349,148.6719 L3962.8906,148.6719 A4.8828,4.8828 0 0 1 3966.1458,151.9271 L3975.2604,177.7043 L4659.5052,177.7043 A3.2552,3.2552 0 0 1 4662.7604,180.9595 L4662.7604,852.513 A3.2552,3.2552 0 0 1 4659.5052,855.7682 L3874.349,855.7682 A3.2552,3.2552 0 0 1 3871.0938,852.513 L3871.0938,151.9271 A3.2552,3.2552 0 0 1 3874.349,148.6719 " fill="none" style="stroke:#000000;stroke-width:1.953125;"/><line style="stroke:#000000;stroke-width:1.953125;" x1="3871.0938" x2="3975.2604" y1="177.7043" y2="177.7043"/><text fill="#000000" font-family="sans-serif" font-size="18.2292" font-weight="bold" lengthAdjust="spacing" textLength="87.2396" x="3876.3021" y="168.1968">services</text></g><!--cluster utils--><g id="cluster_utils"><path d="M2409.5052,447.3437 L2453.776,447.3437 A4.8828,4.8828 0 0 1 2457.0313,450.599 L2466.1458,476.3761 L3836.5885,476.3761 A3.2552,3.2552 0 0 1 3839.8438,479.6313 L3839.8438,636.6536 A3.2552,3.2552 0 0 1 3836.5885,639.9089 L2409.5052,639.9089 A3.2552,3.2552 0 0 1 2406.25,636.6536 L2406.25,450.599 A3.2552,3.2552 0 0 1 2409.5052,447.3437 " fill="none" style="stroke:#000000;stroke-width:1.953125;"/><line style="stroke:#000000;stroke-width:1.953125;" x1="2406.25" x2="2466.1458" y1="476.3761" y2="476.3761"/><text fill="#000000" font-family="sans-serif" font-size="18.2292" font-weight="bold" lengthAdjust="spacing" textLength="42.9688" x="2411.4583" y="466.8686">utils</text></g><!--class Main--><g id="elem_Main"><rect codeLine="7" fill="#F1F1F1" height="253.479" id="Main" rx="3.2552" ry="3.2552" style="stroke:#181818;stroke-width:0.6510416666666666;" width="427.0833" x="2731.7708" y="109.375"/><ellipse cx="2918.9453" cy="130.2083" fill="#ADD1B2" rx="14.3229" ry="14.3229" style="stroke:#181818;stroke-width:1.3020833333333333;"/><path d="M2922.8109,137.5529 Q2922.0581,137.9395 2921.224,138.1226 Q2920.3898,138.326 2919.4743,138.326 Q2916.2191,138.326 2914.4897,136.1898 Q2912.7808,134.0332 2912.7808,129.9642 Q2912.7808,125.8952 2914.4897,123.7386 Q2916.2191,121.582 2919.4743,121.582 Q2920.3898,121.582 2921.224,121.7855 Q2922.0785,121.9889 2922.8109,122.3755 L2922.8109,125.9155 Q2921.9971,125.1628 2921.224,124.8169 Q2920.4508,124.4507 2919.637,124.4507 Q2917.8874,124.4507 2916.9922,125.8545 Q2916.097,127.238 2916.097,129.9642 Q2916.097,132.6904 2916.9922,134.0942 Q2917.8874,135.4777 2919.637,135.4777 Q2920.4508,135.4777 2921.224,135.1318 Q2921.9971,134.7656 2922.8109,134.0129 L2922.8109,137.5529 Z " fill="#000000"/><text fill="#000000" font-family="sans-serif" font-size="18.2292" lengthAdjust="spacing" textLength="41.6667" x="2945.638" y="136.5191">Main</text><line style="stroke:#181818;stroke-width:0.6510416666666666;" x1="2733.0729" x2="3157.5521" y1="151.0417" y2="151.0417"/><line style="stroke:#181818;stroke-width:0.6510416666666666;" x1="2733.0729" x2="3157.5521" y1="161.4583" y2="161.4583"/><ellipse cx="2746.0938" cy="179.2297" fill="#84BE84" rx="3.9063" ry="3.9063" style="stroke:#038048;stroke-width:1.3020833333333333;"/><text fill="#000000" font-family="sans-serif" font-size="18.2292" lengthAdjust="spacing" textLength="171.875" x="2757.8125" y="183.5874">main(args: String[])</text><ellipse cx="2746.0938" cy="200.4496" fill="#84BE84" rx="3.9063" ry="3.9063" style="stroke:#038048;stroke-width:1.3020833333333333;"/><text fill="#000000" font-family="sans-serif" font-size="18.2292" lengthAdjust="spacing" textLength="88.5417" x="2757.8125" y="204.8073">startApp()</text><ellipse cx="2746.0938" cy="221.6695" fill="#84BE84" rx="3.9063" ry="3.9063" style="stroke:#038048;stroke-width:1.3020833333333333;"/><text fill="#000000" font-family="sans-serif" font-size="18.2292" lengthAdjust="spacing" textLength="393.2292" x="2757.8125" y="226.0272">startCVEFetching(isManualReload: boolean)</text><ellipse cx="2746.0938" cy="242.8894" fill="#84BE84" rx="3.9063" ry="3.9063" style="stroke:#038048;stroke-width:1.3020833333333333;"/><text fill="#000000" font-family="sans-serif" font-size="18.2292" lengthAdjust="spacing" textLength="147.1354" x="2757.8125" y="247.2471">reloadCVEData()</text><ellipse cx="2746.0938" cy="264.1093" fill="#84BE84" rx="3.9063" ry="3.9063" style="stroke:#038048;stroke-width:1.3020833333333333;"/><text fill="#000000" font-family="sans-serif" font-size="18.2292" lengthAdjust="spacing" textLength="260.4167" x="2757.8125" y="268.4669">performSearch(query: String)</text><ellipse cx="2746.0938" cy="285.3292" fill="#84BE84" rx="3.9063" ry="3.9063" style="stroke:#038048;stroke-width:1.3020833333333333;"/><text fill="#000000" font-family="sans-serif" font-size="18.2292" lengthAdjust="spacing" textLength="240.8854" x="2757.8125" y="289.6868">showCVEInfo(cveId: String)</text><ellipse cx="2746.0938" cy="306.5491" fill="#84BE84" rx="3.9063" ry="3.9063" style="stroke:#038048;stroke-width:1.3020833333333333;"/><text fill="#000000" font-family="sans-serif" font-size="18.2292" lengthAdjust="spacing" textLength="160.1563" x="2757.8125" y="310.9067">showFilterFrame()</text><ellipse cx="2746.0938" cy="327.769" fill="#84BE84" rx="3.9063" ry="3.9063" style="stroke:#038048;stroke-width:1.3020833333333333;"/><text fill="#000000" font-family="sans-serif" font-size="18.2292" lengthAdjust="spacing" textLength="167.9688" x="2757.8125" y="332.1266">showAlertsFrame()</text><ellipse cx="2746.0938" cy="348.9889" fill="#84BE84" rx="3.9063" ry="3.9063" style="stroke:#038048;stroke-width:1.3020833333333333;"/><text fill="#000000" font-family="sans-serif" font-size="18.2292" lengthAdjust="spacing" textLength="191.4063" x="2757.8125" y="353.3465">showSettingsFrame()</text></g><!--class MainFrame--><g id="elem_MainFrame"><rect codeLine="20" fill="#F1F1F1" height="253.479" id="MainFrame" rx="3.2552" ry="3.2552" style="stroke:#181818;stroke-width:0.6510416666666666;" width="602.8646" x="1729.8177" y="429.2578"/><ellipse cx="1976.888" cy="450.0911" fill="#ADD1B2" rx="14.3229" ry="14.3229" style="stroke:#181818;stroke-width:1.3020833333333333;"/><path d="M1980.7536,457.4357 Q1980.0008,457.8223 1979.1667,458.0054 Q1978.3325,458.2088 1977.417,458.2088 Q1974.1618,458.2088 1972.4325,456.0726 Q1970.7235,453.916 1970.7235,449.847 Q1970.7235,445.778 1972.4325,443.6214 Q1974.1618,441.4648 1977.417,441.4648 Q1978.3325,441.4648 1979.1667,441.6683 Q1980.0212,441.8717 1980.7536,442.2583 L1980.7536,445.7983 Q1979.9398,445.0456 1979.1667,444.6997 Q1978.3936,444.3335 1977.5798,444.3335 Q1975.8301,444.3335 1974.9349,445.7373 Q1974.0397,447.1208 1974.0397,449.847 Q1974.0397,452.5732 1974.9349,453.9771 Q1975.8301,455.3605 1977.5798,455.3605 Q1978.3936,455.3605 1979.1667,455.0146 Q1979.9398,454.6484 1980.7536,453.8957 L1980.7536,457.4357 Z " fill="#000000"/><text fill="#000000" font-family="sans-serif" font-size="18.2292" lengthAdjust="spacing" textLength="97.6563" x="2003.5807" y="456.4019">MainFrame</text><line style="stroke:#181818;stroke-width:0.6510416666666666;" x1="1731.1198" x2="2331.3802" y1="470.9245" y2="470.9245"/><line style="stroke:#181818;stroke-width:0.6510416666666666;" x1="1731.1198" x2="2331.3802" y1="481.3411" y2="481.3411"/><ellipse cx="1744.1406" cy="499.1125" fill="#84BE84" rx="3.9063" ry="3.9063" style="stroke:#038048;stroke-width:1.3020833333333333;"/><text fill="#000000" font-family="sans-serif" font-size="18.2292" lengthAdjust="spacing" textLength="352.8646" x="1755.8594" y="503.4702">MainFrame(controller: Main, user: User)</text><ellipse cx="1744.1406" cy="520.3324" fill="#84BE84" rx="3.9063" ry="3.9063" style="stroke:#038048;stroke-width:1.3020833333333333;"/><text fill="#000000" font-family="sans-serif" font-size="18.2292" lengthAdjust="spacing" textLength="156.25" x="1755.8594" y="524.6901">initComponents()</text><ellipse cx="1744.1406" cy="541.5523" fill="#84BE84" rx="3.9063" ry="3.9063" style="stroke:#038048;stroke-width:1.3020833333333333;"/><text fill="#000000" font-family="sans-serif" font-size="18.2292" lengthAdjust="spacing" textLength="268.2292" x="1755.8594" y="545.91">updateProgressBar(value: int)</text><ellipse cx="1744.1406" cy="562.7722" fill="#84BE84" rx="3.9063" ry="3.9063" style="stroke:#038048;stroke-width:1.3020833333333333;"/><text fill="#000000" font-family="sans-serif" font-size="18.2292" lengthAdjust="spacing" textLength="162.7604" x="1755.8594" y="567.1299">hideProgressBar()</text><ellipse cx="1744.1406" cy="583.9921" fill="#84BE84" rx="3.9063" ry="3.9063" style="stroke:#038048;stroke-width:1.3020833333333333;"/><text fill="#000000" font-family="sans-serif" font-size="18.2292" lengthAdjust="spacing" textLength="269.5313" x="1755.8594" y="588.3498">showProgressBar(text: String)</text><ellipse cx="1744.1406" cy="605.212" fill="#84BE84" rx="3.9063" ry="3.9063" style="stroke:#038048;stroke-width:1.3020833333333333;"/><text fill="#000000" font-family="sans-serif" font-size="18.2292" lengthAdjust="spacing" textLength="333.3333" x="1755.8594" y="609.5697">updateCVETable(cveList: List&lt;CVE&gt;)</text><ellipse cx="1744.1406" cy="626.4319" fill="#84BE84" rx="3.9063" ry="3.9063" style="stroke:#038048;stroke-width:1.3020833333333333;"/><text fill="#000000" font-family="sans-serif" font-size="18.2292" lengthAdjust="spacing" textLength="209.6354" x="1755.8594" y="630.7895">showCVEInfo(cve: CVE)</text><ellipse cx="1744.1406" cy="647.6518" fill="#84BE84" rx="3.9063" ry="3.9063" style="stroke:#038048;stroke-width:1.3020833333333333;"/><text fill="#000000" font-family="sans-serif" font-size="18.2292" lengthAdjust="spacing" textLength="569.0104" x="1755.8594" y="652.0094">showMessage(message: String, title: String, messageType: int)</text><ellipse cx="1744.1406" cy="668.8717" fill="#84BE84" rx="3.9063" ry="3.9063" style="stroke:#038048;stroke-width:1.3020833333333333;"/><text fill="#000000" font-family="sans-serif" font-size="18.2292" lengthAdjust="spacing" textLength="395.8333" x="1755.8594" y="673.2293">setReloadButtonEnabled(enabled: boolean)</text></g><!--class CVEInfoFrame--><g id="elem_CVEInfoFrame"><rect codeLine="31" fill="#F1F1F1" height="83.7199" id="CVEInfoFrame" rx="3.2552" ry="3.2552" style="stroke:#181818;stroke-width:0.6510416666666666;" width="251.3021" x="1945.9635" y="730"/><ellipse cx="2003.5807" cy="750.8333" fill="#ADD1B2" rx="14.3229" ry="14.3229" style="stroke:#181818;stroke-width:1.3020833333333333;"/><path d="M2007.4463,758.1779 Q2006.6935,758.5645 2005.8594,758.7476 Q2005.0252,758.951 2004.1097,758.951 Q2000.8545,758.951 1999.1252,756.8148 Q1997.4162,754.6582 1997.4162,750.5892 Q1997.4162,746.5202 1999.1252,744.3636 Q2000.8545,742.207 2004.1097,742.207 Q2005.0252,742.207 2005.8594,742.4105 Q2006.7139,742.6139 2007.4463,743.0005 L2007.4463,746.5405 Q2006.6325,745.7878 2005.8594,745.4419 Q2005.0863,745.0757 2004.2725,745.0757 Q2002.5228,745.0757 2001.6276,746.4795 Q2000.7324,747.863 2000.7324,750.5892 Q2000.7324,753.3154 2001.6276,754.7192 Q2002.5228,756.1027 2004.2725,756.1027 Q2005.0863,756.1027 2005.8594,755.7568 Q2006.6325,755.3906 2007.4463,754.6379 L2007.4463,758.1779 Z " fill="#000000"/><text fill="#000000" font-family="sans-serif" font-size="18.2292" lengthAdjust="spacing" textLength="125" x="2030.2734" y="757.1441">CVEInfoFrame</text><line style="stroke:#181818;stroke-width:0.6510416666666666;" x1="1947.2656" x2="2195.9635" y1="771.6667" y2="771.6667"/><line style="stroke:#181818;stroke-width:0.6510416666666666;" x1="1947.2656" x2="2195.9635" y1="782.0833" y2="782.0833"/><ellipse cx="1960.2865" cy="799.8547" fill="#84BE84" rx="3.9063" ry="3.9063" style="stroke:#038048;stroke-width:1.3020833333333333;"/><text fill="#000000" font-family="sans-serif" font-size="18.2292" lengthAdjust="spacing" textLength="217.4479" x="1972.0052" y="804.2124">CVEInfoFrame(cve: CVE)</text></g><!--class FiltersFrame--><g id="elem_FiltersFrame"><rect codeLine="34" fill="#F1F1F1" height="104.9398" id="FiltersFrame" rx="3.2552" ry="3.2552" style="stroke:#181818;stroke-width:0.6510416666666666;" width="398.4375" x="1285.1563" y="503.5286"/><ellipse cx="1424.1536" cy="524.362" fill="#ADD1B2" rx="14.3229" ry="14.3229" style="stroke:#181818;stroke-width:1.3020833333333333;"/><path d="M1428.0192,531.7065 Q1427.2664,532.0931 1426.4323,532.2762 Q1425.5981,532.4797 1424.6826,532.4797 Q1421.4274,532.4797 1419.6981,530.3434 Q1417.9891,528.1868 1417.9891,524.1178 Q1417.9891,520.0488 1419.6981,517.8923 Q1421.4274,515.7357 1424.6826,515.7357 Q1425.5981,515.7357 1426.4323,515.9391 Q1427.2868,516.1426 1428.0192,516.5291 L1428.0192,520.0692 Q1427.2054,519.3164 1426.4323,518.9705 Q1425.6592,518.6043 1424.8454,518.6043 Q1423.0957,518.6043 1422.2005,520.0081 Q1421.3053,521.3916 1421.3053,524.1178 Q1421.3053,526.8441 1422.2005,528.2479 Q1423.0957,529.6313 1424.8454,529.6313 Q1425.6592,529.6313 1426.4323,529.2855 Q1427.2054,528.9193 1428.0192,528.1665 L1428.0192,531.7065 Z " fill="#000000"/><text fill="#000000" font-family="sans-serif" font-size="18.2292" lengthAdjust="spacing" textLength="109.375" x="1450.8464" y="530.6728">FiltersFrame</text><line style="stroke:#181818;stroke-width:0.6510416666666666;" x1="1286.4583" x2="1682.2917" y1="545.1953" y2="545.1953"/><line style="stroke:#181818;stroke-width:0.6510416666666666;" x1="1286.4583" x2="1682.2917" y1="555.612" y2="555.612"/><ellipse cx="1299.4792" cy="573.3834" fill="#84BE84" rx="3.9063" ry="3.9063" style="stroke:#038048;stroke-width:1.3020833333333333;"/><text fill="#000000" font-family="sans-serif" font-size="18.2292" lengthAdjust="spacing" textLength="364.5833" x="1311.1979" y="577.741">FiltersFrame(controller: Main, user: User)</text><ellipse cx="1299.4792" cy="594.6033" fill="#84BE84" rx="3.9063" ry="3.9063" style="stroke:#038048;stroke-width:1.3020833333333333;"/><text fill="#000000" font-family="sans-serif" font-size="18.2292" lengthAdjust="spacing" textLength="113.2813" x="1311.1979" y="598.9609">applyFilters()</text></g><!--class AlertsFrame--><g id="elem_AlertsFrame"><rect codeLine="38" fill="#F1F1F1" height="104.9398" id="AlertsFrame" rx="3.2552" ry="3.2552" style="stroke:#181818;stroke-width:0.6510416666666666;" width="395.8333" x="843.75" y="503.5286"/><ellipse cx="982.7474" cy="524.362" fill="#ADD1B2" rx="14.3229" ry="14.3229" style="stroke:#181818;stroke-width:1.3020833333333333;"/><path d="M986.613,531.7065 Q985.8602,532.0931 985.026,532.2762 Q984.1919,532.4797 983.2764,532.4797 Q980.0212,532.4797 978.2918,530.3434 Q976.5828,528.1868 976.5828,524.1178 Q976.5828,520.0488 978.2918,517.8923 Q980.0212,515.7357 983.2764,515.7357 Q984.1919,515.7357 985.026,515.9391 Q985.8805,516.1426 986.613,516.5291 L986.613,520.0692 Q985.7992,519.3164 985.026,518.9705 Q984.2529,518.6043 983.4391,518.6043 Q981.6895,518.6043 980.7943,520.0081 Q979.8991,521.3916 979.8991,524.1178 Q979.8991,526.8441 980.7943,528.2479 Q981.6895,529.6313 983.4391,529.6313 Q984.2529,529.6313 985.026,529.2855 Q985.7992,528.9193 986.613,528.1665 L986.613,531.7065 Z " fill="#000000"/><text fill="#000000" font-family="sans-serif" font-size="18.2292" lengthAdjust="spacing" textLength="106.7708" x="1009.4401" y="530.6728">AlertsFrame</text><line style="stroke:#181818;stroke-width:0.6510416666666666;" x1="845.0521" x2="1238.2813" y1="545.1953" y2="545.1953"/><line style="stroke:#181818;stroke-width:0.6510416666666666;" x1="845.0521" x2="1238.2813" y1="555.612" y2="555.612"/><ellipse cx="858.0729" cy="573.3834" fill="#84BE84" rx="3.9063" ry="3.9063" style="stroke:#038048;stroke-width:1.3020833333333333;"/><text fill="#000000" font-family="sans-serif" font-size="18.2292" lengthAdjust="spacing" textLength="361.9792" x="869.7917" y="577.741">AlertsFrame(controller: Main, user: User)</text><ellipse cx="858.0729" cy="594.6033" fill="#84BE84" rx="3.9063" ry="3.9063" style="stroke:#038048;stroke-width:1.3020833333333333;"/><text fill="#000000" font-family="sans-serif" font-size="18.2292" lengthAdjust="spacing" textLength="110.6771" x="869.7917" y="598.9609">applyAlerts()</text></g><!--class AlertNotificationDialog--><g id="elem_AlertNotificationDialog"><rect codeLine="42" fill="#F1F1F1" height="104.9398" id="AlertNotificationDialog" rx="3.2552" ry="3.2552" style="stroke:#181818;stroke-width:0.6510416666666666;" width="242.1875" x="555.9896" y="503.5286"/><ellipse cx="577.8646" cy="524.362" fill="#ADD1B2" rx="14.3229" ry="14.3229" style="stroke:#181818;stroke-width:1.3020833333333333;"/><path d="M581.7301,531.7065 Q580.9774,532.0931 580.1432,532.2762 Q579.3091,532.4797 578.3936,532.4797 Q575.1383,532.4797 573.409,530.3434 Q571.7,528.1868 571.7,524.1178 Q571.7,520.0488 573.409,517.8923 Q575.1383,515.7357 578.3936,515.7357 Q579.3091,515.7357 580.1432,515.9391 Q580.9977,516.1426 581.7301,516.5291 L581.7301,520.0692 Q580.9163,519.3164 580.1432,518.9705 Q579.3701,518.6043 578.5563,518.6043 Q576.8066,518.6043 575.9115,520.0081 Q575.0163,521.3916 575.0163,524.1178 Q575.0163,526.8441 575.9115,528.2479 Q576.8066,529.6313 578.5563,529.6313 Q579.3701,529.6313 580.1432,529.2855 Q580.9163,528.9193 581.7301,528.1665 L581.7301,531.7065 Z " fill="#000000"/><text fill="#000000" font-family="sans-serif" font-size="18.2292" lengthAdjust="spacing" textLength="195.3125" x="596.6146" y="530.6728">AlertNotificationDialog</text><line style="stroke:#181818;stroke-width:0.6510416666666666;" x1="557.2917" x2="796.875" y1="545.1953" y2="545.1953"/><line style="stroke:#181818;stroke-width:0.6510416666666666;" x1="557.2917" x2="796.875" y1="555.612" y2="555.612"/><ellipse cx="570.3125" cy="573.3834" fill="#84BE84" rx="3.9063" ry="3.9063" style="stroke:#038048;stroke-width:1.3020833333333333;"/><text fill="#000000" font-family="sans-serif" font-size="18.2292" lengthAdjust="spacing" textLength="208.3333" x="582.0313" y="577.741">AlertNotificationDialog()</text><ellipse cx="570.3125" cy="594.6033" fill="#84BE84" rx="3.9063" ry="3.9063" style="stroke:#038048;stroke-width:1.3020833333333333;"/><text fill="#000000" font-family="sans-serif" font-size="18.2292" lengthAdjust="spacing" textLength="128.9063" x="582.0313" y="598.9609">saveSettings()</text></g><!--class SettingsFrame--><g id="elem_SettingsFrame"><rect codeLine="46" fill="#F1F1F1" height="104.9398" id="SettingsFrame" rx="3.2552" ry="3.2552" style="stroke:#181818;stroke-width:0.6510416666666666;" width="419.2708" x="91.1458" y="503.5286"/><ellipse cx="230.1432" cy="524.362" fill="#ADD1B2" rx="14.3229" ry="14.3229" style="stroke:#181818;stroke-width:1.3020833333333333;"/><path d="M234.0088,531.7065 Q233.256,532.0931 232.4219,532.2762 Q231.5877,532.4797 230.6722,532.4797 Q227.417,532.4797 225.6877,530.3434 Q223.9787,528.1868 223.9787,524.1178 Q223.9787,520.0488 225.6877,517.8923 Q227.417,515.7357 230.6722,515.7357 Q231.5877,515.7357 232.4219,515.9391 Q233.2764,516.1426 234.0088,516.5291 L234.0088,520.0692 Q233.195,519.3164 232.4219,518.9705 Q231.6488,518.6043 230.835,518.6043 Q229.0853,518.6043 228.1901,520.0081 Q227.2949,521.3916 227.2949,524.1178 Q227.2949,526.8441 228.1901,528.2479 Q229.0853,529.6313 230.835,529.6313 Q231.6488,529.6313 232.4219,529.2855 Q233.195,528.9193 234.0088,528.1665 L234.0088,531.7065 Z " fill="#000000"/><text fill="#000000" font-family="sans-serif" font-size="18.2292" lengthAdjust="spacing" textLength="130.2083" x="256.8359" y="530.6728">SettingsFrame</text><line style="stroke:#181818;stroke-width:0.6510416666666666;" x1="92.4479" x2="509.1146" y1="545.1953" y2="545.1953"/><line style="stroke:#181818;stroke-width:0.6510416666666666;" x1="92.4479" x2="509.1146" y1="555.612" y2="555.612"/><ellipse cx="105.4688" cy="573.3834" fill="#84BE84" rx="3.9063" ry="3.9063" style="stroke:#038048;stroke-width:1.3020833333333333;"/><text fill="#000000" font-family="sans-serif" font-size="18.2292" lengthAdjust="spacing" textLength="385.4167" x="117.1875" y="577.741">SettingsFrame(controller: Main, user: User)</text><ellipse cx="105.4688" cy="594.6033" fill="#84BE84" rx="3.9063" ry="3.9063" style="stroke:#038048;stroke-width:1.3020833333333333;"/><text fill="#000000" font-family="sans-serif" font-size="18.2292" lengthAdjust="spacing" textLength="128.9063" x="117.1875" y="598.9609">saveSettings()</text></g><!--class CVE--><g id="elem_CVE"><rect codeLine="53" fill="#F1F1F1" height="211.0392" id="CVE" rx="3.2552" ry="3.2552" style="stroke:#181818;stroke-width:0.6510416666666666;" width="246.0938" x="1947.2656" y="943.2031"/><ellipse cx="2046.5495" cy="964.0365" fill="#ADD1B2" rx="14.3229" ry="14.3229" style="stroke:#181818;stroke-width:1.3020833333333333;"/><path d="M2050.415,971.381 Q2049.6623,971.7676 2048.8281,971.9507 Q2047.994,972.1541 2047.0785,972.1541 Q2043.8232,972.1541 2042.0939,970.0179 Q2040.3849,967.8613 2040.3849,963.7923 Q2040.3849,959.7233 2042.0939,957.5667 Q2043.8232,955.4102 2047.0785,955.4102 Q2047.994,955.4102 2048.8281,955.6136 Q2049.6826,955.8171 2050.415,956.2036 L2050.415,959.7437 Q2049.6012,958.9909 2048.8281,958.645 Q2048.055,958.2788 2047.2412,958.2788 Q2045.4915,958.2788 2044.5964,959.6826 Q2043.7012,961.0661 2043.7012,963.7923 Q2043.7012,966.5186 2044.5964,967.9224 Q2045.4915,969.3058 2047.2412,969.3058 Q2048.055,969.3058 2048.8281,968.96 Q2049.6012,968.5937 2050.415,967.841 L2050.415,971.381 Z " fill="#000000"/><text fill="#000000" font-family="sans-serif" font-size="18.2292" lengthAdjust="spacing" textLength="36.4583" x="2073.2422" y="970.3472">CVE</text><line style="stroke:#181818;stroke-width:0.6510416666666666;" x1="1948.5677" x2="2192.0573" y1="984.8698" y2="984.8698"/><rect fill="none" height="7.8125" style="stroke:#C82930;stroke-width:1.3020833333333333;" width="7.8125" x="1957.6823" y="998.7349"/><text fill="#000000" font-family="sans-serif" font-size="18.2292" lengthAdjust="spacing" textLength="96.3542" x="1973.3073" y="1006.9989">id : Integer</text><rect fill="none" height="7.8125" style="stroke:#C82930;stroke-width:1.3020833333333333;" width="7.8125" x="1957.6823" y="1019.9548"/><text fill="#000000" font-family="sans-serif" font-size="18.2292" lengthAdjust="spacing" textLength="125" x="1973.3073" y="1028.2187">cve_id : String</text><rect fill="none" height="7.8125" style="stroke:#C82930;stroke-width:1.3020833333333333;" width="7.8125" x="1957.6823" y="1041.1747"/><text fill="#000000" font-family="sans-serif" font-size="18.2292" lengthAdjust="spacing" textLength="169.2708" x="1973.3073" y="1049.4386">description : String</text><rect fill="none" height="7.8125" style="stroke:#C82930;stroke-width:1.3020833333333333;" width="7.8125" x="1957.6823" y="1062.3946"/><text fill="#000000" font-family="sans-serif" font-size="18.2292" lengthAdjust="spacing" textLength="138.0208" x="1973.3073" y="1070.6585">severity : String</text><rect fill="none" height="7.8125" style="stroke:#C82930;stroke-width:1.3020833333333333;" width="7.8125" x="1957.6823" y="1083.6145"/><text fill="#000000" font-family="sans-serif" font-size="18.2292" lengthAdjust="spacing" textLength="212.2396" x="1973.3073" y="1091.8784">affectedProduct : String</text><rect fill="none" height="7.8125" style="stroke:#C82930;stroke-width:1.3020833333333333;" width="7.8125" x="1957.6823" y="1104.8344"/><text fill="#000000" font-family="sans-serif" font-size="18.2292" lengthAdjust="spacing" textLength="191.4063" x="1973.3073" y="1113.0983">publishedDate : Date</text><line style="stroke:#181818;stroke-width:0.6510416666666666;" x1="1948.5677" x2="2192.0573" y1="1122.6058" y2="1122.6058"/><ellipse cx="1961.5885" cy="1140.3772" fill="#84BE84" rx="3.9063" ry="3.9063" style="stroke:#038048;stroke-width:1.3020833333333333;"/><text fill="#000000" font-family="sans-serif" font-size="18.2292" lengthAdjust="spacing" textLength="173.1771" x="1973.3073" y="1144.7349">getDetails() : String</text></g><!--class User--><g id="elem_User"><rect codeLine="62" fill="#F1F1F1" height="232.2591" id="User" rx="3.2552" ry="3.2552" style="stroke:#181818;stroke-width:0.6510416666666666;" width="281.25" x="2239.5833" y="932.5911"/><ellipse cx="2353.8411" cy="953.4245" fill="#ADD1B2" rx="14.3229" ry="14.3229" style="stroke:#181818;stroke-width:1.3020833333333333;"/><path d="M2357.7067,960.769 Q2356.9539,961.1556 2356.1198,961.3387 Q2355.2856,961.5422 2354.3701,961.5422 Q2351.1149,961.5422 2349.3856,959.4059 Q2347.6766,957.2493 2347.6766,953.1803 Q2347.6766,949.1113 2349.3856,946.9548 Q2351.1149,944.7982 2354.3701,944.7982 Q2355.2856,944.7982 2356.1198,945.0016 Q2356.9743,945.2051 2357.7067,945.5916 L2357.7067,949.1317 Q2356.8929,948.3789 2356.1198,948.033 Q2355.3467,947.6668 2354.5329,947.6668 Q2352.7832,947.6668 2351.888,949.0706 Q2350.9928,950.4541 2350.9928,953.1803 Q2350.9928,955.9066 2351.888,957.3104 Q2352.7832,958.6938 2354.5329,958.6938 Q2355.3467,958.6938 2356.1198,958.348 Q2356.8929,957.9818 2357.7067,957.229 L2357.7067,960.769 Z " fill="#000000"/><text fill="#000000" font-family="sans-serif" font-size="18.2292" lengthAdjust="spacing" textLength="41.6667" x="2380.5339" y="959.7353">User</text><line style="stroke:#181818;stroke-width:0.6510416666666666;" x1="2240.8854" x2="2519.5313" y1="974.2578" y2="974.2578"/><rect fill="none" height="7.8125" style="stroke:#C82930;stroke-width:1.3020833333333333;" width="7.8125" x="2250" y="988.123"/><text fill="#000000" font-family="sans-serif" font-size="18.2292" lengthAdjust="spacing" textLength="136.7188" x="2265.625" y="996.3869">userId : Integer</text><rect fill="none" height="7.8125" style="stroke:#C82930;stroke-width:1.3020833333333333;" width="7.8125" x="2250" y="1009.3429"/><text fill="#000000" font-family="sans-serif" font-size="18.2292" lengthAdjust="spacing" textLength="160.1563" x="2265.625" y="1017.6068">username : String</text><rect fill="none" height="7.8125" style="stroke:#C82930;stroke-width:1.3020833333333333;" width="7.8125" x="2250" y="1030.5627"/><text fill="#000000" font-family="sans-serif" font-size="18.2292" lengthAdjust="spacing" textLength="115.8854" x="2265.625" y="1038.8266">email : String</text><rect fill="none" height="7.8125" style="stroke:#C82930;stroke-width:1.3020833333333333;" width="7.8125" x="2250" y="1051.7826"/><text fill="#000000" font-family="sans-serif" font-size="18.2292" lengthAdjust="spacing" textLength="156.25" x="2265.625" y="1060.0465">password : String</text><rect fill="none" height="7.8125" style="stroke:#C82930;stroke-width:1.3020833333333333;" width="7.8125" x="2250" y="1073.0025"/><text fill="#000000" font-family="sans-serif" font-size="18.2292" lengthAdjust="spacing" textLength="205.7292" x="2265.625" y="1081.2664">userFilters : UserFilters</text><rect fill="none" height="7.8125" style="stroke:#C82930;stroke-width:1.3020833333333333;" width="7.8125" x="2250" y="1094.2224"/><text fill="#000000" font-family="sans-serif" font-size="18.2292" lengthAdjust="spacing" textLength="200.5208" x="2265.625" y="1102.4863">userAlerts : UserAlerts</text><rect fill="none" height="7.8125" style="stroke:#C82930;stroke-width:1.3020833333333333;" width="7.8125" x="2250" y="1115.4423"/><text fill="#000000" font-family="sans-serif" font-size="18.2292" lengthAdjust="spacing" textLength="247.3958" x="2265.625" y="1123.7062">userSettings : UserSettings</text><line style="stroke:#181818;stroke-width:0.6510416666666666;" x1="2240.8854" x2="2519.5313" y1="1133.2137" y2="1133.2137"/><ellipse cx="2253.9063" cy="1150.9851" fill="#84BE84" rx="3.9063" ry="3.9063" style="stroke:#038048;stroke-width:1.3020833333333333;"/><text fill="#000000" font-family="sans-serif" font-size="18.2292" lengthAdjust="spacing" textLength="186.1979" x="2265.625" y="1155.3428">getUserInfo() : String</text></g><!--class UserFilters--><g id="elem_UserFilters"><rect codeLine="72" fill="#F1F1F1" height="168.5994" id="UserFilters" rx="3.2552" ry="3.2552" style="stroke:#181818;stroke-width:0.6510416666666666;" width="287.7604" x="2233.724" y="1190.8984"/><ellipse cx="2324.5443" cy="1211.7318" fill="#ADD1B2" rx="14.3229" ry="14.3229" style="stroke:#181818;stroke-width:1.3020833333333333;"/><path d="M2328.4098,1219.0763 Q2327.6571,1219.4629 2326.8229,1219.646 Q2325.9888,1219.8494 2325.0732,1219.8494 Q2321.818,1219.8494 2320.0887,1217.7132 Q2318.3797,1215.5566 2318.3797,1211.4876 Q2318.3797,1207.4186 2320.0887,1205.262 Q2321.818,1203.1055 2325.0732,1203.1055 Q2325.9888,1203.1055 2326.8229,1203.3089 Q2327.6774,1203.5124 2328.4098,1203.8989 L2328.4098,1207.439 Q2327.596,1206.6862 2326.8229,1206.3403 Q2326.0498,1205.9741 2325.236,1205.9741 Q2323.4863,1205.9741 2322.5911,1207.3779 Q2321.696,1208.7614 2321.696,1211.4876 Q2321.696,1214.2139 2322.5911,1215.6177 Q2323.4863,1217.0011 2325.236,1217.0011 Q2326.0498,1217.0011 2326.8229,1216.6553 Q2327.596,1216.2891 2328.4098,1215.5363 L2328.4098,1219.0763 Z " fill="#000000"/><text fill="#000000" font-family="sans-serif" font-size="18.2292" lengthAdjust="spacing" textLength="95.0521" x="2351.237" y="1218.0426">UserFilters</text><line style="stroke:#181818;stroke-width:0.6510416666666666;" x1="2235.026" x2="2520.1823" y1="1232.5651" y2="1232.5651"/><rect fill="none" height="7.8125" style="stroke:#C82930;stroke-width:1.3020833333333333;" width="7.8125" x="2244.1406" y="1246.4303"/><text fill="#000000" font-family="sans-serif" font-size="18.2292" lengthAdjust="spacing" textLength="134.1146" x="2259.7656" y="1254.6942">osFilter : String</text><rect fill="none" height="7.8125" style="stroke:#C82930;stroke-width:1.3020833333333333;" width="7.8125" x="2244.1406" y="1267.6501"/><text fill="#000000" font-family="sans-serif" font-size="18.2292" lengthAdjust="spacing" textLength="180.9896" x="2259.7656" y="1275.9141">severityFilter : String</text><rect fill="none" height="7.8125" style="stroke:#C82930;stroke-width:1.3020833333333333;" width="7.8125" x="2244.1406" y="1288.87"/><text fill="#000000" font-family="sans-serif" font-size="18.2292" lengthAdjust="spacing" textLength="253.9062" x="2259.7656" y="1297.1339">productFilters : List&lt;String&gt;</text><rect fill="none" height="7.8125" style="stroke:#C82930;stroke-width:1.3020833333333333;" width="7.8125" x="2244.1406" y="1310.0899"/><text fill="#000000" font-family="sans-serif" font-size="18.2292" lengthAdjust="spacing" textLength="239.5833" x="2259.7656" y="1318.3538">includeResolved : Boolean</text><line style="stroke:#181818;stroke-width:0.6510416666666666;" x1="2235.026" x2="2520.1823" y1="1327.8613" y2="1327.8613"/><ellipse cx="2248.0469" cy="1345.6327" fill="#84BE84" rx="3.9063" ry="3.9063" style="stroke:#038048;stroke-width:1.3020833333333333;"/><text fill="#000000" font-family="sans-serif" font-size="18.2292" lengthAdjust="spacing" textLength="197.9167" x="2259.7656" y="1349.9904">getFiltersInfo() : String</text></g><!--class UserAlerts--><g id="elem_UserAlerts"><rect codeLine="79" fill="#F1F1F1" height="83.7199" id="UserAlerts" rx="3.2552" ry="3.2552" style="stroke:#181818;stroke-width:0.6510416666666666;" width="229.1667" x="1959.6354" y="1233.3333"/><ellipse cx="2022.4609" cy="1254.1667" fill="#ADD1B2" rx="14.3229" ry="14.3229" style="stroke:#181818;stroke-width:1.3020833333333333;"/><path d="M2026.3265,1261.5112 Q2025.5737,1261.8978 2024.7396,1262.0809 Q2023.9054,1262.2843 2022.9899,1262.2843 Q2019.7347,1262.2843 2018.0054,1260.1481 Q2016.2964,1257.9915 2016.2964,1253.9225 Q2016.2964,1249.8535 2018.0054,1247.6969 Q2019.7347,1245.5404 2022.9899,1245.5404 Q2023.9054,1245.5404 2024.7396,1245.7438 Q2025.5941,1245.9473 2026.3265,1246.3338 L2026.3265,1249.8739 Q2025.5127,1249.1211 2024.7396,1248.7752 Q2023.9665,1248.409 2023.1527,1248.409 Q2021.403,1248.409 2020.5078,1249.8128 Q2019.6126,1251.1963 2019.6126,1253.9225 Q2019.6126,1256.6488 2020.5078,1258.0526 Q2021.403,1259.436 2023.1527,1259.436 Q2023.9665,1259.436 2024.7396,1259.0902 Q2025.5127,1258.724 2026.3265,1257.9712 L2026.3265,1261.5112 Z " fill="#000000"/><text fill="#000000" font-family="sans-serif" font-size="18.2292" lengthAdjust="spacing" textLength="92.4479" x="2049.1536" y="1260.4774">UserAlerts</text><line style="stroke:#181818;stroke-width:0.6510416666666666;" x1="1960.9375" x2="2187.5" y1="1275" y2="1275"/><line style="stroke:#181818;stroke-width:0.6510416666666666;" x1="1960.9375" x2="2187.5" y1="1285.4167" y2="1285.4167"/><ellipse cx="1973.9583" cy="1303.1881" fill="#84BE84" rx="3.9063" ry="3.9063" style="stroke:#038048;stroke-width:1.3020833333333333;"/><text fill="#000000" font-family="sans-serif" font-size="18.2292" lengthAdjust="spacing" textLength="195.3125" x="1985.6771" y="1307.5457">getAlertsInfo() : String</text></g><!--class UserSettings--><g id="elem_UserSettings"><rect codeLine="82" fill="#F1F1F1" height="168.5994" id="UserSettings" rx="3.2552" ry="3.2552" style="stroke:#181818;stroke-width:0.6510416666666666;" width="305.9896" x="1608.724" y="1190.8984"/><ellipse cx="1698.2422" cy="1211.7318" fill="#ADD1B2" rx="14.3229" ry="14.3229" style="stroke:#181818;stroke-width:1.3020833333333333;"/><path d="M1702.1077,1219.0763 Q1701.355,1219.4629 1700.5208,1219.646 Q1699.6867,1219.8494 1698.7712,1219.8494 Q1695.516,1219.8494 1693.7866,1217.7132 Q1692.0776,1215.5566 1692.0776,1211.4876 Q1692.0776,1207.4186 1693.7866,1205.262 Q1695.516,1203.1055 1698.7712,1203.1055 Q1699.6867,1203.1055 1700.5208,1203.3089 Q1701.3753,1203.5124 1702.1077,1203.8989 L1702.1077,1207.439 Q1701.2939,1206.6862 1700.5208,1206.3403 Q1699.7477,1205.9741 1698.9339,1205.9741 Q1697.1842,1205.9741 1696.2891,1207.3779 Q1695.3939,1208.7614 1695.3939,1211.4876 Q1695.3939,1214.2139 1696.2891,1215.6177 Q1697.1842,1217.0011 1698.9339,1217.0011 Q1699.7477,1217.0011 1700.5208,1216.6553 Q1701.2939,1216.2891 1702.1077,1215.5363 L1702.1077,1219.0763 Z " fill="#000000"/><text fill="#000000" font-family="sans-serif" font-size="18.2292" lengthAdjust="spacing" textLength="115.8854" x="1724.9349" y="1218.0426">UserSettings</text><line style="stroke:#181818;stroke-width:0.6510416666666666;" x1="1610.026" x2="1913.4115" y1="1232.5651" y2="1232.5651"/><rect fill="none" height="7.8125" style="stroke:#C82930;stroke-width:1.3020833333333333;" width="7.8125" x="1619.1406" y="1246.4303"/><text fill="#000000" font-family="sans-serif" font-size="18.2292" lengthAdjust="spacing" textLength="272.1354" x="1634.7656" y="1254.6942">notificationsEnabled : Boolean</text><rect fill="none" height="7.8125" style="stroke:#C82930;stroke-width:1.3020833333333333;" width="7.8125" x="1619.1406" y="1267.6501"/><text fill="#000000" font-family="sans-serif" font-size="18.2292" lengthAdjust="spacing" textLength="139.3229" x="1634.7656" y="1275.9141">lastLogin : Date</text><rect fill="none" height="7.8125" style="stroke:#C82930;stroke-width:1.3020833333333333;" width="7.8125" x="1619.1406" y="1288.87"/><text fill="#000000" font-family="sans-serif" font-size="18.2292" lengthAdjust="spacing" textLength="253.9062" x="1634.7656" y="1297.1339">darkModeEnabled : Boolean</text><rect fill="none" height="7.8125" style="stroke:#C82930;stroke-width:1.3020833333333333;" width="7.8125" x="1619.1406" y="1310.0899"/><text fill="#000000" font-family="sans-serif" font-size="18.2292" lengthAdjust="spacing" textLength="227.8646" x="1634.7656" y="1318.3538">startupEnabled : Boolean</text><line style="stroke:#181818;stroke-width:0.6510416666666666;" x1="1610.026" x2="1913.4115" y1="1327.8613" y2="1327.8613"/><ellipse cx="1623.0469" cy="1345.6327" fill="#84BE84" rx="3.9063" ry="3.9063" style="stroke:#038048;stroke-width:1.3020833333333333;"/><text fill="#000000" font-family="sans-serif" font-size="18.2292" lengthAdjust="spacing" textLength="227.8646" x="1634.7656" y="1349.9904">getUserSettings() : String</text></g><!--class CVEFetcher--><g id="elem_CVEFetcher"><rect codeLine="92" fill="#F1F1F1" height="126.1597" id="CVEFetcher" rx="3.2552" ry="3.2552" style="stroke:#181818;stroke-width:0.6510416666666666;" width="750" x="3891.9271" y="708.776"/><ellipse cx="4208.6589" cy="729.6094" fill="#ADD1B2" rx="14.3229" ry="14.3229" style="stroke:#181818;stroke-width:1.3020833333333333;"/><path d="M4212.5244,736.9539 Q4211.7716,737.3405 4210.9375,737.5236 Q4210.1034,737.7271 4209.1878,737.7271 Q4205.9326,737.7271 4204.2033,735.5908 Q4202.4943,733.4342 4202.4943,729.3652 Q4202.4943,725.2962 4204.2033,723.1396 Q4205.9326,720.9831 4209.1878,720.9831 Q4210.1034,720.9831 4210.9375,721.1865 Q4211.792,721.39 4212.5244,721.7765 L4212.5244,725.3166 Q4211.7106,724.5638 4210.9375,724.2179 Q4210.1644,723.8517 4209.3506,723.8517 Q4207.6009,723.8517 4206.7057,725.2555 Q4205.8105,726.639 4205.8105,729.3652 Q4205.8105,732.0915 4206.7057,733.4953 Q4207.6009,734.8787 4209.3506,734.8787 Q4210.1644,734.8787 4210.9375,734.5329 Q4211.7106,734.1667 4212.5244,733.4139 L4212.5244,736.9539 Z " fill="#000000"/><text fill="#000000" font-family="sans-serif" font-size="18.2292" lengthAdjust="spacing" textLength="105.4688" x="4235.3516" y="735.9202">CVEFetcher</text><line style="stroke:#181818;stroke-width:0.6510416666666666;" x1="3893.2292" x2="4640.625" y1="750.4427" y2="750.4427"/><line style="stroke:#181818;stroke-width:0.6510416666666666;" x1="3893.2292" x2="4640.625" y1="760.8594" y2="760.8594"/><ellipse cx="3906.25" cy="778.6308" fill="#84BE84" rx="3.9063" ry="3.9063" style="stroke:#038048;stroke-width:1.3020833333333333;"/><text fill="#000000" font-family="sans-serif" font-size="18.2292" lengthAdjust="spacing" textLength="716.1458" x="3917.9688" y="782.9884">fetchLatestCVEs(lastModStartDate: String, lastModEndDate: String) : List&lt;CVE&gt;</text><ellipse cx="3906.25" cy="799.8507" fill="#84BE84" rx="3.9063" ry="3.9063" style="stroke:#038048;stroke-width:1.3020833333333333;"/><text fill="#000000" font-family="sans-serif" font-size="18.2292" lengthAdjust="spacing" textLength="361.9792" x="3917.9688" y="804.2083">fetchCVEById(cveId: String) : JSONObject</text><ellipse cx="3906.25" cy="821.0706" fill="#84BE84" rx="3.9063" ry="3.9063" style="stroke:#038048;stroke-width:1.3020833333333333;"/><text fill="#000000" font-family="sans-serif" font-size="18.2292" lengthAdjust="spacing" textLength="377.6042" x="3917.9688" y="825.4282">SfetchCVEData(query: String) : List&lt;CVE&gt;</text></g><!--class NotificationService--><g id="elem_NotificationService"><rect codeLine="97" fill="#F1F1F1" height="83.7199" id="NotificationService" rx="3.2552" ry="3.2552" style="stroke:#181818;stroke-width:0.6510416666666666;" width="384.1146" x="4207.6823" y="194.2448"/><ellipse cx="4312.1745" cy="215.0781" fill="#ADD1B2" rx="14.3229" ry="14.3229" style="stroke:#181818;stroke-width:1.3020833333333333;"/><path d="M4316.04,222.4227 Q4315.2873,222.8092 4314.4531,222.9924 Q4313.619,223.1958 4312.7035,223.1958 Q4309.4482,223.1958 4307.7189,221.0596 Q4306.0099,218.903 4306.0099,214.834 Q4306.0099,210.765 4307.7189,208.6084 Q4309.4482,206.4518 4312.7035,206.4518 Q4313.619,206.4518 4314.4531,206.6553 Q4315.3076,206.8587 4316.04,207.2453 L4316.04,210.7853 Q4315.2262,210.0326 4314.4531,209.6867 Q4313.68,209.3205 4312.8662,209.3205 Q4311.1165,209.3205 4310.2214,210.7243 Q4309.3262,212.1077 4309.3262,214.834 Q4309.3262,217.5602 4310.2214,218.964 Q4311.1165,220.3475 4312.8662,220.3475 Q4313.68,220.3475 4314.4531,220.0016 Q4315.2262,219.6354 4316.04,218.8826 L4316.04,222.4227 Z " fill="#000000"/><text fill="#000000" font-family="sans-serif" font-size="18.2292" lengthAdjust="spacing" textLength="164.0625" x="4338.8672" y="221.3889">NotificationService</text><line style="stroke:#181818;stroke-width:0.6510416666666666;" x1="4208.9844" x2="4590.4948" y1="235.9115" y2="235.9115"/><line style="stroke:#181818;stroke-width:0.6510416666666666;" x1="4208.9844" x2="4590.4948" y1="246.3281" y2="246.3281"/><ellipse cx="4222.0052" cy="264.0995" fill="#84BE84" rx="3.9063" ry="3.9063" style="stroke:#038048;stroke-width:1.3020833333333333;"/><text fill="#000000" font-family="sans-serif" font-size="18.2292" lengthAdjust="spacing" textLength="350.2604" x="4233.724" y="268.4572">sendAlert(user: User, message: String)</text></g><!--class DatabaseService--><g id="elem_DatabaseService"><rect codeLine="100" fill="#F1F1F1" height="189.8193" id="DatabaseService" rx="3.2552" ry="3.2552" style="stroke:#181818;stroke-width:0.6510416666666666;" width="415.3646" x="4142.5781" y="461.0807"/><ellipse cx="4269.2057" cy="481.9141" fill="#ADD1B2" rx="14.3229" ry="14.3229" style="stroke:#181818;stroke-width:1.3020833333333333;"/><path d="M4273.0713,489.2586 Q4272.3185,489.6452 4271.4844,489.8283 Q4270.6502,490.0317 4269.7347,490.0317 Q4266.4795,490.0317 4264.7502,487.8955 Q4263.0412,485.7389 4263.0412,481.6699 Q4263.0412,477.6009 4264.7502,475.4443 Q4266.4795,473.2878 4269.7347,473.2878 Q4270.6502,473.2878 4271.4844,473.4912 Q4272.3389,473.6947 4273.0713,474.0812 L4273.0713,477.6213 Q4272.2575,476.8685 4271.4844,476.5226 Q4270.7113,476.1564 4269.8975,476.1564 Q4268.1478,476.1564 4267.2526,477.5602 Q4266.3574,478.9437 4266.3574,481.6699 Q4266.3574,484.3962 4267.2526,485.8 Q4268.1478,487.1834 4269.8975,487.1834 Q4270.7113,487.1834 4271.4844,486.8376 Q4272.2575,486.4714 4273.0713,485.7186 L4273.0713,489.2586 Z " fill="#000000"/><text fill="#000000" font-family="sans-serif" font-size="18.2292" lengthAdjust="spacing" textLength="151.0417" x="4295.8984" y="488.2248">DatabaseService</text><line style="stroke:#181818;stroke-width:0.6510416666666666;" x1="4143.8802" x2="4556.6406" y1="502.7474" y2="502.7474"/><line style="stroke:#181818;stroke-width:0.6510416666666666;" x1="4143.8802" x2="4556.6406" y1="513.1641" y2="513.1641"/><ellipse cx="4156.901" cy="530.9355" fill="#84BE84" rx="3.9063" ry="3.9063" style="stroke:#038048;stroke-width:1.3020833333333333;"/><text fill="#000000" font-family="sans-serif" font-size="18.2292" lengthAdjust="spacing" textLength="87.2396" x="4168.6198" y="535.2931">connect()</text><ellipse cx="4156.901" cy="552.1554" fill="#84BE84" rx="3.9063" ry="3.9063" style="stroke:#038048;stroke-width:1.3020833333333333;"/><text fill="#000000" font-family="sans-serif" font-size="18.2292" lengthAdjust="spacing" textLength="283.8542" x="4168.6198" y="556.513">saveCVEData(cves: List&lt;CVE&gt;)</text><ellipse cx="4156.901" cy="573.3752" fill="#84BE84" rx="3.9063" ry="3.9063" style="stroke:#038048;stroke-width:1.3020833333333333;"/><text fill="#000000" font-family="sans-serif" font-size="18.2292" lengthAdjust="spacing" textLength="235.6771" x="4168.6198" y="577.7329">getCVEData() : List&lt;CVE&gt;</text><ellipse cx="4156.901" cy="594.5951" fill="#84BE84" rx="3.9063" ry="3.9063" style="stroke:#038048;stroke-width:1.3020833333333333;"/><text fill="#000000" font-family="sans-serif" font-size="18.2292" lengthAdjust="spacing" textLength="281.25" x="4168.6198" y="598.9528">getCVEById(cveId: String) : CVE</text><ellipse cx="4156.901" cy="615.815" fill="#84BE84" rx="3.9063" ry="3.9063" style="stroke:#038048;stroke-width:1.3020833333333333;"/><text fill="#000000" font-family="sans-serif" font-size="18.2292" lengthAdjust="spacing" textLength="381.5104" x="4168.6198" y="620.1727">searchCVEData(query: String) : List&lt;CVE&gt;</text><ellipse cx="4156.901" cy="637.0349" fill="#84BE84" rx="3.9063" ry="3.9063" style="stroke:#038048;stroke-width:1.3020833333333333;"/><text fill="#000000" font-family="sans-serif" font-size="18.2292" lengthAdjust="spacing" textLength="106.7708" x="4168.6198" y="641.3926">resetCVEs()</text></g><!--class APIUtils--><g id="elem_APIUtils"><rect codeLine="111" fill="#F1F1F1" height="83.7199" id="APIUtils" rx="3.2552" ry="3.2552" style="stroke:#181818;stroke-width:0.6510416666666666;" width="309.8958" x="3509.1146" y="514.1406"/><ellipse cx="3625.9766" cy="534.974" fill="#ADD1B2" rx="14.3229" ry="14.3229" style="stroke:#181818;stroke-width:1.3020833333333333;"/><path d="M3629.8421,542.3185 Q3629.0894,542.7051 3628.2552,542.8882 Q3627.4211,543.0916 3626.5055,543.0916 Q3623.2503,543.0916 3621.521,540.9554 Q3619.812,538.7988 3619.812,534.7298 Q3619.812,530.6608 3621.521,528.5042 Q3623.2503,526.3477 3626.5055,526.3477 Q3627.4211,526.3477 3628.2552,526.5511 Q3629.1097,526.7546 3629.8421,527.1411 L3629.8421,530.6812 Q3629.0283,529.9284 3628.2552,529.5825 Q3627.4821,529.2163 3626.6683,529.2163 Q3624.9186,529.2163 3624.0234,530.6201 Q3623.1283,532.0036 3623.1283,534.7298 Q3623.1283,537.4561 3624.0234,538.8599 Q3624.9186,540.2433 3626.6683,540.2433 Q3627.4821,540.2433 3628.2552,539.8975 Q3629.0283,539.5312 3629.8421,538.7785 L3629.8421,542.3185 Z " fill="#000000"/><text fill="#000000" font-family="sans-serif" font-size="18.2292" lengthAdjust="spacing" textLength="65.1042" x="3652.6693" y="541.2847">APIUtils</text><line style="stroke:#181818;stroke-width:0.6510416666666666;" x1="3510.4167" x2="3817.7083" y1="555.8073" y2="555.8073"/><line style="stroke:#181818;stroke-width:0.6510416666666666;" x1="3510.4167" x2="3817.7083" y1="566.224" y2="566.224"/><ellipse cx="3523.4375" cy="583.9954" fill="#84BE84" rx="3.9063" ry="3.9063" style="stroke:#038048;stroke-width:1.3020833333333333;"/><text fill="#000000" font-family="sans-serif" font-size="18.2292" lengthAdjust="spacing" textLength="276.0417" x="3535.1563" y="588.353">makeAPICall(url: String) : String</text></g><!--class Filters--><g id="elem_Filters"><rect codeLine="114" fill="#F1F1F1" height="126.1597" id="Filters" rx="3.2552" ry="3.2552" style="stroke:#181818;stroke-width:0.6510416666666666;" width="1036.4583" x="2427.0833" y="492.9167"/><ellipse cx="2913.0859" cy="513.75" fill="#ADD1B2" rx="14.3229" ry="14.3229" style="stroke:#181818;stroke-width:1.3020833333333333;"/><path d="M2916.9515,521.0946 Q2916.1987,521.4811 2915.3646,521.6642 Q2914.5304,521.8677 2913.6149,521.8677 Q2910.3597,521.8677 2908.6304,519.7314 Q2906.9214,517.5749 2906.9214,513.5059 Q2906.9214,509.4368 2908.6304,507.2803 Q2910.3597,505.1237 2913.6149,505.1237 Q2914.5304,505.1237 2915.3646,505.3271 Q2916.2191,505.5306 2916.9515,505.9172 L2916.9515,509.4572 Q2916.1377,508.7044 2915.3646,508.3586 Q2914.5915,507.9924 2913.7777,507.9924 Q2912.028,507.9924 2911.1328,509.3962 Q2910.2376,510.7796 2910.2376,513.5059 Q2910.2376,516.2321 2911.1328,517.6359 Q2912.028,519.0194 2913.7777,519.0194 Q2914.5915,519.0194 2915.3646,518.6735 Q2916.1377,518.3073 2916.9515,517.5545 L2916.9515,521.0946 Z " fill="#000000"/><text fill="#000000" font-family="sans-serif" font-size="18.2292" lengthAdjust="spacing" textLength="53.3854" x="2939.7786" y="520.0608">Filters</text><line style="stroke:#181818;stroke-width:0.6510416666666666;" x1="2428.3854" x2="3462.2396" y1="534.5833" y2="534.5833"/><line style="stroke:#181818;stroke-width:0.6510416666666666;" x1="2428.3854" x2="3462.2396" y1="545" y2="545"/><ellipse cx="2441.4063" cy="562.7714" fill="#84BE84" rx="3.9063" ry="3.9063" style="stroke:#038048;stroke-width:1.3020833333333333;"/><text fill="#000000" font-family="sans-serif" font-size="18.2292" lengthAdjust="spacing" textLength="542.9688" x="2453.125" y="567.1291">filterByOS(cves: List&lt;CVE&gt;, selectedOS: String) : List&lt;CVE&gt;</text><ellipse cx="2441.4063" cy="583.9913" fill="#84BE84" rx="3.9063" ry="3.9063" style="stroke:#038048;stroke-width:1.3020833333333333;"/><text fill="#000000" font-family="sans-serif" font-size="18.2292" lengthAdjust="spacing" textLength="631.5104" x="2453.125" y="588.3489">filterBySeverity(cves: List&lt;CVE&gt;, selectedSeverity: String) : List&lt;CVE&gt;</text><ellipse cx="2441.4063" cy="605.2112" fill="#84BE84" rx="3.9063" ry="3.9063" style="stroke:#038048;stroke-width:1.3020833333333333;"/><text fill="#000000" font-family="sans-serif" font-size="18.2292" lengthAdjust="spacing" textLength="1002.6042" x="2453.125" y="609.5688">applyFilters(cves: List&lt;CVE&gt;, selectedOS: String, selectedProduct: String, selectedSeverity: String) : List&lt;CVE&gt;</text></g><!--link Main to MainFrame--><g id="link_Main_MainFrame"><path codeLine="122" d="M2731.1979,272.3568 C2618.8932,293.8021 2480.5469,326.3411 2361.9792,373.2682 C2323.5286,388.4766 2291.0716,404.3238 2253.5847,425.014 " fill="none" id="Main-to-MainFrame" style="stroke:#181818;stroke-width:1.3020833333333333;"/><polygon fill="#181818" points="2246.7448,428.7891,2259.5213,427.6863,2252.4447,425.6431,2254.4878,418.5665,2246.7448,428.7891" style="stroke:#181818;stroke-width:1.3020833333333333;"/></g><!--link MainFrame to Main--><g id="link_MainFrame_Main"><path codeLine="127" d="M2201.9792,428.7891 C2238.6589,408.099 2277.9557,388.4766 2316.4063,373.2682 C2449.2839,320.6901 2599.2765,287.4644 2723.6515,266.3837 " fill="none" id="MainFrame-to-Main" style="stroke:#181818;stroke-width:1.3020833333333333;"/><polygon fill="#181818" points="2731.3542,265.0781,2718.9298,261.9013,2724.9353,266.1661,2720.6706,272.1715,2731.3542,265.0781" style="stroke:#181818;stroke-width:1.3020833333333333;"/></g><!--link Main to DatabaseService--><g id="link_Main_DatabaseService"><path codeLine="123" d="M3159.3229,272.3177 C3346.5495,301.4323 3626.0938,341.4974 3871.0938,362.8516 C3900.5208,365.4167 4109.2057,362.5391 4136.7188,373.2682 C4184.987,392.0833 4224.3553,421.2945 4260.5271,455.2398 " fill="none" id="Main-to-DatabaseService" style="stroke:#181818;stroke-width:1.3020833333333333;"/><polygon fill="#181818" points="4266.224,460.5859,4261.2428,448.7688,4261.4766,456.1308,4254.1146,456.3646,4266.224,460.5859" style="stroke:#181818;stroke-width:1.3020833333333333;"/></g><!--link Main to CVEFetcher--><g id="link_Main_CVEFetcher"><path codeLine="124" d="M3159.2318,253.3203 C3385.5339,273.0469 3725.4297,311.7839 3839.8438,373.2682 C4003.2161,461.0547 3976.3672,565.1432 4119.7917,682.7344 C4130.599,691.6016 4135.9203,695.8179 4147.9776,703.9038 " fill="none" id="Main-to-CVEFetcher" style="stroke:#181818;stroke-width:1.3020833333333333;"/><polygon fill="#181818" points="4154.4661,708.2552,4147.6343,697.4025,4149.0591,704.6291,4141.8325,706.0538,4154.4661,708.2552" style="stroke:#181818;stroke-width:1.3020833333333333;"/></g><!--link Main to User--><g id="link_Main_User"><path codeLine="125" d="M2731.1458,264.8958 C2599.3359,286.6146 2447.8906,321.9141 2406.25,373.2682 C2339.0755,456.1198 2353.6373,754.5071 2368.0253,924.3117 " fill="none" id="Main-to-User" style="stroke:#181818;stroke-width:1.3020833333333333;"/><polygon fill="#181818" points="2368.6849,932.0964,2372.8852,919.9797,2368.1352,925.6092,2362.5057,920.8592,2368.6849,932.0964" style="stroke:#181818;stroke-width:1.3020833333333333;"/></g><!--link MainFrame to User--><g id="link_MainFrame_User"><path codeLine="126" d="M2197.7604,683.1641 C2205.6641,691.4844 2213.151,700.0391 2220.0521,708.776 C2223.9453,713.7109 2278.161,828.9522 2323.174,925.1761 " fill="none" id="MainFrame-to-User" style="stroke:#181818;stroke-width:1.3020833333333333;"/><polygon fill="#181818" points="2326.4844,932.2526,2326.2365,919.431,2323.7258,926.3555,2316.8012,923.8448,2326.4844,932.2526" style="stroke:#181818;stroke-width:1.3020833333333333;"/></g><!--link MainFrame to CVEInfoFrame--><g id="link_MainFrame_CVEInfoFrame"><path codeLine="128" d="M2055.0781,683.2031 C2058.2161,699.7917 2059.7839,708.066 2062.3621,721.6858 " fill="none" id="MainFrame-to-CVEInfoFrame" style="stroke:#181818;stroke-width:1.3020833333333333;"/><polygon fill="#181818" points="2063.8151,729.362,2066.753,716.879,2062.6042,722.9652,2056.5181,718.8164,2063.8151,729.362" style="stroke:#181818;stroke-width:1.3020833333333333;"/></g><!--link MainFrame to UserSettings--><g id="link_MainFrame_UserSettings"><path codeLine="129" d="M1902.2917,683.2812 C1896.5885,691.6016 1891.3411,700.1172 1886.7188,708.776 C1803.0469,865.7161 1775.9461,1067.9934 1766.8054,1182.707 " fill="none" id="MainFrame-to-UserSettings" style="stroke:#181818;stroke-width:1.3020833333333333;stroke-dasharray:7.0,7.0;"/><polygon fill="#181818" points="1766.1849,1190.4948,1772.3076,1179.2268,1766.702,1184.0049,1761.9238,1178.3994,1766.1849,1190.4948" style="stroke:#181818;stroke-width:1.3020833333333333;"/></g><!--link MainFrame to UserFilters--><g id="link_MainFrame_UserFilters"><path codeLine="130" d="M1933.3333,683.2422 C1929.388,691.6146 1925.9375,700.1562 1923.1771,708.776 C1900.1432,780.7161 1882.8255,1119.4401 1924.4792,1164.8568 C1967.6823,1211.9531 2149.4401,1173.4505 2210.9375,1190.8984 C2218.3984,1193.0078 2218.5735,1192.8104 2226.0995,1195.5187 " fill="none" id="MainFrame-to-UserFilters" style="stroke:#181818;stroke-width:1.3020833333333333;stroke-dasharray:7.0,7.0;"/><polygon fill="#181818" points="2233.4505,1198.1641,2224.1876,1189.2954,2227.3247,1195.9596,2220.6604,1199.0967,2233.4505,1198.1641" style="stroke:#181818;stroke-width:1.3020833333333333;"/></g><!--link FiltersFrame to UserFilters--><g id="link_FiltersFrame_UserFilters"><path codeLine="131" d="M1500.9505,608.75 C1543.112,730.2865 1667.0833,1034.6745 1888.0208,1164.8568 C1950.0521,1201.3932 2141.5755,1171.6016 2210.9375,1190.8984 C2218.4115,1192.9687 2218.5874,1192.7791 2226.1135,1195.4484 " fill="none" id="FiltersFrame-to-UserFilters" style="stroke:#181818;stroke-width:1.3020833333333333;stroke-dasharray:7.0,7.0;"/><polygon fill="#181818" points="2233.4766,1198.0599,2224.1729,1189.2339,2227.3406,1195.8837,2220.6909,1199.0514,2233.4766,1198.0599" style="stroke:#181818;stroke-width:1.3020833333333333;"/></g><!--link AlertsFrame to UserAlerts--><g id="link_AlertsFrame_UserAlerts"><path codeLine="132" d="M1071.3281,608.7109 C1144.987,730.8333 1349.5964,1037.6302 1614.5833,1164.8568 C1744.388,1227.1745 1800.5078,1146.5495 1937.5,1190.8984 C1966.5625,1200.2995 1989.3763,1212.6196 2013.3868,1228.5571 " fill="none" id="AlertsFrame-to-UserAlerts" style="stroke:#181818;stroke-width:1.3020833333333333;stroke-dasharray:7.0,7.0;"/><polygon fill="#181818" points="2019.8958,1232.8776,2013.0126,1222.0574,2014.4716,1229.2771,2007.2519,1230.7362,2019.8958,1232.8776" style="stroke:#181818;stroke-width:1.3020833333333333;"/></g><!--link AlertNotificationDialog to UserSettings--><g id="link_AlertNotificationDialog_UserSettings"><path codeLine="133" d="M710.2474,609.0885 C789.3359,728.0078 1001.6146,1021.3672 1257.8125,1164.8568 C1365.7813,1225.3125 1496.3272,1251.3862 1600.7282,1263.3914 " fill="none" id="AlertNotificationDialog-to-UserSettings" style="stroke:#181818;stroke-width:1.3020833333333333;stroke-dasharray:7.0,7.0;"/><polygon fill="#181818" points="1608.4896,1264.2839,1597.4425,1257.7709,1602.0218,1263.5401,1596.2526,1268.1194,1608.4896,1264.2839" style="stroke:#181818;stroke-width:1.3020833333333333;"/></g><!--link SettingsFrame to UserSettings--><g id="link_SettingsFrame_UserSettings"><path codeLine="134" d="M334.3099,608.8151 C416.2109,729.8047 639.7917,1031.875 911.4583,1164.8568 C1030.8464,1223.2812 1389.78,1252.7822 1600.5742,1265.5686 " fill="none" id="SettingsFrame-to-UserSettings" style="stroke:#181818;stroke-width:1.3020833333333333;stroke-dasharray:7.0,7.0;"/><polygon fill="#181818" points="1608.3724,1266.0417,1596.9905,1260.1334,1601.8739,1265.6475,1596.3598,1270.5309,1608.3724,1266.0417" style="stroke:#181818;stroke-width:1.3020833333333333;"/></g><!--reverse link User to UserFilters--><g id="link_User_UserFilters"><path codeLine="135" d="M2378.6772,1180.8582 C2378.5731,1189.4259 2378.6719,1182.3568 2378.5677,1190.6641 " fill="none" id="User-backto-UserFilters" style="stroke:#181818;stroke-width:1.3020833333333333;"/><polygon fill="#181818" points="2378.8672,1165.2344,2373.5643,1172.983,2378.6772,1180.8582,2383.9802,1173.1096,2378.8672,1165.2344" style="stroke:#181818;stroke-width:1.3020833333333333;"/></g><!--reverse link User to UserAlerts--><g id="link_User_UserAlerts"><path codeLine="136" d="M2226.6985,1162.3365 C2188.1047,1190.5657 2161.1068,1210.3255 2130.3516,1232.8255 " fill="none" id="User-backto-UserAlerts" style="stroke:#181818;stroke-width:1.3020833333333333;"/><polygon fill="#181818" points="2239.3099,1153.112,2229.9293,1153.5204,2226.6985,1162.3365,2236.079,1161.9281,2239.3099,1153.112" style="stroke:#181818;stroke-width:1.3020833333333333;"/></g><!--reverse link User to UserSettings--><g id="link_User_UserSettings"><path codeLine="137" d="M2224.9194,1161.8806 C2217.3543,1165.4873 2223.8151,1162.0312 2216.1458,1164.8568 C2099.388,1207.7214 2057.474,1158.0599 1937.5,1190.8984 C1930.013,1192.9427 1922.4479,1195.2865 1914.8958,1197.8776 " fill="none" id="User-backto-UserSettings" style="stroke:#181818;stroke-width:1.3020833333333333;"/><polygon fill="#181818" points="2239.0234,1155.1562,2229.73,1153.8171,2224.9194,1161.8806,2234.2128,1163.2198,2239.0234,1155.1562" style="stroke:#181818;stroke-width:1.3020833333333333;"/></g><!--link CVEInfoFrame to CVE--><g id="link_CVEInfoFrame_CVE"><path codeLine="138" d="M2071.4193,814.2187 C2071.263,848.138 2071.0673,890.0131 2070.8459,934.8048 " fill="none" id="CVEInfoFrame-to-CVE" style="stroke:#181818;stroke-width:1.3020833333333333;"/><polygon fill="#181818" points="2070.8073,942.6172,2076.0735,930.9243,2070.8395,936.1069,2065.6569,930.8728,2070.8073,942.6172" style="stroke:#181818;stroke-width:1.3020833333333333;"/></g><!--link DatabaseService to CVE--><g id="link_DatabaseService_CVE"><path codeLine="139" d="M4558.4766,616.8229 C4600.8073,638.7891 4640.0781,668.5677 4665.3646,708.776 C4702.6042,767.9948 4714.7266,816.6146 4665.3646,866.1849 C4641.3802,890.2734 2248.3203,862.3698 2217.4479,876.6016 C2185.8073,891.1849 2163.4137,910.2967 2141.109,936.8202 " fill="none" id="DatabaseService-to-CVE" style="stroke:#181818;stroke-width:1.3020833333333333;stroke-dasharray:7.0,7.0;"/><polygon fill="#181818" points="2136.0807,942.7995,2147.6093,937.1827,2140.2709,937.8167,2139.6369,930.4784,2136.0807,942.7995" style="stroke:#181818;stroke-width:1.3020833333333333;"/></g><!--link DatabaseService to CVEFetcher--><g id="link_DatabaseService_CVEFetcher"><path codeLine="140" d="M4313.4635,651.4583 C4305.9635,670.651 4301.1005,683.1147 4294.1604,700.8621 " fill="none" id="DatabaseService-to-CVEFetcher" style="stroke:#181818;stroke-width:1.3020833333333333;"/><polygon fill="#181818" points="4291.3151,708.138,4300.4336,699.1209,4293.6862,702.0747,4290.7324,695.3272,4291.3151,708.138" style="stroke:#181818;stroke-width:1.3020833333333333;"/></g><!--link CVEFetcher to CVE--><g id="link_CVEFetcher_CVE"><path codeLine="141" d="M3891.4453,799.388 C3573.724,820.638 3106.2109,849.6615 2697.9167,866.1849 C2671.237,867.2656 2241.6016,865.2083 2217.4479,876.6016 C2186.1198,891.3802 2163.9074,910.385 2141.6548,936.7391 " fill="none" id="CVEFetcher-to-CVE" style="stroke:#181818;stroke-width:1.3020833333333333;stroke-dasharray:7.0,7.0;"/><polygon fill="#181818" points="2136.6146,942.7083,2148.1544,937.1147,2140.8148,937.734,2140.1954,930.3944,2136.6146,942.7083" style="stroke:#181818;stroke-width:1.3020833333333333;"/></g><!--link Main to Filters--><g id="link_Main_Filters"><path codeLine="142" d="M2945.3125,363.2682 C2945.3125,407.7344 2945.3125,447.9687 2945.3125,484.8177 " fill="none" id="Main-to-Filters" style="stroke:#181818;stroke-width:1.3020833333333333;"/><polygon fill="#181818" points="2945.3125,492.6302,2950.5208,480.9115,2945.3125,486.1198,2940.1042,480.9115,2945.3125,492.6302" style="stroke:#181818;stroke-width:1.3020833333333333;"/></g><!--link Filters to CVE--><g id="link_Filters_CVE"><path codeLine="143" d="M2855.0521,619.4661 C2743.1771,692.8776 2543.9714,811.862 2354.1667,866.1849 C2324.8698,874.5703 2244.6484,862.8646 2217.4479,876.6016 C2186.875,892.0443 2165.087,910.9364 2142.9646,936.952 " fill="none" id="Filters-to-CVE" style="stroke:#181818;stroke-width:1.3020833333333333;stroke-dasharray:7.0,7.0;"/><polygon fill="#181818" points="2137.9036,942.9036,2149.4628,937.3502,2142.1211,937.944,2141.5273,930.6022,2137.9036,942.9036" style="stroke:#181818;stroke-width:1.3020833333333333;"/></g><!--link APIUtils to CVEFetcher--><g id="link_APIUtils_CVEFetcher"><path codeLine="144" d="M3704.5833,597.9167 C3734.974,626.0286 3778.9583,661.9661 3824.2188,682.7344 C3845.7682,692.6172 3860.9931,698.904 3884.1572,706.6904 " fill="none" id="APIUtils-to-CVEFetcher" style="stroke:#181818;stroke-width:1.3020833333333333;stroke-dasharray:7.0,7.0;"/><polygon fill="#181818" points="3891.5625,709.1797,3882.114,700.5089,3885.3914,707.1053,3878.795,710.3827,3891.5625,709.1797" style="stroke:#181818;stroke-width:1.3020833333333333;"/></g><!--link NotificationService to User--><g id="link_NotificationService_User"><path codeLine="145" d="M4474.0104,278.4375 C4510.638,301.9661 4552.8125,334.5443 4580.7292,373.2682 C4712.0833,555.5208 4845.2344,701.237 4692.7083,866.1849 C4545.0651,1025.8464 3008.0859,1045.0696 2528.9322,1047.192 " fill="none" id="NotificationService-to-User" style="stroke:#181818;stroke-width:1.3020833333333333;stroke-dasharray:7.0,7.0;"/><polygon fill="#181818" points="2521.1198,1047.2266,2532.8615,1052.3829,2527.6301,1047.1977,2532.8154,1041.9664,2521.1198,1047.2266" style="stroke:#181818;stroke-width:1.3020833333333333;"/></g><!--link NotificationService to DatabaseService--><g id="link_NotificationService_DatabaseService"><path codeLine="146" d="M4393.3724,278.2422 C4386.224,324.1016 4375.5787,392.3329 4366.1126,453.036 " fill="none" id="NotificationService-to-DatabaseService" style="stroke:#181818;stroke-width:1.3020833333333333;"/><polygon fill="#181818" points="4364.9089,460.7552,4371.8606,449.9789,4365.912,454.3225,4361.5683,448.3739,4364.9089,460.7552" style="stroke:#181818;stroke-width:1.3020833333333333;"/></g><!--SRC=[bLVVR-Cs37xFNo7qoLsROZjWBy5GeEaF84DxFLnwUnaE1yLc72sAv4boRi7X_lTHjcpBijmaUKXYVXGfVgGeMc-PAAYYErBGT4jpU6E6mnrdkTY1C8J3sanqgvGLZFpsuNTFegZOQYZ8Xryd4sU2NAHoTxClkTX9mOnK5-J7P4BmatAgDNcXJA24kC_L3fyJgd8z8qkZcCZ__dhPeTfGPUwA8WbbztyzFe59DxWWOVg5YfBopy0bpMPa9IK7Ahmbga9mpGCrrBTLW5fBjLi2LUac-RS4TMZsuNlSoE-uU27MCadtiCX6T9uODw2Ua1b80kYEWp8w2Yt16BJL0t_MbBMSvYMxy5ZhgAmMUKXbjGMIL0gZ94VdiqhzcfJQ_l-2tvVzHGopTIztXHIOUfq4Q5barC0d9NC5Mi-fIlQKbp0ZJ9X0TSEodc80sv1zsC1_PiYdvnIPVwCh3fRwPwPHsNx_WUBRY6alJpE23n6L5_ICh2Qx-hTnVasCBV_kqU5lXo8QfmPJLzoyD4QAHs4tcILG_qRAy6UGFxVLQ0fzB19BQAgkF1qrvMFd50Gj2dvmYvDnrrvbXvxzeZ_NSRtscD-Fqh0rIwbXKZmmocKUtSDGRL2LT0_DGNp7QU-iXgxw1_cCWDzr7hQ2dSo03vi1baUmdodBo8miX84SL1_1WlfMeNMfzy4CTAfOORaQqT2m1yNCOGIcwpMa1Z8yvLcPcX6jebnnfZUGOKy6rB4_VLfoC0zWAED8oj18c1hBQyY0PNmnoe95XSrZV8E0LnCVspnw_2xL68NMiZivfCwuUnggrNNkjEg7eL9J74wjUHpGPS6g-vt8LxF7W3QfQ-18-jzLAkhaTonKJRlMl0tgLAIypE0pQCdtO3cTrwrp49-pTaw8ZjyV0rirS8wfDWi1NSBhBjfT0oD1JD6OUPOv4x6AdsPKRL_mV1ynKar0PV6-LbCFNMCPYpBiCBXeprBGqIPJJLs3atQrjk9d34ZRqKmdDawCP6btQkFiRbM7F8hCbryIxrgFc4Rn_B38Wl4B5_svVFtukle76qxGZ9jbrSZNd-oYliAC-tV6icOa35g3oAeoIhhMteuDmvacz61tjg8QHgpZ1I8mhDXDrOI5REZnSGWBe1rvn-cjjUBa8X16R0VbCrXruxU6kYoENMwbmMu_hBkxJuil5Wafsj4j87PFEKzAnVsj73dFySvtjQx4yyFhCkJsccZWrRNskZobQ9sXfUkLu-OQZHECzYQo4_RNoTnLF0HEyzua2zDLlRzDfxVTsqSd2Wgw0xg-qSdiOPbqhp0Z8liKYFpHs8DkRcxxb-CGQYxXthGSWluyss3kNXuREGUk-sFY0Av6bL-cqvxVdj0vxCdQvRtt1iV896mcrcbC7gJ3w-ZDYZP30LsjGdiQdQ2n5UkOJUnHC5Op_mC0]--></g></svg>